<svg id="string" xmlns="http://www.w3.org/2000/svg" viewBox="0 0 469 300"><defs><style>.cls-1{fill:#5a5a5a;}.cls-2{fill:#999;}</style></defs><title>data-structures-</title><path class="cls-1" d="M370.45,116.89H360.09v3h10.36a13.51,13.51,0,0,1,13.5,13.5v35.67a13.52,13.52,0,0,1-13.5,13.5H65.82a13.52,13.52,0,0,1-13.5-13.5V133.39a13.51,13.51,0,0,1,13.5-13.5H77.39v-3H65.82a16.52,16.52,0,0,0-16.5,16.5v35.67a16.52,16.52,0,0,0,16.5,16.5H370.45a16.52,16.52,0,0,0,16.5-16.5V133.39A16.52,16.52,0,0,0,370.45,116.89Z"/><rect class="cls-1" x="129.03" y="116.89" width="176.42" height="3"/><path class="cls-1" d="M83.65,122.27V108.9h2.22V114a4.77,4.77,0,0,1,1.19-.82,3.44,3.44,0,0,1,1.52-.32,3.3,3.3,0,0,1,1.34.26,2.63,2.63,0,0,1,1,.72,3.15,3.15,0,0,1,.59,1.1,4.6,4.6,0,0,1,.21,1.42v5.88H89.47v-5.88a2,2,0,0,0-.39-1.31,1.44,1.44,0,0,0-1.17-.46,2.33,2.33,0,0,0-1.08.26,3.73,3.73,0,0,0-1,.71v6.68Z"/><path class="cls-1" d="M97.7,112.89a4.43,4.43,0,0,1,1.61.28,3.6,3.6,0,0,1,1.26.81,3.86,3.86,0,0,1,.83,1.32,4.92,4.92,0,0,1,.3,1.78,2.37,2.37,0,0,1,0,.41.62.62,0,0,1-.08.27.34.34,0,0,1-.16.13.6.6,0,0,1-.25,0h-5.7a3.16,3.16,0,0,0,.76,2.09,2.41,2.41,0,0,0,1.77.67,3.16,3.16,0,0,0,.93-.13,4,4,0,0,0,.68-.28l.51-.28a.9.9,0,0,1,.43-.12.47.47,0,0,1,.24.05.59.59,0,0,1,.17.15l.64.81a3.77,3.77,0,0,1-.82.73,4.69,4.69,0,0,1-1,.46,5.07,5.07,0,0,1-1,.25,6.92,6.92,0,0,1-1,.07,4.78,4.78,0,0,1-1.79-.32,3.79,3.79,0,0,1-1.44-.94,4.5,4.5,0,0,1-1-1.55,6.08,6.08,0,0,1-.35-2.14,4.92,4.92,0,0,1,.31-1.77,4.18,4.18,0,0,1,.88-1.45,4.11,4.11,0,0,1,1.39-1A4.61,4.61,0,0,1,97.7,112.89Zm0,1.59a2.1,2.1,0,0,0-1.52.55,2.76,2.76,0,0,0-.7,1.56H99.7a2.64,2.64,0,0,0-.12-.81,2,2,0,0,0-.36-.68,1.73,1.73,0,0,0-.61-.45A2.14,2.14,0,0,0,97.74,114.48Z"/><path class="cls-1" d="M105.87,108.9v13.37h-2.22V108.9Z"/><path class="cls-1" d="M110.75,108.9v13.37h-2.22V108.9Z"/><path class="cls-1" d="M117.2,112.89a5.12,5.12,0,0,1,1.88.33,4.07,4.07,0,0,1,1.43,1,4.12,4.12,0,0,1,.92,1.49,5.62,5.62,0,0,1,.33,2,5.55,5.55,0,0,1-.33,2,4.2,4.2,0,0,1-.92,1.51,3.94,3.94,0,0,1-1.43.95,5.52,5.52,0,0,1-3.76,0,4.07,4.07,0,0,1-1.44-.95,4.37,4.37,0,0,1-.93-1.51,5.55,5.55,0,0,1-.33-2,5.62,5.62,0,0,1,.33-2,4.28,4.28,0,0,1,.93-1.49,4.21,4.21,0,0,1,1.44-1A5.15,5.15,0,0,1,117.2,112.89Zm0,7.8a2,2,0,0,0,1.71-.77,5,5,0,0,0,0-4.54,1.94,1.94,0,0,0-1.71-.79,2,2,0,0,0-1.73.79,5,5,0,0,0,0,4.54A2,2,0,0,0,117.2,120.69Z"/><path class="cls-1" d="M315.7,114.54a.61.61,0,0,1-.19.2.49.49,0,0,1-.25.06.79.79,0,0,1-.35-.09l-.43-.21a4.3,4.3,0,0,0-.55-.2,2.65,2.65,0,0,0-.73-.09,1.76,1.76,0,0,0-1,.28.88.88,0,0,0-.38.73.7.7,0,0,0,.2.5,2.08,2.08,0,0,0,.51.36,5.43,5.43,0,0,0,.72.27c.28.08.55.17.83.27a7.5,7.5,0,0,1,.83.32,3.26,3.26,0,0,1,.73.47,2.29,2.29,0,0,1,.51.68,2.16,2.16,0,0,1,.19,1,3.05,3.05,0,0,1-.24,1.22,2.74,2.74,0,0,1-.71,1,3.31,3.31,0,0,1-1.16.63,5.51,5.51,0,0,1-2.51.15,6.2,6.2,0,0,1-.87-.24,4.64,4.64,0,0,1-.78-.36,4.3,4.3,0,0,1-.62-.45l.51-.85a.75.75,0,0,1,.24-.23.68.68,0,0,1,.34-.08.71.71,0,0,1,.39.12l.43.25a3.87,3.87,0,0,0,.57.25,2.43,2.43,0,0,0,.83.12,2,2,0,0,0,.68-.1,1.48,1.48,0,0,0,.47-.24,1.14,1.14,0,0,0,.27-.36,1.2,1.2,0,0,0,.08-.42.75.75,0,0,0-.19-.53,1.66,1.66,0,0,0-.51-.36,5.59,5.59,0,0,0-.73-.27L312,118c-.28-.1-.56-.21-.84-.34a3,3,0,0,1-.73-.49,2.28,2.28,0,0,1-.51-.73,2.48,2.48,0,0,1-.19-1,2.59,2.59,0,0,1,.88-2,3.47,3.47,0,0,1,1.09-.61,5,5,0,0,1,3.25.09,3.73,3.73,0,0,1,1.3.83Z"/><path class="cls-1" d="M321.12,122.11a2.41,2.41,0,0,1-1.85-.68,2.59,2.59,0,0,1-.65-1.87V114.4h-.93a.43.43,0,0,1-.31-.12.42.42,0,0,1-.13-.35v-.88l1.48-.24.47-2.52a.43.43,0,0,1,.17-.28.47.47,0,0,1,.32-.1h1.16v2.91h2.43v1.58h-2.43v5a1,1,0,0,0,.21.67.75.75,0,0,0,.58.24.92.92,0,0,0,.35,0,1.33,1.33,0,0,0,.24-.1l.18-.1a.28.28,0,0,1,.17,0,.24.24,0,0,1,.16,0,.69.69,0,0,1,.13.15l.67,1.08a3.48,3.48,0,0,1-1.12.61A4.06,4.06,0,0,1,321.12,122.11Z"/><path class="cls-1" d="M325.05,122v-9.23h1.31a.72.72,0,0,1,.47.12.75.75,0,0,1,.18.43l.14,1.12a4.31,4.31,0,0,1,1.16-1.35,2.42,2.42,0,0,1,1.49-.49,1.94,1.94,0,0,1,1.14.31l-.29,1.67a.34.34,0,0,1-.12.22.36.36,0,0,1-.24.07,1.62,1.62,0,0,1-.37-.06,2.59,2.59,0,0,0-.62-.06,1.86,1.86,0,0,0-1.19.38,2.94,2.94,0,0,0-.84,1.12V122Z"/><path class="cls-1" d="M335.1,110.05a1.41,1.41,0,0,1-.11.54,1.71,1.71,0,0,1-.32.44,1.61,1.61,0,0,1-.45.3,1.47,1.47,0,0,1-.56.11,1.41,1.41,0,0,1-.54-.11,1.77,1.77,0,0,1-.45-.3,1.9,1.9,0,0,1-.3-.44,1.41,1.41,0,0,1-.11-.54,1.42,1.42,0,0,1,.41-1,1.37,1.37,0,0,1,.45-.3,1.25,1.25,0,0,1,.54-.12,1.31,1.31,0,0,1,.56.12,1.27,1.27,0,0,1,.45.3,1.36,1.36,0,0,1,.32.45A1.47,1.47,0,0,1,335.1,110.05Zm-.33,2.69V122h-2.22v-9.23Z"/><path class="cls-1" d="M337.28,122v-9.23h1.36a.54.54,0,0,1,.57.4l.15.73a4.78,4.78,0,0,1,.59-.52,4.53,4.53,0,0,1,.66-.41,3.4,3.4,0,0,1,.74-.26,3.85,3.85,0,0,1,.86-.09,3.3,3.3,0,0,1,1.34.26,2.63,2.63,0,0,1,1,.72,3.11,3.11,0,0,1,.59,1.11,4.49,4.49,0,0,1,.21,1.41V122H343.1v-5.88a2,2,0,0,0-.39-1.31,1.44,1.44,0,0,0-1.17-.46,2.33,2.33,0,0,0-1.08.26,4,4,0,0,0-1,.71V122Z"/><path class="cls-1" d="M350.71,112.57a4.39,4.39,0,0,1,1.11.13,4,4,0,0,1,1,.35h2.65v.83a.44.44,0,0,1-.1.32.67.67,0,0,1-.37.17l-.83.15a2.53,2.53,0,0,1,.14.49,3.31,3.31,0,0,1,.05.55,2.66,2.66,0,0,1-.28,1.24,2.74,2.74,0,0,1-.75.94,3.49,3.49,0,0,1-1.15.6,4.71,4.71,0,0,1-1.43.21,4.9,4.9,0,0,1-1-.1c-.29.18-.43.37-.43.59a.41.41,0,0,0,.26.41,2.06,2.06,0,0,0,.67.19,6.9,6.9,0,0,0,.95,0c.35,0,.72,0,1.09,0a8,8,0,0,1,1.09.16,3.16,3.16,0,0,1,.95.35,2,2,0,0,1,.67.67,2.06,2.06,0,0,1,.26,1.08,2.59,2.59,0,0,1-.3,1.19,3.24,3.24,0,0,1-.87,1,4.56,4.56,0,0,1-1.41.72,5.76,5.76,0,0,1-1.88.28,7.47,7.47,0,0,1-1.83-.2,4.36,4.36,0,0,1-1.28-.54,2.34,2.34,0,0,1-.76-.78,1.83,1.83,0,0,1-.26-.92,1.61,1.61,0,0,1,.4-1.09,2.68,2.68,0,0,1,1.1-.7,1.56,1.56,0,0,1-.55-.5,1.47,1.47,0,0,1-.21-.82,1.68,1.68,0,0,1,.07-.43,1.81,1.81,0,0,1,.22-.44,2.4,2.4,0,0,1,.38-.41,2.3,2.3,0,0,1,.53-.34,2.91,2.91,0,0,1-1.1-1,2.67,2.67,0,0,1-.4-1.48,2.82,2.82,0,0,1,.27-1.24,2.87,2.87,0,0,1,.76-.94,3.59,3.59,0,0,1,1.17-.6A4.81,4.81,0,0,1,350.71,112.57Zm2.44,9.79a.65.65,0,0,0-.16-.45,1,1,0,0,0-.45-.27,2.71,2.71,0,0,0-.65-.15,6.63,6.63,0,0,0-.79,0h-.86a3.44,3.44,0,0,1-.86-.1,1.91,1.91,0,0,0-.61.49,1,1,0,0,0-.23.65.93.93,0,0,0,.12.46,1,1,0,0,0,.39.36,2.29,2.29,0,0,0,.69.24,5,5,0,0,0,1,.09,5.41,5.41,0,0,0,1.07-.1,2.44,2.44,0,0,0,.74-.27,1.12,1.12,0,0,0,.43-.4A1,1,0,0,0,353.15,122.36Zm-2.44-5.23a2.27,2.27,0,0,0,.72-.11,1.62,1.62,0,0,0,.51-.31,1.5,1.5,0,0,0,.3-.48,1.74,1.74,0,0,0,.11-.61,1.47,1.47,0,0,0-.41-1.09,1.7,1.7,0,0,0-1.23-.4,1.67,1.67,0,0,0-1.23.4,1.47,1.47,0,0,0-.41,1.09,1.72,1.72,0,0,0,.1.6,1.21,1.21,0,0,0,.31.48,1.48,1.48,0,0,0,.51.32A2.27,2.27,0,0,0,350.71,117.13Z"/><path class="cls-2" d="M43.89,41.87h.57a1.49,1.49,0,0,0,.56-.09.94.94,0,0,0,.39-.3L49,36.93a1.35,1.35,0,0,1,.48-.4,1.56,1.56,0,0,1,.62-.11h2.09l-4.38,5.41a3.28,3.28,0,0,1-.4.42,1.57,1.57,0,0,1-.41.28,1.62,1.62,0,0,1,.54.31,2.81,2.81,0,0,1,.46.5l4.52,6.09H50.38a1.32,1.32,0,0,1-.64-.12,1.09,1.09,0,0,1-.36-.35L45.7,44.15a1.08,1.08,0,0,0-.41-.34,1.53,1.53,0,0,0-.63-.1h-.77v5.72H41.47v-13h2.42Z"/><path class="cls-2" d="M57.26,40.06a4.59,4.59,0,0,1,1.6.27,3.61,3.61,0,0,1,1.27.82A3.65,3.65,0,0,1,61,42.46a4.92,4.92,0,0,1,.3,1.78c0,.17,0,.31,0,.42a.73.73,0,0,1-.08.26.29.29,0,0,1-.16.13.62.62,0,0,1-.25.05H55a3.16,3.16,0,0,0,.77,2.08,2.35,2.35,0,0,0,1.76.67,2.86,2.86,0,0,0,.93-.13,3.67,3.67,0,0,0,.69-.28l.51-.27a.82.82,0,0,1,.43-.13.44.44,0,0,1,.4.21l.65.81a3.77,3.77,0,0,1-.83.72,4.27,4.27,0,0,1-1,.47,5.14,5.14,0,0,1-1,.25,8.87,8.87,0,0,1-1,.07,5,5,0,0,1-1.79-.32,4,4,0,0,1-1.44-1,4.29,4.29,0,0,1-1-1.54,6.12,6.12,0,0,1-.35-2.14,5.24,5.24,0,0,1,.3-1.78A4.44,4.44,0,0,1,54,41.39a4.13,4.13,0,0,1,1.4-1A4.61,4.61,0,0,1,57.26,40.06Zm0,1.59a2,2,0,0,0-1.52.55,2.64,2.64,0,0,0-.7,1.55h4.17a3,3,0,0,0-.11-.81,1.88,1.88,0,0,0-.36-.67,1.93,1.93,0,0,0-.62-.46A2.06,2.06,0,0,0,57.3,41.65Z"/><path class="cls-2" d="M66,52a.84.84,0,0,1-.26.36.77.77,0,0,1-.48.12H63.65l1.72-3.7L61.64,40.2h1.94a.6.6,0,0,1,.42.13.83.83,0,0,1,.21.28l2,4.79a2.84,2.84,0,0,1,.17.49c.05.17.09.33.13.5,0-.17.1-.34.16-.5l.18-.5,1.86-4.78a.52.52,0,0,1,.24-.29.61.61,0,0,1,.37-.12h1.78Z"/><path class="cls-2" d="M75.84,49.43V40.2H77.2a.54.54,0,0,1,.57.4l.15.73a5.78,5.78,0,0,1,.59-.52,4,4,0,0,1,.66-.4,3,3,0,0,1,.74-.26,3.34,3.34,0,0,1,.86-.09,3.3,3.3,0,0,1,1.34.25,2.63,2.63,0,0,1,1,.72,3.11,3.11,0,0,1,.59,1.11,4.55,4.55,0,0,1,.21,1.42v5.87H81.66V43.56a2,2,0,0,0-.39-1.31,1.44,1.44,0,0,0-1.17-.47A2.33,2.33,0,0,0,79,42a4.25,4.25,0,0,0-1,.71v6.68Z"/><path class="cls-2" d="M93.31,49.43h-1a1.1,1.1,0,0,1-.49-.09.57.57,0,0,1-.27-.38l-.2-.66c-.24.21-.47.39-.69.55a3.81,3.81,0,0,1-.7.4,3.76,3.76,0,0,1-.76.25,4.94,4.94,0,0,1-.9.08,3.71,3.71,0,0,1-1.08-.16,2.34,2.34,0,0,1-.85-.47,2.23,2.23,0,0,1-.56-.79,2.83,2.83,0,0,1-.2-1.09,2.22,2.22,0,0,1,.28-1,2.65,2.65,0,0,1,.91-.92,6.07,6.07,0,0,1,1.7-.68,10.94,10.94,0,0,1,2.64-.27v-.54a2.08,2.08,0,0,0-.39-1.39,1.43,1.43,0,0,0-1.14-.45,2.86,2.86,0,0,0-.9.13,3.71,3.71,0,0,0-.63.28l-.49.29a1,1,0,0,1-.49.12.65.65,0,0,1-.39-.12.87.87,0,0,1-.26-.28l-.4-.71A5.45,5.45,0,0,1,89.89,40a3.81,3.81,0,0,1,1.44.26,3.1,3.1,0,0,1,1.08.74,3.2,3.2,0,0,1,.67,1.13,4.44,4.44,0,0,1,.23,1.44ZM89,48.05a2.48,2.48,0,0,0,.63-.07,2.45,2.45,0,0,0,.54-.18,2.94,2.94,0,0,0,.5-.31,3.72,3.72,0,0,0,.48-.43V45.52a9.09,9.09,0,0,0-1.62.12,4.44,4.44,0,0,0-1,.31,1.42,1.42,0,0,0-.57.45,1.13,1.13,0,0,0,.18,1.39A1.53,1.53,0,0,0,89,48.05Z"/><path class="cls-2" d="M95.5,49.43V40.2h1.35a.54.54,0,0,1,.57.4l.15.69a5.9,5.9,0,0,1,.5-.5,3,3,0,0,1,.57-.38,2.85,2.85,0,0,1,.65-.26,3,3,0,0,1,.76-.09,2.15,2.15,0,0,1,1.44.47,2.88,2.88,0,0,1,.84,1.25,2.58,2.58,0,0,1,.54-.78,2.84,2.84,0,0,1,.71-.54,3.38,3.38,0,0,1,.82-.31,4.31,4.31,0,0,1,.88-.09,3.63,3.63,0,0,1,1.36.23,2.69,2.69,0,0,1,1,.68,3,3,0,0,1,.61,1.1,4.82,4.82,0,0,1,.22,1.49v5.87h-2.23V43.56a2,2,0,0,0-.39-1.33,1.39,1.39,0,0,0-1.13-.45,1.61,1.61,0,0,0-.63.12,1.46,1.46,0,0,0-.86.89,2,2,0,0,0-.13.77v5.87h-2.23V43.56a2.05,2.05,0,0,0-.37-1.35,1.38,1.38,0,0,0-1.11-.43,1.78,1.78,0,0,0-.89.24,3.14,3.14,0,0,0-.78.65v6.76Z"/><path class="cls-2" d="M114.47,40.06a4.59,4.59,0,0,1,1.6.27,3.61,3.61,0,0,1,1.27.82,3.81,3.81,0,0,1,.83,1.31,4.92,4.92,0,0,1,.29,1.78,2.56,2.56,0,0,1,0,.42.57.57,0,0,1-.08.26.29.29,0,0,1-.16.13.58.58,0,0,1-.25.05h-5.7a3.15,3.15,0,0,0,.76,2.08,2.35,2.35,0,0,0,1.76.67,3,3,0,0,0,.94-.13,3.57,3.57,0,0,0,.68-.28l.51-.27a.82.82,0,0,1,.43-.13.52.52,0,0,1,.23.05.55.55,0,0,1,.18.16l.64.81a3.56,3.56,0,0,1-.83.72,4.42,4.42,0,0,1-1,.47,5.42,5.42,0,0,1-1,.25,8.86,8.86,0,0,1-1,.07,5,5,0,0,1-1.79-.32,3.93,3.93,0,0,1-1.45-1,4.58,4.58,0,0,1-1-1.54,6.12,6.12,0,0,1-.35-2.14,5,5,0,0,1,.31-1.78,4,4,0,0,1,2.27-2.42A4.61,4.61,0,0,1,114.47,40.06Zm0,1.59a2.06,2.06,0,0,0-1.52.55,2.7,2.7,0,0,0-.7,1.55h4.18a2.69,2.69,0,0,0-.12-.81,1.78,1.78,0,0,0-1-1.13A2.14,2.14,0,0,0,114.51,41.65Z"/><path class="cls-2" d="M65.78,242.09h2a.84.84,0,0,1,.52.15,1,1,0,0,1,.29.4l3.06,7.94c.11.26.2.54.3.85s.18.63.26,1a10.72,10.72,0,0,1,.52-1.82l3-7.94a.92.92,0,0,1,.29-.38.77.77,0,0,1,.51-.17h2l-5.25,13H71Z"/><path class="cls-2" d="M85.84,255.1h-1a1.1,1.1,0,0,1-.49-.09.6.6,0,0,1-.27-.38l-.2-.66a5.53,5.53,0,0,1-.69.55,3.73,3.73,0,0,1-.69.4,4.08,4.08,0,0,1-.77.25,4.94,4.94,0,0,1-.9.08,3.4,3.4,0,0,1-1.08-.16,2.27,2.27,0,0,1-.85-.47,2.12,2.12,0,0,1-.55-.79,2.65,2.65,0,0,1-.2-1.09,2.21,2.21,0,0,1,.27-1,2.69,2.69,0,0,1,.92-.92,5.82,5.82,0,0,1,1.7-.68,10.79,10.79,0,0,1,2.63-.27v-.54a2.08,2.08,0,0,0-.39-1.39,1.42,1.42,0,0,0-1.14-.44,2.88,2.88,0,0,0-.9.12,4.56,4.56,0,0,0-.62.28l-.49.29a1.06,1.06,0,0,1-.5.12.66.66,0,0,1-.38-.11,1.06,1.06,0,0,1-.27-.29l-.4-.71a5.49,5.49,0,0,1,3.84-1.46,3.9,3.9,0,0,1,1.45.26,3.15,3.15,0,0,1,1.07.74,3.06,3.06,0,0,1,.67,1.13,4.18,4.18,0,0,1,.23,1.44Zm-4.32-1.38a3.06,3.06,0,0,0,.63-.06,2.55,2.55,0,0,0,.55-.19,2.8,2.8,0,0,0,.49-.3,6.2,6.2,0,0,0,.48-.43v-1.55a9.17,9.17,0,0,0-1.62.12,4.59,4.59,0,0,0-1,.31,1.39,1.39,0,0,0-.56.45,1,1,0,0,0-.17.55,1,1,0,0,0,.35.84A1.48,1.48,0,0,0,81.52,253.72Z"/><path class="cls-2" d="M90.4,241.73V255.1H88.17V241.73Z"/><path class="cls-2" d="M94.94,245.87v5.87a2,2,0,0,0,.39,1.31,1.46,1.46,0,0,0,1.18.46,2.27,2.27,0,0,0,1.08-.26,3.81,3.81,0,0,0,1-.7v-6.68h2.23v9.23H99.41a.54.54,0,0,1-.57-.4l-.15-.74a7.34,7.34,0,0,1-.6.53,3.34,3.34,0,0,1-.65.4,3.49,3.49,0,0,1-.75.26,3.33,3.33,0,0,1-.86.1A3.25,3.25,0,0,1,94.5,255a2.63,2.63,0,0,1-1-.72,3.39,3.39,0,0,1-.6-1.11,4.92,4.92,0,0,1-.2-1.42v-5.87Z"/><path class="cls-2" d="M107,245.73a4.37,4.37,0,0,1,1.6.28,3.45,3.45,0,0,1,1.27.81,3.91,3.91,0,0,1,.83,1.31,5.19,5.19,0,0,1,.29,1.78,2.56,2.56,0,0,1,0,.42.57.57,0,0,1-.08.26.36.36,0,0,1-.16.14.82.82,0,0,1-.25,0h-5.71a3.21,3.21,0,0,0,.77,2.08,2.35,2.35,0,0,0,1.76.67,2.86,2.86,0,0,0,.93-.13,4.14,4.14,0,0,0,.69-.27l.51-.28a.82.82,0,0,1,.43-.13.52.52,0,0,1,.23,0,.44.44,0,0,1,.17.16l.65.81a3.34,3.34,0,0,1-.83.72,4.42,4.42,0,0,1-1,.47,5.42,5.42,0,0,1-1,.25,7.05,7.05,0,0,1-1,.07,5,5,0,0,1-1.79-.32,4.09,4.09,0,0,1-1.44-.94,4.57,4.57,0,0,1-1-1.55,6.12,6.12,0,0,1-.35-2.14,5,5,0,0,1,.31-1.78,4.25,4.25,0,0,1,.87-1.45,4.13,4.13,0,0,1,1.4-1A4.61,4.61,0,0,1,107,245.73Zm0,1.59a2,2,0,0,0-1.52.55,2.7,2.7,0,0,0-.7,1.56H109a2.76,2.76,0,0,0-.12-.82,2,2,0,0,0-.36-.67,1.73,1.73,0,0,0-.61-.45A2.14,2.14,0,0,0,107,247.32Z"/><path class="cls-2" d="M121.72,247.67a.61.61,0,0,1-.19.2.49.49,0,0,1-.25.06.79.79,0,0,1-.35-.09l-.43-.2a3.52,3.52,0,0,0-.55-.2,2.68,2.68,0,0,0-.74-.09,1.68,1.68,0,0,0-1,.28.85.85,0,0,0-.38.72.72.72,0,0,0,.19.5,1.6,1.6,0,0,0,.52.36,5,5,0,0,0,.72.27l.83.27c.28.1.56.21.83.33a2.71,2.71,0,0,1,.72.47,2.06,2.06,0,0,1,.52.68,2.26,2.26,0,0,1,.19,1,3.14,3.14,0,0,1-.24,1.23,2.83,2.83,0,0,1-.71,1,3.42,3.42,0,0,1-1.16.64,5.1,5.1,0,0,1-1.58.23,4.73,4.73,0,0,1-.93-.09,4.4,4.4,0,0,1-.88-.24,4.93,4.93,0,0,1-.77-.36,2.9,2.9,0,0,1-.62-.45l.51-.84a.63.63,0,0,1,.23-.23.62.62,0,0,1,.34-.09.75.75,0,0,1,.4.12l.42.25a5.09,5.09,0,0,0,.57.26,2.8,2.8,0,0,0,.84.11,2.29,2.29,0,0,0,.68-.09,1.53,1.53,0,0,0,.46-.25.78.78,0,0,0,.27-.36,1,1,0,0,0,.09-.41.76.76,0,0,0-.19-.54,2,2,0,0,0-.52-.36,4.68,4.68,0,0,0-.73-.27l-.83-.27a6.1,6.1,0,0,1-.84-.33,3.11,3.11,0,0,1-.73-.49,2.28,2.28,0,0,1-.51-.73,2.56,2.56,0,0,1-.19-1.05,2.71,2.71,0,0,1,.22-1.08,2.5,2.5,0,0,1,.66-.89,3.19,3.19,0,0,1,1.09-.61,4.4,4.4,0,0,1,1.51-.23,4.68,4.68,0,0,1,1.74.31,4,4,0,0,1,1.3.83Z"/><path class="cls-2" d="M127.13,255.25a2.44,2.44,0,0,1-1.84-.68,2.62,2.62,0,0,1-.65-1.88v-5.15h-.93a.43.43,0,0,1-.31-.12.45.45,0,0,1-.14-.35v-.88l1.49-.25.47-2.52a.46.46,0,0,1,.16-.28.59.59,0,0,1,.33-.1h1.15V246h2.43v1.59h-2.43v5a1,1,0,0,0,.22.67.72.72,0,0,0,.58.25,1.11,1.11,0,0,0,.34-.05,1.17,1.17,0,0,0,.25-.11l.18-.1a.33.33,0,0,1,.16,0,.25.25,0,0,1,.16,0,.51.51,0,0,1,.14.15l.67,1.08a3.48,3.48,0,0,1-1.12.61A4.13,4.13,0,0,1,127.13,255.25Z"/><path class="cls-2" d="M135,245.73a5.15,5.15,0,0,1,1.88.33,4,4,0,0,1,1.43.94,4.21,4.21,0,0,1,.92,1.5,5.58,5.58,0,0,1,.32,2,5.64,5.64,0,0,1-.32,2,4.21,4.21,0,0,1-.92,1.5,4,4,0,0,1-1.43,1,5.52,5.52,0,0,1-3.76,0,4,4,0,0,1-1.45-1,4.21,4.21,0,0,1-.92-1.5,5.63,5.63,0,0,1-.33-2,5.58,5.58,0,0,1,.33-2,4.21,4.21,0,0,1,.92-1.5,4.13,4.13,0,0,1,1.45-.94A5.12,5.12,0,0,1,135,245.73Zm0,7.8a2,2,0,0,0,1.71-.77,5,5,0,0,0,0-4.55,2,2,0,0,0-1.71-.78,2,2,0,0,0-1.73.78,4,4,0,0,0-.56,2.28,3.86,3.86,0,0,0,.56,2.26A2,2,0,0,0,135,253.53Z"/><path class="cls-2" d="M141.3,255.1v-9.23h1.3a.67.67,0,0,1,.48.13.69.69,0,0,1,.18.43l.14,1.11a4.31,4.31,0,0,1,1.16-1.35,2.49,2.49,0,0,1,1.49-.49,1.94,1.94,0,0,1,1.14.31l-.29,1.67a.36.36,0,0,1-.12.23.43.43,0,0,1-.24.07,1.23,1.23,0,0,1-.37-.07,2.59,2.59,0,0,0-.62-.06,1.92,1.92,0,0,0-1.19.38,3,3,0,0,0-.84,1.12v5.75Z"/><path class="cls-2" d="M152.47,245.73a4.43,4.43,0,0,1,1.61.28,3.41,3.41,0,0,1,1.26.81,3.91,3.91,0,0,1,.83,1.31,5,5,0,0,1,.3,1.78,2.42,2.42,0,0,1,0,.42.57.57,0,0,1-.08.26.36.36,0,0,1-.16.14.82.82,0,0,1-.25,0h-5.7a3.15,3.15,0,0,0,.76,2.08,2.37,2.37,0,0,0,1.76.67,2.88,2.88,0,0,0,.94-.13,4,4,0,0,0,.68-.27l.51-.28a.82.82,0,0,1,.43-.13.52.52,0,0,1,.23,0,.55.55,0,0,1,.18.16l.64.81a3.48,3.48,0,0,1-.82.72,4.74,4.74,0,0,1-1,.47,5.07,5.07,0,0,1-1,.25,6.92,6.92,0,0,1-1,.07,5,5,0,0,1-1.79-.32,3.91,3.91,0,0,1-1.44-.94,4.59,4.59,0,0,1-1-1.55,6.12,6.12,0,0,1-.35-2.14,5,5,0,0,1,.31-1.78,4.1,4.1,0,0,1,2.27-2.42A4.61,4.61,0,0,1,152.47,245.73Zm0,1.59a2.06,2.06,0,0,0-1.52.55,2.7,2.7,0,0,0-.7,1.56h4.18a2.76,2.76,0,0,0-.12-.82,2,2,0,0,0-.36-.67,1.73,1.73,0,0,0-.61-.45A2.14,2.14,0,0,0,152.51,247.32Z"/><path class="cls-2" d="M164.77,255.1a.54.54,0,0,1-.57-.4l-.18-.89a5.45,5.45,0,0,1-.6.58,3.8,3.8,0,0,1-1.46.75,3.73,3.73,0,0,1-.91.1,3,3,0,0,1-1.38-.32,3.15,3.15,0,0,1-1.09-.91,4.52,4.52,0,0,1-.7-1.48,7.7,7.7,0,0,1-.25-2,6.46,6.46,0,0,1,.28-1.9,4.83,4.83,0,0,1,.8-1.53,3.76,3.76,0,0,1,1.26-1,3.62,3.62,0,0,1,1.63-.36,3.16,3.16,0,0,1,1.33.25,3.38,3.38,0,0,1,1,.66v-4.88h2.22V255.1Zm-3-1.62a2.29,2.29,0,0,0,1.18-.29,3.65,3.65,0,0,0,.92-.82v-4.14a2.17,2.17,0,0,0-.83-.65,2.48,2.48,0,0,0-1-.19,2.26,2.26,0,0,0-.92.19,1.89,1.89,0,0,0-.69.57,2.8,2.8,0,0,0-.44,1,5.75,5.75,0,0,0-.15,1.39,6.1,6.1,0,0,0,.13,1.38,2.9,2.9,0,0,0,.37.92,1.54,1.54,0,0,0,.6.51A1.94,1.94,0,0,0,161.81,253.48Z"/><path class="cls-2" d="M321.9,36.42v2H318v11h-2.42v-11h-3.94v-2Z"/><path class="cls-2" d="M325,52a.68.68,0,0,1-.74.48h-1.65l1.73-3.7-3.74-8.55h1.94a.6.6,0,0,1,.42.13.71.71,0,0,1,.21.28l2,4.79c.06.16.12.32.17.49s.09.33.12.5c0-.17.1-.34.16-.5l.18-.5,1.86-4.78a.62.62,0,0,1,.24-.29.61.61,0,0,1,.37-.12H330Z"/><path class="cls-2" d="M331.3,52.45V40.2h1.36a.66.66,0,0,1,.37.1.45.45,0,0,1,.19.3l.18.86a4.76,4.76,0,0,1,1.29-1,3.51,3.51,0,0,1,1.69-.39,3,3,0,0,1,1.38.31,3.06,3.06,0,0,1,1.08.92,4.38,4.38,0,0,1,.71,1.47,7.69,7.69,0,0,1,.24,2,6.55,6.55,0,0,1-.27,1.92,4.83,4.83,0,0,1-.8,1.53,3.7,3.7,0,0,1-1.25,1,3.56,3.56,0,0,1-1.64.37,3.08,3.08,0,0,1-2.31-.9v3.78Zm4.32-10.67a2.2,2.2,0,0,0-1.18.3,3.18,3.18,0,0,0-.92.82V47a2.13,2.13,0,0,0,.82.65,2.57,2.57,0,0,0,1,.19,2.29,2.29,0,0,0,.92-.19,1.82,1.82,0,0,0,.69-.58,3,3,0,0,0,.44-1,5.63,5.63,0,0,0,.15-1.39,6,6,0,0,0-.13-1.37,2.74,2.74,0,0,0-.37-.91,1.42,1.42,0,0,0-.59-.51A1.86,1.86,0,0,0,335.62,41.78Z"/><path class="cls-2" d="M345.29,40.06a4.61,4.61,0,0,1,1.61.27,3.48,3.48,0,0,1,1.26.82,3.67,3.67,0,0,1,.83,1.31,4.92,4.92,0,0,1,.3,1.78c0,.17,0,.31,0,.42a1,1,0,0,1-.08.26.33.33,0,0,1-.16.13.62.62,0,0,1-.25.05h-5.71a3.21,3.21,0,0,0,.76,2.08,2.39,2.39,0,0,0,1.77.67,2.86,2.86,0,0,0,.93-.13,3.31,3.31,0,0,0,.68-.28l.52-.27a.82.82,0,0,1,.43-.13.56.56,0,0,1,.23.05.52.52,0,0,1,.17.16l.65.81a3.77,3.77,0,0,1-.83.72,4.74,4.74,0,0,1-1,.47,5.14,5.14,0,0,1-1,.25,8.87,8.87,0,0,1-1,.07,5,5,0,0,1-1.79-.32,4,4,0,0,1-1.44-1,4.29,4.29,0,0,1-1-1.54,5.89,5.89,0,0,1-.35-2.14,5.24,5.24,0,0,1,.3-1.78,4.44,4.44,0,0,1,.88-1.45,4.19,4.19,0,0,1,1.39-1A4.61,4.61,0,0,1,345.29,40.06Zm0,1.59a2,2,0,0,0-1.52.55,2.64,2.64,0,0,0-.7,1.55h4.17a2.69,2.69,0,0,0-.12-.81,1.61,1.61,0,0,0-.36-.67,1.79,1.79,0,0,0-.61-.46A2.06,2.06,0,0,0,345.34,41.65Z"/><path class="cls-2" d="M358.51,40.06a5.12,5.12,0,0,1,1.88.33,3.92,3.92,0,0,1,2.35,2.44,5.58,5.58,0,0,1,.33,2,5.63,5.63,0,0,1-.33,2,4.19,4.19,0,0,1-.91,1.5,3.94,3.94,0,0,1-1.44.95,5.37,5.37,0,0,1-3.76,0,3.94,3.94,0,0,1-1.44-.95,4.23,4.23,0,0,1-.93-1.5,5.63,5.63,0,0,1-.33-2,5.58,5.58,0,0,1,.33-2,4.23,4.23,0,0,1,.93-1.5,4.18,4.18,0,0,1,1.44-.94A5.15,5.15,0,0,1,358.51,40.06Zm0,7.8a2,2,0,0,0,1.71-.78,3.85,3.85,0,0,0,.55-2.26,3.92,3.92,0,0,0-.55-2.28,2.28,2.28,0,0,0-3.43,0,3.88,3.88,0,0,0-.56,2.28,3.79,3.79,0,0,0,.56,2.26A2,2,0,0,0,358.51,47.86Z"/><path class="cls-2" d="M365.2,49.43V41.87l-.8-.12a.9.9,0,0,1-.42-.18.5.5,0,0,1-.16-.38v-.91h1.38V39.6a4,4,0,0,1,.24-1.43,3.11,3.11,0,0,1,.68-1.07,3,3,0,0,1,1.09-.67,4,4,0,0,1,1.44-.24,3.85,3.85,0,0,1,1.19.18l0,1.11a.33.33,0,0,1-.24.33,2.06,2.06,0,0,1-.52.06,3,3,0,0,0-.71.08,1.26,1.26,0,0,0-.53.3,1.46,1.46,0,0,0-.33.56,3,3,0,0,0-.11.86v.61h2.4v1.58h-2.33v7.57Z"/><path class="cls-2" d="M379.21,49.43h-2l-3.67-9.23h1.84a.69.69,0,0,1,.41.12.55.55,0,0,1,.23.29l1.78,4.93c.1.29.19.58.26.85s.13.55.18.83c.06-.28.12-.55.19-.83a8.13,8.13,0,0,1,.26-.85l1.83-4.93a.58.58,0,0,1,.22-.29.65.65,0,0,1,.39-.12h1.76Z"/><path class="cls-2" d="M391.43,49.43h-1a1.15,1.15,0,0,1-.5-.09.6.6,0,0,1-.27-.38l-.2-.66a7.82,7.82,0,0,1-.68.55,3.81,3.81,0,0,1-.7.4,3.85,3.85,0,0,1-.77.25,4.94,4.94,0,0,1-.9.08,3.71,3.71,0,0,1-1.08-.16,2.42,2.42,0,0,1-.85-.47,2.34,2.34,0,0,1-.55-.79,2.83,2.83,0,0,1-.2-1.09,2.11,2.11,0,0,1,.28-1,2.56,2.56,0,0,1,.91-.92,5.82,5.82,0,0,1,1.7-.68,10.94,10.94,0,0,1,2.64-.27v-.54a2.08,2.08,0,0,0-.39-1.39,1.45,1.45,0,0,0-1.14-.45,2.86,2.86,0,0,0-.9.13,3.71,3.71,0,0,0-.63.28l-.49.29a1,1,0,0,1-.49.12.65.65,0,0,1-.39-.12.77.77,0,0,1-.26-.28l-.41-.71A5.47,5.47,0,0,1,388,40a3.81,3.81,0,0,1,1.44.26,3.3,3.3,0,0,1,1.08.74,3.36,3.36,0,0,1,.67,1.13,4.44,4.44,0,0,1,.23,1.44Zm-4.32-1.38a2.59,2.59,0,0,0,.63-.07,2.45,2.45,0,0,0,.54-.18,2.94,2.94,0,0,0,.5-.31,5.78,5.78,0,0,0,.48-.43V45.52a9.29,9.29,0,0,0-1.63.12,4.75,4.75,0,0,0-1.05.31,1.39,1.39,0,0,0-.56.45,1,1,0,0,0-.17.55,1,1,0,0,0,.35.84A1.49,1.49,0,0,0,387.11,48.05Z"/><path class="cls-2" d="M396,36.06V49.43h-2.22V36.06Z"/><path class="cls-2" d="M400.52,40.2v5.87a2,2,0,0,0,.4,1.31,1.44,1.44,0,0,0,1.17.46,2.39,2.39,0,0,0,1.08-.26,3.64,3.64,0,0,0,.95-.7V40.2h2.23v9.23H405a.54.54,0,0,1-.57-.4l-.15-.74a6,6,0,0,1-.6.53,3.34,3.34,0,0,1-.65.4,3.6,3.6,0,0,1-.74.26,3.44,3.44,0,0,1-.86.1,3.3,3.3,0,0,1-1.34-.26,2.72,2.72,0,0,1-1-.72,3.44,3.44,0,0,1-.6-1.12,4.8,4.8,0,0,1-.2-1.41V40.2Z"/><path class="cls-2" d="M412.54,40.06a4.65,4.65,0,0,1,1.61.27,3.48,3.48,0,0,1,1.26.82,3.81,3.81,0,0,1,.83,1.31,4.92,4.92,0,0,1,.3,1.78,2.42,2.42,0,0,1,0,.42.57.57,0,0,1-.08.26.31.31,0,0,1-.15.13.67.67,0,0,1-.26.05h-5.7a3.15,3.15,0,0,0,.76,2.08,2.37,2.37,0,0,0,1.77.67,2.86,2.86,0,0,0,.93-.13,3.31,3.31,0,0,0,.68-.28l.51-.27a.82.82,0,0,1,.43-.13.6.6,0,0,1,.24.05.64.64,0,0,1,.17.16l.65.81a4,4,0,0,1-.83.72,4.74,4.74,0,0,1-1,.47,5.07,5.07,0,0,1-1,.25,8.7,8.7,0,0,1-1,.07,5,5,0,0,1-1.79-.32,3.89,3.89,0,0,1-1.44-1,4.45,4.45,0,0,1-1-1.54,6.12,6.12,0,0,1-.35-2.14,5.24,5.24,0,0,1,.31-1.78,4.28,4.28,0,0,1,.88-1.45,4.09,4.09,0,0,1,1.39-1A4.61,4.61,0,0,1,412.54,40.06Zm0,1.59a2.06,2.06,0,0,0-1.52.55,2.7,2.7,0,0,0-.7,1.55h4.18a2.69,2.69,0,0,0-.12-.81,1.88,1.88,0,0,0-.36-.67,1.79,1.79,0,0,0-.61-.46A2.11,2.11,0,0,0,412.58,41.65Z"/><path class="cls-1" d="M81.33,158.41H83.1a.82.82,0,0,1,.42.11.52.52,0,0,1,.21.3l1.33,4.93c.07.27.13.54.17.8s.09.51.13.77c.07-.26.14-.52.22-.77s.15-.53.23-.8l1.53-4.95a.53.53,0,0,1,.22-.29.62.62,0,0,1,.38-.12h1a.63.63,0,0,1,.4.12.53.53,0,0,1,.22.29l1.51,5c.08.26.15.51.21.76s.13.48.19.73c0-.26.09-.52.14-.78s.11-.52.19-.8l1.37-4.93a.52.52,0,0,1,.21-.3.77.77,0,0,1,.4-.11h1.68l-2.92,9.23H90.73q-.28,0-.42-.39l-1.66-5.34a4.61,4.61,0,0,1-.15-.53c0-.17-.08-.35-.11-.52l-.12.53c0,.18-.09.36-.14.54l-1.69,5.32a.48.48,0,0,1-.48.39h-1.7Z"/><path class="cls-1" d="M100.64,158.26a5.06,5.06,0,0,1,1.87.34,4,4,0,0,1,1.44.94,4.36,4.36,0,0,1,.92,1.5,5.77,5.77,0,0,1,.32,2,5.87,5.87,0,0,1-.32,2,4.36,4.36,0,0,1-.92,1.5,4.07,4.07,0,0,1-1.44.95,4.87,4.87,0,0,1-1.87.34,4.92,4.92,0,0,1-1.88-.34,4,4,0,0,1-1.45-.95,4.23,4.23,0,0,1-.93-1.5,5.64,5.64,0,0,1-.32-2,5.54,5.54,0,0,1,.32-2,4.23,4.23,0,0,1,.93-1.5,4,4,0,0,1,1.45-.94A5.12,5.12,0,0,1,100.64,158.26Zm0,7.81a2,2,0,0,0,1.7-.78,3.86,3.86,0,0,0,.56-2.27,3.9,3.9,0,0,0-.56-2.27,2,2,0,0,0-1.7-.79,2,2,0,0,0-1.73.79,3.94,3.94,0,0,0-.56,2.27,3.9,3.9,0,0,0,.56,2.27A2,2,0,0,0,100.64,166.07Z"/><path class="cls-1" d="M106.93,167.64v-9.23h1.3a.73.73,0,0,1,.48.12.75.75,0,0,1,.18.44l.13,1.11a4.33,4.33,0,0,1,1.17-1.35,2.42,2.42,0,0,1,1.49-.49,1.91,1.91,0,0,1,1.13.31l-.28,1.67a.36.36,0,0,1-.12.23.43.43,0,0,1-.24.06,1.55,1.55,0,0,1-.37-.06,2.65,2.65,0,0,0-.62-.06,1.9,1.9,0,0,0-1.19.38,3,3,0,0,0-.84,1.12v5.75Z"/><path class="cls-1" d="M116.65,154.27v13.37h-2.23V154.27Z"/><path class="cls-1" d="M125.66,167.64a.54.54,0,0,1-.57-.4l-.18-.89a5.45,5.45,0,0,1-.6.58,4.45,4.45,0,0,1-.68.45,3.55,3.55,0,0,1-.79.29,3.7,3.7,0,0,1-.9.11,3.09,3.09,0,0,1-1.39-.32,3,3,0,0,1-1.08-.91,4.33,4.33,0,0,1-.7-1.48,7.3,7.3,0,0,1-.25-2,6.21,6.21,0,0,1,.28-1.91,4.65,4.65,0,0,1,.8-1.53,3.7,3.7,0,0,1,1.25-1,3.66,3.66,0,0,1,1.64-.36,3.28,3.28,0,0,1,1.32.24,3.48,3.48,0,0,1,1,.67v-4.88H127v13.37Zm-3-1.63a2.16,2.16,0,0,0,1.17-.29,3.44,3.44,0,0,0,.92-.81v-4.14a2.06,2.06,0,0,0-.82-.65,2.38,2.38,0,0,0-1-.19,2.06,2.06,0,0,0-.91.19,1.67,1.67,0,0,0-.7.57,2.71,2.71,0,0,0-.43,1,5.65,5.65,0,0,0-.16,1.39,6.56,6.56,0,0,0,.13,1.37,2.71,2.71,0,0,0,.38.92,1.46,1.46,0,0,0,.59.52A2,2,0,0,0,122.7,166Z"/><path class="cls-2" d="M99.73,92.28c0-5.22-1-10.92-8.35-13.55C78.23,74,80,60.77,80,60.63l2,.29c-.07.48-1.5,11.79,10.09,15.93,8.58,3.06,9.68,9.85,9.68,15.43Z"/><polygon class="cls-2" points="97.97 90.27 100.37 100.78 103.55 90.48 97.97 90.27"/><path class="cls-2" d="M119,234.92l-2-.23c0-.15,1.7-15.25-6.61-19.28-7.22-3.5-8.22-10.22-8.29-15.67l2,0c.06,5.19,1,10.89,7.17,13.9C120.85,218.26,119.06,234.25,119,234.92Z"/><polygon class="cls-2" points="105.88 201.69 103.33 191.22 100.3 201.56 105.88 201.69"/><path class="cls-2" d="M332.85,92.34l-2-.13c.35-5.14,2.18-12.33,14-15.39,18.7-4.81,18.36-16.18,18.35-16.29l2-.1c0,.53.41,13.11-19.85,18.33C334.9,81.46,333.18,87.44,332.85,92.34Z"/><polygon class="cls-2" points="329.13 90.39 331.99 100.78 334.71 90.35 329.13 90.39"/></svg>