<svg id="string" xmlns="http://www.w3.org/2000/svg" viewBox="0 0 469 300"><defs><style>.cls-1{fill:#5a5a5a;}.cls-2{fill:#999;}</style></defs><title>data-structures-</title><path class="cls-1" d="M389.08,109H371.72v3h17.36a13.52,13.52,0,0,1,13.5,13.5V213a13.52,13.52,0,0,1-13.5,13.5H71.49A13.51,13.51,0,0,1,58,213V125.45A13.51,13.51,0,0,1,71.49,112H83.06v-3H71.49A16.52,16.52,0,0,0,55,125.45V213a16.52,16.52,0,0,0,16.5,16.5H389.08a16.52,16.52,0,0,0,16.5-16.5V125.45A16.52,16.52,0,0,0,389.08,109Z"/><rect class="cls-1" x="157.7" y="108.95" width="171.38" height="3"/><path class="cls-1" d="M91.87,112.33h5.21v2H89.44v-13h2.43Z"/><path class="cls-1" d="M101.33,102.41a1.25,1.25,0,0,1-.12.54,1.52,1.52,0,0,1-.31.44,1.66,1.66,0,0,1-.46.3,1.46,1.46,0,0,1-.55.11,1.42,1.42,0,0,1-.55-.11,1.77,1.77,0,0,1-.45-.3,1.71,1.71,0,0,1-.3-.44,1.41,1.41,0,0,1-.11-.54,1.42,1.42,0,0,1,.41-1,1.37,1.37,0,0,1,.45-.3,1.26,1.26,0,0,1,.55-.12,1.3,1.3,0,0,1,.55.12,1.31,1.31,0,0,1,.46.3,1.34,1.34,0,0,1,.31.45A1.31,1.31,0,0,1,101.33,102.41ZM101,105.1v9.23H98.77V105.1Z"/><path class="cls-1" d="M109,106.9a.61.61,0,0,1-.19.2.46.46,0,0,1-.25.06.79.79,0,0,1-.34-.09l-.43-.2a3.51,3.51,0,0,0-.55-.21,2.73,2.73,0,0,0-.74-.09,1.73,1.73,0,0,0-1,.28.85.85,0,0,0-.38.73.68.68,0,0,0,.19.5,1.76,1.76,0,0,0,.52.36,5,5,0,0,0,.72.27l.83.27a6.52,6.52,0,0,1,.83.33,2.68,2.68,0,0,1,.72.46,2.29,2.29,0,0,1,.51.68,2.16,2.16,0,0,1,.2,1,3,3,0,0,1-.25,1.23,2.8,2.8,0,0,1-.71,1,3.44,3.44,0,0,1-1.15.64,5.1,5.1,0,0,1-1.58.23,4.73,4.73,0,0,1-.93-.09,6,6,0,0,1-.88-.24,4.54,4.54,0,0,1-.77-.36,3.91,3.91,0,0,1-.63-.45l.52-.84a.66.66,0,0,1,.23-.24.72.72,0,0,1,.73,0l.43.25a3.87,3.87,0,0,0,.57.25,2.47,2.47,0,0,0,.83.12,1.91,1.91,0,0,0,.68-.1,1.38,1.38,0,0,0,.47-.24.84.84,0,0,0,.27-.36,1,1,0,0,0,.09-.42.76.76,0,0,0-.2-.53,1.55,1.55,0,0,0-.51-.36,4.68,4.68,0,0,0-.73-.27l-.83-.27a6.15,6.15,0,0,1-.84-.34,2.6,2.6,0,0,1-.73-.49,2.17,2.17,0,0,1-.51-.73,2.47,2.47,0,0,1-.2-1,2.65,2.65,0,0,1,.23-1.08,2.62,2.62,0,0,1,.66-.9,3.45,3.45,0,0,1,1.09-.61,4.94,4.94,0,0,1,3.24.09,3.77,3.77,0,0,1,1.31.83Z"/><path class="cls-1" d="M114.4,114.48a2.42,2.42,0,0,1-1.84-.68,2.59,2.59,0,0,1-.65-1.88v-5.16H111a.42.42,0,0,1-.44-.47v-.88l1.49-.24.46-2.52a.48.48,0,0,1,.17-.28.52.52,0,0,1,.33-.1h1.15v2.91h2.43v1.58h-2.43v5a1,1,0,0,0,.22.67.72.72,0,0,0,.57.24,1.16,1.16,0,0,0,.35,0l.24-.11.19-.1a.33.33,0,0,1,.16-.05.25.25,0,0,1,.16.05.69.69,0,0,1,.14.15l.66,1.08a3.33,3.33,0,0,1-1.11.61A4.13,4.13,0,0,1,114.4,114.48Z"/><path class="cls-1" d="M124.06,101v7.66h.41a.68.68,0,0,0,.35-.07.79.79,0,0,0,.27-.23l2.3-2.84a1.65,1.65,0,0,1,.32-.28.88.88,0,0,1,.45-.1h2l-2.87,3.43c-.11.12-.21.24-.32.34a1.87,1.87,0,0,1-.35.28,1.4,1.4,0,0,1,.33.31c.1.12.19.25.29.39l3.08,4.48h-2a1,1,0,0,1-.44-.09.83.83,0,0,1-.32-.3l-2.35-3.51a.86.86,0,0,0-.27-.27,1.07,1.07,0,0,0-.41-.06h-.5v4.23h-2.22V101Z"/><path class="cls-1" d="M135,105a4.65,4.65,0,0,1,1.61.28,3.48,3.48,0,0,1,1.26.82,3.58,3.58,0,0,1,.83,1.31,4.92,4.92,0,0,1,.3,1.78,2.42,2.42,0,0,1,0,.42.61.61,0,0,1-.08.26.31.31,0,0,1-.15.13.65.65,0,0,1-.26,0h-5.7a3.16,3.16,0,0,0,.76,2.09,2.39,2.39,0,0,0,1.77.67,2.86,2.86,0,0,0,.93-.13,3.31,3.31,0,0,0,.68-.28l.52-.28a.87.87,0,0,1,.42-.12.6.6,0,0,1,.24,0,.8.8,0,0,1,.17.15l.65.81a4.07,4.07,0,0,1-.83.73,5.33,5.33,0,0,1-1,.47,5,5,0,0,1-1,.24,7,7,0,0,1-1,.08,5,5,0,0,1-1.79-.32,4.11,4.11,0,0,1-1.44-1,4.33,4.33,0,0,1-1-1.55,5.8,5.8,0,0,1-.36-2.13,5.2,5.2,0,0,1,.31-1.78,4.18,4.18,0,0,1,.88-1.45,4.11,4.11,0,0,1,1.39-1A4.61,4.61,0,0,1,135,105Zm.05,1.6a2,2,0,0,0-1.52.55,2.7,2.7,0,0,0-.71,1.55H137a2.69,2.69,0,0,0-.12-.81,1.88,1.88,0,0,0-.36-.67,1.67,1.67,0,0,0-.61-.46A2.1,2.1,0,0,0,135.06,106.55Z"/><path class="cls-1" d="M143.79,116.87a.89.89,0,0,1-.25.36.81.81,0,0,1-.48.12H141.4l1.73-3.7-3.74-8.55h2a.61.61,0,0,1,.41.12.86.86,0,0,1,.22.29l2,4.79a4,4,0,0,1,.17.49c0,.16.09.33.13.5,0-.17.1-.34.15-.5s.12-.33.19-.5l1.85-4.78a.64.64,0,0,1,.61-.41h1.79Z"/><path class="cls-1" d="M339.86,100.66V114h-2.22V100.66Z"/><path class="cls-1" d="M345.07,102.11a1.41,1.41,0,0,1-.11.54,1.55,1.55,0,0,1-.32.44,1.27,1.27,0,0,1-.45.3,1.3,1.3,0,0,1-.56.11,1.24,1.24,0,0,1-.54-.11,1.37,1.37,0,0,1-.45-.3,1.71,1.71,0,0,1-.3-.44,1.41,1.41,0,0,1-.11-.54,1.47,1.47,0,0,1,.11-.56,1.77,1.77,0,0,1,.3-.45,1.37,1.37,0,0,1,.45-.3,1.24,1.24,0,0,1,.54-.11,1.3,1.3,0,0,1,.56.11,1.27,1.27,0,0,1,.45.3,1.6,1.6,0,0,1,.32.45A1.47,1.47,0,0,1,345.07,102.11Zm-.33,2.69V114h-2.22V104.8Z"/><path class="cls-1" d="M352.73,106.6a.53.53,0,0,1-.19.2.46.46,0,0,1-.25.06.83.83,0,0,1-.35-.09l-.42-.2a3.65,3.65,0,0,0-.56-.2,2.65,2.65,0,0,0-.73-.09,1.78,1.78,0,0,0-1,.27.87.87,0,0,0-.37.73.68.68,0,0,0,.19.5,1.66,1.66,0,0,0,.51.36,5.59,5.59,0,0,0,.73.27l.83.27a6.38,6.38,0,0,1,.82.33,3.22,3.22,0,0,1,.73.46,2.29,2.29,0,0,1,.51.68,2.19,2.19,0,0,1,.19,1,3.14,3.14,0,0,1-.24,1.23,2.71,2.71,0,0,1-.71,1,3.49,3.49,0,0,1-1.16.64,5.06,5.06,0,0,1-1.58.23,4.88,4.88,0,0,1-.93-.09,6.2,6.2,0,0,1-.87-.24,4.2,4.2,0,0,1-.77-.36,3.38,3.38,0,0,1-.63-.45l.51-.84a.91.91,0,0,1,.24-.24.72.72,0,0,1,.73,0c.12.08.27.16.43.25a3,3,0,0,0,.57.25,2.47,2.47,0,0,0,.83.12,2.24,2.24,0,0,0,.68-.09,1.6,1.6,0,0,0,.47-.25,1,1,0,0,0,.27-.36,1,1,0,0,0,.08-.42.75.75,0,0,0-.19-.53,2.08,2.08,0,0,0-.51-.36,5.59,5.59,0,0,0-.73-.27l-.84-.27a6.52,6.52,0,0,1-.83-.33,2.7,2.7,0,0,1-.73-.5,2.12,2.12,0,0,1-.52-.72,2.56,2.56,0,0,1-.19-1,2.82,2.82,0,0,1,.22-1.08,2.41,2.41,0,0,1,.67-.89,3.28,3.28,0,0,1,1.09-.62,4.56,4.56,0,0,1,1.5-.22,4.61,4.61,0,0,1,1.74.31,3.87,3.87,0,0,1,1.3.83Z"/><path class="cls-1" d="M358.15,114.18a2.46,2.46,0,0,1-1.85-.68,2.63,2.63,0,0,1-.64-1.88v-5.16h-.94a.44.44,0,0,1-.31-.11.45.45,0,0,1-.13-.35v-.89l1.48-.24.47-2.52a.48.48,0,0,1,.17-.28.56.56,0,0,1,.33-.1h1.15v2.91h2.43v1.58h-2.43v5a1,1,0,0,0,.21.67.73.73,0,0,0,.58.25,1.18,1.18,0,0,0,.35,0l.24-.11.18-.1a.37.37,0,0,1,.17,0,.28.28,0,0,1,.16,0,.5.5,0,0,1,.13.15l.67,1.08a3.38,3.38,0,0,1-1.12.61A4.07,4.07,0,0,1,358.15,114.18Z"/><path class="cls-2" d="M49.56,33.94h.57a1.34,1.34,0,0,0,.56-.1.94.94,0,0,0,.39-.3L54.67,29a1.42,1.42,0,0,1,.47-.4,1.65,1.65,0,0,1,.63-.11h2.09l-4.39,5.41a3.26,3.26,0,0,1-.39.42,1.57,1.57,0,0,1-.41.28,1.81,1.81,0,0,1,.54.31,2.81,2.81,0,0,1,.46.5l4.52,6.1H56.05a1.24,1.24,0,0,1-.65-.13.9.9,0,0,1-.35-.35l-3.68-4.81a1.15,1.15,0,0,0-.41-.33,1.53,1.53,0,0,0-.64-.11h-.76V41.5H47.14v-13h2.42Z"/><path class="cls-2" d="M62.92,32.12a4.39,4.39,0,0,1,1.61.28,3.34,3.34,0,0,1,1.26.81,3.71,3.71,0,0,1,.83,1.32,4.86,4.86,0,0,1,.3,1.77c0,.17,0,.31,0,.42a1,1,0,0,1-.08.26.36.36,0,0,1-.16.14.87.87,0,0,1-.25,0H60.7a3.18,3.18,0,0,0,.77,2.09,2.38,2.38,0,0,0,1.76.66,3.18,3.18,0,0,0,.93-.12,5,5,0,0,0,.68-.28l.52-.28a.8.8,0,0,1,.43-.13.44.44,0,0,1,.23.06.4.4,0,0,1,.17.15l.65.81a3.52,3.52,0,0,1-.83.72,4.26,4.26,0,0,1-1,.47,5.14,5.14,0,0,1-1,.25,7.05,7.05,0,0,1-1,.07,5,5,0,0,1-1.79-.32,4.09,4.09,0,0,1-1.44-.94,4.42,4.42,0,0,1-1-1.55,5.89,5.89,0,0,1-.35-2.14,5.24,5.24,0,0,1,.3-1.78,4.55,4.55,0,0,1,.88-1.45,4.19,4.19,0,0,1,1.39-1A4.61,4.61,0,0,1,62.92,32.12Zm0,1.59a2,2,0,0,0-1.52.55,2.7,2.7,0,0,0-.7,1.56h4.17A2.76,2.76,0,0,0,64.8,35a1.68,1.68,0,0,0-.36-.67,1.65,1.65,0,0,0-.61-.45A2.06,2.06,0,0,0,63,33.71Z"/><path class="cls-2" d="M71.71,44a.84.84,0,0,1-.26.36.77.77,0,0,1-.48.12H69.31L71,40.81l-3.73-8.55h1.94a.56.56,0,0,1,.41.13.77.77,0,0,1,.22.29l2,4.78A4,4,0,0,1,72,38c0,.17.09.34.13.5,0-.17.1-.34.16-.5s.11-.33.18-.5l1.85-4.77a.7.7,0,0,1,.24-.3.64.64,0,0,1,.38-.12h1.78Z"/><path class="cls-2" d="M81.51,41.5V32.26h1.36a.54.54,0,0,1,.56.41l.16.73a4.22,4.22,0,0,1,.59-.53,3.91,3.91,0,0,1,.65-.4,3.49,3.49,0,0,1,.75-.26,3.85,3.85,0,0,1,.86-.09,3.34,3.34,0,0,1,1.34.25,2.87,2.87,0,0,1,1,.72,3.11,3.11,0,0,1,.59,1.11,4.56,4.56,0,0,1,.2,1.42V41.5H87.33V35.62a2,2,0,0,0-.39-1.31,1.44,1.44,0,0,0-1.17-.46,2.21,2.21,0,0,0-1.08.26,3.73,3.73,0,0,0-1,.71V41.5Z"/><path class="cls-2" d="M99,41.5H98a1.13,1.13,0,0,1-.5-.1.6.6,0,0,1-.27-.38L97,40.36c-.24.21-.47.4-.69.56a4.49,4.49,0,0,1-.7.4,4.61,4.61,0,0,1-.77.24,4.94,4.94,0,0,1-.9.08,3.4,3.4,0,0,1-1.08-.16A2.27,2.27,0,0,1,92,41a2.16,2.16,0,0,1-.55-.79,2.79,2.79,0,0,1-.2-1.09,2.08,2.08,0,0,1,.28-1,2.58,2.58,0,0,1,.91-.93,5.94,5.94,0,0,1,1.7-.68,10.94,10.94,0,0,1,2.64-.27v-.54a2.1,2.1,0,0,0-.39-1.39,1.45,1.45,0,0,0-1.14-.44,2.88,2.88,0,0,0-.9.12,3.71,3.71,0,0,0-.63.29l-.49.28a1,1,0,0,1-.49.12.64.64,0,0,1-.39-.11,1,1,0,0,1-.26-.29l-.41-.71a5.53,5.53,0,0,1,3.85-1.46,3.63,3.63,0,0,1,1.44.27,3.13,3.13,0,0,1,1.08.73,3.46,3.46,0,0,1,.67,1.13A4.44,4.44,0,0,1,99,35.66Zm-4.32-1.39a3.06,3.06,0,0,0,.63-.06,2,2,0,0,0,.54-.19,2.88,2.88,0,0,0,.5-.3,4.65,4.65,0,0,0,.48-.43V37.58a9.29,9.29,0,0,0-1.63.12,4,4,0,0,0-1,.32,1.27,1.27,0,0,0-.57.44,1.15,1.15,0,0,0,.18,1.4A1.51,1.51,0,0,0,94.66,40.11Z"/><path class="cls-2" d="M101.16,41.5V32.26h1.36a.55.55,0,0,1,.57.41l.14.68c.17-.18.34-.34.51-.49a3.6,3.6,0,0,1,.57-.39,3.39,3.39,0,0,1,.65-.26,3,3,0,0,1,.76-.09,2.16,2.16,0,0,1,1.43.47,2.85,2.85,0,0,1,.85,1.26,2.63,2.63,0,0,1,.54-.79,2.84,2.84,0,0,1,.71-.54,3.21,3.21,0,0,1,.82-.3,3.71,3.71,0,0,1,.88-.1,3.84,3.84,0,0,1,1.36.23,2.72,2.72,0,0,1,1,.69,3,3,0,0,1,.61,1.09,4.87,4.87,0,0,1,.21,1.49V41.5h-2.22V35.62a2,2,0,0,0-.39-1.33,1.39,1.39,0,0,0-1.13-.44,1.91,1.91,0,0,0-.64.11,1.57,1.57,0,0,0-.51.34,1.62,1.62,0,0,0-.35.55,2.3,2.3,0,0,0-.12.77V41.5h-2.23V35.62a2,2,0,0,0-.38-1.35,1.39,1.39,0,0,0-1.1-.42,1.82,1.82,0,0,0-.89.23,3,3,0,0,0-.78.66V41.5Z"/><path class="cls-2" d="M120.14,32.12a4.37,4.37,0,0,1,1.6.28,3.45,3.45,0,0,1,1.27.81,3.69,3.69,0,0,1,.82,1.32,4.86,4.86,0,0,1,.3,1.77c0,.17,0,.31,0,.42A.73.73,0,0,1,124,37a.31.31,0,0,1-.16.14.87.87,0,0,1-.25,0h-5.71a3.18,3.18,0,0,0,.77,2.09,2.38,2.38,0,0,0,1.76.66,3.18,3.18,0,0,0,.93-.12,5.8,5.8,0,0,0,.69-.28l.51-.28a.82.82,0,0,1,.43-.13.41.41,0,0,1,.23.06.4.4,0,0,1,.17.15l.65.81a3.52,3.52,0,0,1-.83.72,3.89,3.89,0,0,1-1,.47,5.14,5.14,0,0,1-1,.25,7.05,7.05,0,0,1-1,.07,5,5,0,0,1-1.79-.32,4.09,4.09,0,0,1-1.44-.94,4.42,4.42,0,0,1-1-1.55,6.12,6.12,0,0,1-.35-2.14,5.24,5.24,0,0,1,.3-1.78,4.55,4.55,0,0,1,.88-1.45,4.13,4.13,0,0,1,1.4-1A4.61,4.61,0,0,1,120.14,32.12Zm0,1.59a2,2,0,0,0-1.52.55,2.7,2.7,0,0,0-.7,1.56h4.17A3.12,3.12,0,0,0,122,35a2,2,0,0,0-.36-.67,1.68,1.68,0,0,0-.62-.45A2.06,2.06,0,0,0,120.18,33.71Z"/><path class="cls-2" d="M340.53,28.48v2h-3.91v11H334.2v-11h-3.94v-2Z"/><path class="cls-2" d="M343.6,44a.68.68,0,0,1-.74.48h-1.65l1.73-3.7-3.74-8.55h1.94a.6.6,0,0,1,.42.13.75.75,0,0,1,.21.29l2,4.78c.06.16.12.32.17.49s.09.34.12.5c0-.17.1-.34.16-.5l.18-.5,1.86-4.77a.7.7,0,0,1,.24-.3.61.61,0,0,1,.37-.12h1.78Z"/><path class="cls-2" d="M349.93,44.51V32.26h1.36a.66.66,0,0,1,.37.1.47.47,0,0,1,.19.31l.18.85a4.73,4.73,0,0,1,1.29-1,3.41,3.41,0,0,1,1.69-.4,3,3,0,0,1,1.38.32,3,3,0,0,1,1.08.91,4.34,4.34,0,0,1,.71,1.48,7.59,7.59,0,0,1,.24,2,6.44,6.44,0,0,1-.27,1.91,4.83,4.83,0,0,1-.8,1.53,3.55,3.55,0,0,1-2.89,1.38,3.08,3.08,0,0,1-2.31-.9v3.78Zm4.32-10.66a2.2,2.2,0,0,0-1.18.29,3.34,3.34,0,0,0-.92.82V39.1a2.13,2.13,0,0,0,.82.65,2.38,2.38,0,0,0,1,.19,2.13,2.13,0,0,0,.92-.19,1.82,1.82,0,0,0,.69-.58,2.91,2.91,0,0,0,.44-1,5.75,5.75,0,0,0,.15-1.39,6.1,6.1,0,0,0-.13-1.38,2.55,2.55,0,0,0-.38-.91A1.48,1.48,0,0,0,355,34,1.86,1.86,0,0,0,354.25,33.85Z"/><path class="cls-2" d="M363.92,32.12a4.43,4.43,0,0,1,1.61.28,3.34,3.34,0,0,1,1.26.81,3.71,3.71,0,0,1,.83,1.32,4.86,4.86,0,0,1,.3,1.77c0,.17,0,.31,0,.42a1,1,0,0,1-.08.26.36.36,0,0,1-.16.14.87.87,0,0,1-.25,0H361.7a3.24,3.24,0,0,0,.76,2.09,2.42,2.42,0,0,0,1.77.66,3.18,3.18,0,0,0,.93-.12,5,5,0,0,0,.68-.28l.52-.28a.8.8,0,0,1,.43-.13.46.46,0,0,1,.23.06.47.47,0,0,1,.17.15l.65.81a3.52,3.52,0,0,1-.83.72,4.26,4.26,0,0,1-1,.47,5.14,5.14,0,0,1-1,.25,7.05,7.05,0,0,1-1,.07,5,5,0,0,1-1.79-.32,4.09,4.09,0,0,1-1.44-.94,4.42,4.42,0,0,1-1-1.55,5.89,5.89,0,0,1-.35-2.14,5.24,5.24,0,0,1,.3-1.78,4.55,4.55,0,0,1,.88-1.45,4.19,4.19,0,0,1,1.39-1A4.61,4.61,0,0,1,363.92,32.12Zm.05,1.59a2,2,0,0,0-1.52.55,2.7,2.7,0,0,0-.7,1.56h4.17a2.76,2.76,0,0,0-.12-.82,1.68,1.68,0,0,0-.36-.67,1.65,1.65,0,0,0-.61-.45A2.06,2.06,0,0,0,364,33.71Z"/><path class="cls-2" d="M377.14,32.12a5.12,5.12,0,0,1,1.88.33,4,4,0,0,1,2.35,2.44,6.08,6.08,0,0,1,0,4,4.19,4.19,0,0,1-.91,1.5,4,4,0,0,1-1.44,1,5.52,5.52,0,0,1-3.76,0,4,4,0,0,1-1.44-1,4.23,4.23,0,0,1-.93-1.5,6.08,6.08,0,0,1,0-4,4.08,4.08,0,0,1,2.37-2.44A5.15,5.15,0,0,1,377.14,32.12Zm0,7.8a2,2,0,0,0,1.71-.77,3.9,3.9,0,0,0,.55-2.27,3.92,3.92,0,0,0-.55-2.28,2.27,2.27,0,0,0-3.43,0,3.83,3.83,0,0,0-.56,2.27,3.79,3.79,0,0,0,.56,2.26A2,2,0,0,0,377.14,39.92Z"/><path class="cls-2" d="M383.83,41.5V33.94l-.8-.13a.9.9,0,0,1-.42-.18.5.5,0,0,1-.16-.38v-.91h1.38v-.68a4,4,0,0,1,.24-1.42,3,3,0,0,1,.68-1.07,3,3,0,0,1,1.09-.68,4,4,0,0,1,1.44-.23,3.85,3.85,0,0,1,1.19.17l-.05,1.11a.32.32,0,0,1-.24.33,2.06,2.06,0,0,1-.52.06A2.55,2.55,0,0,0,387,30a1.15,1.15,0,0,0-.53.29,1.46,1.46,0,0,0-.33.56,3,3,0,0,0-.11.86v.61h2.4v1.59h-2.33V41.5Z"/><path class="cls-2" d="M397.84,41.5h-2l-3.67-9.24H394a.69.69,0,0,1,.41.12.61.61,0,0,1,.23.3l1.78,4.93c.1.29.19.57.26.84s.13.56.18.83c.06-.27.12-.55.19-.83a8,8,0,0,1,.26-.84l1.83-4.93a.65.65,0,0,1,.22-.3.65.65,0,0,1,.39-.12h1.76Z"/><path class="cls-2" d="M410.06,41.5h-1a1.13,1.13,0,0,1-.5-.1.6.6,0,0,1-.27-.38l-.2-.66a8,8,0,0,1-.68.56,4.49,4.49,0,0,1-.7.4,4.61,4.61,0,0,1-.77.24,4.94,4.94,0,0,1-.9.08,3.4,3.4,0,0,1-1.08-.16,2.27,2.27,0,0,1-.85-.47,2,2,0,0,1-.55-.79,2.79,2.79,0,0,1-.2-1.09,2.08,2.08,0,0,1,.28-1,2.58,2.58,0,0,1,.91-.93,5.82,5.82,0,0,1,1.7-.68,10.94,10.94,0,0,1,2.64-.27v-.54a2.1,2.1,0,0,0-.39-1.39,1.48,1.48,0,0,0-1.14-.44,2.88,2.88,0,0,0-.9.12,3.71,3.71,0,0,0-.63.29l-.49.28a1,1,0,0,1-.49.12.64.64,0,0,1-.39-.11.89.89,0,0,1-.26-.29l-.41-.71a5.52,5.52,0,0,1,3.85-1.46,3.63,3.63,0,0,1,1.44.27,3.13,3.13,0,0,1,1.08.73,3.46,3.46,0,0,1,.67,1.13,4.44,4.44,0,0,1,.23,1.44Zm-4.32-1.39a3.21,3.21,0,0,0,.63-.06,2,2,0,0,0,.54-.19,2.88,2.88,0,0,0,.5-.3c.15-.12.31-.27.48-.43V37.58a9.29,9.29,0,0,0-1.63.12,4.23,4.23,0,0,0-1.05.32,1.3,1.3,0,0,0-.56.44,1.11,1.11,0,0,0,.18,1.4A1.49,1.49,0,0,0,405.74,40.11Z"/><path class="cls-2" d="M414.61,28.12V41.5h-2.22V28.12Z"/><path class="cls-2" d="M419.15,32.26v5.87a2,2,0,0,0,.4,1.31,1.44,1.44,0,0,0,1.17.46,2.38,2.38,0,0,0,1.08-.25,3.68,3.68,0,0,0,.95-.71V32.26H425V41.5h-1.36a.55.55,0,0,1-.57-.41l-.15-.74a5,5,0,0,1-.6.53,3.34,3.34,0,0,1-.65.4,3.62,3.62,0,0,1-.74.27,4,4,0,0,1-.86.09,3.3,3.3,0,0,1-1.34-.26,2.72,2.72,0,0,1-1-.72,3.29,3.29,0,0,1-.6-1.11,4.87,4.87,0,0,1-.2-1.42V32.26Z"/><path class="cls-2" d="M431.17,32.12a4.43,4.43,0,0,1,1.61.28,3.34,3.34,0,0,1,1.26.81,3.86,3.86,0,0,1,.83,1.32,4.86,4.86,0,0,1,.3,1.77,2.42,2.42,0,0,1,0,.42.57.57,0,0,1-.08.26.33.33,0,0,1-.15.14,1,1,0,0,1-.26,0H429a3.18,3.18,0,0,0,.76,2.09,2.41,2.41,0,0,0,1.77.66,3.18,3.18,0,0,0,.93-.12,5,5,0,0,0,.68-.28l.51-.28a.82.82,0,0,1,.43-.13.5.5,0,0,1,.41.21l.64.81a3.48,3.48,0,0,1-.82.72,4.26,4.26,0,0,1-1,.47,5.07,5.07,0,0,1-1,.25,6.92,6.92,0,0,1-1,.07,5,5,0,0,1-1.79-.32,4,4,0,0,1-1.44-.94,4.59,4.59,0,0,1-1-1.55,6.12,6.12,0,0,1-.35-2.14A5,5,0,0,1,427,34.9a4.37,4.37,0,0,1,.88-1.45,4.09,4.09,0,0,1,1.39-1A4.61,4.61,0,0,1,431.17,32.12Zm0,1.59a2.06,2.06,0,0,0-1.52.55,2.76,2.76,0,0,0-.7,1.56h4.18a2.76,2.76,0,0,0-.12-.82,2,2,0,0,0-.36-.67,1.65,1.65,0,0,0-.61-.45A2.14,2.14,0,0,0,431.21,33.71Z"/><path class="cls-1" d="M92.82,136.47a1.19,1.19,0,0,1-.12.54,1.4,1.4,0,0,1-.31.44,1.57,1.57,0,0,1-.45.31,1.37,1.37,0,0,1-1.55-.31,1.23,1.23,0,0,1-.3-.44,1.19,1.19,0,0,1-.11-.54,1.29,1.29,0,0,1,.11-.55,1.19,1.19,0,0,1,.3-.45,1.52,1.52,0,0,1,.44-.31,1.46,1.46,0,0,1,1.11,0,1.57,1.57,0,0,1,.45.31,1.34,1.34,0,0,1,.31.45A1.3,1.3,0,0,1,92.82,136.47Zm-.33,2.69v9.24H90.26v-9.24Z"/><path class="cls-1" d="M98,148.54a2.39,2.39,0,0,1-1.84-.68,2.57,2.57,0,0,1-.65-1.87v-5.16H94.6a.45.45,0,0,1-.31-.12.43.43,0,0,1-.13-.35v-.88l1.49-.24.46-2.52a.45.45,0,0,1,.17-.28.52.52,0,0,1,.33-.1h1.15v2.91h2.43v1.58H97.76v5a1,1,0,0,0,.22.68.72.72,0,0,0,.57.24.89.89,0,0,0,.35-.05l.24-.1.19-.11a.29.29,0,0,1,.16,0,.27.27,0,0,1,.16,0l.14.15.66,1.08a3.35,3.35,0,0,1-1.11.62A4.42,4.42,0,0,1,98,148.54Z"/><path class="cls-1" d="M105.78,139a4.43,4.43,0,0,1,1.61.28,3.69,3.69,0,0,1,1.26.81,3.86,3.86,0,0,1,.83,1.32,4.92,4.92,0,0,1,.3,1.78,2.37,2.37,0,0,1,0,.41.53.53,0,0,1-.08.26.31.31,0,0,1-.16.14.6.6,0,0,1-.25,0h-5.7a3.18,3.18,0,0,0,.76,2.09,2.41,2.41,0,0,0,1.77.66,3.18,3.18,0,0,0,.93-.12,5,5,0,0,0,.68-.28l.51-.28a.92.92,0,0,1,.43-.13.48.48,0,0,1,.24.06.59.59,0,0,1,.17.15l.64.81a3.77,3.77,0,0,1-.82.73,4.69,4.69,0,0,1-1,.46,5.24,5.24,0,0,1-1,.25,6.92,6.92,0,0,1-1,.07,4.78,4.78,0,0,1-1.79-.32,3.79,3.79,0,0,1-1.44-.94,4.5,4.5,0,0,1-1-1.55,6.08,6.08,0,0,1-.35-2.14,4.92,4.92,0,0,1,.31-1.77,4,4,0,0,1,.88-1.45,4.11,4.11,0,0,1,1.39-1A4.61,4.61,0,0,1,105.78,139Zm0,1.59a2.1,2.1,0,0,0-1.52.55,2.76,2.76,0,0,0-.7,1.56h4.18a2.64,2.64,0,0,0-.12-.81,2,2,0,0,0-.36-.68,1.73,1.73,0,0,0-.61-.45A2.14,2.14,0,0,0,105.82,140.61Z"/><path class="cls-1" d="M111.58,148.4v-9.24h1.36a.55.55,0,0,1,.57.41l.14.68c.17-.18.34-.34.51-.49a3.6,3.6,0,0,1,.57-.39,2.83,2.83,0,0,1,.65-.25,2.59,2.59,0,0,1,.76-.1,2.16,2.16,0,0,1,1.43.47,2.91,2.91,0,0,1,.85,1.26A2.63,2.63,0,0,1,119,140a2.58,2.58,0,0,1,.71-.53,3.23,3.23,0,0,1,.82-.31,3.71,3.71,0,0,1,.88-.1,3.84,3.84,0,0,1,1.36.23,2.72,2.72,0,0,1,1,.69,2.93,2.93,0,0,1,.61,1.1,4.76,4.76,0,0,1,.21,1.48v5.88h-2.22v-5.88a2,2,0,0,0-.39-1.33,1.42,1.42,0,0,0-1.13-.44,1.69,1.69,0,0,0-.64.12,1.54,1.54,0,0,0-.51.33,1.57,1.57,0,0,0-.35.56,2.2,2.2,0,0,0-.12.76v5.88H117v-5.88a2,2,0,0,0-.38-1.35,1.39,1.39,0,0,0-1.1-.42,1.72,1.72,0,0,0-.89.24,2.94,2.94,0,0,0-.78.65v6.76Z"/><path class="cls-1" d="M92.82,166.47a1.19,1.19,0,0,1-.12.54,1.4,1.4,0,0,1-.31.44,1.57,1.57,0,0,1-.45.31,1.37,1.37,0,0,1-1.55-.31,1.23,1.23,0,0,1-.3-.44,1.19,1.19,0,0,1-.11-.54,1.29,1.29,0,0,1,.11-.55,1.19,1.19,0,0,1,.3-.45,1.52,1.52,0,0,1,.44-.31,1.46,1.46,0,0,1,1.11,0,1.57,1.57,0,0,1,.45.31,1.34,1.34,0,0,1,.31.45A1.3,1.3,0,0,1,92.82,166.47Zm-.33,2.69v9.24H90.26v-9.24Z"/><path class="cls-1" d="M98,178.54a2.39,2.39,0,0,1-1.84-.68,2.57,2.57,0,0,1-.65-1.87v-5.16H94.6a.45.45,0,0,1-.31-.12.43.43,0,0,1-.13-.35v-.88l1.49-.24.46-2.52a.45.45,0,0,1,.17-.28.52.52,0,0,1,.33-.1h1.15v2.91h2.43v1.58H97.76v5a1,1,0,0,0,.22.68.72.72,0,0,0,.57.24.89.89,0,0,0,.35-.05l.24-.1.19-.11a.29.29,0,0,1,.16,0,.27.27,0,0,1,.16,0l.14.15.66,1.08a3.35,3.35,0,0,1-1.11.62A4.42,4.42,0,0,1,98,178.54Z"/><path class="cls-1" d="M105.78,169a4.43,4.43,0,0,1,1.61.28,3.69,3.69,0,0,1,1.26.81,3.86,3.86,0,0,1,.83,1.32,4.92,4.92,0,0,1,.3,1.78,2.37,2.37,0,0,1,0,.41.53.53,0,0,1-.08.26.31.31,0,0,1-.16.14.6.6,0,0,1-.25,0h-5.7a3.18,3.18,0,0,0,.76,2.09,2.41,2.41,0,0,0,1.77.66,3.18,3.18,0,0,0,.93-.12,5,5,0,0,0,.68-.28l.51-.28a.92.92,0,0,1,.43-.13.48.48,0,0,1,.24.06.59.59,0,0,1,.17.15l.64.81a3.77,3.77,0,0,1-.82.73,4.69,4.69,0,0,1-1,.46,5.24,5.24,0,0,1-1,.25,6.92,6.92,0,0,1-1,.07,4.78,4.78,0,0,1-1.79-.32,3.79,3.79,0,0,1-1.44-.94,4.5,4.5,0,0,1-1-1.55,6.08,6.08,0,0,1-.35-2.14,4.92,4.92,0,0,1,.31-1.77,4,4,0,0,1,.88-1.45,4.11,4.11,0,0,1,1.39-1A4.61,4.61,0,0,1,105.78,169Zm0,1.59a2.1,2.1,0,0,0-1.52.55,2.76,2.76,0,0,0-.7,1.56h4.18a2.64,2.64,0,0,0-.12-.81,2,2,0,0,0-.36-.68,1.73,1.73,0,0,0-.61-.45A2.14,2.14,0,0,0,105.82,170.61Z"/><path class="cls-1" d="M111.58,178.4v-9.24h1.36a.55.55,0,0,1,.57.41l.14.68c.17-.18.34-.34.51-.49a3.6,3.6,0,0,1,.57-.39,2.83,2.83,0,0,1,.65-.25,2.59,2.59,0,0,1,.76-.1,2.16,2.16,0,0,1,1.43.47,2.91,2.91,0,0,1,.85,1.26A2.63,2.63,0,0,1,119,170a2.58,2.58,0,0,1,.71-.53,3.23,3.23,0,0,1,.82-.31,3.71,3.71,0,0,1,.88-.1,3.84,3.84,0,0,1,1.36.23,2.72,2.72,0,0,1,1,.69,2.93,2.93,0,0,1,.61,1.1,4.76,4.76,0,0,1,.21,1.48v5.88h-2.22v-5.88a2,2,0,0,0-.39-1.33,1.42,1.42,0,0,0-1.13-.44,1.69,1.69,0,0,0-.64.12,1.54,1.54,0,0,0-.51.33,1.57,1.57,0,0,0-.35.56,2.2,2.2,0,0,0-.12.76v5.88H117v-5.88a2,2,0,0,0-.38-1.35,1.39,1.39,0,0,0-1.1-.42,1.72,1.72,0,0,0-.89.24,2.94,2.94,0,0,0-.78.65v6.76Z"/><path class="cls-1" d="M134.44,165.24a4.84,4.84,0,0,1,1.65.27,3.55,3.55,0,0,1,1.28.75,3.41,3.41,0,0,1,.83,1.17,3.71,3.71,0,0,1,.29,1.52,4.08,4.08,0,0,1-.21,1.33,5.72,5.72,0,0,1-.56,1.17,8.28,8.28,0,0,1-.84,1.08c-.32.35-.65.7-1,1.06l-2.93,3a6.87,6.87,0,0,1,.85-.19,4.37,4.37,0,0,1,.79-.07h3.34a.81.81,0,0,1,.57.2.72.72,0,0,1,.21.54v1.33h-8.93v-.74a1.17,1.17,0,0,1,.1-.47,1.27,1.27,0,0,1,.3-.45l3.95-4c.33-.33.62-.65.89-1a6.19,6.19,0,0,0,.65-.91,4.32,4.32,0,0,0,.41-.91,3.52,3.52,0,0,0,.14-1,2.27,2.27,0,0,0-.14-.82,1.56,1.56,0,0,0-.39-.6,1.69,1.69,0,0,0-.59-.37,2.37,2.37,0,0,0-.78-.12,2.06,2.06,0,0,0-1.32.41,2.1,2.1,0,0,0-.73,1.09.91.91,0,0,1-.29.49.81.81,0,0,1-.51.15l-.29,0L130,169a4.79,4.79,0,0,1,.52-1.64,3.89,3.89,0,0,1,2.3-1.89A5.27,5.27,0,0,1,134.44,165.24Z"/><path class="cls-1" d="M92.82,196.47a1.19,1.19,0,0,1-.12.54,1.4,1.4,0,0,1-.31.44,1.57,1.57,0,0,1-.45.31,1.37,1.37,0,0,1-1.55-.31,1.23,1.23,0,0,1-.3-.44,1.19,1.19,0,0,1-.11-.54,1.29,1.29,0,0,1,.11-.55,1.19,1.19,0,0,1,.3-.45,1.52,1.52,0,0,1,.44-.31,1.46,1.46,0,0,1,1.11,0,1.57,1.57,0,0,1,.45.31,1.34,1.34,0,0,1,.31.45A1.3,1.3,0,0,1,92.82,196.47Zm-.33,2.69v9.24H90.26v-9.24Z"/><path class="cls-1" d="M98,208.54a2.39,2.39,0,0,1-1.84-.68,2.57,2.57,0,0,1-.65-1.87v-5.16H94.6a.45.45,0,0,1-.31-.12.43.43,0,0,1-.13-.35v-.88l1.49-.24.46-2.52a.45.45,0,0,1,.17-.28.52.52,0,0,1,.33-.1h1.15v2.91h2.43v1.58H97.76v5a1,1,0,0,0,.22.68.72.72,0,0,0,.57.24.89.89,0,0,0,.35-.05l.24-.1.19-.11a.29.29,0,0,1,.16,0,.27.27,0,0,1,.16,0l.14.15.66,1.08a3.35,3.35,0,0,1-1.11.62A4.42,4.42,0,0,1,98,208.54Z"/><path class="cls-1" d="M105.78,199a4.43,4.43,0,0,1,1.61.28,3.69,3.69,0,0,1,1.26.81,3.86,3.86,0,0,1,.83,1.32,4.92,4.92,0,0,1,.3,1.78,2.37,2.37,0,0,1,0,.41.53.53,0,0,1-.08.26.31.31,0,0,1-.16.14.6.6,0,0,1-.25,0h-5.7a3.18,3.18,0,0,0,.76,2.09,2.41,2.41,0,0,0,1.77.66,3.18,3.18,0,0,0,.93-.12,5,5,0,0,0,.68-.28l.51-.28a.92.92,0,0,1,.43-.13.48.48,0,0,1,.24.06.59.59,0,0,1,.17.15l.64.81a3.77,3.77,0,0,1-.82.73,4.69,4.69,0,0,1-1,.46,5.24,5.24,0,0,1-1,.25,6.92,6.92,0,0,1-1,.07,4.78,4.78,0,0,1-1.79-.32,3.79,3.79,0,0,1-1.44-.94,4.5,4.5,0,0,1-1-1.55,6.08,6.08,0,0,1-.35-2.14,4.92,4.92,0,0,1,.31-1.77,4,4,0,0,1,.88-1.45,4.11,4.11,0,0,1,1.39-1A4.61,4.61,0,0,1,105.78,199Zm0,1.59a2.1,2.1,0,0,0-1.52.55,2.76,2.76,0,0,0-.7,1.56h4.18a2.64,2.64,0,0,0-.12-.81,2,2,0,0,0-.36-.68,1.73,1.73,0,0,0-.61-.45A2.14,2.14,0,0,0,105.82,200.61Z"/><path class="cls-1" d="M111.58,208.4v-9.24h1.36a.55.55,0,0,1,.57.41l.14.68c.17-.18.34-.34.51-.49a3.6,3.6,0,0,1,.57-.39,2.83,2.83,0,0,1,.65-.25,2.59,2.59,0,0,1,.76-.1,2.16,2.16,0,0,1,1.43.47,2.91,2.91,0,0,1,.85,1.26A2.63,2.63,0,0,1,119,200a2.58,2.58,0,0,1,.71-.53,3.23,3.23,0,0,1,.82-.31,3.71,3.71,0,0,1,.88-.1,3.84,3.84,0,0,1,1.36.23,2.72,2.72,0,0,1,1,.69,2.93,2.93,0,0,1,.61,1.1,4.76,4.76,0,0,1,.21,1.48v5.88h-2.22v-5.88a2,2,0,0,0-.39-1.33,1.42,1.42,0,0,0-1.13-.44,1.69,1.69,0,0,0-.64.12,1.54,1.54,0,0,0-.51.33,1.57,1.57,0,0,0-.35.56,2.2,2.2,0,0,0-.12.76v5.88H117v-5.88a2,2,0,0,0-.38-1.35,1.39,1.39,0,0,0-1.1-.42,1.72,1.72,0,0,0-.89.24,2.94,2.94,0,0,0-.78.65v6.76Z"/><path class="cls-2" d="M105.4,84.34c0-5.22-1-10.92-8.35-13.54-13.16-4.7-11.42-18-11.4-18.1l2,.28c-.07.48-1.5,11.79,10.09,15.93,8.57,3.06,9.68,9.86,9.68,15.43Z"/><polygon class="cls-2" points="103.64 82.34 106.04 92.84 109.22 82.54 103.64 82.34"/><path class="cls-2" d="M351.48,84.4l-2-.13c.35-5.14,2.18-12.33,14-15.38,18.59-4.79,18.37-15.84,18.35-16.31l2-.09c0,.54.41,13.11-19.85,18.33C353.53,73.53,351.81,79.5,351.48,84.4Z"/><polygon class="cls-2" points="347.76 82.45 350.62 92.84 353.34 82.41 347.76 82.45"/><path class="cls-2" d="M58.52,272.44h5.21v2H56.1v-13h2.42Z"/><path class="cls-2" d="M68,262.51a1.39,1.39,0,0,1-.43,1,1.37,1.37,0,0,1-.45.3,1.31,1.31,0,0,1-.56.12,1.25,1.25,0,0,1-.54-.12,1.4,1.4,0,0,1-.75-.74,1.24,1.24,0,0,1-.11-.54,1.33,1.33,0,0,1,.11-.56,1.54,1.54,0,0,1,.3-.45,1.77,1.77,0,0,1,.45-.3,1.41,1.41,0,0,1,.54-.11,1.47,1.47,0,0,1,.56.11,1.77,1.77,0,0,1,.45.3,1.39,1.39,0,0,1,.31.45A1.34,1.34,0,0,1,68,262.51Zm-.33,2.69v9.24H65.43V265.2Z"/><path class="cls-2" d="M75.64,267a.47.47,0,0,1-.44.26.83.83,0,0,1-.35-.09l-.42-.2a5.15,5.15,0,0,0-.56-.2,2.65,2.65,0,0,0-.73-.09,1.69,1.69,0,0,0-1,.28.86.86,0,0,0-.37.73.71.71,0,0,0,.19.5,1.83,1.83,0,0,0,.51.35,6.6,6.6,0,0,0,.73.28l.82.26c.29.1.56.21.83.33a2.94,2.94,0,0,1,.73.47,2.17,2.17,0,0,1,.51.68,2.12,2.12,0,0,1,.19.95,3.1,3.1,0,0,1-.24,1.23,2.62,2.62,0,0,1-.71,1,3.17,3.17,0,0,1-1.16.64,5.06,5.06,0,0,1-1.58.23,4.73,4.73,0,0,1-.93-.09,5.06,5.06,0,0,1-.87-.23,7,7,0,0,1-.78-.36,4.3,4.3,0,0,1-.62-.45l.51-.85a.75.75,0,0,1,.24-.23.59.59,0,0,1,.34-.09.69.69,0,0,1,.39.12c.12.08.27.16.43.25a3.84,3.84,0,0,0,.57.26,2.78,2.78,0,0,0,.83.11,2.24,2.24,0,0,0,.68-.09,1.39,1.39,0,0,0,.47-.25,1,1,0,0,0,.27-.35,1,1,0,0,0,.08-.42.72.72,0,0,0-.19-.53,1.66,1.66,0,0,0-.51-.36,4.44,4.44,0,0,0-.73-.28l-.84-.26c-.28-.1-.56-.21-.84-.34a2.78,2.78,0,0,1-.72-.49,2.16,2.16,0,0,1-.52-.73,2.56,2.56,0,0,1-.19-1.05,2.71,2.71,0,0,1,.22-1.08,2.49,2.49,0,0,1,.67-.89,3.14,3.14,0,0,1,1.08-.61,4.4,4.4,0,0,1,1.51-.23,4.61,4.61,0,0,1,1.74.31,3.87,3.87,0,0,1,1.3.83Z"/><path class="cls-2" d="M81.06,274.58a2.45,2.45,0,0,1-1.85-.68,2.62,2.62,0,0,1-.65-1.88v-5.15h-.93a.45.45,0,0,1-.31-.12.43.43,0,0,1-.13-.35v-.88l1.48-.25.47-2.52a.42.42,0,0,1,.17-.27.48.48,0,0,1,.33-.1h1.15v2.9h2.43v1.59H80.79v5a1,1,0,0,0,.21.68.75.75,0,0,0,.58.24,1.18,1.18,0,0,0,.35-.05l.24-.1.18-.11a.37.37,0,0,1,.17,0,.28.28,0,0,1,.16,0l.13.15.67,1.08a3.3,3.3,0,0,1-1.12.61A4.07,4.07,0,0,1,81.06,274.58Z"/><path class="cls-2" d="M92.41,265.06a5.06,5.06,0,0,1,1.87.33,4.07,4.07,0,0,1,1.44.95,4.22,4.22,0,0,1,.92,1.49,6.25,6.25,0,0,1,0,3.95,4.36,4.36,0,0,1-.92,1.5,4,4,0,0,1-1.44,1,5.06,5.06,0,0,1-1.87.33,5.12,5.12,0,0,1-1.88-.33,3.92,3.92,0,0,1-1.45-1,4.23,4.23,0,0,1-.93-1.5,6.25,6.25,0,0,1,0-3.95,4.1,4.1,0,0,1,.93-1.49,4,4,0,0,1,1.45-.95A5.12,5.12,0,0,1,92.41,265.06Zm0,7.8a2,2,0,0,0,1.7-.77,4.9,4.9,0,0,0,0-4.55,2.27,2.27,0,0,0-3.43,0,4.86,4.86,0,0,0,0,4.53A2,2,0,0,0,92.41,272.86Z"/><path class="cls-2" d="M99.09,274.44v-7.56l-.8-.13a.9.9,0,0,1-.42-.18.49.49,0,0,1-.15-.38v-.91h1.37v-.68a4,4,0,0,1,.24-1.42,2.91,2.91,0,0,1,.69-1.07,2.85,2.85,0,0,1,1.08-.68,4.35,4.35,0,0,1,1.44-.23,3.81,3.81,0,0,1,1.19.17l0,1.11a.32.32,0,0,1-.24.33,2,2,0,0,1-.52.06,2.55,2.55,0,0,0-.71.09,1.12,1.12,0,0,0-.52.29,1.25,1.25,0,0,0-.33.56,2.66,2.66,0,0,0-.12.86v.61h2.41v1.59h-2.33v7.57Z"/><path class="cls-2" d="M113.11,274.44h-2l-3.67-9.24h1.84a.66.66,0,0,1,.41.12.61.61,0,0,1,.23.3l1.78,4.93a8,8,0,0,1,.26.84c.07.28.13.56.19.83.05-.27.11-.55.18-.83a8.12,8.12,0,0,1,.27-.84l1.82-4.93a.65.65,0,0,1,.61-.42h1.76Z"/><path class="cls-2" d="M125.32,274.44h-1a1.17,1.17,0,0,1-.5-.1.63.63,0,0,1-.26-.38l-.2-.66c-.24.21-.47.4-.69.56a5.47,5.47,0,0,1-.7.4,3.74,3.74,0,0,1-.76.24,4.94,4.94,0,0,1-.9.08,3.4,3.4,0,0,1-1.08-.16,2.2,2.2,0,0,1-.85-.47,2.07,2.07,0,0,1-.56-.79,2.79,2.79,0,0,1-.2-1.09,2.19,2.19,0,0,1,.28-1,2.57,2.57,0,0,1,.91-.92,5.77,5.77,0,0,1,1.7-.69,10.94,10.94,0,0,1,2.64-.27v-.54a2,2,0,0,0-.39-1.38,1.43,1.43,0,0,0-1.14-.45,2.88,2.88,0,0,0-.9.12,3.27,3.27,0,0,0-.62.29l-.5.28a1,1,0,0,1-.49.13.65.65,0,0,1-.39-.12,1,1,0,0,1-.26-.29l-.4-.71A5.49,5.49,0,0,1,121.9,265a3.63,3.63,0,0,1,1.44.27,3,3,0,0,1,1.08.73,3.29,3.29,0,0,1,.67,1.13,4.44,4.44,0,0,1,.23,1.44ZM121,273.05a3.06,3.06,0,0,0,.63-.06,2.47,2.47,0,0,0,.54-.19,2.55,2.55,0,0,0,.5-.3,4.65,4.65,0,0,0,.48-.43v-1.55a9.09,9.09,0,0,0-1.62.12,4.39,4.39,0,0,0-1,.32,1.24,1.24,0,0,0-.56.44.92.92,0,0,0-.17.55,1,1,0,0,0,.35.85A1.48,1.48,0,0,0,121,273.05Z"/><path class="cls-2" d="M129.87,261.06v13.38h-2.22V261.06Z"/><path class="cls-2" d="M134.42,265.2v5.87a2,2,0,0,0,.39,1.31,1.44,1.44,0,0,0,1.17.46,2.32,2.32,0,0,0,1.08-.25,3.73,3.73,0,0,0,1-.71V265.2h2.22v9.24h-1.36a.55.55,0,0,1-.57-.41l-.15-.74a5.76,5.76,0,0,1-.59.53,3.67,3.67,0,0,1-.65.4,3.71,3.71,0,0,1-.75.27,4,4,0,0,1-.86.09,3.34,3.34,0,0,1-1.34-.26,2.68,2.68,0,0,1-1-.72,3,3,0,0,1-.6-1.11,4.55,4.55,0,0,1-.21-1.42V265.2Z"/><path class="cls-2" d="M146.43,265.06a4.39,4.39,0,0,1,1.61.28,3.34,3.34,0,0,1,1.26.81,3.71,3.71,0,0,1,.83,1.32,4.86,4.86,0,0,1,.3,1.77c0,.17,0,.31,0,.42a1,1,0,0,1-.08.26.36.36,0,0,1-.16.14.87.87,0,0,1-.25,0h-5.71a3.18,3.18,0,0,0,.77,2.09,2.38,2.38,0,0,0,1.76.66,3.18,3.18,0,0,0,.93-.12,5,5,0,0,0,.68-.28l.52-.28a.82.82,0,0,1,.43-.13.44.44,0,0,1,.23.06.4.4,0,0,1,.17.15l.65.81a3.52,3.52,0,0,1-.83.72,4.74,4.74,0,0,1-1,.47,5.07,5.07,0,0,1-1,.25,6.92,6.92,0,0,1-1,.07,5,5,0,0,1-1.79-.32,4.09,4.09,0,0,1-1.44-.94,4.42,4.42,0,0,1-1-1.55,5.89,5.89,0,0,1-.35-2.14,5.24,5.24,0,0,1,.3-1.78,4.55,4.55,0,0,1,.88-1.45,4.19,4.19,0,0,1,1.39-1A4.61,4.61,0,0,1,146.43,265.06Zm0,1.59a2,2,0,0,0-1.52.55,2.67,2.67,0,0,0-.7,1.56h4.17a2.76,2.76,0,0,0-.12-.82,1.68,1.68,0,0,0-.36-.67,1.65,1.65,0,0,0-.61-.45A2.06,2.06,0,0,0,146.48,266.65Z"/><path class="cls-2" d="M157.72,267a.46.46,0,0,1-.19.2.49.49,0,0,1-.25.06.83.83,0,0,1-.35-.09l-.43-.2a4.3,4.3,0,0,0-.55-.2,2.65,2.65,0,0,0-.73-.09,1.69,1.69,0,0,0-1,.28.87.87,0,0,0-.38.73.72.72,0,0,0,.2.5,1.83,1.83,0,0,0,.51.35,7.24,7.24,0,0,0,.72.28l.83.26c.29.1.56.21.83.33a2.94,2.94,0,0,1,.73.47,2.17,2.17,0,0,1,.51.68,2.12,2.12,0,0,1,.19.95,3.1,3.1,0,0,1-.24,1.23,2.62,2.62,0,0,1-.71,1,3.17,3.17,0,0,1-1.16.64,5.06,5.06,0,0,1-1.58.23,4.73,4.73,0,0,1-.93-.09,5.06,5.06,0,0,1-.87-.23,7,7,0,0,1-.78-.36,4.3,4.3,0,0,1-.62-.45l.51-.85a.75.75,0,0,1,.24-.23.59.59,0,0,1,.34-.09.71.71,0,0,1,.39.12c.12.08.26.16.43.25a3.84,3.84,0,0,0,.57.26,2.73,2.73,0,0,0,.83.11,2.29,2.29,0,0,0,.68-.09,1.39,1.39,0,0,0,.47-.25,1,1,0,0,0,.27-.35,1.25,1.25,0,0,0,.08-.42.72.72,0,0,0-.19-.53,1.66,1.66,0,0,0-.51-.36,4.44,4.44,0,0,0-.73-.28l-.84-.26c-.28-.1-.56-.21-.84-.34a3,3,0,0,1-.73-.49,2.28,2.28,0,0,1-.51-.73,2.56,2.56,0,0,1-.19-1.05,2.71,2.71,0,0,1,.22-1.08,2.59,2.59,0,0,1,.66-.89,3.29,3.29,0,0,1,1.09-.61,4.4,4.4,0,0,1,1.51-.23,4.61,4.61,0,0,1,1.74.31,3.87,3.87,0,0,1,1.3.83Z"/><path class="cls-2" d="M159.64,273.07a1.19,1.19,0,0,1,.09-.47,1.05,1.05,0,0,1,.27-.39,1.15,1.15,0,0,1,.41-.26,1.48,1.48,0,0,1,1.12,0,1.44,1.44,0,0,1,.43.34,1.38,1.38,0,0,1,.25.48,2.25,2.25,0,0,1,.08.58,3.33,3.33,0,0,1-.13.91,4.79,4.79,0,0,1-.38,1,5.94,5.94,0,0,1-.62.92,5.57,5.57,0,0,1-.85.83l-.39-.35a.44.44,0,0,1-.16-.33.37.37,0,0,1,.05-.16.66.66,0,0,1,.12-.17l.25-.26c.09-.11.19-.23.28-.36a3.23,3.23,0,0,0,.27-.44,1.8,1.8,0,0,0,.17-.51,1.45,1.45,0,0,1-.51-.1,1.28,1.28,0,0,1-.66-.71A1.51,1.51,0,0,1,159.64,273.07Z"/><path class="cls-2" d="M174.13,274.44a.55.55,0,0,1-.57-.41l-.18-.89a5.56,5.56,0,0,1-.6.59,3.76,3.76,0,0,1-.68.44,3.58,3.58,0,0,1-.79.3,3.71,3.71,0,0,1-.9.1,3,3,0,0,1-2.47-1.23,4.33,4.33,0,0,1-.7-1.48,7.27,7.27,0,0,1-.25-2,6.17,6.17,0,0,1,.28-1.91,4.46,4.46,0,0,1,.8-1.53,3.7,3.7,0,0,1,1.25-1A3.53,3.53,0,0,1,171,265a3.14,3.14,0,0,1,1.32.25,3.25,3.25,0,0,1,1,.66v-4.88h2.22v13.38Zm-3-1.63a2.27,2.27,0,0,0,1.18-.29,3.49,3.49,0,0,0,.92-.82v-4.14a2.15,2.15,0,0,0-.82-.65,2.57,2.57,0,0,0-1-.19,2.21,2.21,0,0,0-.91.19,1.84,1.84,0,0,0-.7.57,2.77,2.77,0,0,0-.43,1,5.16,5.16,0,0,0-.16,1.39,6.63,6.63,0,0,0,.13,1.37,2.9,2.9,0,0,0,.38.92,1.51,1.51,0,0,0,.59.51A2,2,0,0,0,171.16,272.81Z"/><path class="cls-2" d="M179.92,265.2v5.87a2,2,0,0,0,.39,1.31,1.46,1.46,0,0,0,1.18.46,2.38,2.38,0,0,0,1.08-.25,3.86,3.86,0,0,0,1-.71V265.2h2.22v9.24h-1.35a.55.55,0,0,1-.57-.41l-.15-.74a5.84,5.84,0,0,1-.6.53,3.34,3.34,0,0,1-.65.4,3.51,3.51,0,0,1-.75.27,3.91,3.91,0,0,1-.86.09,3.25,3.25,0,0,1-1.33-.26,2.63,2.63,0,0,1-1-.72,3.29,3.29,0,0,1-.6-1.11,4.87,4.87,0,0,1-.2-1.42V265.2Z"/><path class="cls-2" d="M188.12,277.45V265.2h1.36a.73.73,0,0,1,.37.1.49.49,0,0,1,.2.31l.18.85a4.68,4.68,0,0,1,1.28-1,3.42,3.42,0,0,1,1.7-.4,3,3,0,0,1,1.38.32,3.21,3.21,0,0,1,1.08.91,4.52,4.52,0,0,1,.7,1.48,7.56,7.56,0,0,1,.25,2,6.43,6.43,0,0,1-.28,1.91,4.64,4.64,0,0,1-.8,1.53,3.63,3.63,0,0,1-1.25,1,3.69,3.69,0,0,1-1.64.36,3.29,3.29,0,0,1-1.33-.24,3.38,3.38,0,0,1-1-.66v3.78Zm4.32-10.66a2.2,2.2,0,0,0-1.18.29,3.49,3.49,0,0,0-.92.82V272a2.15,2.15,0,0,0,.83.65,2.32,2.32,0,0,0,1,.19,2.09,2.09,0,0,0,.91-.19,1.82,1.82,0,0,0,.69-.58,2.72,2.72,0,0,0,.44-1,5.75,5.75,0,0,0,.15-1.39,6.1,6.1,0,0,0-.13-1.38,2.83,2.83,0,0,0-.37-.91,1.58,1.58,0,0,0-.59-.51A1.83,1.83,0,0,0,192.44,266.79Z"/><path class="cls-2" d="M200.67,261.06v13.38h-2.23V261.06Z"/><path class="cls-2" d="M205.88,262.51a1.25,1.25,0,0,1-.12.54,1.4,1.4,0,0,1-.31.44,1.31,1.31,0,0,1-.46.3,1.32,1.32,0,0,1-1.1,0,1.23,1.23,0,0,1-.44-.3,1.33,1.33,0,0,1-.42-1,1.51,1.51,0,0,1,.11-.56,1.57,1.57,0,0,1,.31-.45,1.55,1.55,0,0,1,.44-.3,1.43,1.43,0,0,1,1.1,0,1.66,1.66,0,0,1,.46.3,1.57,1.57,0,0,1,.31.45A1.34,1.34,0,0,1,205.88,262.51Zm-.34,2.69v9.24h-2.22V265.2Z"/><path class="cls-2" d="M214.54,267.16a.85.85,0,0,1-.19.19.41.41,0,0,1-.27.07.61.61,0,0,1-.34-.1c-.11-.07-.23-.15-.38-.23a2.73,2.73,0,0,0-.54-.24,2.44,2.44,0,0,0-.77-.1,2.4,2.4,0,0,0-1,.21,2,2,0,0,0-.73.61,2.84,2.84,0,0,0-.44,1,5.42,5.42,0,0,0-.14,1.27,4.87,4.87,0,0,0,.16,1.32,2.67,2.67,0,0,0,.45,1,2.07,2.07,0,0,0,.72.6,2.26,2.26,0,0,0,1,.2,2.32,2.32,0,0,0,.86-.13,2.82,2.82,0,0,0,.55-.29c.15-.1.28-.2.39-.29a.64.64,0,0,1,.37-.13.46.46,0,0,1,.41.21l.64.81a3.84,3.84,0,0,1-.8.72,4.3,4.3,0,0,1-.9.47,4.52,4.52,0,0,1-1,.25,6.46,6.46,0,0,1-1,.07,4.17,4.17,0,0,1-1.61-.32,3.78,3.78,0,0,1-1.32-.93,4.63,4.63,0,0,1-.89-1.5,5.74,5.74,0,0,1-.33-2,5.66,5.66,0,0,1,.3-1.88,4.25,4.25,0,0,1,.86-1.51,3.86,3.86,0,0,1,1.4-1,4.85,4.85,0,0,1,1.93-.36,4.6,4.6,0,0,1,1.81.33,4.38,4.38,0,0,1,1.4,1Z"/><path class="cls-2" d="M223.88,274.44h-1a1.13,1.13,0,0,1-.5-.1.6.6,0,0,1-.27-.38l-.2-.66a8,8,0,0,1-.68.56,5.47,5.47,0,0,1-.7.4,3.84,3.84,0,0,1-.77.24,4.94,4.94,0,0,1-.9.08,3.4,3.4,0,0,1-1.08-.16,2.27,2.27,0,0,1-.85-.47,2.16,2.16,0,0,1-.55-.79,2.79,2.79,0,0,1-.2-1.09,2.08,2.08,0,0,1,.28-1,2.49,2.49,0,0,1,.91-.92,5.66,5.66,0,0,1,1.7-.69,10.94,10.94,0,0,1,2.64-.27v-.54a2,2,0,0,0-.39-1.38,1.43,1.43,0,0,0-1.14-.45,2.88,2.88,0,0,0-.9.12,3.71,3.71,0,0,0-.63.29l-.49.28a1,1,0,0,1-.49.13.65.65,0,0,1-.39-.12.89.89,0,0,1-.26-.29l-.41-.71a5.53,5.53,0,0,1,3.85-1.46,3.63,3.63,0,0,1,1.44.27A3.13,3.13,0,0,1,223,266a3.46,3.46,0,0,1,.67,1.13,4.44,4.44,0,0,1,.23,1.44Zm-4.32-1.39a3.21,3.21,0,0,0,.63-.06,2.47,2.47,0,0,0,.54-.19,2.88,2.88,0,0,0,.5-.3,4.65,4.65,0,0,0,.48-.43v-1.55a9.29,9.29,0,0,0-1.63.12A4.7,4.7,0,0,0,219,271a1.3,1.3,0,0,0-.56.44,1.15,1.15,0,0,0,.18,1.4A1.49,1.49,0,0,0,219.56,273.05Z"/><path class="cls-2" d="M229.1,274.58a2.45,2.45,0,0,1-1.85-.68,2.62,2.62,0,0,1-.65-1.88v-5.15h-.93a.43.43,0,0,1-.44-.47v-.88l1.48-.25.47-2.52a.39.39,0,0,1,.17-.27.47.47,0,0,1,.32-.1h1.16v2.9h2.43v1.59h-2.43v5a1,1,0,0,0,.21.68.75.75,0,0,0,.58.24,1.18,1.18,0,0,0,.35-.05l.24-.1.18-.11a.37.37,0,0,1,.16,0,.31.31,0,0,1,.17,0l.13.15.67,1.08a3.3,3.3,0,0,1-1.12.61A4.07,4.07,0,0,1,229.1,274.58Z"/><path class="cls-2" d="M236.84,265.06a4.39,4.39,0,0,1,1.61.28,3.45,3.45,0,0,1,1.27.81,3.69,3.69,0,0,1,.82,1.32,4.86,4.86,0,0,1,.3,1.77c0,.17,0,.31,0,.42a.73.73,0,0,1-.08.26.31.31,0,0,1-.16.14.87.87,0,0,1-.25,0h-5.71a3.18,3.18,0,0,0,.77,2.09,2.38,2.38,0,0,0,1.76.66,3.18,3.18,0,0,0,.93-.12,5.8,5.8,0,0,0,.69-.28l.51-.28a.82.82,0,0,1,.43-.13.44.44,0,0,1,.23.06.4.4,0,0,1,.17.15l.65.81a3.52,3.52,0,0,1-.83.72,4.27,4.27,0,0,1-1,.47,5.14,5.14,0,0,1-1,.25,7.05,7.05,0,0,1-1,.07,5,5,0,0,1-1.79-.32,4.09,4.09,0,0,1-1.44-.94,4.42,4.42,0,0,1-1-1.55,5.89,5.89,0,0,1-.35-2.14,5.24,5.24,0,0,1,.3-1.78,4.55,4.55,0,0,1,.88-1.45,4.13,4.13,0,0,1,1.4-1A4.56,4.56,0,0,1,236.84,265.06Zm0,1.59a2,2,0,0,0-1.52.55,2.67,2.67,0,0,0-.7,1.56h4.17a3.12,3.12,0,0,0-.11-.82,2,2,0,0,0-.36-.67,1.77,1.77,0,0,0-.62-.45A2.06,2.06,0,0,0,236.89,266.65Z"/><path class="cls-2" d="M248.13,267a.47.47,0,0,1-.44.26.83.83,0,0,1-.35-.09l-.42-.2a5.15,5.15,0,0,0-.56-.2,2.6,2.6,0,0,0-.73-.09,1.71,1.71,0,0,0-1,.28.86.86,0,0,0-.37.73.71.71,0,0,0,.19.5,1.83,1.83,0,0,0,.51.35,7.47,7.47,0,0,0,.73.28l.82.26c.29.1.56.21.83.33a2.94,2.94,0,0,1,.73.47,2.17,2.17,0,0,1,.51.68,2.12,2.12,0,0,1,.19.95,3.1,3.1,0,0,1-.24,1.23,2.62,2.62,0,0,1-.71,1,3.17,3.17,0,0,1-1.16.64,5.06,5.06,0,0,1-1.58.23,4.88,4.88,0,0,1-.93-.09,5.06,5.06,0,0,1-.87-.23,6.13,6.13,0,0,1-.77-.36,3.91,3.91,0,0,1-.63-.45l.51-.85a.75.75,0,0,1,.24-.23.59.59,0,0,1,.34-.09.69.69,0,0,1,.39.12c.12.08.27.16.43.25a3.84,3.84,0,0,0,.57.26,2.78,2.78,0,0,0,.83.11,2.24,2.24,0,0,0,.68-.09,1.39,1.39,0,0,0,.47-.25,1,1,0,0,0,.27-.35,1.06,1.06,0,0,0,.09-.42.72.72,0,0,0-.2-.53A1.66,1.66,0,0,0,246,271a4.12,4.12,0,0,0-.73-.28l-.84-.26a8.51,8.51,0,0,1-.83-.34,2.67,2.67,0,0,1-.73-.49,2.16,2.16,0,0,1-.52-.73,2.56,2.56,0,0,1-.19-1.05,2.71,2.71,0,0,1,.22-1.08,2.62,2.62,0,0,1,.67-.89,3.14,3.14,0,0,1,1.08-.61,4.4,4.4,0,0,1,1.51-.23,4.61,4.61,0,0,1,1.74.31,3.87,3.87,0,0,1,1.3.83Z"/><path class="cls-2" d="M254,277.45V265.2h1.36a.73.73,0,0,1,.37.1.49.49,0,0,1,.2.31l.18.85a4.68,4.68,0,0,1,1.28-1,3.42,3.42,0,0,1,1.7-.4,3,3,0,0,1,1.38.32,3.21,3.21,0,0,1,1.08.91,4.52,4.52,0,0,1,.7,1.48,7.56,7.56,0,0,1,.25,2,6.43,6.43,0,0,1-.28,1.91,4.83,4.83,0,0,1-.8,1.53,3.63,3.63,0,0,1-1.25,1,3.69,3.69,0,0,1-1.64.36,3.29,3.29,0,0,1-1.33-.24,3.38,3.38,0,0,1-1-.66v3.78Zm4.32-10.66a2.2,2.2,0,0,0-1.18.29,3.49,3.49,0,0,0-.92.82V272a2.08,2.08,0,0,0,.83.65,2.32,2.32,0,0,0,1,.19,2.12,2.12,0,0,0,.91-.19,1.82,1.82,0,0,0,.69-.58,2.72,2.72,0,0,0,.44-1,5.75,5.75,0,0,0,.15-1.39,6.1,6.1,0,0,0-.13-1.38,2.83,2.83,0,0,0-.37-.91,1.58,1.58,0,0,0-.59-.51A1.83,1.83,0,0,0,258.31,266.79Z"/><path class="cls-2" d="M268.11,265.06a5.12,5.12,0,0,1,1.88.33,3.94,3.94,0,0,1,1.43.95,4.08,4.08,0,0,1,.92,1.49,6.25,6.25,0,0,1,0,3.95,4.21,4.21,0,0,1-.92,1.5,3.84,3.84,0,0,1-1.43,1,5.52,5.52,0,0,1-3.76,0,3.88,3.88,0,0,1-1.44-1,4.23,4.23,0,0,1-.93-1.5,6.08,6.08,0,0,1,0-3.95,4.1,4.1,0,0,1,.93-1.49,4,4,0,0,1,1.44-.95A5.12,5.12,0,0,1,268.11,265.06Zm0,7.8a2,2,0,0,0,1.71-.77,5,5,0,0,0,0-4.55,2.28,2.28,0,0,0-3.44,0,4.86,4.86,0,0,0,0,4.53A2,2,0,0,0,268.11,272.86Z"/><path class="cls-2" d="M279.88,267a.47.47,0,0,1-.44.26.75.75,0,0,1-.34-.09l-.43-.2a4.48,4.48,0,0,0-.56-.2,2.6,2.6,0,0,0-.73-.09,1.66,1.66,0,0,0-1,.28.84.84,0,0,0-.38.73.71.71,0,0,0,.19.5,1.83,1.83,0,0,0,.51.35,7.47,7.47,0,0,0,.73.28l.83.26c.28.1.56.21.82.33a2.61,2.61,0,0,1,.73.47,2.17,2.17,0,0,1,.51.68,2.12,2.12,0,0,1,.2.95,2.94,2.94,0,0,1-.25,1.23,2.62,2.62,0,0,1-.71,1,3.17,3.17,0,0,1-1.16.64,5,5,0,0,1-1.57.23,4.91,4.91,0,0,1-.94-.09,5.06,5.06,0,0,1-.87-.23,6.13,6.13,0,0,1-.77-.36,3.91,3.91,0,0,1-.63-.45l.51-.85a.75.75,0,0,1,.24-.23.59.59,0,0,1,.34-.09.69.69,0,0,1,.39.12l.43.25a3.84,3.84,0,0,0,.57.26,2.78,2.78,0,0,0,.83.11,2.24,2.24,0,0,0,.68-.09,1.39,1.39,0,0,0,.47-.25,1,1,0,0,0,.27-.35,1.06,1.06,0,0,0,.09-.42.72.72,0,0,0-.2-.53,1.66,1.66,0,0,0-.51-.36,4.12,4.12,0,0,0-.73-.28l-.84-.26a8.51,8.51,0,0,1-.83-.34,2.67,2.67,0,0,1-.73-.49,2.13,2.13,0,0,1-.51-.73,2.55,2.55,0,0,1-.2-1.05,2.72,2.72,0,0,1,.23-1.08,2.59,2.59,0,0,1,.66-.89,3.1,3.1,0,0,1,1.09-.61,4.3,4.3,0,0,1,1.5-.23,4.61,4.61,0,0,1,1.74.31,4,4,0,0,1,1.31.83Z"/><path class="cls-2" d="M287.75,267a.53.53,0,0,1-.19.2.49.49,0,0,1-.25.06.79.79,0,0,1-.35-.09l-.43-.2a4.3,4.3,0,0,0-.55-.2,2.65,2.65,0,0,0-.73-.09,1.69,1.69,0,0,0-1,.28.87.87,0,0,0-.38.73.72.72,0,0,0,.2.5,1.83,1.83,0,0,0,.51.35,6.39,6.39,0,0,0,.72.28l.83.26c.28.1.56.21.83.33a2.71,2.71,0,0,1,.72.47,2.06,2.06,0,0,1,.52.68,2.12,2.12,0,0,1,.19.95,3.1,3.1,0,0,1-.24,1.23,2.62,2.62,0,0,1-.71,1,3.25,3.25,0,0,1-1.16.64,5.1,5.1,0,0,1-1.58.23,4.73,4.73,0,0,1-.93-.09,5.06,5.06,0,0,1-.87-.23,7,7,0,0,1-.78-.36,4.3,4.3,0,0,1-.62-.45l.51-.85a.72.72,0,0,1,.23-.23.63.63,0,0,1,.35-.09.74.74,0,0,1,.39.12c.12.08.26.16.43.25a3.84,3.84,0,0,0,.57.26,2.73,2.73,0,0,0,.83.11,2.29,2.29,0,0,0,.68-.09,1.5,1.5,0,0,0,.47-.25,1,1,0,0,0,.27-.35,1.25,1.25,0,0,0,.08-.42.72.72,0,0,0-.19-.53,1.66,1.66,0,0,0-.51-.36,4.44,4.44,0,0,0-.73-.28l-.84-.26a8.68,8.68,0,0,1-.84-.34,3,3,0,0,1-.73-.49,2.28,2.28,0,0,1-.51-.73,2.56,2.56,0,0,1-.19-1.05,2.71,2.71,0,0,1,.22-1.08,2.59,2.59,0,0,1,.66-.89,3.19,3.19,0,0,1,1.09-.61,4.4,4.4,0,0,1,1.51-.23,4.64,4.64,0,0,1,1.74.31,4,4,0,0,1,1.3.83Z"/><path class="cls-2" d="M292.83,262.51a1.4,1.4,0,0,1-.88,1.28,1.31,1.31,0,0,1-.56.12,1.25,1.25,0,0,1-.54-.12,1.37,1.37,0,0,1-.45-.3,1.55,1.55,0,0,1-.3-.44,1.41,1.41,0,0,1-.11-.54,1.51,1.51,0,0,1,.11-.56,1.38,1.38,0,0,1,.75-.75,1.41,1.41,0,0,1,.54-.11,1.47,1.47,0,0,1,.56.11,1.83,1.83,0,0,1,.46.3,1.57,1.57,0,0,1,.31.45A1.51,1.51,0,0,1,292.83,262.51Zm-.33,2.69v9.24h-2.22V265.2Z"/><path class="cls-2" d="M295,274.44V261.06h2.22v5.28a4.67,4.67,0,0,1,1.24-.94,3.58,3.58,0,0,1,1.62-.34,3,3,0,0,1,1.38.31,3.1,3.1,0,0,1,1.08.9,4.38,4.38,0,0,1,.71,1.47,7.59,7.59,0,0,1,.24,2,6.12,6.12,0,0,1-.28,1.91,4.62,4.62,0,0,1-.79,1.53,3.74,3.74,0,0,1-3.67,1.3,3,3,0,0,1-.64-.24,2.45,2.45,0,0,1-.53-.38,3.72,3.72,0,0,1-.48-.49l-.1.62a.53.53,0,0,1-.18.34.62.62,0,0,1-.36.1Zm4.32-7.65a2.26,2.26,0,0,0-1.19.29,3.45,3.45,0,0,0-.91.82V272a2.13,2.13,0,0,0,.82.65,2.4,2.4,0,0,0,1,.19,2.06,2.06,0,0,0,.91-.19,1.82,1.82,0,0,0,.69-.58,2.91,2.91,0,0,0,.44-1,5.75,5.75,0,0,0,.15-1.39,6.1,6.1,0,0,0-.13-1.38,2.83,2.83,0,0,0-.37-.91,1.58,1.58,0,0,0-.59-.51A1.83,1.83,0,0,0,299.36,266.79Z"/><path class="cls-2" d="M307.64,261.06v13.38h-2.22V261.06Z"/><path class="cls-2" d="M314,265.06a4.39,4.39,0,0,1,1.61.28,3.45,3.45,0,0,1,1.27.81,3.69,3.69,0,0,1,.82,1.32,4.86,4.86,0,0,1,.3,1.77c0,.17,0,.31,0,.42a.73.73,0,0,1-.08.26.31.31,0,0,1-.16.14.87.87,0,0,1-.25,0h-5.71a3.18,3.18,0,0,0,.77,2.09,2.38,2.38,0,0,0,1.76.66,3.18,3.18,0,0,0,.93-.12,5.8,5.8,0,0,0,.69-.28l.51-.28a.82.82,0,0,1,.43-.13.41.41,0,0,1,.23.06.4.4,0,0,1,.17.15l.65.81a3.52,3.52,0,0,1-.83.72,4.27,4.27,0,0,1-1,.47,5.14,5.14,0,0,1-1,.25,7.05,7.05,0,0,1-1,.07,5,5,0,0,1-1.79-.32,4.09,4.09,0,0,1-1.44-.94,4.42,4.42,0,0,1-1-1.55,5.89,5.89,0,0,1-.35-2.14,5.24,5.24,0,0,1,.3-1.78,4.55,4.55,0,0,1,.88-1.45,4.13,4.13,0,0,1,1.4-1A4.56,4.56,0,0,1,314,265.06Zm.05,1.59a2,2,0,0,0-1.52.55,2.67,2.67,0,0,0-.7,1.56H316a3.12,3.12,0,0,0-.11-.82,2,2,0,0,0-.36-.67,1.77,1.77,0,0,0-.62-.45A2.06,2.06,0,0,0,314,266.65Z"/><path class="cls-2" d="M187.83,256.85l-2-.1c0-.31,1.5-31.38-4-46.06C177.91,200.21,170,194.31,163,189.1c-1-.77-2.05-1.52-3-2.28l1.21-1.59c1,.76,2,1.51,3,2.27,7.21,5.37,15.39,11.46,19.52,22.49C189.36,225.06,187.9,255.56,187.83,256.85Z"/><polygon class="cls-2" points="163.87 185.13 154.18 180.41 160.21 189.34 163.87 185.13"/></svg>