<svg id="string" xmlns="http://www.w3.org/2000/svg" viewBox="0 0 469 300"><defs><style>.cls-1{fill:#5a5a5a;}.cls-2{fill:none;stroke:#5a5a5a;stroke-miterlimit:10;stroke-width:2px;}.cls-3{fill:#999;}</style></defs><title>data-structures-</title><path class="cls-1" d="M88.5,118.5v3.41H70.71V118.5h7V96.92c0-.68,0-1.39.07-2.13l-5.6,4.75a1.75,1.75,0,0,1-.64.32,1.81,1.81,0,0,1-.61,0,1.16,1.16,0,0,1-.5-.19,1.92,1.92,0,0,1-.36-.31l-1.4-1.95,9.86-8.51h3.65V118.5Z"/><path class="cls-1" d="M168,105.45a26.67,26.67,0,0,1-.93,7.48,15.37,15.37,0,0,1-2.54,5.23,10.19,10.19,0,0,1-3.81,3.09,11.49,11.49,0,0,1-9.42,0,10.05,10.05,0,0,1-3.79-3.09,15.54,15.54,0,0,1-2.52-5.23,30.87,30.87,0,0,1,0-15,15.46,15.46,0,0,1,2.52-5.25,10.15,10.15,0,0,1,3.79-3.09,11.49,11.49,0,0,1,9.42,0,10.29,10.29,0,0,1,3.81,3.09A15.3,15.3,0,0,1,167.09,98,26.72,26.72,0,0,1,168,105.45Zm-4.63,0a27.17,27.17,0,0,0-.6-6.21,12.59,12.59,0,0,0-1.63-4,6.08,6.08,0,0,0-2.35-2.17,6.34,6.34,0,0,0-5.55,0,6,6,0,0,0-2.35,2.17,12.37,12.37,0,0,0-1.62,4,33,33,0,0,0,0,12.42,12.37,12.37,0,0,0,1.62,4,6,6,0,0,0,2.35,2.15,6.34,6.34,0,0,0,5.55,0,6.09,6.09,0,0,0,2.35-2.15,12.59,12.59,0,0,0,1.63-4A27.05,27.05,0,0,0,163.39,105.45Z"/><path class="cls-1" d="M245.72,105.45a26.67,26.67,0,0,1-.93,7.48,15.57,15.57,0,0,1-2.55,5.23,10.08,10.08,0,0,1-3.8,3.09,11.51,11.51,0,0,1-9.43,0,10.05,10.05,0,0,1-3.79-3.09,15.54,15.54,0,0,1-2.52-5.23,30.87,30.87,0,0,1,0-15,15.46,15.46,0,0,1,2.52-5.25A10.15,10.15,0,0,1,229,89.63a11.51,11.51,0,0,1,9.43,0,10.18,10.18,0,0,1,3.8,3.09A15.49,15.49,0,0,1,244.79,98,26.72,26.72,0,0,1,245.72,105.45Zm-4.64,0a27.17,27.17,0,0,0-.6-6.21,12.59,12.59,0,0,0-1.63-4,6,6,0,0,0-2.35-2.17,6.34,6.34,0,0,0-5.55,0,6.08,6.08,0,0,0-2.35,2.17,12.15,12.15,0,0,0-1.61,4,32.44,32.44,0,0,0,0,12.42,12.15,12.15,0,0,0,1.61,4,6.09,6.09,0,0,0,2.35,2.15,6.34,6.34,0,0,0,5.55,0,6,6,0,0,0,2.35-2.15,12.59,12.59,0,0,0,1.63-4A27.05,27.05,0,0,0,241.08,105.45Z"/><path class="cls-1" d="M321.57,118.5v3.41H303.78V118.5h7V96.92c0-.68,0-1.39.07-2.13l-5.59,4.75a1.55,1.55,0,0,1-1.25.34,1.26,1.26,0,0,1-.51-.19,2.2,2.2,0,0,1-.35-.31l-1.4-1.95,9.86-8.51h3.64V118.5Z"/><path class="cls-1" d="M399.27,118.5v3.41H381.48V118.5h7V96.92c0-.68,0-1.39.07-2.13l-5.59,4.75a1.75,1.75,0,0,1-.64.32,1.81,1.81,0,0,1-.61,0,1.16,1.16,0,0,1-.5-.19,1.92,1.92,0,0,1-.36-.31l-1.4-1.95,9.86-8.51h3.65V118.5Z"/><rect class="cls-2" x="35.6" y="47.69" width="394.27" height="86.25"/><path class="cls-1" d="M426.09,51.47v78.69H39.38V51.47H426.09m1-1H38.38v80.69H427.09V50.47Z"/><rect class="cls-1" x="114.6" y="52" width="2.78" height="77.62"/><rect class="cls-1" x="192.22" y="52" width="2.78" height="77.62"/><rect class="cls-1" x="269.85" y="52" width="2.78" height="77.62"/><rect class="cls-1" x="347.47" y="52" width="2.78" height="77.62"/><rect class="cls-1" x="38.68" y="77.49" width="386.88" height="1.39"/><path class="cls-3" d="M53.1,62.52a4.25,4.25,0,0,1,1.67.31A3.55,3.55,0,0,1,56,63.7a4.07,4.07,0,0,1,.8,1.38,5.89,5.89,0,0,1,0,3.59A4,4,0,0,1,56,70a3.43,3.43,0,0,1-1.27.87,4.65,4.65,0,0,1-3.34,0A3.43,3.43,0,0,1,50.16,70a3.89,3.89,0,0,1-.81-1.37,5.7,5.7,0,0,1,0-3.59,3.94,3.94,0,0,1,.81-1.38,3.55,3.55,0,0,1,1.27-.87A4.21,4.21,0,0,1,53.1,62.52Zm0,7.54A2.19,2.19,0,0,0,55,69.22a4.81,4.81,0,0,0,0-4.69,2.19,2.19,0,0,0-1.87-.84,2.51,2.51,0,0,0-1.1.22,2,2,0,0,0-.78.62,2.9,2.9,0,0,0-.47,1,5.58,5.58,0,0,0-.15,1.35,5.43,5.43,0,0,0,.15,1.34,2.81,2.81,0,0,0,.47,1,2,2,0,0,0,.78.62A2.51,2.51,0,0,0,53.1,70.06Z"/><path class="cls-3" d="M59.29,71.1V63.92l-.94-.11a.65.65,0,0,1-.29-.13.3.3,0,0,1-.11-.25v-.61h1.34V62a3.62,3.62,0,0,1,.2-1.28A2.46,2.46,0,0,1,61,59.18a3.21,3.21,0,0,1,1.2-.2,3,3,0,0,1,1.05.17l0,.74a.18.18,0,0,1-.14.2,1.77,1.77,0,0,1-.37,0h-.26a2.19,2.19,0,0,0-.7.1,1.36,1.36,0,0,0-.54.33,1.41,1.41,0,0,0-.34.59,2.91,2.91,0,0,0-.12.91v.77h2.44V63.9H60.78v7.2Z"/><path class="cls-3" d="M64.9,71.1V63.92L64,63.81a.65.65,0,0,1-.29-.13.3.3,0,0,1-.11-.25v-.61H64.9V62a3.62,3.62,0,0,1,.21-1.28,2.46,2.46,0,0,1,.58-.95,2.43,2.43,0,0,1,.91-.59,3.29,3.29,0,0,1,1.2-.2,3,3,0,0,1,1,.17l0,.74a.18.18,0,0,1-.14.2,1.81,1.81,0,0,1-.38,0h-.25a2.19,2.19,0,0,0-.7.1,1.36,1.36,0,0,0-.54.33,1.41,1.41,0,0,0-.34.59,2.91,2.91,0,0,0-.12.91v.77h2.44V63.9H66.4v7.2Z"/><path class="cls-3" d="M75,64.05a.32.32,0,0,1-.31.18.6.6,0,0,1-.28-.09L74,63.93a3.65,3.65,0,0,0-.54-.2,2.39,2.39,0,0,0-.75-.1,2.07,2.07,0,0,0-.68.1,1.53,1.53,0,0,0-.51.26,1.23,1.23,0,0,0-.33.39,1.06,1.06,0,0,0-.11.48.79.79,0,0,0,.19.54,1.58,1.58,0,0,0,.49.37,4.08,4.08,0,0,0,.7.28l.81.26c.27.09.54.19.8.3a3,3,0,0,1,.7.42,1.84,1.84,0,0,1,.5.61,1.87,1.87,0,0,1,.19.88,2.72,2.72,0,0,1-.21,1.07,2.21,2.21,0,0,1-.62.86,2.65,2.65,0,0,1-1,.57,4,4,0,0,1-1.36.21,4.26,4.26,0,0,1-1.6-.28,4.18,4.18,0,0,1-1.22-.74l.35-.57a.44.44,0,0,1,.16-.17.54.54,0,0,1,.24,0,.51.51,0,0,1,.31.11c.12.08.25.17.41.26a3,3,0,0,0,.57.26,2.6,2.6,0,0,0,.85.12,2.2,2.2,0,0,0,.76-.12,1.41,1.41,0,0,0,.54-.3,1.21,1.21,0,0,0,.32-.44,1.41,1.41,0,0,0,.11-.54.94.94,0,0,0-.19-.58,1.67,1.67,0,0,0-.5-.39,3.78,3.78,0,0,0-.7-.28l-.81-.26a7.1,7.1,0,0,1-.81-.3,2.74,2.74,0,0,1-.7-.43,1.88,1.88,0,0,1-.5-.64,2.12,2.12,0,0,1-.19-.92,2.32,2.32,0,0,1,.2-.93,2.24,2.24,0,0,1,.59-.78,2.7,2.7,0,0,1,.94-.54,3.85,3.85,0,0,1,1.27-.2,4.14,4.14,0,0,1,1.5.26,3.86,3.86,0,0,1,1.15.72Z"/><path class="cls-3" d="M80.77,62.52a3.79,3.79,0,0,1,1.4.26,3.2,3.2,0,0,1,1.11.73A3.42,3.42,0,0,1,84,64.69a4.73,4.73,0,0,1,.26,1.61.91.91,0,0,1-.08.46.3.3,0,0,1-.28.12H78.29a4.4,4.4,0,0,0,.22,1.39,2.63,2.63,0,0,0,.55,1,2.11,2.11,0,0,0,.83.59,2.9,2.9,0,0,0,1.09.2,3.05,3.05,0,0,0,1-.13,4.68,4.68,0,0,0,.69-.28,4,4,0,0,0,.49-.28.73.73,0,0,1,.34-.13.32.32,0,0,1,.28.14l.42.55a2.61,2.61,0,0,1-.66.57,3.93,3.93,0,0,1-.82.41,6.61,6.61,0,0,1-.9.24,5.94,5.94,0,0,1-.93.08,4.23,4.23,0,0,1-1.61-.3A3.64,3.64,0,0,1,78,70.05a4,4,0,0,1-.84-1.41,5.75,5.75,0,0,1-.3-1.93,4.92,4.92,0,0,1,.27-1.65,4.06,4.06,0,0,1,.78-1.33,3.65,3.65,0,0,1,1.25-.89A4.15,4.15,0,0,1,80.77,62.52Zm0,1.09a2.28,2.28,0,0,0-1.69.62A3,3,0,0,0,78.34,66h4.59a2.87,2.87,0,0,0-.14-.95,1.95,1.95,0,0,0-1.08-1.23A2.38,2.38,0,0,0,80.8,63.61Z"/><path class="cls-3" d="M88.72,71.23a2,2,0,0,1-1.54-.56,2.2,2.2,0,0,1-.54-1.6V63.9h-1a.36.36,0,0,1-.23-.08.33.33,0,0,1-.09-.25V63l1.38-.18L87,60.2a.3.3,0,0,1,.1-.21.38.38,0,0,1,.24-.08h.75v2.91h2.42V63.9H88.13V69a1.06,1.06,0,0,0,.26.79.9.9,0,0,0,.66.26,1.25,1.25,0,0,0,.41-.07,1.57,1.57,0,0,0,.29-.13l.22-.14a.26.26,0,0,1,.15-.06.24.24,0,0,1,.21.14l.43.71a2.91,2.91,0,0,1-.92.56A3.31,3.31,0,0,1,88.72,71.23Z"/><path class="cls-3" d="M103.55,65.13a9.41,9.41,0,0,1-.34,2.71,5.52,5.52,0,0,1-.92,1.9,3.78,3.78,0,0,1-1.38,1.12,4.22,4.22,0,0,1-3.41,0,3.83,3.83,0,0,1-1.37-1.12,5.7,5.7,0,0,1-.92-1.9,9.8,9.8,0,0,1-.33-2.71,10,10,0,0,1,.33-2.72,5.8,5.8,0,0,1,.92-1.9,3.63,3.63,0,0,1,1.37-1.12,4.11,4.11,0,0,1,3.41,0,3.59,3.59,0,0,1,1.38,1.12,5.61,5.61,0,0,1,.92,1.9A9.58,9.58,0,0,1,103.55,65.13Zm-1.54,0a10,10,0,0,0-.23-2.3,4.49,4.49,0,0,0-.62-1.49,2.45,2.45,0,0,0-.89-.82,2.48,2.48,0,0,0-1.06-.24,2.45,2.45,0,0,0-1.06.24,2.3,2.3,0,0,0-.89.82,4.71,4.71,0,0,0-.62,1.49,10,10,0,0,0-.23,2.3,9.8,9.8,0,0,0,.23,2.29,4.61,4.61,0,0,0,.62,1.49,2.3,2.3,0,0,0,.89.82,2.45,2.45,0,0,0,1.06.24,2.48,2.48,0,0,0,1.06-.24,2.45,2.45,0,0,0,.89-.82,4.4,4.4,0,0,0,.62-1.49A9.8,9.8,0,0,0,102,65.13Z"/><path class="cls-3" d="M131.26,62.52a4.28,4.28,0,0,1,1.67.31,3.55,3.55,0,0,1,1.27.87,4.07,4.07,0,0,1,.8,1.38,5.89,5.89,0,0,1,0,3.59,4,4,0,0,1-.8,1.37,3.43,3.43,0,0,1-1.27.87,4.28,4.28,0,0,1-1.67.31,4.21,4.21,0,0,1-1.67-.31,3.47,3.47,0,0,1-1.28-.87,3.73,3.73,0,0,1-.8-1.37,5.7,5.7,0,0,1,0-3.59,3.77,3.77,0,0,1,.8-1.38,3.59,3.59,0,0,1,1.28-.87A4.21,4.21,0,0,1,131.26,62.52Zm0,7.54a2.15,2.15,0,0,0,1.86-.84,4.74,4.74,0,0,0,0-4.69,2.15,2.15,0,0,0-1.86-.84,2.48,2.48,0,0,0-1.1.22,2,2,0,0,0-.78.62,2.73,2.73,0,0,0-.47,1,5.58,5.58,0,0,0-.15,1.35,5.43,5.43,0,0,0,.15,1.34,2.65,2.65,0,0,0,.47,1,2,2,0,0,0,.78.62A2.48,2.48,0,0,0,131.26,70.06Z"/><path class="cls-3" d="M137.44,71.1V63.92l-.93-.11a.65.65,0,0,1-.29-.13.3.3,0,0,1-.11-.25v-.61h1.33V62a3.62,3.62,0,0,1,.21-1.28,2.46,2.46,0,0,1,.58-.95,2.43,2.43,0,0,1,.91-.59,3.29,3.29,0,0,1,1.2-.2,3,3,0,0,1,1,.17l0,.74a.18.18,0,0,1-.14.2,1.81,1.81,0,0,1-.38,0h-.25a2.19,2.19,0,0,0-.7.1,1.36,1.36,0,0,0-.54.33,1.41,1.41,0,0,0-.34.59,2.91,2.91,0,0,0-.12.91v.77h2.44V63.9h-2.39v7.2Z"/><path class="cls-3" d="M143.06,71.1V63.92l-.93-.11a.65.65,0,0,1-.29-.13.27.27,0,0,1-.11-.25v-.61h1.33V62a3.62,3.62,0,0,1,.21-1.28,2.46,2.46,0,0,1,.58-.95,2.43,2.43,0,0,1,.91-.59A3.29,3.29,0,0,1,146,59a3,3,0,0,1,1,.17l0,.74c0,.11,0,.18-.14.2a1.87,1.87,0,0,1-.38,0h-.26a2.17,2.17,0,0,0-.69.1,1.36,1.36,0,0,0-.54.33,1.54,1.54,0,0,0-.35.59,2.91,2.91,0,0,0-.12.91v.77H147V63.9h-2.4v7.2Z"/><path class="cls-3" d="M153.18,64.05a.33.33,0,0,1-.31.18.57.57,0,0,1-.28-.09l-.39-.21a3.65,3.65,0,0,0-.54-.2,2.48,2.48,0,0,0-.75-.1,2.07,2.07,0,0,0-.68.1,1.53,1.53,0,0,0-.51.26,1.23,1.23,0,0,0-.33.39,1.06,1.06,0,0,0-.11.48.79.79,0,0,0,.19.54,1.58,1.58,0,0,0,.49.37,4.08,4.08,0,0,0,.7.28l.81.26c.27.09.54.19.8.3a3,3,0,0,1,.7.42,2,2,0,0,1,.5.61,2,2,0,0,1,.19.88,2.72,2.72,0,0,1-.21,1.07,2.32,2.32,0,0,1-.62.86,2.65,2.65,0,0,1-1,.57,4.07,4.07,0,0,1-1.37.21,4.3,4.3,0,0,1-1.6-.28,4.12,4.12,0,0,1-1.21-.74l.35-.57a.5.5,0,0,1,.15-.17.62.62,0,0,1,.25,0,.51.51,0,0,1,.31.11,4.27,4.27,0,0,0,.41.26,3,3,0,0,0,.57.26,2.6,2.6,0,0,0,.85.12,2.2,2.2,0,0,0,.76-.12,1.57,1.57,0,0,0,.54-.3,1.34,1.34,0,0,0,.32-.44,1.4,1.4,0,0,0,.1-.54.93.93,0,0,0-.18-.58,1.67,1.67,0,0,0-.5-.39,4.08,4.08,0,0,0-.7-.28l-.81-.26a7.1,7.1,0,0,1-.81-.3,3,3,0,0,1-.71-.43,1.85,1.85,0,0,1-.49-.64,2,2,0,0,1-.19-.92,2.32,2.32,0,0,1,.2-.93,2.21,2.21,0,0,1,.58-.78,2.75,2.75,0,0,1,.95-.54,3.8,3.8,0,0,1,1.27-.2,4.14,4.14,0,0,1,1.5.26,3.69,3.69,0,0,1,1.14.72Z"/><path class="cls-3" d="M158.92,62.52a3.8,3.8,0,0,1,1.41.26,3.17,3.17,0,0,1,1.83,1.91,4.49,4.49,0,0,1,.27,1.61.91.91,0,0,1-.08.46.3.3,0,0,1-.28.12h-5.62a4.4,4.4,0,0,0,.22,1.39,2.63,2.63,0,0,0,.55,1,2.11,2.11,0,0,0,.83.59,2.85,2.85,0,0,0,1.08.2,3.08,3.08,0,0,0,1-.13,4.68,4.68,0,0,0,.69-.28,4,4,0,0,0,.49-.28.69.69,0,0,1,.34-.13.34.34,0,0,1,.28.14l.42.55a2.8,2.8,0,0,1-.66.57,4.19,4.19,0,0,1-.82.41,6.38,6.38,0,0,1-.91.24,5.82,5.82,0,0,1-.92.08,4.2,4.2,0,0,1-1.61-.3,3.55,3.55,0,0,1-1.28-.87,4,4,0,0,1-.84-1.41,5.75,5.75,0,0,1-.3-1.93,4.92,4.92,0,0,1,.27-1.65,3.7,3.7,0,0,1,2-2.22A4.15,4.15,0,0,1,158.92,62.52Zm0,1.09a2.28,2.28,0,0,0-1.69.62A2.9,2.9,0,0,0,156.5,66h4.59A2.87,2.87,0,0,0,161,65a1.93,1.93,0,0,0-.42-.74,1.85,1.85,0,0,0-.67-.49A2.29,2.29,0,0,0,159,63.61Z"/><path class="cls-3" d="M166.88,71.23a2,2,0,0,1-1.54-.56,2.2,2.2,0,0,1-.54-1.6V63.9h-1a.36.36,0,0,1-.23-.08.33.33,0,0,1-.09-.25V63l1.38-.18.34-2.6a.36.36,0,0,1,.11-.21.36.36,0,0,1,.24-.08h.75v2.91h2.41V63.9h-2.41V69a1.1,1.1,0,0,0,.25.79.94.94,0,0,0,.67.26,1.25,1.25,0,0,0,.41-.07,1.57,1.57,0,0,0,.29-.13l.21-.14a.29.29,0,0,1,.16-.06.24.24,0,0,1,.21.14l.43.71A2.91,2.91,0,0,1,168,71,3.35,3.35,0,0,1,166.88,71.23Z"/><path class="cls-3" d="M174.93,70h2.57V61.82c0-.24,0-.49,0-.74l-2.13,1.83a.7.7,0,0,1-.17.09.45.45,0,0,1-.16,0,.54.54,0,0,1-.22-.05.39.39,0,0,1-.15-.13l-.47-.65,3.55-3.07H179V70h2.35V71.1h-6.4Z"/><path class="cls-3" d="M209.42,62.52a4.28,4.28,0,0,1,1.67.31,3.55,3.55,0,0,1,1.27.87,4.07,4.07,0,0,1,.8,1.38,5.89,5.89,0,0,1,0,3.59,4,4,0,0,1-.8,1.37,3.43,3.43,0,0,1-1.27.87,4.28,4.28,0,0,1-1.67.31,4.21,4.21,0,0,1-1.67-.31,3.47,3.47,0,0,1-1.28-.87,3.73,3.73,0,0,1-.8-1.37,5.7,5.7,0,0,1,0-3.59,3.77,3.77,0,0,1,.8-1.38,3.59,3.59,0,0,1,1.28-.87A4.21,4.21,0,0,1,209.42,62.52Zm0,7.54a2.15,2.15,0,0,0,1.86-.84,4.74,4.74,0,0,0,0-4.69,2.15,2.15,0,0,0-1.86-.84,2.51,2.51,0,0,0-1.1.22,2,2,0,0,0-.78.62,2.73,2.73,0,0,0-.47,1,5.58,5.58,0,0,0-.15,1.35,5.43,5.43,0,0,0,.15,1.34,2.65,2.65,0,0,0,.47,1,2,2,0,0,0,.78.62A2.51,2.51,0,0,0,209.42,70.06Z"/><path class="cls-3" d="M215.6,71.1V63.92l-.93-.11a.65.65,0,0,1-.29-.13.3.3,0,0,1-.11-.25v-.61h1.33V62a3.62,3.62,0,0,1,.21-1.28,2.46,2.46,0,0,1,.58-.95,2.43,2.43,0,0,1,.91-.59,3.29,3.29,0,0,1,1.2-.2,3,3,0,0,1,1.05.17l0,.74a.18.18,0,0,1-.14.2,1.81,1.81,0,0,1-.38,0h-.25a2.19,2.19,0,0,0-.7.1,1.36,1.36,0,0,0-.54.33,1.41,1.41,0,0,0-.34.59,2.91,2.91,0,0,0-.12.91v.77h2.44V63.9H217.1v7.2Z"/><path class="cls-3" d="M221.22,71.1V63.92l-.93-.11a.65.65,0,0,1-.29-.13.27.27,0,0,1-.11-.25v-.61h1.33V62a3.62,3.62,0,0,1,.21-1.28,2.46,2.46,0,0,1,.58-.95,2.43,2.43,0,0,1,.91-.59,3.29,3.29,0,0,1,1.2-.2,3,3,0,0,1,1,.17l0,.74c0,.11,0,.18-.14.2a1.87,1.87,0,0,1-.38,0h-.26a2.17,2.17,0,0,0-.69.1,1.36,1.36,0,0,0-.54.33,1.54,1.54,0,0,0-.35.59,2.91,2.91,0,0,0-.12.91v.77h2.45V63.9h-2.4v7.2Z"/><path class="cls-3" d="M231.34,64.05a.33.33,0,0,1-.31.18.57.57,0,0,1-.28-.09l-.39-.21a3.65,3.65,0,0,0-.54-.2,2.48,2.48,0,0,0-.75-.1,2.07,2.07,0,0,0-.68.1,1.53,1.53,0,0,0-.51.26,1.23,1.23,0,0,0-.33.39,1.06,1.06,0,0,0-.11.48.79.79,0,0,0,.19.54,1.58,1.58,0,0,0,.49.37,4.08,4.08,0,0,0,.7.28l.81.26c.27.09.54.19.8.3a3,3,0,0,1,.7.42,2,2,0,0,1,.5.61,2,2,0,0,1,.19.88,2.72,2.72,0,0,1-.21,1.07,2.32,2.32,0,0,1-.62.86,2.65,2.65,0,0,1-1,.57,4.07,4.07,0,0,1-1.37.21A4.3,4.3,0,0,1,227,71a4.12,4.12,0,0,1-1.21-.74l.35-.57a.5.5,0,0,1,.15-.17.62.62,0,0,1,.25,0,.51.51,0,0,1,.31.11,4.27,4.27,0,0,0,.41.26,3,3,0,0,0,.57.26,2.6,2.6,0,0,0,.85.12,2.2,2.2,0,0,0,.76-.12,1.57,1.57,0,0,0,.54-.3,1.34,1.34,0,0,0,.32-.44,1.4,1.4,0,0,0,.1-.54.93.93,0,0,0-.18-.58,1.67,1.67,0,0,0-.5-.39,3.78,3.78,0,0,0-.7-.28l-.81-.26a7.1,7.1,0,0,1-.81-.3,3,3,0,0,1-.71-.43,1.85,1.85,0,0,1-.49-.64A2,2,0,0,1,226,65a2.32,2.32,0,0,1,.2-.93,2.21,2.21,0,0,1,.58-.78,2.75,2.75,0,0,1,.95-.54,3.8,3.8,0,0,1,1.27-.2,4.14,4.14,0,0,1,1.5.26,3.69,3.69,0,0,1,1.14.72Z"/><path class="cls-3" d="M237.08,62.52a3.8,3.8,0,0,1,1.41.26,3.17,3.17,0,0,1,1.83,1.91,4.49,4.49,0,0,1,.27,1.61.91.91,0,0,1-.08.46.3.3,0,0,1-.28.12h-5.62a4.4,4.4,0,0,0,.22,1.39,2.63,2.63,0,0,0,.55,1,2.11,2.11,0,0,0,.83.59,2.85,2.85,0,0,0,1.08.2,3.08,3.08,0,0,0,1-.13,4.68,4.68,0,0,0,.69-.28,4,4,0,0,0,.49-.28.69.69,0,0,1,.34-.13.32.32,0,0,1,.28.14l.42.55a2.8,2.8,0,0,1-.66.57,4.19,4.19,0,0,1-.82.41,6.38,6.38,0,0,1-.91.24,5.82,5.82,0,0,1-.92.08,4.2,4.2,0,0,1-1.61-.3,3.55,3.55,0,0,1-1.28-.87,4,4,0,0,1-.84-1.41,5.75,5.75,0,0,1-.3-1.93,4.92,4.92,0,0,1,.27-1.65,3.7,3.7,0,0,1,2-2.22A4.15,4.15,0,0,1,237.08,62.52Zm0,1.09a2.28,2.28,0,0,0-1.69.62,2.9,2.9,0,0,0-.77,1.73h4.59a2.87,2.87,0,0,0-.14-.95,1.93,1.93,0,0,0-.42-.74,1.85,1.85,0,0,0-.67-.49A2.29,2.29,0,0,0,237.12,63.61Z"/><path class="cls-3" d="M245,71.23a2,2,0,0,1-1.54-.56,2.2,2.2,0,0,1-.54-1.6V63.9h-1a.36.36,0,0,1-.23-.08.33.33,0,0,1-.09-.25V63L243,62.8l.34-2.6a.36.36,0,0,1,.11-.21.36.36,0,0,1,.24-.08h.75v2.91h2.41V63.9h-2.41V69a1.06,1.06,0,0,0,.26.79.9.9,0,0,0,.66.26,1.25,1.25,0,0,0,.41-.07,1.57,1.57,0,0,0,.29-.13l.21-.14a.29.29,0,0,1,.16-.06.24.24,0,0,1,.21.14l.43.71a2.91,2.91,0,0,1-.92.56A3.35,3.35,0,0,1,245,71.23Z"/><path class="cls-3" d="M255.71,59a4.4,4.4,0,0,1,1.42.22,3.43,3.43,0,0,1,1.13.66A3.12,3.12,0,0,1,259,61a3.43,3.43,0,0,1,.27,1.4,3.53,3.53,0,0,1-.2,1.23,4.81,4.81,0,0,1-.54,1.09,8.14,8.14,0,0,1-.79,1c-.29.32-.61.65-.94,1l-3.15,3.22c.23-.06.45-.11.68-.15a5.14,5.14,0,0,1,.66,0h4a.52.52,0,0,1,.38.14.5.5,0,0,1,.15.37v.9h-8v-.51a1,1,0,0,1,.06-.32.87.87,0,0,1,.2-.31l3.83-3.85c.32-.32.6-.63.87-.93a6.69,6.69,0,0,0,.67-.89,4.68,4.68,0,0,0,.43-.91,3.21,3.21,0,0,0,.15-1,2.36,2.36,0,0,0-.17-.92,1.78,1.78,0,0,0-.46-.66,2,2,0,0,0-.68-.39,2.91,2.91,0,0,0-.85-.12,2.53,2.53,0,0,0-.83.13,2.36,2.36,0,0,0-.68.37,2.67,2.67,0,0,0-.5.56,2.53,2.53,0,0,0-.29.72.63.63,0,0,1-.2.35.52.52,0,0,1-.35.11h-.19l-.77-.13a4.25,4.25,0,0,1,.45-1.45,3.36,3.36,0,0,1,.84-1,3.67,3.67,0,0,1,1.18-.65A4.42,4.42,0,0,1,255.71,59Z"/><path class="cls-3" d="M287.58,62.52a4.28,4.28,0,0,1,1.67.31,3.43,3.43,0,0,1,1.26.87,3.94,3.94,0,0,1,.81,1.38,6.1,6.1,0,0,1,0,3.59,3.89,3.89,0,0,1-.81,1.37,3.31,3.31,0,0,1-1.26.87,4.28,4.28,0,0,1-1.67.31,4.21,4.21,0,0,1-1.67-.31,3.47,3.47,0,0,1-1.28-.87,3.73,3.73,0,0,1-.8-1.37,5.7,5.7,0,0,1,0-3.59,3.77,3.77,0,0,1,.8-1.38,3.59,3.59,0,0,1,1.28-.87A4.21,4.21,0,0,1,287.58,62.52Zm0,7.54a2.15,2.15,0,0,0,1.86-.84,4.74,4.74,0,0,0,0-4.69,2.15,2.15,0,0,0-1.86-.84,2.48,2.48,0,0,0-1.1.22,2,2,0,0,0-.78.62,2.73,2.73,0,0,0-.47,1,5.58,5.58,0,0,0-.15,1.35,5.43,5.43,0,0,0,.15,1.34,2.65,2.65,0,0,0,.47,1,2,2,0,0,0,.78.62A2.48,2.48,0,0,0,287.58,70.06Z"/><path class="cls-3" d="M293.76,71.1V63.92l-.93-.11a.65.65,0,0,1-.29-.13.3.3,0,0,1-.11-.25v-.61h1.33V62a3.62,3.62,0,0,1,.21-1.28,2.46,2.46,0,0,1,.58-.95,2.43,2.43,0,0,1,.91-.59,3.29,3.29,0,0,1,1.2-.2,3,3,0,0,1,1,.17l0,.74c0,.11-.05.18-.14.2a1.81,1.81,0,0,1-.38,0h-.25a2.19,2.19,0,0,0-.7.1,1.36,1.36,0,0,0-.54.33,1.41,1.41,0,0,0-.34.59,2.91,2.91,0,0,0-.12.91v.77h2.44V63.9h-2.4v7.2Z"/><path class="cls-3" d="M299.38,71.1V63.92l-.93-.11a.6.6,0,0,1-.29-.13.27.27,0,0,1-.11-.25v-.61h1.33V62a3.86,3.86,0,0,1,.2-1.28,2.6,2.6,0,0,1,.59-.95,2.43,2.43,0,0,1,.91-.59,3.29,3.29,0,0,1,1.2-.2,3,3,0,0,1,1.05.17l0,.74c0,.11-.05.18-.14.2a1.87,1.87,0,0,1-.38,0h-.26a2.17,2.17,0,0,0-.69.1,1.36,1.36,0,0,0-.54.33,1.43,1.43,0,0,0-.35.59,2.91,2.91,0,0,0-.12.91v.77h2.45V63.9h-2.4v7.2Z"/><path class="cls-3" d="M309.5,64.05a.33.33,0,0,1-.31.18.57.57,0,0,1-.28-.09l-.39-.21a3.41,3.41,0,0,0-.55-.2,2.39,2.39,0,0,0-.75-.1,2,2,0,0,0-.67.1A1.53,1.53,0,0,0,306,64a1.11,1.11,0,0,0-.33.39,1.06,1.06,0,0,0-.11.48.79.79,0,0,0,.19.54,1.58,1.58,0,0,0,.49.37,4.08,4.08,0,0,0,.7.28l.81.26c.27.09.54.19.8.3a3,3,0,0,1,.7.42,2,2,0,0,1,.5.61,2,2,0,0,1,.19.88,2.72,2.72,0,0,1-.21,1.07,2.32,2.32,0,0,1-.62.86,2.73,2.73,0,0,1-1,.57,4.11,4.11,0,0,1-1.37.21,4.13,4.13,0,0,1-2.82-1l.36-.57a.5.5,0,0,1,.15-.17.62.62,0,0,1,.25,0,.51.51,0,0,1,.31.11,4.27,4.27,0,0,0,.41.26,2.77,2.77,0,0,0,.57.26,2.6,2.6,0,0,0,.85.12,2.2,2.2,0,0,0,.76-.12,1.57,1.57,0,0,0,.54-.3,1.34,1.34,0,0,0,.32-.44,1.4,1.4,0,0,0,.1-.54.93.93,0,0,0-.18-.58,1.67,1.67,0,0,0-.5-.39,4.08,4.08,0,0,0-.7-.28l-.81-.26a7.1,7.1,0,0,1-.81-.3,2.8,2.8,0,0,1-.71-.43,1.85,1.85,0,0,1-.49-.64,2,2,0,0,1-.19-.92,2.32,2.32,0,0,1,.2-.93,2.21,2.21,0,0,1,.58-.78,2.75,2.75,0,0,1,.95-.54,3.8,3.8,0,0,1,1.27-.2,4.14,4.14,0,0,1,1.5.26,3.69,3.69,0,0,1,1.14.72Z"/><path class="cls-3" d="M315.24,62.52a3.8,3.8,0,0,1,1.41.26,3.17,3.17,0,0,1,1.83,1.91,4.49,4.49,0,0,1,.27,1.61.91.91,0,0,1-.08.46.3.3,0,0,1-.28.12h-5.62a4.4,4.4,0,0,0,.22,1.39,2.63,2.63,0,0,0,.55,1,2.11,2.11,0,0,0,.83.59,2.85,2.85,0,0,0,1.08.2,3.08,3.08,0,0,0,1-.13,4.68,4.68,0,0,0,.69-.28,4,4,0,0,0,.49-.28.69.69,0,0,1,.34-.13.34.34,0,0,1,.28.14l.42.55a3,3,0,0,1-.66.57,4.19,4.19,0,0,1-.82.41,6.75,6.75,0,0,1-.91.24,5.82,5.82,0,0,1-.92.08,4.28,4.28,0,0,1-1.62-.3,3.6,3.6,0,0,1-1.27-.87,4,4,0,0,1-.84-1.41,5.75,5.75,0,0,1-.3-1.93,4.92,4.92,0,0,1,.27-1.65,3.74,3.74,0,0,1,.78-1.33,3.61,3.61,0,0,1,1.24-.89A4.15,4.15,0,0,1,315.24,62.52Zm0,1.09a2.28,2.28,0,0,0-1.69.62,2.9,2.9,0,0,0-.77,1.73h4.59a2.87,2.87,0,0,0-.14-.95,1.93,1.93,0,0,0-.42-.74,1.85,1.85,0,0,0-.67-.49A2.29,2.29,0,0,0,315.28,63.61Z"/><path class="cls-3" d="M323.2,71.23a2,2,0,0,1-1.54-.56,2.2,2.2,0,0,1-.54-1.6V63.9h-1a.35.35,0,0,1-.22-.08.33.33,0,0,1-.09-.25V63l1.38-.18.34-2.6a.31.31,0,0,1,.11-.21.36.36,0,0,1,.24-.08h.75v2.91H325V63.9h-2.41V69a1.1,1.1,0,0,0,.25.79.94.94,0,0,0,.67.26,1.25,1.25,0,0,0,.41-.07,1.57,1.57,0,0,0,.29-.13l.21-.14a.29.29,0,0,1,.16-.06.24.24,0,0,1,.21.14l.43.71a3,3,0,0,1-.93.56A3.25,3.25,0,0,1,323.2,71.23Z"/><path class="cls-3" d="M334,59a4.24,4.24,0,0,1,1.4.22,3.36,3.36,0,0,1,1.1.61,2.77,2.77,0,0,1,.72,1,3.05,3.05,0,0,1,.26,1.26,3.15,3.15,0,0,1-.15,1,2.38,2.38,0,0,1-.41.79,2.61,2.61,0,0,1-.66.57,3.54,3.54,0,0,1-.86.37,3.24,3.24,0,0,1,1.76,1,2.79,2.79,0,0,1,.59,1.81,3.43,3.43,0,0,1-.32,1.49,3.24,3.24,0,0,1-.85,1.12,3.89,3.89,0,0,1-1.26.71,4.89,4.89,0,0,1-1.55.24,4.81,4.81,0,0,1-1.62-.24,3.23,3.23,0,0,1-1.15-.65,3.53,3.53,0,0,1-.76-1,7.55,7.55,0,0,1-.51-1.23l.63-.27a.89.89,0,0,1,.35-.08.73.73,0,0,1,.3.07.44.44,0,0,1,.19.23.43.43,0,0,1,0,.07l0,.07c.08.17.17.35.28.55a2.35,2.35,0,0,0,.45.57,2.4,2.4,0,0,0,.71.45,3,3,0,0,0,2.14,0,2.2,2.2,0,0,0,.78-.53,2.21,2.21,0,0,0,.63-1.52,2.75,2.75,0,0,0-.13-.88,1.46,1.46,0,0,0-.46-.69,2.5,2.5,0,0,0-.94-.46,5.77,5.77,0,0,0-1.53-.17V64.43a4.48,4.48,0,0,0,1.3-.16,2.49,2.49,0,0,0,.88-.43,1.61,1.61,0,0,0,.5-.66,2.34,2.34,0,0,0,.15-.85,2.26,2.26,0,0,0-.16-.9,1.64,1.64,0,0,0-.45-.63,1.77,1.77,0,0,0-.67-.38,2.84,2.84,0,0,0-.84-.12,2.45,2.45,0,0,0-.83.13,2.23,2.23,0,0,0-.68.37,2.28,2.28,0,0,0-.5.57,2.66,2.66,0,0,0-.3.71.63.63,0,0,1-.2.35.53.53,0,0,1-.34.11h-.19l-.78-.13a4.26,4.26,0,0,1,.46-1.45,3.36,3.36,0,0,1,.84-1,3.48,3.48,0,0,1,1.18-.65A4.38,4.38,0,0,1,334,59Z"/><path class="cls-3" d="M365.73,62.52a4.3,4.3,0,0,1,1.68.31,3.51,3.51,0,0,1,1.26.87,3.77,3.77,0,0,1,.8,1.38,5.89,5.89,0,0,1,0,3.59,3.73,3.73,0,0,1-.8,1.37,3.39,3.39,0,0,1-1.26.87,4.68,4.68,0,0,1-3.35,0,3.51,3.51,0,0,1-1.27-.87,3.89,3.89,0,0,1-.81-1.37,5.89,5.89,0,0,1,0-3.59,3.94,3.94,0,0,1,.81-1.38,3.64,3.64,0,0,1,1.27-.87A4.28,4.28,0,0,1,365.73,62.52Zm0,7.54a2.16,2.16,0,0,0,1.87-.84,4.74,4.74,0,0,0,0-4.69,2.16,2.16,0,0,0-1.87-.84,2.54,2.54,0,0,0-1.1.22,2,2,0,0,0-.78.62,2.88,2.88,0,0,0-.46,1,5.55,5.55,0,0,0-.16,1.35,5.41,5.41,0,0,0,.16,1.34,2.8,2.8,0,0,0,.46,1,2,2,0,0,0,.78.62A2.54,2.54,0,0,0,365.73,70.06Z"/><path class="cls-3" d="M371.92,71.1V63.92l-.93-.11a.6.6,0,0,1-.29-.13.27.27,0,0,1-.11-.25v-.61h1.33V62a3.86,3.86,0,0,1,.2-1.28,2.6,2.6,0,0,1,.59-.95,2.43,2.43,0,0,1,.91-.59,3.29,3.29,0,0,1,1.2-.2,3,3,0,0,1,1.05.17l0,.74c0,.11,0,.18-.14.2a1.87,1.87,0,0,1-.38,0h-.26a2.17,2.17,0,0,0-.69.1,1.36,1.36,0,0,0-.54.33,1.43,1.43,0,0,0-.35.59,2.91,2.91,0,0,0-.12.91v.77h2.45V63.9h-2.4v7.2Z"/><path class="cls-3" d="M377.54,71.1V63.92l-.93-.11a.6.6,0,0,1-.29-.13.27.27,0,0,1-.11-.25v-.61h1.33V62a3.86,3.86,0,0,1,.2-1.28,2.47,2.47,0,0,1,.59-.95,2.35,2.35,0,0,1,.91-.59,3.25,3.25,0,0,1,1.2-.2,3,3,0,0,1,1.05.17l0,.74a.2.2,0,0,1-.14.2,1.87,1.87,0,0,1-.38,0h-.26a2.13,2.13,0,0,0-.69.1,1.36,1.36,0,0,0-.54.33,1.43,1.43,0,0,0-.35.59,2.91,2.91,0,0,0-.12.91v.77h2.44V63.9H379v7.2Z"/><path class="cls-3" d="M387.66,64.05a.33.33,0,0,1-.31.18.57.57,0,0,1-.28-.09l-.39-.21a3.81,3.81,0,0,0-.55-.2,2.39,2.39,0,0,0-.75-.1,2,2,0,0,0-.67.1,1.53,1.53,0,0,0-.51.26,1,1,0,0,0-.33.39,1,1,0,0,0-.11.48.84.84,0,0,0,.18.54,1.76,1.76,0,0,0,.5.37,4.08,4.08,0,0,0,.7.28l.81.26c.27.09.54.19.8.3a3.25,3.25,0,0,1,.7.42,2,2,0,0,1,.5.61,2,2,0,0,1,.18.88,2.91,2.91,0,0,1-.2,1.07,2.32,2.32,0,0,1-.62.86,2.73,2.73,0,0,1-1,.57,4.11,4.11,0,0,1-1.37.21,4.13,4.13,0,0,1-2.82-1l.35-.57a.66.66,0,0,1,.16-.17.55.55,0,0,1,.56.06l.4.26a2.87,2.87,0,0,0,.58.26,2.55,2.55,0,0,0,.85.12,2.15,2.15,0,0,0,.75-.12,1.53,1.53,0,0,0,.55-.3,1.34,1.34,0,0,0,.32-.44,1.4,1.4,0,0,0,.1-.54.88.88,0,0,0-.19-.58,1.62,1.62,0,0,0-.49-.39,3.89,3.89,0,0,0-.71-.28l-.81-.26a7.71,7.71,0,0,1-.8-.3,2.8,2.8,0,0,1-.71-.43,1.85,1.85,0,0,1-.49-.64,2,2,0,0,1-.19-.92,2.32,2.32,0,0,1,.2-.93,2.21,2.21,0,0,1,.58-.78,2.79,2.79,0,0,1,.94-.54,3.91,3.91,0,0,1,1.28-.2,4.18,4.18,0,0,1,1.5.26,3.69,3.69,0,0,1,1.14.72Z"/><path class="cls-3" d="M393.4,62.52a3.75,3.75,0,0,1,1.4.26,3.11,3.11,0,0,1,1.11.73,3.28,3.28,0,0,1,.73,1.18,4.5,4.5,0,0,1,.26,1.61.94.94,0,0,1-.07.46.31.31,0,0,1-.28.12h-5.62a4.73,4.73,0,0,0,.21,1.39,2.93,2.93,0,0,0,.55,1,2.22,2.22,0,0,0,.84.59,2.85,2.85,0,0,0,1.08.2,3.05,3.05,0,0,0,1-.13,4.84,4.84,0,0,0,.7-.28,5,5,0,0,0,.49-.28.69.69,0,0,1,.34-.13.34.34,0,0,1,.28.14l.42.55a3,3,0,0,1-.66.57,4.19,4.19,0,0,1-.82.41,7.17,7.17,0,0,1-.91.24,5.82,5.82,0,0,1-.92.08,4.28,4.28,0,0,1-1.62-.3,3.6,3.6,0,0,1-1.27-.87,4,4,0,0,1-.84-1.41,5.75,5.75,0,0,1-.3-1.93,4.92,4.92,0,0,1,.27-1.65,3.74,3.74,0,0,1,.78-1.33,3.61,3.61,0,0,1,1.24-.89A4.15,4.15,0,0,1,393.4,62.52Zm0,1.09a2.32,2.32,0,0,0-1.7.62A3,3,0,0,0,391,66h4.59a3.16,3.16,0,0,0-.14-.95,2.07,2.07,0,0,0-.42-.74,1.94,1.94,0,0,0-.67-.49A2.29,2.29,0,0,0,393.44,63.61Z"/><path class="cls-3" d="M401.36,71.23a2,2,0,0,1-1.54-.56,2.2,2.2,0,0,1-.54-1.6V63.9h-1a.29.29,0,0,1-.31-.33V63l1.38-.18.34-2.6a.31.31,0,0,1,.11-.21.36.36,0,0,1,.23-.08h.75v2.91h2.42V63.9h-2.42V69a1.11,1.11,0,0,0,.26.79.92.92,0,0,0,.67.26,1.19,1.19,0,0,0,.4-.07,1.42,1.42,0,0,0,.3-.13l.21-.14a.29.29,0,0,1,.16-.06.24.24,0,0,1,.2.14l.44.71a3.07,3.07,0,0,1-.93.56A3.25,3.25,0,0,1,401.36,71.23Z"/><path class="cls-3" d="M414.54,66.79h1.81v.85a.32.32,0,0,1-.08.23A.3.3,0,0,1,416,68h-1.49V71.1h-1.31V68h-5.29a.48.48,0,0,1-.29-.1.38.38,0,0,1-.15-.24l-.15-.76,5.81-7.71h1.38Zm-1.31-4.93c0-.14,0-.3,0-.46a4.8,4.8,0,0,1,.05-.52L409,66.79h4.27Z"/></svg>