<svg id="string" xmlns="http://www.w3.org/2000/svg" viewBox="0 0 469 300"><defs><style>.cls-1{fill:#5a5a5a;}.cls-2{fill:#999;}</style></defs><title>data-structures-</title><path class="cls-1" d="M375.56,92H365.21v3h10.35a13.51,13.51,0,0,1,13.5,13.5v94.89a13.51,13.51,0,0,1-13.5,13.5H86.94a13.51,13.51,0,0,1-13.5-13.5V108.52A13.51,13.51,0,0,1,86.94,95H94.5V92H86.94a16.52,16.52,0,0,0-16.5,16.5v94.89a16.52,16.52,0,0,0,16.5,16.5H375.56a16.52,16.52,0,0,0,16.5-16.5V108.52A16.52,16.52,0,0,0,375.56,92Z"/><rect class="cls-1" x="172.15" y="92.02" width="145.42" height="3"/><path class="cls-1" d="M100.78,97.4V84H103v5.14a4.77,4.77,0,0,1,1.19-.82,3.44,3.44,0,0,1,1.52-.32,3.3,3.3,0,0,1,1.34.26,2.63,2.63,0,0,1,1,.72,3.06,3.06,0,0,1,.59,1.1,4.6,4.6,0,0,1,.21,1.42V97.4H106.6V91.52a2,2,0,0,0-.39-1.31,1.44,1.44,0,0,0-1.17-.46A2.33,2.33,0,0,0,104,90a3.73,3.73,0,0,0-1,.71V97.4Z"/><path class="cls-1" d="M118.25,97.4h-1a1,1,0,0,1-.49-.1.6.6,0,0,1-.27-.38l-.2-.66c-.24.21-.47.4-.69.56a4.49,4.49,0,0,1-.7.4,3.21,3.21,0,0,1-.76.24,4.19,4.19,0,0,1-.9.08,3.4,3.4,0,0,1-1.08-.16,2.2,2.2,0,0,1-.85-.47,2.07,2.07,0,0,1-.56-.79,2.79,2.79,0,0,1-.2-1.09,2.19,2.19,0,0,1,.28-1,2.57,2.57,0,0,1,.91-.92,5.78,5.78,0,0,1,1.7-.68,10.41,10.41,0,0,1,2.64-.28v-.54a2.07,2.07,0,0,0-.39-1.38,1.43,1.43,0,0,0-1.14-.45,2.88,2.88,0,0,0-.9.12,3.27,3.27,0,0,0-.62.29l-.49.28a1,1,0,0,1-.5.13.65.65,0,0,1-.39-.12.91.91,0,0,1-.26-.29l-.4-.71A5.49,5.49,0,0,1,114.83,88a3.63,3.63,0,0,1,1.44.27,3,3,0,0,1,1.08.74,3.11,3.11,0,0,1,.67,1.13,4.35,4.35,0,0,1,.23,1.44ZM113.93,96a3.06,3.06,0,0,0,.63-.06,2,2,0,0,0,.54-.19,2.55,2.55,0,0,0,.5-.3,4.65,4.65,0,0,0,.48-.43V93.48a8.15,8.15,0,0,0-1.62.13,4,4,0,0,0-1,.31,1.31,1.31,0,0,0-.56.44,1.11,1.11,0,0,0,.18,1.4A1.48,1.48,0,0,0,113.93,96Z"/><path class="cls-1" d="M125.92,90a.66.66,0,0,1-.19.21.49.49,0,0,1-.25.06.79.79,0,0,1-.35-.09l-.43-.21a4.3,4.3,0,0,0-.55-.2,2.65,2.65,0,0,0-.73-.09,1.69,1.69,0,0,0-1,.28.88.88,0,0,0-.38.73.7.7,0,0,0,.2.5,1.83,1.83,0,0,0,.51.35,4,4,0,0,0,.72.28l.83.26c.28.1.56.21.83.33a2.71,2.71,0,0,1,.72.47,2.16,2.16,0,0,1,.52.68,2.12,2.12,0,0,1,.19,1,3.07,3.07,0,0,1-.24,1.23,2.62,2.62,0,0,1-.71,1,3.25,3.25,0,0,1-1.16.64,4.82,4.82,0,0,1-1.58.23,5.64,5.64,0,0,1-.93-.08,6.2,6.2,0,0,1-.87-.24,4.64,4.64,0,0,1-.78-.36,4.3,4.3,0,0,1-.62-.45l.51-.85a.72.72,0,0,1,.23-.23.63.63,0,0,1,.35-.08.82.82,0,0,1,.39.11,4.84,4.84,0,0,0,.43.26,3.87,3.87,0,0,0,.57.25,2.43,2.43,0,0,0,.83.12,2.27,2.27,0,0,0,.68-.1,1.32,1.32,0,0,0,.47-.25,1,1,0,0,0,.27-.35,1.25,1.25,0,0,0,.08-.42.73.73,0,0,0-.19-.53,1.66,1.66,0,0,0-.51-.36,5.57,5.57,0,0,0-.73-.28l-.84-.26a8.68,8.68,0,0,1-.84-.34,3,3,0,0,1-.73-.49,2.28,2.28,0,0,1-.51-.73,2.51,2.51,0,0,1-.19-1,2.59,2.59,0,0,1,.88-2,3.36,3.36,0,0,1,1.09-.61,5,5,0,0,1,3.25.09,4,4,0,0,1,1.3.82Z"/><path class="cls-1" d="M128.3,97.4V84h2.23v5.14a4.72,4.72,0,0,1,1.18-.82,3.48,3.48,0,0,1,1.53-.32,3.34,3.34,0,0,1,1.34.26,2.6,2.6,0,0,1,1,.72,3.24,3.24,0,0,1,.6,1.1,4.92,4.92,0,0,1,.2,1.42V97.4h-2.22V91.52a1.94,1.94,0,0,0-.4-1.31,1.44,1.44,0,0,0-1.17-.46,2.39,2.39,0,0,0-1.08.26,3.68,3.68,0,0,0-.95.71V97.4Z"/><path class="cls-1" d="M138.25,91h4.66v1.85h-4.66Z"/><path class="cls-1" d="M147.25,84v7.66h.41a.82.82,0,0,0,.35-.06.79.79,0,0,0,.27-.23l2.3-2.84a1.37,1.37,0,0,1,.32-.28.88.88,0,0,1,.45-.11h2l-2.88,3.43a3.52,3.52,0,0,1-.31.35,2.19,2.19,0,0,1-.35.27,1.67,1.67,0,0,1,.33.32c.1.12.19.25.29.39l3.08,4.48h-2a1,1,0,0,1-.44-.09.79.79,0,0,1-.32-.31l-2.35-3.5a.69.69,0,0,0-.27-.27,1.07,1.07,0,0,0-.41-.06h-.5V97.4H145V84Z"/><path class="cls-1" d="M158.2,88a4.43,4.43,0,0,1,1.61.28,3.6,3.6,0,0,1,1.26.81,3.86,3.86,0,0,1,.83,1.32,4.92,4.92,0,0,1,.3,1.78,2.37,2.37,0,0,1,0,.41.53.53,0,0,1-.08.26.33.33,0,0,1-.15.14.65.65,0,0,1-.26,0H156a3.18,3.18,0,0,0,.76,2.09,2.41,2.41,0,0,0,1.77.66,3.18,3.18,0,0,0,.93-.12,5,5,0,0,0,.68-.28l.52-.28a.86.86,0,0,1,.42-.13.48.48,0,0,1,.24.06.59.59,0,0,1,.17.15l.65.81a4.07,4.07,0,0,1-.83.73,4.69,4.69,0,0,1-1,.46,5.07,5.07,0,0,1-1,.25,6.92,6.92,0,0,1-1,.07,4.78,4.78,0,0,1-1.79-.32,4,4,0,0,1-1.44-.94,4.5,4.5,0,0,1-1-1.55,6.08,6.08,0,0,1-.35-2.14,5.14,5.14,0,0,1,.31-1.77,4.18,4.18,0,0,1,.88-1.45,4.11,4.11,0,0,1,1.39-1A4.61,4.61,0,0,1,158.2,88Zm.05,1.59a2.07,2.07,0,0,0-1.52.55,2.7,2.7,0,0,0-.71,1.56h4.18a2.64,2.64,0,0,0-.12-.81,2,2,0,0,0-.36-.68,1.65,1.65,0,0,0-.61-.45A2.09,2.09,0,0,0,158.25,89.61Z"/><path class="cls-1" d="M167,99.94a.85.85,0,0,1-.25.35.81.81,0,0,1-.48.12h-1.66l1.73-3.7-3.74-8.55h1.95a.61.61,0,0,1,.41.13.77.77,0,0,1,.22.29l2,4.79c.06.15.12.31.17.48s.09.34.13.51c0-.18.1-.35.15-.51s.12-.32.19-.49l1.85-4.78a.7.7,0,0,1,.24-.3.63.63,0,0,1,.37-.12H172Z"/><path class="cls-1" d="M324.13,97.89V84.52h2.22v5.14a4.81,4.81,0,0,1,1.19-.83,3.44,3.44,0,0,1,1.52-.31,3.34,3.34,0,0,1,1.34.25,2.63,2.63,0,0,1,1,.72A3.11,3.11,0,0,1,332,90.6a4.56,4.56,0,0,1,.2,1.42v5.87H330V92a2,2,0,0,0-.39-1.31,1.45,1.45,0,0,0-1.18-.47,2.39,2.39,0,0,0-1.08.26,4.18,4.18,0,0,0-.95.72v6.67Z"/><path class="cls-1" d="M341.6,97.89h-1a1.15,1.15,0,0,1-.5-.09.6.6,0,0,1-.27-.38l-.2-.66a7.82,7.82,0,0,1-.68.55,3.81,3.81,0,0,1-.7.4,3.85,3.85,0,0,1-.77.25,4.94,4.94,0,0,1-.9.08,3.4,3.4,0,0,1-1.08-.16,2.42,2.42,0,0,1-.85-.47,2.24,2.24,0,0,1-.55-.79,2.83,2.83,0,0,1-.2-1.09,2.11,2.11,0,0,1,.28-1,2.56,2.56,0,0,1,.91-.92,5.94,5.94,0,0,1,1.7-.68,10.94,10.94,0,0,1,2.64-.27v-.54a2.08,2.08,0,0,0-.39-1.39,1.43,1.43,0,0,0-1.14-.45,2.86,2.86,0,0,0-.9.13,3.71,3.71,0,0,0-.63.28l-.49.29a1,1,0,0,1-.49.12A.71.71,0,0,1,335,91a.89.89,0,0,1-.26-.29l-.41-.71a5.49,5.49,0,0,1,3.85-1.46,3.81,3.81,0,0,1,1.44.26,3.3,3.3,0,0,1,1.08.74,3.36,3.36,0,0,1,.67,1.13,4.44,4.44,0,0,1,.23,1.44Zm-4.32-1.38a3.21,3.21,0,0,0,.63-.06,3.13,3.13,0,0,0,.54-.19A2.42,2.42,0,0,0,339,96a3.72,3.72,0,0,0,.48-.43V94a9.29,9.29,0,0,0-1.63.12,4.75,4.75,0,0,0-1.05.31,1.39,1.39,0,0,0-.56.45,1.13,1.13,0,0,0,.18,1.39A1.49,1.49,0,0,0,337.28,96.51Z"/><path class="cls-1" d="M349.26,90.46a.6.6,0,0,1-.18.2.5.5,0,0,1-.26.06.79.79,0,0,1-.34-.09l-.43-.2a3.52,3.52,0,0,0-.55-.2,2.73,2.73,0,0,0-.74-.09,1.73,1.73,0,0,0-1,.27.88.88,0,0,0-.38.73.68.68,0,0,0,.19.5,1.6,1.6,0,0,0,.52.36,5,5,0,0,0,.72.27l.83.27a6.52,6.52,0,0,1,.83.33,3,3,0,0,1,.72.46,2.29,2.29,0,0,1,.51.68,2.19,2.19,0,0,1,.2,1,3,3,0,0,1-.25,1.23,2.59,2.59,0,0,1-.71,1,3.28,3.28,0,0,1-1.15.64,5.1,5.1,0,0,1-1.58.23,4.73,4.73,0,0,1-.93-.09,4.23,4.23,0,0,1-.88-.24,4.54,4.54,0,0,1-.77-.36,3,3,0,0,1-.63-.45l.52-.84a.76.76,0,0,1,.23-.24.72.72,0,0,1,.73,0l.43.25a3,3,0,0,0,.57.25,2.49,2.49,0,0,0,.84.12,2.17,2.17,0,0,0,.67-.09,1.6,1.6,0,0,0,.47-.25.78.78,0,0,0,.27-.36,1,1,0,0,0,.09-.41.77.77,0,0,0-.2-.54,1.91,1.91,0,0,0-.51-.36,4.68,4.68,0,0,0-.73-.27l-.83-.27a6.1,6.1,0,0,1-.84-.33,3.11,3.11,0,0,1-.73-.49,2.39,2.39,0,0,1-.51-.73,2.55,2.55,0,0,1-.2-1,2.65,2.65,0,0,1,.23-1.08,2.5,2.5,0,0,1,.66-.89,3.28,3.28,0,0,1,1.09-.62,5.12,5.12,0,0,1,3.24.09,3.92,3.92,0,0,1,1.31.83Z"/><path class="cls-1" d="M351.65,97.89V84.52h2.22v5.14a4.81,4.81,0,0,1,1.19-.83,3.44,3.44,0,0,1,1.52-.31,3.3,3.3,0,0,1,1.34.25,2.63,2.63,0,0,1,1,.72,3.11,3.11,0,0,1,.59,1.11A4.55,4.55,0,0,1,359.7,92v5.87h-2.23V92a2,2,0,0,0-.39-1.31,1.44,1.44,0,0,0-1.17-.47,2.33,2.33,0,0,0-1.08.26,4,4,0,0,0-1,.72v6.67Z"/><path class="cls-2" d="M72,24.76h.56a1.55,1.55,0,0,0,.57-.09.94.94,0,0,0,.39-.3l3.59-4.55a1.42,1.42,0,0,1,.47-.4,1.62,1.62,0,0,1,.63-.11H80.3l-4.38,5.41a4.17,4.17,0,0,1-.39.42,1.76,1.76,0,0,1-.41.28,1.81,1.81,0,0,1,.54.31,2.81,2.81,0,0,1,.46.5l4.52,6.09H78.5a1.36,1.36,0,0,1-.65-.12,1,1,0,0,1-.35-.35L73.82,27a1.18,1.18,0,0,0-.41-.34,1.56,1.56,0,0,0-.64-.1H72v5.72H69.59v-13H72Z"/><path class="cls-2" d="M85.37,23a4.43,4.43,0,0,1,1.61.28,3.34,3.34,0,0,1,1.26.81,3.67,3.67,0,0,1,.83,1.31,5,5,0,0,1,.3,1.78,2.42,2.42,0,0,1,0,.42.57.57,0,0,1-.08.26.4.4,0,0,1-.15.14.89.89,0,0,1-.26,0h-5.7a3.15,3.15,0,0,0,.76,2.08,2.39,2.39,0,0,0,1.77.67,2.86,2.86,0,0,0,.93-.13,4,4,0,0,0,.68-.27l.52-.28a.79.79,0,0,1,.42-.13.6.6,0,0,1,.24.05.64.64,0,0,1,.17.16l.65.81a3.73,3.73,0,0,1-.83.72,4.74,4.74,0,0,1-1,.47,5.07,5.07,0,0,1-1,.25,6.92,6.92,0,0,1-1,.07,5,5,0,0,1-1.79-.32,4.09,4.09,0,0,1-1.44-.94,4.42,4.42,0,0,1-1-1.55,5.89,5.89,0,0,1-.36-2.14,5.24,5.24,0,0,1,.31-1.78,4.28,4.28,0,0,1,.88-1.45,4.09,4.09,0,0,1,1.39-1A4.61,4.61,0,0,1,85.37,23Zm0,1.59a2,2,0,0,0-1.52.55,2.64,2.64,0,0,0-.71,1.56h4.18a2.76,2.76,0,0,0-.12-.82,2,2,0,0,0-.36-.67,1.65,1.65,0,0,0-.61-.45A1.94,1.94,0,0,0,85.42,24.54Z"/><path class="cls-2" d="M94.16,34.86a.93.93,0,0,1-.26.36.81.81,0,0,1-.48.12H91.76l1.73-3.7-3.74-8.55h2a.56.56,0,0,1,.41.13.83.83,0,0,1,.22.28l2,4.79a4,4,0,0,1,.17.49c0,.17.09.33.13.5,0-.17.1-.34.15-.5s.12-.33.19-.5l1.85-4.78a.62.62,0,0,1,.24-.29.63.63,0,0,1,.37-.12h1.79Z"/><path class="cls-2" d="M104,32.32V23.09h1.36a.55.55,0,0,1,.56.4l.16.73a5.67,5.67,0,0,1,.58-.52,4.46,4.46,0,0,1,.66-.4A3.09,3.09,0,0,1,108,23a4,4,0,0,1,.87-.09,3.34,3.34,0,0,1,1.34.25,2.72,2.72,0,0,1,1,.72A3.11,3.11,0,0,1,111.8,25a4.87,4.87,0,0,1,.2,1.42v5.87h-2.22V26.45a2,2,0,0,0-.39-1.31,1.45,1.45,0,0,0-1.18-.47,2.28,2.28,0,0,0-1.08.27,3.86,3.86,0,0,0-.95.71v6.67Z"/><path class="cls-2" d="M121.42,32.32h-1a1.15,1.15,0,0,1-.5-.09.6.6,0,0,1-.27-.38l-.2-.66a6.64,6.64,0,0,1-.69.55,3.43,3.43,0,0,1-.69.4,3.85,3.85,0,0,1-.77.25,4.94,4.94,0,0,1-.9.08,3.4,3.4,0,0,1-1.08-.16,2.42,2.42,0,0,1-.85-.47,2.12,2.12,0,0,1-.55-.79,2.83,2.83,0,0,1-.2-1.09,2.21,2.21,0,0,1,.27-1,2.69,2.69,0,0,1,.92-.92,5.82,5.82,0,0,1,1.7-.68,10.94,10.94,0,0,1,2.64-.27v-.54a2,2,0,0,0-.4-1.39,1.42,1.42,0,0,0-1.13-.45,2.86,2.86,0,0,0-.9.13,3.71,3.71,0,0,0-.63.28l-.49.29a1,1,0,0,1-.5.12.7.7,0,0,1-.38-.11.89.89,0,0,1-.26-.29l-.41-.71A5.49,5.49,0,0,1,118,22.92a3.87,3.87,0,0,1,1.45.26,3.3,3.3,0,0,1,1.08.74,3.36,3.36,0,0,1,.67,1.13,4.44,4.44,0,0,1,.22,1.44Zm-4.31-1.38a3.21,3.21,0,0,0,.63-.06,3.13,3.13,0,0,0,.54-.19,2.13,2.13,0,0,0,.49-.31,4.57,4.57,0,0,0,.49-.43V28.41a9.29,9.29,0,0,0-1.63.12,4.75,4.75,0,0,0-1,.31,1.39,1.39,0,0,0-.56.45,1,1,0,0,0-.17.55,1,1,0,0,0,.35.84A1.49,1.49,0,0,0,117.11,30.94Z"/><path class="cls-2" d="M123.61,32.32V23.09H125a.55.55,0,0,1,.57.4l.14.69a4.81,4.81,0,0,1,.51-.5,3.53,3.53,0,0,1,.57-.38,2.68,2.68,0,0,1,.65-.26,3,3,0,0,1,.76-.09,2.11,2.11,0,0,1,1.43.47,2.72,2.72,0,0,1,.84,1.25,3.18,3.18,0,0,1,.54-.78,3.25,3.25,0,0,1,.71-.54,3.06,3.06,0,0,1,.83-.3,3.71,3.71,0,0,1,.88-.1,3.54,3.54,0,0,1,1.35.23,2.62,2.62,0,0,1,1,.68,3,3,0,0,1,.62,1.1,4.83,4.83,0,0,1,.21,1.49v5.87h-2.22V26.45a2,2,0,0,0-.39-1.33,1.42,1.42,0,0,0-1.13-.45,1.69,1.69,0,0,0-.64.12,1.57,1.57,0,0,0-.51.34,1.62,1.62,0,0,0-.35.55,2.26,2.26,0,0,0-.12.77v5.87H129V26.45a2,2,0,0,0-.38-1.35,1.39,1.39,0,0,0-1.1-.43,1.78,1.78,0,0,0-.9.24,3.15,3.15,0,0,0-.78.66v6.75Z"/><path class="cls-2" d="M142.58,23a4.39,4.39,0,0,1,1.61.28,3.45,3.45,0,0,1,1.27.81,3.79,3.79,0,0,1,.82,1.31,5,5,0,0,1,.3,1.78c0,.17,0,.31,0,.42a.73.73,0,0,1-.08.26.43.43,0,0,1-.16.14.87.87,0,0,1-.25,0h-5.71a3.16,3.16,0,0,0,.77,2.08,2.35,2.35,0,0,0,1.76.67,2.86,2.86,0,0,0,.93-.13,4.52,4.52,0,0,0,.69-.27l.51-.28a.82.82,0,0,1,.43-.13.56.56,0,0,1,.23.05.52.52,0,0,1,.17.16l.65.81a3.52,3.52,0,0,1-.83.72,4.27,4.27,0,0,1-1,.47,5.14,5.14,0,0,1-1,.25,7.05,7.05,0,0,1-1,.07,5,5,0,0,1-1.79-.32,4.09,4.09,0,0,1-1.44-.94,4.42,4.42,0,0,1-1-1.55,5.89,5.89,0,0,1-.35-2.14,5.24,5.24,0,0,1,.3-1.78,4.44,4.44,0,0,1,.88-1.45,4.13,4.13,0,0,1,1.4-1A4.52,4.52,0,0,1,142.58,23Zm0,1.59a2,2,0,0,0-1.52.55,2.64,2.64,0,0,0-.7,1.56h4.17a2.76,2.76,0,0,0-.12-.82,1.79,1.79,0,0,0-.35-.67,1.77,1.77,0,0,0-.62-.45A1.91,1.91,0,0,0,142.63,24.54Z"/><path class="cls-2" d="M214.31,248h1.95a.86.86,0,0,1,.52.15.9.9,0,0,1,.29.4l3.06,7.94c.11.25.2.54.3.85s.18.63.26,1a11.47,11.47,0,0,1,.51-1.82l3.05-7.94a1,1,0,0,1,.29-.38.81.81,0,0,1,.52-.17H227l-5.26,13h-2.18Z"/><path class="cls-2" d="M234.37,261h-1a1.1,1.1,0,0,1-.49-.09.6.6,0,0,1-.27-.38l-.2-.66a7.89,7.89,0,0,1-.69.55,3.5,3.5,0,0,1-.7.4,3.76,3.76,0,0,1-.76.25,4.94,4.94,0,0,1-.9.08,3.71,3.71,0,0,1-1.08-.16,2.25,2.25,0,0,1-1.41-1.26,2.83,2.83,0,0,1-.19-1.09,2.21,2.21,0,0,1,.27-1,2.65,2.65,0,0,1,.91-.92,6,6,0,0,1,1.71-.68,10.79,10.79,0,0,1,2.63-.27v-.55a2.07,2.07,0,0,0-.39-1.38,1.43,1.43,0,0,0-1.14-.45,2.6,2.6,0,0,0-.9.13,3.28,3.28,0,0,0-.62.28l-.49.29a1.06,1.06,0,0,1-.5.12.71.71,0,0,1-.39-.11,1.2,1.2,0,0,1-.26-.29l-.4-.71a5.45,5.45,0,0,1,3.84-1.46,3.9,3.9,0,0,1,1.45.26,3.15,3.15,0,0,1,1.07.74,3.2,3.2,0,0,1,.67,1.13,4.44,4.44,0,0,1,.23,1.44Zm-4.32-1.38a3.06,3.06,0,0,0,.63-.06,3.58,3.58,0,0,0,.55-.19,2.87,2.87,0,0,0,.49-.31,3.72,3.72,0,0,0,.48-.43v-1.54a9.09,9.09,0,0,0-1.62.12,4.44,4.44,0,0,0-1.05.31,1.32,1.32,0,0,0-.56.45,1,1,0,0,0-.17.55,1,1,0,0,0,.35.84A1.48,1.48,0,0,0,230.05,259.64Z"/><path class="cls-2" d="M238.92,247.65V261H236.7V247.65Z"/><path class="cls-2" d="M243.47,251.79v5.87a2,2,0,0,0,.39,1.31,1.45,1.45,0,0,0,1.18.46,2.39,2.39,0,0,0,1.08-.26,3.81,3.81,0,0,0,.95-.7v-6.68h2.22V261h-1.36a.54.54,0,0,1-.56-.4l-.16-.74a7.23,7.23,0,0,1-.59.53,3.34,3.34,0,0,1-.65.4,3.49,3.49,0,0,1-.75.26,3.38,3.38,0,0,1-.86.1,3.34,3.34,0,0,1-1.34-.26,2.68,2.68,0,0,1-1-.72,3.1,3.1,0,0,1-.6-1.12,4.49,4.49,0,0,1-.2-1.41v-5.87Z"/><path class="cls-2" d="M255.49,251.65a4.59,4.59,0,0,1,1.6.27,3.61,3.61,0,0,1,1.27.82,3.65,3.65,0,0,1,.82,1.31,4.92,4.92,0,0,1,.3,1.78c0,.17,0,.31,0,.42a.73.73,0,0,1-.08.26.29.29,0,0,1-.16.13.62.62,0,0,1-.25.05h-5.71a3.16,3.16,0,0,0,.77,2.08,2.35,2.35,0,0,0,1.76.67,2.86,2.86,0,0,0,.93-.13,3.67,3.67,0,0,0,.69-.28l.51-.28a.9.9,0,0,1,.43-.12.56.56,0,0,1,.23.05.52.52,0,0,1,.17.16l.65.81a3.77,3.77,0,0,1-.83.72,4.27,4.27,0,0,1-1,.47,5.14,5.14,0,0,1-1,.25,8.87,8.87,0,0,1-1,.07,5,5,0,0,1-1.79-.32,4,4,0,0,1-1.44-.95,4.29,4.29,0,0,1-1-1.54,6.12,6.12,0,0,1-.35-2.14,5.24,5.24,0,0,1,.3-1.78,4.44,4.44,0,0,1,.88-1.45,4.15,4.15,0,0,1,1.4-1A4.74,4.74,0,0,1,255.49,251.65Zm0,1.59a2,2,0,0,0-1.52.55,2.64,2.64,0,0,0-.7,1.55h4.17a3,3,0,0,0-.11-.81,1.88,1.88,0,0,0-.36-.67,1.93,1.93,0,0,0-.62-.46A2.06,2.06,0,0,0,255.53,253.24Z"/><path class="cls-2" d="M266.77,253.59a.53.53,0,0,1-.19.2.46.46,0,0,1-.25.06.83.83,0,0,1-.35-.09l-.42-.2a2.83,2.83,0,0,0-.56-.2,2.32,2.32,0,0,0-.73-.09,1.78,1.78,0,0,0-1,.27.87.87,0,0,0-.37.73.68.68,0,0,0,.19.5,1.66,1.66,0,0,0,.51.36,5.59,5.59,0,0,0,.73.27l.83.27a6.38,6.38,0,0,1,.82.33,3.22,3.22,0,0,1,.73.46,2.29,2.29,0,0,1,.51.68,2.19,2.19,0,0,1,.19,1,3.14,3.14,0,0,1-.24,1.23,2.71,2.71,0,0,1-.71,1,3.49,3.49,0,0,1-1.16.64,5.06,5.06,0,0,1-1.58.23,4.88,4.88,0,0,1-.93-.09,5.08,5.08,0,0,1-.87-.24,4.2,4.2,0,0,1-.77-.36,3,3,0,0,1-.63-.45l.51-.84a.78.78,0,0,1,.24-.24.72.72,0,0,1,.73,0c.12.08.27.16.43.25a3.87,3.87,0,0,0,.57.25,2.47,2.47,0,0,0,.83.12,2.24,2.24,0,0,0,.68-.09,1.6,1.6,0,0,0,.47-.25,1,1,0,0,0,.27-.36,1,1,0,0,0,.08-.42.75.75,0,0,0-.19-.53,1.85,1.85,0,0,0-.51-.36,5.59,5.59,0,0,0-.73-.27l-.84-.27a8.43,8.43,0,0,1-.83-.33,2.92,2.92,0,0,1-.73-.49,2.26,2.26,0,0,1-.52-.73,2.56,2.56,0,0,1-.19-1,2.82,2.82,0,0,1,.22-1.08,2.41,2.41,0,0,1,.67-.89,3.28,3.28,0,0,1,1.09-.62,4.56,4.56,0,0,1,1.5-.22A4.61,4.61,0,0,1,266,252a3.87,3.87,0,0,1,1.3.83Z"/><path class="cls-2" d="M279.87,261h-1a1.15,1.15,0,0,1-.5-.09.6.6,0,0,1-.27-.38l-.2-.66a6.64,6.64,0,0,1-.69.55,3.43,3.43,0,0,1-.69.4,3.85,3.85,0,0,1-.77.25,4.94,4.94,0,0,1-.9.08,3.71,3.71,0,0,1-1.08-.16,2.29,2.29,0,0,1-.85-.48,2.09,2.09,0,0,1-.55-.78,2.83,2.83,0,0,1-.2-1.09,2.11,2.11,0,0,1,.28-1,2.56,2.56,0,0,1,.91-.92,5.82,5.82,0,0,1,1.7-.68,10.94,10.94,0,0,1,2.64-.27v-.55a2,2,0,0,0-.4-1.38,1.4,1.4,0,0,0-1.13-.45,2.6,2.6,0,0,0-.9.13,3.71,3.71,0,0,0-.63.28l-.49.29a1,1,0,0,1-.49.12.71.71,0,0,1-.39-.11.89.89,0,0,1-.26-.29l-.41-.71a5.49,5.49,0,0,1,3.85-1.46,3.81,3.81,0,0,1,1.44.26,3.3,3.3,0,0,1,1.08.74,3.36,3.36,0,0,1,.67,1.13,4.44,4.44,0,0,1,.23,1.44Zm-4.32-1.38a3.21,3.21,0,0,0,.63-.06,3.13,3.13,0,0,0,.54-.19,2.53,2.53,0,0,0,.49-.31,4.57,4.57,0,0,0,.49-.43v-1.54a9.29,9.29,0,0,0-1.63.12,4.75,4.75,0,0,0-1.05.31,1.39,1.39,0,0,0-.56.45,1,1,0,0,0-.17.55,1,1,0,0,0,.35.84A1.49,1.49,0,0,0,275.55,259.64Z"/><path class="cls-2" d="M287.53,253.59a.53.53,0,0,1-.19.2.46.46,0,0,1-.25.06.75.75,0,0,1-.34-.09l-.43-.2a2.62,2.62,0,0,0-.56-.2,2.28,2.28,0,0,0-.73-.09,1.73,1.73,0,0,0-1,.27.85.85,0,0,0-.38.73.68.68,0,0,0,.19.5,1.6,1.6,0,0,0,.52.36,5,5,0,0,0,.72.27l.83.27a6.52,6.52,0,0,1,.83.33,3,3,0,0,1,.72.46,2.29,2.29,0,0,1,.51.68,2.19,2.19,0,0,1,.2,1,3,3,0,0,1-.25,1.23,2.71,2.71,0,0,1-.71,1,3.44,3.44,0,0,1-1.15.64,5.1,5.1,0,0,1-1.58.23,4.91,4.91,0,0,1-.94-.09,5.08,5.08,0,0,1-.87-.24,4.2,4.2,0,0,1-.77-.36,3,3,0,0,1-.63-.45l.52-.84A.66.66,0,0,1,282,259a.72.72,0,0,1,.73,0l.43.25a3.87,3.87,0,0,0,.57.25,2.47,2.47,0,0,0,.83.12,2.24,2.24,0,0,0,.68-.09,1.6,1.6,0,0,0,.47-.25.78.78,0,0,0,.27-.36,1,1,0,0,0,.09-.42.76.76,0,0,0-.2-.53,1.71,1.71,0,0,0-.51-.36,5.1,5.1,0,0,0-.73-.27l-.83-.27a7.71,7.71,0,0,1-.84-.33,2.92,2.92,0,0,1-.73-.49,2.23,2.23,0,0,1-.51-.73,2.55,2.55,0,0,1-.2-1,2.65,2.65,0,0,1,.23-1.08,2.5,2.5,0,0,1,.66-.89,3.28,3.28,0,0,1,1.09-.62,5.12,5.12,0,0,1,3.24.09,4,4,0,0,1,1.31.83Z"/><path class="cls-2" d="M295.4,253.59a.53.53,0,0,1-.19.2.49.49,0,0,1-.25.06.79.79,0,0,1-.35-.09l-.43-.2a2.52,2.52,0,0,0-.55-.2,2.32,2.32,0,0,0-.73-.09,1.76,1.76,0,0,0-1,.27.88.88,0,0,0-.38.73.69.69,0,0,0,.2.5,1.66,1.66,0,0,0,.51.36,5.1,5.1,0,0,0,.73.27l.82.27a6,6,0,0,1,.83.33,3.22,3.22,0,0,1,.73.46,2.29,2.29,0,0,1,.51.68,2.19,2.19,0,0,1,.19,1,3.14,3.14,0,0,1-.24,1.23,2.71,2.71,0,0,1-.71,1,3.49,3.49,0,0,1-1.16.64,5.06,5.06,0,0,1-1.58.23,4.73,4.73,0,0,1-.93-.09,5.08,5.08,0,0,1-.87-.24,4.64,4.64,0,0,1-.78-.36,3.18,3.18,0,0,1-.62-.45l.51-.84a.78.78,0,0,1,.24-.24.68.68,0,0,1,.34-.08.71.71,0,0,1,.39.12c.12.08.26.16.43.25a3.87,3.87,0,0,0,.57.25,2.43,2.43,0,0,0,.83.12,2.29,2.29,0,0,0,.68-.09,1.73,1.73,0,0,0,.47-.25,1,1,0,0,0,.27-.36,1.16,1.16,0,0,0,.08-.42.75.75,0,0,0-.19-.53,1.85,1.85,0,0,0-.51-.36,5.59,5.59,0,0,0-.73-.27l-.84-.27c-.28-.09-.56-.21-.84-.33a3.33,3.33,0,0,1-.73-.49,2.39,2.39,0,0,1-.51-.73,2.56,2.56,0,0,1-.19-1,2.64,2.64,0,0,1,.22-1.08,2.5,2.5,0,0,1,.66-.89,3.49,3.49,0,0,1,1.09-.62,4.66,4.66,0,0,1,1.51-.22,4.61,4.61,0,0,1,1.74.31,3.87,3.87,0,0,1,1.3.83Z"/><path class="cls-2" d="M301.73,251.65a5.06,5.06,0,0,1,1.87.33,4.18,4.18,0,0,1,1.44.94,4.36,4.36,0,0,1,.92,1.5,5.77,5.77,0,0,1,.32,2,5.87,5.87,0,0,1-.32,2,4.36,4.36,0,0,1-.92,1.5,4.23,4.23,0,0,1-1.44,1,5.06,5.06,0,0,1-1.87.33,5.12,5.12,0,0,1-1.88-.33,4.18,4.18,0,0,1-1.45-1,4.23,4.23,0,0,1-.93-1.5,5.64,5.64,0,0,1-.32-2,5.54,5.54,0,0,1,.32-2,4.23,4.23,0,0,1,.93-1.5,4.13,4.13,0,0,1,1.45-.94A5.12,5.12,0,0,1,301.73,251.65Zm0,7.8a2,2,0,0,0,1.7-.78,3.84,3.84,0,0,0,.56-2.26,3.91,3.91,0,0,0-.56-2.28,2,2,0,0,0-1.7-.78,2,2,0,0,0-1.73.78,4,4,0,0,0-.56,2.28,3.86,3.86,0,0,0,.56,2.26A2,2,0,0,0,301.73,259.45Z"/><path class="cls-2" d="M314.51,253.74a.94.94,0,0,1-.2.2.41.41,0,0,1-.27.07.56.56,0,0,1-.33-.1l-.39-.24a3.5,3.5,0,0,0-.54-.23,2.4,2.4,0,0,0-.77-.1,2.32,2.32,0,0,0-1,.21,1.9,1.9,0,0,0-.74.61,2.68,2.68,0,0,0-.43,1,5,5,0,0,0-.15,1.28,5.16,5.16,0,0,0,.16,1.31,2.82,2.82,0,0,0,.46,1,1.83,1.83,0,0,0,.71.59,2.18,2.18,0,0,0,1,.21,2.55,2.55,0,0,0,.86-.13,3.1,3.1,0,0,0,.55-.29l.39-.29a.58.58,0,0,1,.38-.13.44.44,0,0,1,.4.21l.64.81a3.87,3.87,0,0,1-.8.72,4.47,4.47,0,0,1-1.85.72,8.24,8.24,0,0,1-1,.07,4.2,4.2,0,0,1-1.61-.32,3.65,3.65,0,0,1-1.31-.93,4.48,4.48,0,0,1-.9-1.5,6,6,0,0,1-.32-2,5.76,5.76,0,0,1,.29-1.89,4.12,4.12,0,0,1,.86-1.5,4,4,0,0,1,1.4-1,5,5,0,0,1,1.93-.35,4.6,4.6,0,0,1,1.81.33,4.4,4.4,0,0,1,1.4,1Z"/><path class="cls-2" d="M319.3,249.1a1.41,1.41,0,0,1-.11.54,1.74,1.74,0,0,1-.31.44,1.47,1.47,0,0,1-.46.3,1.3,1.3,0,0,1-.56.11,1.24,1.24,0,0,1-.54-.11,1.54,1.54,0,0,1-.45-.3,1.71,1.71,0,0,1-.3-.44,1.41,1.41,0,0,1-.11-.54,1.47,1.47,0,0,1,.11-.56,1.77,1.77,0,0,1,.3-.45,1.37,1.37,0,0,1,.45-.3,1.24,1.24,0,0,1,.54-.11,1.47,1.47,0,0,1,1,.41,1.8,1.8,0,0,1,.31.45A1.47,1.47,0,0,1,319.3,249.1Zm-.33,2.69V261h-2.22v-9.23Z"/><path class="cls-2" d="M328.72,261h-1a1.15,1.15,0,0,1-.5-.09.6.6,0,0,1-.27-.38l-.2-.66a7.82,7.82,0,0,1-.68.55,3.81,3.81,0,0,1-.7.4,3.85,3.85,0,0,1-.77.25,4.94,4.94,0,0,1-.9.08,3.71,3.71,0,0,1-1.08-.16,2.29,2.29,0,0,1-.85-.48,2.2,2.2,0,0,1-.55-.78,2.83,2.83,0,0,1-.2-1.09,2.11,2.11,0,0,1,.28-1,2.56,2.56,0,0,1,.91-.92,5.94,5.94,0,0,1,1.7-.68,10.94,10.94,0,0,1,2.64-.27v-.55a2.07,2.07,0,0,0-.39-1.38,1.43,1.43,0,0,0-1.14-.45,2.6,2.6,0,0,0-.9.13,3.71,3.71,0,0,0-.63.28l-.49.29a1,1,0,0,1-.49.12.71.71,0,0,1-.39-.11.89.89,0,0,1-.26-.29l-.41-.71a5.49,5.49,0,0,1,3.85-1.46,3.81,3.81,0,0,1,1.44.26,3.19,3.19,0,0,1,1.08.74,3.36,3.36,0,0,1,.67,1.13,4.44,4.44,0,0,1,.23,1.44Zm-4.32-1.38a3.21,3.21,0,0,0,.63-.06,3.13,3.13,0,0,0,.54-.19,2.94,2.94,0,0,0,.5-.31,3.72,3.72,0,0,0,.48-.43v-1.54a9.29,9.29,0,0,0-1.63.12,4.75,4.75,0,0,0-1.05.31,1.39,1.39,0,0,0-.56.45,1.13,1.13,0,0,0,.18,1.39A1.51,1.51,0,0,0,324.4,259.64Z"/><path class="cls-2" d="M333.94,261.17a2.45,2.45,0,0,1-1.85-.68,2.63,2.63,0,0,1-.65-1.88v-5.16h-.93a.47.47,0,0,1-.31-.11.45.45,0,0,1-.13-.35v-.89l1.48-.24.47-2.52a.43.43,0,0,1,.17-.28.53.53,0,0,1,.32-.1h1.16v2.91h2.43v1.58h-2.43v5a1,1,0,0,0,.21.67.76.76,0,0,0,.58.25,1.18,1.18,0,0,0,.35-.05l.24-.11.18-.1a.37.37,0,0,1,.17-.05.3.3,0,0,1,.16.05.69.69,0,0,1,.13.15l.67,1.08a3.48,3.48,0,0,1-1.12.61A4.07,4.07,0,0,1,333.94,261.17Z"/><path class="cls-2" d="M341.69,251.65a4.59,4.59,0,0,1,1.6.27,3.61,3.61,0,0,1,1.27.82,3.65,3.65,0,0,1,.82,1.31,4.92,4.92,0,0,1,.3,1.78c0,.17,0,.31,0,.42a.73.73,0,0,1-.08.26.29.29,0,0,1-.16.13.62.62,0,0,1-.25.05h-5.71a3.16,3.16,0,0,0,.77,2.08,2.35,2.35,0,0,0,1.76.67,2.86,2.86,0,0,0,.93-.13,3.67,3.67,0,0,0,.69-.28l.51-.28a.9.9,0,0,1,.43-.12.52.52,0,0,1,.23.05.44.44,0,0,1,.17.16l.65.81a3.77,3.77,0,0,1-.83.72,4.27,4.27,0,0,1-1,.47,5.14,5.14,0,0,1-1,.25,8.87,8.87,0,0,1-1,.07,5,5,0,0,1-1.79-.32,4,4,0,0,1-1.44-.95,4.43,4.43,0,0,1-1-1.54,6.12,6.12,0,0,1-.35-2.14,5.24,5.24,0,0,1,.3-1.78,4.44,4.44,0,0,1,.88-1.45,4.15,4.15,0,0,1,1.4-1A4.78,4.78,0,0,1,341.69,251.65Zm0,1.59a2,2,0,0,0-1.52.55,2.64,2.64,0,0,0-.7,1.55h4.17a3,3,0,0,0-.11-.81,1.88,1.88,0,0,0-.36-.67,1.93,1.93,0,0,0-.62-.46A2.06,2.06,0,0,0,341.73,253.24Z"/><path class="cls-2" d="M354,261a.54.54,0,0,1-.57-.4l-.18-.89a5.45,5.45,0,0,1-.6.58,3.34,3.34,0,0,1-.68.45,2.92,2.92,0,0,1-.78.29,3.72,3.72,0,0,1-.91.11,3.06,3.06,0,0,1-2.47-1.23,4.33,4.33,0,0,1-.7-1.48,7.3,7.3,0,0,1-.25-2,6.1,6.1,0,0,1,.28-1.9,4.79,4.79,0,0,1,.8-1.54,3.92,3.92,0,0,1,1.25-1,3.66,3.66,0,0,1,1.64-.36,3.08,3.08,0,0,1,1.32.25,3.13,3.13,0,0,1,1,.66v-4.88h2.23V261Zm-3-1.63a2.32,2.32,0,0,0,1.18-.28,3.64,3.64,0,0,0,.91-.82v-4.14a2.06,2.06,0,0,0-.82-.65,2.38,2.38,0,0,0-1-.19,2.09,2.09,0,0,0-.91.19,1.72,1.72,0,0,0-.69.57,2.8,2.8,0,0,0-.44,1,5.75,5.75,0,0,0-.15,1.39,6.1,6.1,0,0,0,.13,1.38,2.55,2.55,0,0,0,.37.91,1.46,1.46,0,0,0,.59.52A2,2,0,0,0,351,259.39Z"/><path class="cls-2" d="M232.35,273.39h1.76a.75.75,0,0,1,.43.12.47.47,0,0,1,.21.29l1.33,4.94a7.43,7.43,0,0,1,.17.79c.05.25.09.51.13.77l.21-.77.24-.79,1.53-5a.57.57,0,0,1,.22-.29.62.62,0,0,1,.38-.12h1a.65.65,0,0,1,.4.12.57.57,0,0,1,.22.29l1.51,5.05q.12.38.21.75c.06.24.13.48.19.73,0-.26.08-.52.14-.77s.11-.53.19-.8l1.37-4.94a.47.47,0,0,1,.21-.29.7.7,0,0,1,.4-.12h1.68l-2.92,9.23h-1.79c-.2,0-.33-.13-.42-.39l-1.66-5.34a4.61,4.61,0,0,1-.15-.53,4.82,4.82,0,0,1-.11-.52l-.12.53c0,.18-.09.36-.14.54l-1.69,5.32a.48.48,0,0,1-.48.39h-1.7Z"/><path class="cls-2" d="M250.41,270.7a1.41,1.41,0,0,1-.11.54,1.74,1.74,0,0,1-.31.44,1.47,1.47,0,0,1-1,.41,1.24,1.24,0,0,1-.54-.11,1.37,1.37,0,0,1-.45-.3,1.71,1.71,0,0,1-.3-.44,1.41,1.41,0,0,1-.11-.54,1.47,1.47,0,0,1,.11-.56,1.77,1.77,0,0,1,.3-.45,1.37,1.37,0,0,1,.45-.3,1.24,1.24,0,0,1,.54-.11,1.47,1.47,0,0,1,1,.41,1.8,1.8,0,0,1,.31.45A1.47,1.47,0,0,1,250.41,270.7Zm-.33,2.69v9.23h-2.22v-9.23Z"/><path class="cls-2" d="M255.62,282.77a2.44,2.44,0,0,1-1.84-.68,2.63,2.63,0,0,1-.65-1.88v-5.16h-.93a.46.46,0,0,1-.32-.11.48.48,0,0,1-.13-.35v-.89l1.49-.24.47-2.52a.46.46,0,0,1,.16-.28.59.59,0,0,1,.33-.1h1.15v2.91h2.43v1.58h-2.43v5a1,1,0,0,0,.22.67.72.72,0,0,0,.58.25,1.11,1.11,0,0,0,.34-.05l.25-.11.18-.1a.33.33,0,0,1,.16-.05.25.25,0,0,1,.16.05.51.51,0,0,1,.14.15L258,282a3.33,3.33,0,0,1-1.11.61A4.13,4.13,0,0,1,255.62,282.77Z"/><path class="cls-2" d="M259.56,282.62V269.25h2.22v5.14a4.81,4.81,0,0,1,1.19-.83,3.44,3.44,0,0,1,1.52-.32,3.34,3.34,0,0,1,1.34.26,2.72,2.72,0,0,1,1,.72,3.11,3.11,0,0,1,.59,1.11,4.56,4.56,0,0,1,.2,1.42v5.87h-2.22v-5.87a2,2,0,0,0-.39-1.31,1.45,1.45,0,0,0-1.18-.47,2.39,2.39,0,0,0-1.08.26,4.18,4.18,0,0,0-1,.72v6.67Z"/><path class="cls-2" d="M276.3,282.77a2.45,2.45,0,0,1-1.85-.68,2.63,2.63,0,0,1-.65-1.88v-5.16h-.93a.42.42,0,0,1-.31-.11.45.45,0,0,1-.13-.35v-.89l1.48-.24.47-2.52a.43.43,0,0,1,.17-.28.53.53,0,0,1,.32-.1H276v2.91h2.43v1.58H276v5a1,1,0,0,0,.21.67.73.73,0,0,0,.58.25,1.18,1.18,0,0,0,.35-.05l.24-.11.18-.1a.37.37,0,0,1,.16-.05.31.31,0,0,1,.17.05.69.69,0,0,1,.13.15l.67,1.08a3.48,3.48,0,0,1-1.12.61A4.07,4.07,0,0,1,276.3,282.77Z"/><path class="cls-2" d="M280.23,282.62V269.25h2.22v5.14a4.81,4.81,0,0,1,1.19-.83,3.44,3.44,0,0,1,1.52-.32,3.3,3.3,0,0,1,1.34.26,2.63,2.63,0,0,1,1,.72,3.11,3.11,0,0,1,.59,1.11,4.55,4.55,0,0,1,.21,1.42v5.87h-2.23v-5.87a2,2,0,0,0-.39-1.31,1.44,1.44,0,0,0-1.17-.47,2.33,2.33,0,0,0-1.08.26,4,4,0,0,0-1,.72v6.67Z"/><path class="cls-2" d="M294.28,273.24a4.55,4.55,0,0,1,1.6.28,3.52,3.52,0,0,1,1.27.82,3.81,3.81,0,0,1,.83,1.31,4.92,4.92,0,0,1,.29,1.78,2.56,2.56,0,0,1,0,.42.57.57,0,0,1-.08.26.29.29,0,0,1-.16.13.6.6,0,0,1-.25,0h-5.7a3.16,3.16,0,0,0,.76,2.09,2.35,2.35,0,0,0,1.76.67,3,3,0,0,0,.94-.13,3.57,3.57,0,0,0,.68-.28l.51-.27a.82.82,0,0,1,.43-.13.52.52,0,0,1,.23,0,.55.55,0,0,1,.18.16l.64.81a3.72,3.72,0,0,1-.82.72,4.74,4.74,0,0,1-1,.47,5.24,5.24,0,0,1-1,.25,8.86,8.86,0,0,1-1,.07,5,5,0,0,1-1.79-.32,3.82,3.82,0,0,1-1.44-.95,4.45,4.45,0,0,1-1-1.54,6.12,6.12,0,0,1-.35-2.14,5,5,0,0,1,.31-1.78,4.1,4.1,0,0,1,2.27-2.42A4.61,4.61,0,0,1,294.28,273.24Zm0,1.6a2.06,2.06,0,0,0-1.52.55,2.7,2.7,0,0,0-.7,1.55h4.18a2.69,2.69,0,0,0-.12-.81,1.78,1.78,0,0,0-1-1.13A2.14,2.14,0,0,0,294.32,274.84Z"/><path class="cls-2" d="M305.81,269.25v7.66h.41a.82.82,0,0,0,.35-.06.83.83,0,0,0,.27-.24l2.3-2.83a1.43,1.43,0,0,1,.32-.29.86.86,0,0,1,.45-.1h2l-2.88,3.43a3.39,3.39,0,0,1-.31.34,2.26,2.26,0,0,1-.35.28,1.93,1.93,0,0,1,.33.31c.1.12.19.25.29.39l3.08,4.48h-2a1,1,0,0,1-.44-.09.92.92,0,0,1-.33-.3l-2.34-3.5a.69.69,0,0,0-.27-.27.89.89,0,0,0-.41-.07h-.5v4.23h-2.23V269.25Z"/><path class="cls-2" d="M316.76,273.24a4.65,4.65,0,0,1,1.61.28,3.48,3.48,0,0,1,1.26.82,3.67,3.67,0,0,1,.83,1.31,4.92,4.92,0,0,1,.3,1.78,2.42,2.42,0,0,1,0,.42.57.57,0,0,1-.08.26.31.31,0,0,1-.15.13.68.68,0,0,1-.26,0h-5.7a3.16,3.16,0,0,0,.76,2.09,2.37,2.37,0,0,0,1.77.67,2.86,2.86,0,0,0,.93-.13,3.31,3.31,0,0,0,.68-.28l.51-.27a.82.82,0,0,1,.43-.13.6.6,0,0,1,.24,0,.64.64,0,0,1,.17.16l.64.81a3.72,3.72,0,0,1-.82.72,4.74,4.74,0,0,1-1,.47,5.07,5.07,0,0,1-1,.25,8.7,8.7,0,0,1-1,.07,5,5,0,0,1-1.79-.32,3.89,3.89,0,0,1-1.44-.95,4.45,4.45,0,0,1-1-1.54,6.12,6.12,0,0,1-.35-2.14,5,5,0,0,1,.31-1.78,4.28,4.28,0,0,1,.88-1.45,4.09,4.09,0,0,1,1.39-1A4.61,4.61,0,0,1,316.76,273.24Zm0,1.6a2.06,2.06,0,0,0-1.52.55,2.7,2.7,0,0,0-.7,1.55h4.18a2.69,2.69,0,0,0-.12-.81,1.88,1.88,0,0,0-.36-.67,1.79,1.79,0,0,0-.61-.46A2.14,2.14,0,0,0,316.8,274.84Z"/><path class="cls-2" d="M325.54,285.16a.83.83,0,0,1-.25.36.81.81,0,0,1-.48.12h-1.66l1.73-3.7-3.74-8.55h1.95a.56.56,0,0,1,.41.13.83.83,0,0,1,.22.28l2,4.79c.06.16.12.32.17.49a4.05,4.05,0,0,1,.12.5c0-.17.1-.34.16-.5s.12-.33.19-.5l1.85-4.78a.62.62,0,0,1,.24-.29.61.61,0,0,1,.37-.12h1.79Z"/><path class="cls-2" d="M337.35,275.19a.61.61,0,0,1-.19.2.46.46,0,0,1-.25.06.83.83,0,0,1-.35-.09l-.42-.2a5.09,5.09,0,0,0-.56-.21,3.07,3.07,0,0,0-.73-.08,1.78,1.78,0,0,0-1,.27.87.87,0,0,0-.37.73.68.68,0,0,0,.19.5,1.66,1.66,0,0,0,.51.36,5.59,5.59,0,0,0,.73.27l.83.27a6.38,6.38,0,0,1,.82.33,3,3,0,0,1,.73.46,2.29,2.29,0,0,1,.51.68,2.19,2.19,0,0,1,.2,1,3.14,3.14,0,0,1-.25,1.23,2.71,2.71,0,0,1-.71,1,3.49,3.49,0,0,1-1.16.64,5,5,0,0,1-1.58.23,4.88,4.88,0,0,1-.93-.09,6.2,6.2,0,0,1-.87-.24,4.2,4.2,0,0,1-.77-.36,3.38,3.38,0,0,1-.63-.45l.51-.84a.91.91,0,0,1,.24-.24.72.72,0,0,1,.73,0c.12.08.27.16.43.25a3,3,0,0,0,.57.25,2.47,2.47,0,0,0,.83.12,2.24,2.24,0,0,0,.68-.09,1.6,1.6,0,0,0,.47-.25,1,1,0,0,0,.27-.36,1,1,0,0,0,.09-.42.76.76,0,0,0-.2-.53,2.08,2.08,0,0,0-.51-.36,5.1,5.1,0,0,0-.73-.27l-.84-.27a8.43,8.43,0,0,1-.83-.33,2.7,2.7,0,0,1-.73-.5,2.12,2.12,0,0,1-.52-.72,2.74,2.74,0,0,1-.19-1.05,2.65,2.65,0,0,1,.23-1.08,2.5,2.5,0,0,1,.66-.89,3.28,3.28,0,0,1,1.09-.62,4.55,4.55,0,0,1,1.5-.23,4.61,4.61,0,0,1,1.74.32,4,4,0,0,1,1.31.83Z"/><path class="cls-2" d="M73.89,256.5a7,7,0,0,1-.48,2.63,6,6,0,0,1-1.34,2.06A5.92,5.92,0,0,1,70,262.53a7.24,7.24,0,0,1-2.69.48h-5V250h5a7.24,7.24,0,0,1,2.69.48,6.08,6.08,0,0,1,2.08,1.35,5.88,5.88,0,0,1,1.34,2.05A7,7,0,0,1,73.89,256.5Zm-2.48,0a6.06,6.06,0,0,0-.28-1.92,4.21,4.21,0,0,0-.82-1.44,3.69,3.69,0,0,0-1.29-.91,4.47,4.47,0,0,0-1.72-.31H64.77v9.16H67.3a4.47,4.47,0,0,0,1.72-.31,3.69,3.69,0,0,0,1.29-.91,4.21,4.21,0,0,0,.82-1.44A6,6,0,0,0,71.41,256.5Z"/><path class="cls-2" d="M78.36,251.08a1.41,1.41,0,0,1-.11.54,1.43,1.43,0,0,1-.32.44,1.44,1.44,0,0,1-.45.31,1.47,1.47,0,0,1-.56.11,1.41,1.41,0,0,1-.54-.11,1.57,1.57,0,0,1-.45-.31,1.55,1.55,0,0,1-.3-.44,1.41,1.41,0,0,1-.11-.54,1.51,1.51,0,0,1,.11-.56,1.38,1.38,0,0,1,.75-.75,1.41,1.41,0,0,1,.54-.11,1.47,1.47,0,0,1,.56.11,1.51,1.51,0,0,1,.77.75A1.51,1.51,0,0,1,78.36,251.08ZM78,253.77V263H75.81v-9.24Z"/><path class="cls-2" d="M86,255.57a.56.56,0,0,1-.19.21.47.47,0,0,1-.25.05.83.83,0,0,1-.35-.09l-.42-.2a5.15,5.15,0,0,0-.56-.2,2.6,2.6,0,0,0-.73-.09,1.71,1.71,0,0,0-1,.28.86.86,0,0,0-.37.73.69.69,0,0,0,.19.5,1.83,1.83,0,0,0,.51.35,5.57,5.57,0,0,0,.73.28l.83.26c.28.1.55.21.82.33a2.77,2.77,0,0,1,.73.47,2.17,2.17,0,0,1,.51.68,2.12,2.12,0,0,1,.19.95,3.07,3.07,0,0,1-.24,1.23,2.62,2.62,0,0,1-.71,1,3.17,3.17,0,0,1-1.16.64,4.78,4.78,0,0,1-1.58.23,5.84,5.84,0,0,1-.93-.08,6.2,6.2,0,0,1-.87-.24,4.2,4.2,0,0,1-.77-.36,3.91,3.91,0,0,1-.63-.45l.51-.85a.75.75,0,0,1,.24-.23.59.59,0,0,1,.34-.08.77.77,0,0,1,.39.11l.43.26a3.87,3.87,0,0,0,.57.25,2.49,2.49,0,0,0,.83.11,2.24,2.24,0,0,0,.68-.09,1.39,1.39,0,0,0,.47-.25,1,1,0,0,0,.27-.35,1,1,0,0,0,.08-.42.73.73,0,0,0-.19-.53,1.66,1.66,0,0,0-.51-.36,5.07,5.07,0,0,0-.73-.28l-.84-.26a8.51,8.51,0,0,1-.83-.34,2.67,2.67,0,0,1-.73-.49,2.16,2.16,0,0,1-.52-.73,2.54,2.54,0,0,1-.19-1,2.65,2.65,0,0,1,.23-1.08,2.42,2.42,0,0,1,.66-.9,3.26,3.26,0,0,1,1.09-.61,4.55,4.55,0,0,1,1.5-.23,4.61,4.61,0,0,1,1.74.31,4,4,0,0,1,1.31.83Z"/><path class="cls-2" d="M91.44,263.15a2.46,2.46,0,0,1-1.85-.68A2.6,2.6,0,0,1,89,260.6v-5.16H88a.45.45,0,0,1-.31-.12.43.43,0,0,1-.13-.35v-.88l1.48-.24.47-2.52a.45.45,0,0,1,.17-.28A.5.5,0,0,1,90,251h1.15v2.9H93.6v1.59H91.17v5a1,1,0,0,0,.21.68.75.75,0,0,0,.58.24,1.18,1.18,0,0,0,.35-.05l.24-.1.19-.11a.3.3,0,0,1,.16-.05.28.28,0,0,1,.16.05,1,1,0,0,1,.13.15l.67,1.08a3.21,3.21,0,0,1-1.12.61A4.07,4.07,0,0,1,91.44,263.15Z"/><path class="cls-2" d="M98.07,251.08a1.41,1.41,0,0,1-.11.54,1.43,1.43,0,0,1-.32.44,1.44,1.44,0,0,1-.45.31,1.47,1.47,0,0,1-.56.11,1.41,1.41,0,0,1-.54-.11,1.57,1.57,0,0,1-.45-.31,1.55,1.55,0,0,1-.3-.44,1.41,1.41,0,0,1-.11-.54,1.51,1.51,0,0,1,.11-.56,1.38,1.38,0,0,1,.75-.75,1.41,1.41,0,0,1,.54-.11,1.47,1.47,0,0,1,.56.11,1.51,1.51,0,0,1,.77.75A1.51,1.51,0,0,1,98.07,251.08Zm-.33,2.69V263H95.52v-9.24Z"/><path class="cls-2" d="M100.25,263v-9.24h1.36a.55.55,0,0,1,.57.41l.15.73a4.15,4.15,0,0,1,.59-.52,3.18,3.18,0,0,1,.66-.41,3.4,3.4,0,0,1,.74-.26,3.85,3.85,0,0,1,.86-.09,3.14,3.14,0,0,1,1.34.26,2.63,2.63,0,0,1,1,.72,3,3,0,0,1,.59,1.1,4.55,4.55,0,0,1,.21,1.42V263h-2.23v-5.88a2,2,0,0,0-.39-1.31,1.44,1.44,0,0,0-1.17-.46,2.21,2.21,0,0,0-1.08.26,3.73,3.73,0,0,0-1,.71V263Z"/><path class="cls-2" d="M117,255.73a.85.85,0,0,1-.19.19.47.47,0,0,1-.28.08.62.62,0,0,1-.33-.11l-.39-.23a2.62,2.62,0,0,0-.53-.24,2.77,2.77,0,0,0-.77-.1,2.4,2.4,0,0,0-1,.21,2,2,0,0,0-.73.61,2.66,2.66,0,0,0-.44,1,5.42,5.42,0,0,0-.14,1.27,4.87,4.87,0,0,0,.16,1.32,2.67,2.67,0,0,0,.45,1,2.07,2.07,0,0,0,.72.6,2.59,2.59,0,0,0,1.81.07,2.65,2.65,0,0,0,.56-.29c.15-.1.28-.2.39-.29a.62.62,0,0,1,.37-.13.46.46,0,0,1,.41.21l.64.81a4.52,4.52,0,0,1-.8.73,4.25,4.25,0,0,1-.9.46,4.52,4.52,0,0,1-1,.25,6.55,6.55,0,0,1-1,.07,4,4,0,0,1-1.61-.32,3.78,3.78,0,0,1-1.32-.93,4.63,4.63,0,0,1-.89-1.5,5.74,5.74,0,0,1-.33-2,6,6,0,0,1,.29-1.88A4.57,4.57,0,0,1,111,255a4,4,0,0,1,1.41-1,4.83,4.83,0,0,1,1.92-.36,4.65,4.65,0,0,1,1.82.33,4.38,4.38,0,0,1,1.4,1Z"/><path class="cls-2" d="M122.1,263.15a2.42,2.42,0,0,1-1.84-.68,2.57,2.57,0,0,1-.65-1.87v-5.16h-.94a.45.45,0,0,1-.31-.12.47.47,0,0,1-.13-.35v-.88l1.49-.24.46-2.52a.45.45,0,0,1,.17-.28.52.52,0,0,1,.33-.1h1.15v2.9h2.43v1.59h-2.43v5a1,1,0,0,0,.22.68.72.72,0,0,0,.57.24,1.13,1.13,0,0,0,.35-.05l.24-.1.19-.11a.33.33,0,0,1,.16-.05.25.25,0,0,1,.16.05l.14.15.66,1.08a3.16,3.16,0,0,1-1.11.61A4.13,4.13,0,0,1,122.1,263.15Z"/><path class="cls-2" d="M131.76,249.63v7.66h.41a.82.82,0,0,0,.35-.06.73.73,0,0,0,.27-.24l2.3-2.83a1.37,1.37,0,0,1,.32-.28.88.88,0,0,1,.45-.11h2L135,257.2c-.11.13-.21.24-.32.35a1.82,1.82,0,0,1-.35.27,1.44,1.44,0,0,1,.33.32c.1.12.19.25.29.39l3.08,4.48h-2a1,1,0,0,1-.44-.09.79.79,0,0,1-.32-.31l-2.35-3.5a.69.69,0,0,0-.27-.27,1.07,1.07,0,0,0-.41-.06h-.5V263h-2.22V249.63Z"/><path class="cls-2" d="M142.71,253.63a4.43,4.43,0,0,1,1.61.28,3.46,3.46,0,0,1,1.26.81,3.71,3.71,0,0,1,.83,1.32,4.9,4.9,0,0,1,.3,1.77,2.42,2.42,0,0,1,0,.42.57.57,0,0,1-.08.26.33.33,0,0,1-.15.14.65.65,0,0,1-.26,0h-5.7a3.18,3.18,0,0,0,.76,2.09,2.42,2.42,0,0,0,1.77.66,3.18,3.18,0,0,0,.93-.12,5,5,0,0,0,.68-.28l.52-.28a.89.89,0,0,1,.42-.13.5.5,0,0,1,.41.21l.65.81a4.07,4.07,0,0,1-.83.73,4.69,4.69,0,0,1-1,.46,5.07,5.07,0,0,1-1,.25,6.92,6.92,0,0,1-1,.07,4.78,4.78,0,0,1-1.79-.32,4.09,4.09,0,0,1-1.44-.94,4.5,4.5,0,0,1-1-1.55,6.12,6.12,0,0,1-.35-2.14,5.24,5.24,0,0,1,.31-1.78,4.23,4.23,0,0,1,.88-1.44,4,4,0,0,1,1.39-1A4.61,4.61,0,0,1,142.71,253.63Zm0,1.59a2.07,2.07,0,0,0-1.52.55,2.7,2.7,0,0,0-.71,1.56h4.18a2.76,2.76,0,0,0-.12-.82,2.07,2.07,0,0,0-.36-.67,1.65,1.65,0,0,0-.61-.45A2.09,2.09,0,0,0,142.76,255.22Z"/><path class="cls-2" d="M151.5,265.55a1,1,0,0,1-.26.35.81.81,0,0,1-.48.12H149.1l1.73-3.7-3.74-8.55H149a.61.61,0,0,1,.41.13.77.77,0,0,1,.22.29l2,4.79a3.39,3.39,0,0,1,.17.48c.05.17.09.34.13.51,0-.18.1-.35.15-.51s.12-.33.19-.49l1.85-4.78a.7.7,0,0,1,.24-.3.63.63,0,0,1,.37-.12h1.79Z"/><path class="cls-2" d="M163.3,255.57a.56.56,0,0,1-.19.21.47.47,0,0,1-.25.05.75.75,0,0,1-.34-.09l-.43-.2a4.48,4.48,0,0,0-.56-.2,2.6,2.6,0,0,0-.73-.09,1.66,1.66,0,0,0-1,.28.84.84,0,0,0-.38.73.69.69,0,0,0,.19.5,1.83,1.83,0,0,0,.51.35,5.57,5.57,0,0,0,.73.28l.83.26c.28.1.56.21.82.33a2.61,2.61,0,0,1,.73.47,2.17,2.17,0,0,1,.51.68,2.12,2.12,0,0,1,.2.95,2.91,2.91,0,0,1-.25,1.23,2.62,2.62,0,0,1-.71,1,3.21,3.21,0,0,1-1.15.64,4.82,4.82,0,0,1-1.58.23,5.86,5.86,0,0,1-.94-.08,6.2,6.2,0,0,1-.87-.24,4.2,4.2,0,0,1-.77-.36A3.91,3.91,0,0,1,157,262l.52-.85a.63.63,0,0,1,.23-.23.59.59,0,0,1,.34-.08.77.77,0,0,1,.39.11l.43.26a3.87,3.87,0,0,0,.57.25,2.49,2.49,0,0,0,.83.11,2.24,2.24,0,0,0,.68-.09,1.39,1.39,0,0,0,.47-.25,1,1,0,0,0,.27-.35,1.06,1.06,0,0,0,.09-.42.74.74,0,0,0-.2-.53,1.66,1.66,0,0,0-.51-.36,5.07,5.07,0,0,0-.73-.28l-.84-.26a8.51,8.51,0,0,1-.83-.34,2.67,2.67,0,0,1-.73-.49,2.13,2.13,0,0,1-.51-.73,2.54,2.54,0,0,1-.2-1,2.65,2.65,0,0,1,.23-1.08,2.53,2.53,0,0,1,.66-.9,3.26,3.26,0,0,1,1.09-.61,5,5,0,0,1,3.24.08,4,4,0,0,1,1.31.83Z"/><path class="cls-2" d="M165.22,261.64a1.19,1.19,0,0,1,.09-.47,1.36,1.36,0,0,1,.27-.39,1.15,1.15,0,0,1,.41-.26,1.57,1.57,0,0,1,.54-.1,1.25,1.25,0,0,1,.59.13,1.14,1.14,0,0,1,.42.33,1.2,1.2,0,0,1,.25.49,1.81,1.81,0,0,1,.08.58,3.66,3.66,0,0,1-.12.9,4.84,4.84,0,0,1-.39,1,5.38,5.38,0,0,1-.62.93,5.94,5.94,0,0,1-.84.82l-.39-.35a.41.41,0,0,1-.16-.33.27.27,0,0,1,.05-.16.48.48,0,0,1,.12-.16,2.6,2.6,0,0,1,.24-.27,3.78,3.78,0,0,0,.29-.36,4.64,4.64,0,0,0,.26-.44,2.21,2.21,0,0,0,.18-.51,1.19,1.19,0,0,1-.51-.1,1.18,1.18,0,0,1-.4-.29,1.32,1.32,0,0,1-.27-.42A1.51,1.51,0,0,1,165.22,261.64Z"/><path class="cls-2" d="M53.22,275.37v5.87a2,2,0,0,0,.39,1.31,1.45,1.45,0,0,0,1.18.46,2.38,2.38,0,0,0,1.08-.25,3.86,3.86,0,0,0,1-.71v-6.68H59v9.24H57.68a.55.55,0,0,1-.56-.41l-.16-.74a5.76,5.76,0,0,1-.59.53,4,4,0,0,1-.65.41,4.13,4.13,0,0,1-.75.26,3.91,3.91,0,0,1-.86.09,3.1,3.1,0,0,1-1.33-.26,2.63,2.63,0,0,1-1-.72,3.13,3.13,0,0,1-.6-1.11,4.87,4.87,0,0,1-.2-1.42v-5.87Z"/><path class="cls-2" d="M61.42,284.61v-9.24h1.36a.55.55,0,0,1,.57.41l.15.73a4.15,4.15,0,0,1,.59-.52,3.18,3.18,0,0,1,.66-.41,3.4,3.4,0,0,1,.74-.26,3.85,3.85,0,0,1,.86-.09,3.3,3.3,0,0,1,1.34.26,2.63,2.63,0,0,1,1,.72,3.06,3.06,0,0,1,.59,1.1,4.55,4.55,0,0,1,.21,1.42v5.88H67.24v-5.88a2,2,0,0,0-.39-1.31,1.44,1.44,0,0,0-1.17-.46,2.21,2.21,0,0,0-1.08.26,3.73,3.73,0,0,0-1,.71v6.68Z"/><path class="cls-2" d="M78.15,284.61a.55.55,0,0,1-.57-.41l-.18-.89a5.56,5.56,0,0,1-.6.59,4.45,4.45,0,0,1-.68.45,3.81,3.81,0,0,1-.78.29,3.73,3.73,0,0,1-.91.1,3,3,0,0,1-1.38-.31,3.18,3.18,0,0,1-1.09-.92,4.42,4.42,0,0,1-.7-1.48,7.62,7.62,0,0,1-.25-2,6.48,6.48,0,0,1,.28-1.91,4.83,4.83,0,0,1,.8-1.53,3.79,3.79,0,0,1,1.25-1A3.56,3.56,0,0,1,75,275.2a3.16,3.16,0,0,1,1.33.25,3.84,3.84,0,0,1,1,.66v-4.88h2.22v13.38Zm-3-1.63a2.32,2.32,0,0,0,1.18-.29,3.46,3.46,0,0,0,.92-.82v-4.14a2.36,2.36,0,0,0-.83-.65,2.49,2.49,0,0,0-1-.19,2.24,2.24,0,0,0-.91.19,1.82,1.82,0,0,0-.69.58,2.64,2.64,0,0,0-.44,1,5.63,5.63,0,0,0-.15,1.39,6,6,0,0,0,.13,1.37,2.8,2.8,0,0,0,.37.92,1.4,1.4,0,0,0,.6.51A1.78,1.78,0,0,0,75.19,283Z"/><path class="cls-2" d="M85.73,275.23a4.34,4.34,0,0,1,1.6.28,3.5,3.5,0,0,1,1.27.81,3.86,3.86,0,0,1,.83,1.32,5.13,5.13,0,0,1,.29,1.77,2.56,2.56,0,0,1,0,.42.57.57,0,0,1-.08.26.31.31,0,0,1-.16.14.6.6,0,0,1-.25,0H83.5a3.24,3.24,0,0,0,.77,2.09A2.38,2.38,0,0,0,86,283a3.25,3.25,0,0,0,.94-.12,5,5,0,0,0,.68-.28l.51-.28a.92.92,0,0,1,.43-.13.41.41,0,0,1,.23.06.43.43,0,0,1,.18.15l.64.81a3.48,3.48,0,0,1-.82.72,4.26,4.26,0,0,1-1,.47,5.42,5.42,0,0,1-1,.25,6.92,6.92,0,0,1-1,.07,4.84,4.84,0,0,1-1.8-.32,3.83,3.83,0,0,1-1.43-.94,4.59,4.59,0,0,1-1-1.55,6.08,6.08,0,0,1-.35-2.14A4.92,4.92,0,0,1,81.6,278a4.16,4.16,0,0,1,.87-1.45,4.26,4.26,0,0,1,1.4-1A4.61,4.61,0,0,1,85.73,275.23Zm0,1.59a2.08,2.08,0,0,0-1.52.55,2.76,2.76,0,0,0-.7,1.56h4.18a2.76,2.76,0,0,0-.12-.82,2.07,2.07,0,0,0-.36-.67,1.73,1.73,0,0,0-.61-.45A2.14,2.14,0,0,0,85.77,276.82Z"/><path class="cls-2" d="M91.93,284.61v-7.56l-.8-.13a.81.81,0,0,1-.42-.18.45.45,0,0,1-.16-.38v-.91h1.38v-.29a4.21,4.21,0,0,1,.28-1.57,3.36,3.36,0,0,1,.84-1.26,4,4,0,0,1,1.44-.83,6.18,6.18,0,0,1,2-.3,6.74,6.74,0,0,1,.77,0,3.86,3.86,0,0,1,.69.13l-.08,1.15a.25.25,0,0,1-.22.25,3.52,3.52,0,0,1-.51,0,6.1,6.1,0,0,0-1.47.15,2.28,2.28,0,0,0-.95.46,1.65,1.65,0,0,0-.52.75,3.15,3.15,0,0,0-.16,1.06v.22H99.8v9.16H97.58V277H94.15v7.57Z"/><path class="cls-2" d="M102.35,284.61v-9.24h1.36a.55.55,0,0,1,.57.41l.15.73A4.78,4.78,0,0,1,105,276a3.8,3.8,0,0,1,.66-.41,3.6,3.6,0,0,1,.74-.26,3.85,3.85,0,0,1,.86-.09,3.3,3.3,0,0,1,1.34.26,2.63,2.63,0,0,1,1,.72,3.24,3.24,0,0,1,.6,1.1,4.87,4.87,0,0,1,.2,1.42v5.88h-2.23v-5.88a2,2,0,0,0-.39-1.31,1.44,1.44,0,0,0-1.17-.46,2.21,2.21,0,0,0-1.08.26,3.73,3.73,0,0,0-1,.71v6.68Z"/><path class="cls-2" d="M116.4,275.23a4.43,4.43,0,0,1,1.61.28,3.46,3.46,0,0,1,1.26.81,3.86,3.86,0,0,1,.83,1.32,4.9,4.9,0,0,1,.3,1.77,2.42,2.42,0,0,1,0,.42.57.57,0,0,1-.08.26.31.31,0,0,1-.16.14.57.57,0,0,1-.25,0h-5.7a3.18,3.18,0,0,0,.76,2.09,2.41,2.41,0,0,0,1.77.66,3.18,3.18,0,0,0,.93-.12,5,5,0,0,0,.68-.28l.51-.28a.92.92,0,0,1,.43-.13.5.5,0,0,1,.41.21l.65.81a3.73,3.73,0,0,1-.83.72,4.26,4.26,0,0,1-1,.47,5.07,5.07,0,0,1-1,.25,6.92,6.92,0,0,1-1,.07,4.78,4.78,0,0,1-1.79-.32,4,4,0,0,1-1.44-.94,4.59,4.59,0,0,1-1-1.55,6.08,6.08,0,0,1-.35-2.14,5.14,5.14,0,0,1,.31-1.77,4.18,4.18,0,0,1,.88-1.45,4.11,4.11,0,0,1,1.39-1A4.61,4.61,0,0,1,116.4,275.23Zm0,1.59a2.11,2.11,0,0,0-1.53.55,2.76,2.76,0,0,0-.7,1.56h4.18a2.76,2.76,0,0,0-.12-.82,2.07,2.07,0,0,0-.36-.67,1.65,1.65,0,0,0-.61-.45A2.09,2.09,0,0,0,116.45,276.82Z"/><path class="cls-2" d="M128.7,284.61a.55.55,0,0,1-.56-.41l-.18-.89a6.73,6.73,0,0,1-.61.59,4,4,0,0,1-.68.45,3.81,3.81,0,0,1-.78.29,3.71,3.71,0,0,1-.9.1,3,3,0,0,1-2.47-1.23,4.25,4.25,0,0,1-.71-1.48,7.64,7.64,0,0,1-.24-2,6.48,6.48,0,0,1,.27-1.91,4.66,4.66,0,0,1,.81-1.53,3.6,3.6,0,0,1,1.25-1,3.51,3.51,0,0,1,1.64-.37,3.14,3.14,0,0,1,1.32.25,3.84,3.84,0,0,1,1,.66v-4.88h2.22v13.38Zm-3-1.63a2.29,2.29,0,0,0,1.18-.29,3.32,3.32,0,0,0,.92-.82v-4.14a2.33,2.33,0,0,0-.82-.65,2.57,2.57,0,0,0-1-.19,2.29,2.29,0,0,0-.92.19,1.82,1.82,0,0,0-.69.58,2.82,2.82,0,0,0-.44,1,5.63,5.63,0,0,0-.15,1.39,6,6,0,0,0,.13,1.37,2.6,2.6,0,0,0,.38.92,1.37,1.37,0,0,0,.59.51A1.78,1.78,0,0,0,125.74,283Z"/><path class="cls-2" d="M139.88,275.23a5.12,5.12,0,0,1,1.88.33,3.94,3.94,0,0,1,1.43.95,4.17,4.17,0,0,1,.92,1.49,6.25,6.25,0,0,1,0,3.95,4.35,4.35,0,0,1-.92,1.51,3.94,3.94,0,0,1-1.43,1,5.52,5.52,0,0,1-3.76,0,4,4,0,0,1-1.44-1,4.37,4.37,0,0,1-.93-1.51,6.08,6.08,0,0,1,0-3.95,4.19,4.19,0,0,1,.93-1.49,4,4,0,0,1,1.44-.95A5.12,5.12,0,0,1,139.88,275.23Zm0,7.8a2,2,0,0,0,1.71-.77,3.88,3.88,0,0,0,.55-2.27,3.94,3.94,0,0,0-.55-2.28,2.28,2.28,0,0,0-3.44,0,3.9,3.9,0,0,0-.56,2.27,3.84,3.84,0,0,0,.56,2.26A2,2,0,0,0,139.88,283Z"/><path class="cls-2" d="M146.17,284.61v-9.24h1.31a.69.69,0,0,1,.47.13.72.72,0,0,1,.18.43l.14,1.12a4.44,4.44,0,0,1,1.16-1.35,2.43,2.43,0,0,1,1.49-.5,1.94,1.94,0,0,1,1.14.32l-.29,1.66a.34.34,0,0,1-.12.23.36.36,0,0,1-.24.07,1.62,1.62,0,0,1-.37-.06,2.12,2.12,0,0,0-.62-.07,1.87,1.87,0,0,0-1.19.39,2.94,2.94,0,0,0-.84,1.12v5.75Z"/><path class="cls-2" d="M160,284.61a.54.54,0,0,1-.56-.41l-.18-.89a6.73,6.73,0,0,1-.61.59,4,4,0,0,1-.68.45,3.81,3.81,0,0,1-.78.29,3.71,3.71,0,0,1-.9.1,3.05,3.05,0,0,1-1.39-.31,3.18,3.18,0,0,1-1.09-.92,4.42,4.42,0,0,1-.7-1.48,7.64,7.64,0,0,1-.24-2,6.17,6.17,0,0,1,.28-1.91,4.46,4.46,0,0,1,.8-1.53,3.6,3.6,0,0,1,1.25-1,3.49,3.49,0,0,1,1.63-.37,3.16,3.16,0,0,1,1.33.25,3.84,3.84,0,0,1,1,.66v-4.88h2.22v13.38Zm-3-1.63a2.29,2.29,0,0,0,1.18-.29,3.46,3.46,0,0,0,.92-.82v-4.14a2.28,2.28,0,0,0-.83-.65,2.48,2.48,0,0,0-1-.19,2.29,2.29,0,0,0-.92.19,1.82,1.82,0,0,0-.69.58,2.82,2.82,0,0,0-.44,1,5.63,5.63,0,0,0-.15,1.39,6,6,0,0,0,.13,1.37,2.8,2.8,0,0,0,.37.92,1.46,1.46,0,0,0,.6.51A1.78,1.78,0,0,0,157.06,283Z"/><path class="cls-2" d="M167.6,275.23a4.43,4.43,0,0,1,1.61.28,3.46,3.46,0,0,1,1.26.81,3.71,3.71,0,0,1,.83,1.32,4.9,4.9,0,0,1,.3,1.77,2.42,2.42,0,0,1,0,.42.57.57,0,0,1-.08.26.31.31,0,0,1-.16.14.57.57,0,0,1-.25,0h-5.7a3.18,3.18,0,0,0,.76,2.09,2.41,2.41,0,0,0,1.77.66,3.18,3.18,0,0,0,.93-.12,5,5,0,0,0,.68-.28l.52-.28a.86.86,0,0,1,.42-.13.5.5,0,0,1,.41.21l.65.81a3.73,3.73,0,0,1-.83.72,4.26,4.26,0,0,1-1,.47,5.07,5.07,0,0,1-1,.25,6.92,6.92,0,0,1-1,.07,4.78,4.78,0,0,1-1.79-.32,4,4,0,0,1-1.44-.94,4.59,4.59,0,0,1-1-1.55,6.08,6.08,0,0,1-.35-2.14,5.14,5.14,0,0,1,.31-1.77,4.18,4.18,0,0,1,.88-1.45,4.11,4.11,0,0,1,1.39-1A4.61,4.61,0,0,1,167.6,275.23Zm.05,1.59a2.11,2.11,0,0,0-1.53.55,2.76,2.76,0,0,0-.7,1.56h4.18a2.76,2.76,0,0,0-.12-.82,2.07,2.07,0,0,0-.36-.67,1.65,1.65,0,0,0-.61-.45A2.09,2.09,0,0,0,167.65,276.82Z"/><path class="cls-2" d="M173.41,284.61v-9.24h1.3a.73.73,0,0,1,.48.13.72.72,0,0,1,.18.43l.13,1.12a4.44,4.44,0,0,1,1.16-1.35,2.46,2.46,0,0,1,1.5-.5,1.93,1.93,0,0,1,1.13.32l-.29,1.66a.3.3,0,0,1-.11.23.37.37,0,0,1-.25.07,1.62,1.62,0,0,1-.37-.06,2.07,2.07,0,0,0-.62-.07,1.87,1.87,0,0,0-1.19.39,2.93,2.93,0,0,0-.83,1.12v5.75Z"/><path class="cls-2" d="M328.07,14.55v2h-3.92v11h-2.42v-11H317.8v-2Z"/><path class="cls-2" d="M331.14,30.1a1,1,0,0,1-.26.36.81.81,0,0,1-.48.12h-1.66l1.73-3.7-3.74-8.55h1.95a.61.61,0,0,1,.41.12.86.86,0,0,1,.22.29l2,4.79a4,4,0,0,1,.17.49c.05.16.09.33.13.5,0-.17.1-.34.15-.5s.12-.33.19-.5l1.85-4.78a.62.62,0,0,1,.24-.29.63.63,0,0,1,.37-.12h1.79Z"/><path class="cls-2" d="M337.46,30.58V18.33h1.36a.62.62,0,0,1,.37.1.46.46,0,0,1,.2.3l.18.86a4.72,4.72,0,0,1,1.28-1,3.53,3.53,0,0,1,1.7-.39A3,3,0,0,1,345,19.39a4.27,4.27,0,0,1,.7,1.47,7.27,7.27,0,0,1,.25,2,6.23,6.23,0,0,1-.28,1.92,4.64,4.64,0,0,1-.8,1.53,3.6,3.6,0,0,1-1.25,1,3.53,3.53,0,0,1-1.64.37,3.33,3.33,0,0,1-1.33-.24,3.21,3.21,0,0,1-1-.66v3.78Zm4.32-10.67a2.32,2.32,0,0,0-1.18.29,3.35,3.35,0,0,0-.91.83v4.14a2.06,2.06,0,0,0,.82.65,2.57,2.57,0,0,0,1,.19,2.24,2.24,0,0,0,.91-.19,1.82,1.82,0,0,0,.69-.58,2.77,2.77,0,0,0,.44-1,5.63,5.63,0,0,0,.15-1.39,6,6,0,0,0-.13-1.37,2.55,2.55,0,0,0-.37-.91,1.36,1.36,0,0,0-.59-.51A1.8,1.8,0,0,0,341.78,19.91Z"/><path class="cls-2" d="M351.46,18.18a4.55,4.55,0,0,1,1.6.28,3.61,3.61,0,0,1,1.27.82,3.81,3.81,0,0,1,.83,1.31,5.15,5.15,0,0,1,.29,1.78,2.56,2.56,0,0,1,0,.42.57.57,0,0,1-.08.26.29.29,0,0,1-.16.13.6.6,0,0,1-.25,0h-5.71a3.22,3.22,0,0,0,.77,2.09,2.35,2.35,0,0,0,1.76.67,3,3,0,0,0,.94-.13,3.57,3.57,0,0,0,.68-.28c.19-.1.37-.19.51-.28a.9.9,0,0,1,.43-.12.52.52,0,0,1,.23,0,.44.44,0,0,1,.17.16l.65.81a3.56,3.56,0,0,1-.83.72,4.42,4.42,0,0,1-1,.47,6.32,6.32,0,0,1-1,.25,8.86,8.86,0,0,1-1,.07,5,5,0,0,1-1.8-.32,4.11,4.11,0,0,1-1.44-.95,4.53,4.53,0,0,1-1-1.55,6,6,0,0,1-.35-2.13,5,5,0,0,1,.31-1.78,4.08,4.08,0,0,1,2.27-2.43A4.61,4.61,0,0,1,351.46,18.18Zm0,1.6a2,2,0,0,0-1.52.55,2.7,2.7,0,0,0-.7,1.55h4.18a2.69,2.69,0,0,0-.12-.81,1.78,1.78,0,0,0-1-1.13A2.14,2.14,0,0,0,351.5,19.78Z"/><path class="cls-2" d="M364.68,18.18a5.06,5.06,0,0,1,1.87.34,4,4,0,0,1,1.44.94,4.21,4.21,0,0,1,.92,1.5,5.77,5.77,0,0,1,.32,2,5.87,5.87,0,0,1-.32,2,4.21,4.21,0,0,1-.92,1.5,3.86,3.86,0,0,1-1.44.95,4.87,4.87,0,0,1-1.87.34,4.92,4.92,0,0,1-1.88-.34,3.89,3.89,0,0,1-1.45-.95,4.08,4.08,0,0,1-.92-1.5,5.63,5.63,0,0,1-.33-2,5.54,5.54,0,0,1,.33-2,4.08,4.08,0,0,1,.92-1.5,4,4,0,0,1,1.45-.94A5.12,5.12,0,0,1,364.68,18.18Zm0,7.81a1.94,1.94,0,0,0,1.7-.78,3.84,3.84,0,0,0,.56-2.26,3.91,3.91,0,0,0-.56-2.28,1.94,1.94,0,0,0-1.7-.78,2,2,0,0,0-1.73.78,4,4,0,0,0-.56,2.28,3.86,3.86,0,0,0,.56,2.26A2,2,0,0,0,364.68,26Z"/><path class="cls-2" d="M371.37,27.56V20l-.81-.12a.82.82,0,0,1-.41-.18.46.46,0,0,1-.16-.38v-.91h1.38v-.68a4,4,0,0,1,.23-1.43,3,3,0,0,1,.69-1.07,2.91,2.91,0,0,1,1.08-.67,4.35,4.35,0,0,1,2.63-.07l0,1.12a.34.34,0,0,1-.25.32,1.64,1.64,0,0,1-.52.07,3.08,3.08,0,0,0-.71.08,1.23,1.23,0,0,0-.52.3,1.25,1.25,0,0,0-.33.56,2.68,2.68,0,0,0-.11.86v.61h2.4V20h-2.33v7.57Z"/><path class="cls-2" d="M385.38,27.56h-2l-3.67-9.23h1.85a.65.65,0,0,1,.4.12.55.55,0,0,1,.23.29L384,23.67c.1.29.18.57.25.85s.13.55.19.83c.05-.28.11-.55.18-.83a7.56,7.56,0,0,1,.27-.85l1.82-4.93a.6.6,0,0,1,.23-.29.65.65,0,0,1,.39-.12H389Z"/><path class="cls-2" d="M397.59,27.56h-1a1.1,1.1,0,0,1-.49-.09.6.6,0,0,1-.27-.38l-.2-.66c-.24.21-.47.39-.69.55a4.49,4.49,0,0,1-.7.4,3.76,3.76,0,0,1-.76.25,4.94,4.94,0,0,1-.9.08,3.71,3.71,0,0,1-1.08-.16,2.49,2.49,0,0,1-.85-.47,2.23,2.23,0,0,1-.56-.79,2.83,2.83,0,0,1-.2-1.09,2.22,2.22,0,0,1,.28-1,2.65,2.65,0,0,1,.91-.92,6.07,6.07,0,0,1,1.7-.68,10.94,10.94,0,0,1,2.64-.27v-.55a2.07,2.07,0,0,0-.39-1.38,1.43,1.43,0,0,0-1.14-.45,2.6,2.6,0,0,0-.9.13,3.28,3.28,0,0,0-.62.28l-.5.29a1,1,0,0,1-.49.12.65.65,0,0,1-.39-.12.87.87,0,0,1-.26-.28l-.4-.71a5.45,5.45,0,0,1,3.84-1.46,3.81,3.81,0,0,1,1.44.26,3.1,3.1,0,0,1,1.08.74,3.2,3.2,0,0,1,.67,1.13,4.44,4.44,0,0,1,.23,1.44Zm-4.32-1.38a2.48,2.48,0,0,0,.63-.07,2.45,2.45,0,0,0,.54-.18,2.6,2.6,0,0,0,.5-.31,3.72,3.72,0,0,0,.48-.43V23.65a9.09,9.09,0,0,0-1.62.12,4.44,4.44,0,0,0-1.05.31,1.32,1.32,0,0,0-.56.45.92.92,0,0,0-.17.55,1,1,0,0,0,.35.84A1.48,1.48,0,0,0,393.27,26.18Z"/><path class="cls-2" d="M402.14,14.19V27.56h-2.22V14.19Z"/><path class="cls-2" d="M406.69,18.33V24.2a2,2,0,0,0,.39,1.31,1.44,1.44,0,0,0,1.17.46,2.33,2.33,0,0,0,1.08-.26,3.68,3.68,0,0,0,1-.7V18.33h2.22v9.23h-1.36a.54.54,0,0,1-.56-.4l-.16-.74a7.23,7.23,0,0,1-.59.53,3.67,3.67,0,0,1-.65.4,3.49,3.49,0,0,1-.75.26,3.9,3.9,0,0,1-.86.1,3.34,3.34,0,0,1-1.34-.26,2.68,2.68,0,0,1-1-.72,3.1,3.1,0,0,1-.6-1.12,4.49,4.49,0,0,1-.2-1.41V18.33Z"/><path class="cls-2" d="M418.7,18.18a4.61,4.61,0,0,1,1.61.28,3.61,3.61,0,0,1,1.27.82,3.65,3.65,0,0,1,.82,1.31,4.92,4.92,0,0,1,.3,1.78c0,.17,0,.31,0,.42a.73.73,0,0,1-.08.26.33.33,0,0,1-.16.13.62.62,0,0,1-.25,0h-5.71a3.16,3.16,0,0,0,.77,2.09A2.35,2.35,0,0,0,419,26a2.86,2.86,0,0,0,.93-.13,3.67,3.67,0,0,0,.69-.28l.51-.28a.9.9,0,0,1,.43-.12.56.56,0,0,1,.23,0,.52.52,0,0,1,.17.16l.65.81a3.77,3.77,0,0,1-.83.72,4.27,4.27,0,0,1-1,.47,6,6,0,0,1-1,.25,8.87,8.87,0,0,1-1,.07,5,5,0,0,1-1.79-.32,4.11,4.11,0,0,1-1.44-.95,4.25,4.25,0,0,1-1-1.55,5.8,5.8,0,0,1-.35-2.13,5.24,5.24,0,0,1,.3-1.78,4.34,4.34,0,0,1,.88-1.45,4.15,4.15,0,0,1,1.4-1A4.52,4.52,0,0,1,418.7,18.18Zm.05,1.6a2,2,0,0,0-1.52.55,2.64,2.64,0,0,0-.7,1.55h4.17a2.69,2.69,0,0,0-.12-.81,1.72,1.72,0,0,0-.35-.67,1.93,1.93,0,0,0-.62-.46A2.06,2.06,0,0,0,418.75,19.78Z"/><path class="cls-1" d="M107.27,138.52a.66.66,0,0,1-.19.21.49.49,0,0,1-.25.05.79.79,0,0,1-.35-.09l-.43-.2a4.3,4.3,0,0,0-.55-.2,2.65,2.65,0,0,0-.73-.09,1.69,1.69,0,0,0-1,.28.87.87,0,0,0-.38.73.7.7,0,0,0,.2.5,1.83,1.83,0,0,0,.51.35,4.92,4.92,0,0,0,.72.28l.83.26c.28.1.56.21.83.33a2.71,2.71,0,0,1,.72.47,2.06,2.06,0,0,1,.52.68,2.12,2.12,0,0,1,.19.95,3.07,3.07,0,0,1-.24,1.23,2.62,2.62,0,0,1-.71,1,3.25,3.25,0,0,1-1.16.64,4.82,4.82,0,0,1-1.58.23,5.64,5.64,0,0,1-.93-.08,6.2,6.2,0,0,1-.87-.24,4.64,4.64,0,0,1-.78-.36A4.3,4.3,0,0,1,101,145l.51-.85a.72.72,0,0,1,.23-.23.63.63,0,0,1,.35-.08.82.82,0,0,1,.39.11l.42.26a4.58,4.58,0,0,0,.58.25,2.45,2.45,0,0,0,.83.11,2.29,2.29,0,0,0,.68-.09,1.5,1.5,0,0,0,.47-.25,1,1,0,0,0,.27-.35,1.25,1.25,0,0,0,.08-.42.72.72,0,0,0-.19-.53,1.6,1.6,0,0,0-.52-.36,4.92,4.92,0,0,0-.72-.28l-.84-.26a8.68,8.68,0,0,1-.84-.34,3,3,0,0,1-.73-.49,2.28,2.28,0,0,1-.51-.73,2.54,2.54,0,0,1-.19-1,2.64,2.64,0,0,1,.22-1.08,2.53,2.53,0,0,1,.66-.9,3.36,3.36,0,0,1,1.09-.61,5.05,5.05,0,0,1,3.25.08,4,4,0,0,1,1.3.83Z"/><path class="cls-1" d="M111.69,136.72v5.87a2,2,0,0,0,.39,1.31,1.44,1.44,0,0,0,1.17.47,2.33,2.33,0,0,0,1.08-.26,3.73,3.73,0,0,0,1-.71v-6.68h2.22V146h-1.36a.55.55,0,0,1-.57-.41l-.15-.74a5.76,5.76,0,0,1-.59.53,4,4,0,0,1-.66.41,4.31,4.31,0,0,1-.74.26,4,4,0,0,1-.86.09,3.3,3.3,0,0,1-1.34-.25,2.86,2.86,0,0,1-1-.73,3.11,3.11,0,0,1-.59-1.11,4.55,4.55,0,0,1-.21-1.42v-5.87Z"/><path class="cls-1" d="M119.91,146V132.58h2.23v5.28a4.29,4.29,0,0,1,1.24-.93,3.58,3.58,0,0,1,1.62-.35,3,3,0,0,1,1.38.31,3.1,3.1,0,0,1,1.08.9,4.36,4.36,0,0,1,.7,1.47,7.17,7.17,0,0,1,.25,2,6.23,6.23,0,0,1-.28,1.92,4.69,4.69,0,0,1-.8,1.52,3.72,3.72,0,0,1-3.66,1.3,2.84,2.84,0,0,1-.64-.24,2.51,2.51,0,0,1-.54-.38,4.41,4.41,0,0,1-.47-.49l-.1.63a.65.65,0,0,1-.18.33.64.64,0,0,1-.36.1Zm4.32-7.65a2.32,2.32,0,0,0-1.18.29,3.31,3.31,0,0,0-.91.82v4.14a2.18,2.18,0,0,0,.82.66,2.58,2.58,0,0,0,1,.18,2.09,2.09,0,0,0,.91-.19,1.77,1.77,0,0,0,.68-.57,2.86,2.86,0,0,0,.44-1,5.69,5.69,0,0,0,.15-1.39,6,6,0,0,0-.13-1.37,2.6,2.6,0,0,0-.37-.92,1.51,1.51,0,0,0-.59-.51A1.8,1.8,0,0,0,124.23,138.31Z"/><path class="cls-1" d="M129.86,139.59h4.66v1.86h-4.66Z"/><path class="cls-1" d="M138.86,132.58v7.66h.41a.82.82,0,0,0,.35-.06.79.79,0,0,0,.27-.23l2.3-2.84a1.37,1.37,0,0,1,.32-.28.88.88,0,0,1,.45-.11h2l-2.88,3.43a3.52,3.52,0,0,1-.31.35,2.19,2.19,0,0,1-.35.27,1.67,1.67,0,0,1,.33.32c.1.12.19.25.29.39l3.08,4.48h-2a1,1,0,0,1-.44-.09.86.86,0,0,1-.32-.31l-2.35-3.5a.69.69,0,0,0-.27-.27,1.07,1.07,0,0,0-.41-.06h-.5V146h-2.23V132.58Z"/><path class="cls-1" d="M149.81,136.58a4.43,4.43,0,0,1,1.61.28,3.46,3.46,0,0,1,1.26.81,3.71,3.71,0,0,1,.83,1.32,4.9,4.9,0,0,1,.3,1.77,2.42,2.42,0,0,1,0,.42.57.57,0,0,1-.08.26.31.31,0,0,1-.16.14.6.6,0,0,1-.25,0h-5.7a3.18,3.18,0,0,0,.76,2.09,2.41,2.41,0,0,0,1.77.66,3.18,3.18,0,0,0,.93-.12,5,5,0,0,0,.68-.28l.51-.28a.92.92,0,0,1,.43-.13.5.5,0,0,1,.41.21l.64.81a3.48,3.48,0,0,1-.82.72,4.26,4.26,0,0,1-1,.47,5.07,5.07,0,0,1-1,.25,6.92,6.92,0,0,1-1,.07,4.78,4.78,0,0,1-1.79-.32,4.09,4.09,0,0,1-1.44-.94,4.59,4.59,0,0,1-1-1.55,6.12,6.12,0,0,1-.35-2.14,5.14,5.14,0,0,1,.31-1.77,4.18,4.18,0,0,1,.88-1.45,4,4,0,0,1,1.39-1A4.61,4.61,0,0,1,149.81,136.58Zm.05,1.59a2.11,2.11,0,0,0-1.53.55,2.76,2.76,0,0,0-.7,1.56h4.18a2.76,2.76,0,0,0-.12-.82,2.07,2.07,0,0,0-.36-.67,1.73,1.73,0,0,0-.61-.45A2.09,2.09,0,0,0,149.86,138.17Z"/><path class="cls-1" d="M158.59,148.5a.85.85,0,0,1-.25.35.81.81,0,0,1-.48.12H156.2l1.73-3.7-3.74-8.55h1.95a.61.61,0,0,1,.41.13.77.77,0,0,1,.22.29l2,4.79c.06.15.12.31.17.48s.09.34.13.51c0-.18.1-.35.15-.51s.12-.33.19-.49l1.85-4.78a.7.7,0,0,1,.24-.3.63.63,0,0,1,.37-.12h1.78Z"/><path class="cls-1" d="M166.15,144.29h2.64V136.7c0-.29,0-.6,0-.92L167,137.34a.75.75,0,0,1-.24.14,1,1,0,0,1-.24,0,.73.73,0,0,1-.33-.08.58.58,0,0,1-.22-.18l-.7-1,4-3.37H171v11.36h2.34V146h-7.2Z"/><path class="cls-1" d="M183.46,146h-2l-3.67-9.24h1.85a.69.69,0,0,1,.41.12.68.68,0,0,1,.23.3l1.78,4.93a7.36,7.36,0,0,1,.25.85c.07.27.14.55.19.82.05-.27.11-.55.18-.82a7.56,7.56,0,0,1,.27-.85l1.83-4.93a.59.59,0,0,1,.22-.3.65.65,0,0,1,.39-.12h1.75Z"/><path class="cls-1" d="M195.67,146h-1a1,1,0,0,1-.49-.1.6.6,0,0,1-.27-.38l-.2-.66a6.78,6.78,0,0,1-.69.56,4.4,4.4,0,0,1-.69.4,3.44,3.44,0,0,1-.77.24,4.94,4.94,0,0,1-.9.08,3.4,3.4,0,0,1-1.08-.16,2.27,2.27,0,0,1-.85-.47,2,2,0,0,1-.55-.79,2.62,2.62,0,0,1-.2-1.09,2.17,2.17,0,0,1,.27-1,2.6,2.6,0,0,1,.92-.92,5.55,5.55,0,0,1,1.7-.69,10.85,10.85,0,0,1,2.63-.27v-.54a2.07,2.07,0,0,0-.39-1.38,1.43,1.43,0,0,0-1.14-.45,2.88,2.88,0,0,0-.9.12,3.27,3.27,0,0,0-.62.29L190,139a1.06,1.06,0,0,1-.5.13.6.6,0,0,1-.38-.12.8.8,0,0,1-.26-.29l-.41-.71a5.49,5.49,0,0,1,3.84-1.46,3.71,3.71,0,0,1,1.45.27,2.9,2.9,0,0,1,1.07.74,3,3,0,0,1,.67,1.13,4.09,4.09,0,0,1,.23,1.43Zm-4.32-1.39a3.06,3.06,0,0,0,.63-.06,2.11,2.11,0,0,0,.55-.19,2.8,2.8,0,0,0,.49-.3,4.65,4.65,0,0,0,.48-.43V142a9.17,9.17,0,0,0-1.62.12,4.39,4.39,0,0,0-1,.32,1.3,1.3,0,0,0-.56.44,1,1,0,0,0-.17.55,1,1,0,0,0,.35.85A1.48,1.48,0,0,0,191.35,144.57Z"/><path class="cls-1" d="M200.23,132.58V146H198V132.58Z"/><path class="cls-1" d="M204.77,136.72v5.87a2,2,0,0,0,.39,1.31,1.46,1.46,0,0,0,1.18.47,2.39,2.39,0,0,0,1.08-.26,3.86,3.86,0,0,0,1-.71v-6.68h2.23V146h-1.36a.55.55,0,0,1-.57-.41l-.15-.74a5.84,5.84,0,0,1-.6.53,4,4,0,0,1-.65.41,4.13,4.13,0,0,1-.75.26,3.85,3.85,0,0,1-.86.09,3.25,3.25,0,0,1-1.33-.25,2.77,2.77,0,0,1-1-.73,3.29,3.29,0,0,1-.6-1.11,4.87,4.87,0,0,1-.2-1.42v-5.87Z"/><path class="cls-1" d="M216.79,136.58a4.37,4.37,0,0,1,1.6.28,3.59,3.59,0,0,1,1.27.81,3.86,3.86,0,0,1,.83,1.32,5.13,5.13,0,0,1,.29,1.77,2.56,2.56,0,0,1,0,.42.57.57,0,0,1-.08.26.31.31,0,0,1-.16.14.6.6,0,0,1-.25,0h-5.71a3.18,3.18,0,0,0,.77,2.09,2.38,2.38,0,0,0,1.76.66,3.18,3.18,0,0,0,.93-.12,5.18,5.18,0,0,0,.69-.28l.51-.28a.92.92,0,0,1,.43-.13.41.41,0,0,1,.23.06.35.35,0,0,1,.17.15l.65.81a3.34,3.34,0,0,1-.83.72,4,4,0,0,1-1,.47,5.42,5.42,0,0,1-1,.25,7,7,0,0,1-1,.07,4.84,4.84,0,0,1-1.8-.32,4.09,4.09,0,0,1-1.44-.94,4.73,4.73,0,0,1-1-1.55,6.12,6.12,0,0,1-.35-2.14,4.92,4.92,0,0,1,.31-1.77,4.16,4.16,0,0,1,.87-1.45,4.11,4.11,0,0,1,1.4-1A4.61,4.61,0,0,1,216.79,136.58Zm0,1.59a2.08,2.08,0,0,0-1.52.55,2.76,2.76,0,0,0-.7,1.56h4.18a2.76,2.76,0,0,0-.12-.82,2.07,2.07,0,0,0-.36-.67,1.73,1.73,0,0,0-.61-.45A2.14,2.14,0,0,0,216.83,138.17Z"/><path class="cls-1" d="M223.83,144.29h2.63V136.7c0-.29,0-.6,0-.92l-1.87,1.56a.75.75,0,0,1-.24.14,1,1,0,0,1-.24,0,.73.73,0,0,1-.33-.08.58.58,0,0,1-.22-.18l-.7-1,4-3.37h1.83v11.36H231V146h-7.2Z"/><path class="cls-1" d="M107.27,165.52a.66.66,0,0,1-.19.21.49.49,0,0,1-.25.05.79.79,0,0,1-.35-.09l-.43-.2a4.3,4.3,0,0,0-.55-.2,2.65,2.65,0,0,0-.73-.09,1.69,1.69,0,0,0-1,.28.87.87,0,0,0-.38.73.7.7,0,0,0,.2.5,1.83,1.83,0,0,0,.51.35,4.92,4.92,0,0,0,.72.28l.83.26c.28.1.56.21.83.33a2.71,2.71,0,0,1,.72.47,2.06,2.06,0,0,1,.52.68,2.12,2.12,0,0,1,.19.95,3.07,3.07,0,0,1-.24,1.23,2.62,2.62,0,0,1-.71,1,3.25,3.25,0,0,1-1.16.64,4.82,4.82,0,0,1-1.58.23,5.64,5.64,0,0,1-.93-.08,6.2,6.2,0,0,1-.87-.24,4.64,4.64,0,0,1-.78-.36A4.3,4.3,0,0,1,101,172l.51-.85a.72.72,0,0,1,.23-.23.63.63,0,0,1,.35-.08.82.82,0,0,1,.39.11l.42.26a4.58,4.58,0,0,0,.58.25,2.45,2.45,0,0,0,.83.11,2.29,2.29,0,0,0,.68-.09,1.5,1.5,0,0,0,.47-.25,1,1,0,0,0,.27-.35,1.25,1.25,0,0,0,.08-.42.72.72,0,0,0-.19-.53,1.6,1.6,0,0,0-.52-.36,4.92,4.92,0,0,0-.72-.28l-.84-.26a8.68,8.68,0,0,1-.84-.34,3,3,0,0,1-.73-.49,2.28,2.28,0,0,1-.51-.73,2.54,2.54,0,0,1-.19-1,2.64,2.64,0,0,1,.22-1.08,2.53,2.53,0,0,1,.66-.9,3.36,3.36,0,0,1,1.09-.61,5.05,5.05,0,0,1,3.25.08,4,4,0,0,1,1.3.83Z"/><path class="cls-1" d="M111.69,163.72v5.87a2,2,0,0,0,.39,1.31,1.44,1.44,0,0,0,1.17.47,2.33,2.33,0,0,0,1.08-.26,3.73,3.73,0,0,0,1-.71v-6.68h2.22V173h-1.36a.55.55,0,0,1-.57-.41l-.15-.74a5.76,5.76,0,0,1-.59.53,4,4,0,0,1-.66.41,4.31,4.31,0,0,1-.74.26,4,4,0,0,1-.86.09,3.3,3.3,0,0,1-1.34-.25,2.86,2.86,0,0,1-1-.73,3.11,3.11,0,0,1-.59-1.11,4.55,4.55,0,0,1-.21-1.42v-5.87Z"/><path class="cls-1" d="M119.91,173V159.58h2.23v5.28a4.29,4.29,0,0,1,1.24-.93,3.58,3.58,0,0,1,1.62-.35,3,3,0,0,1,1.38.31,3.1,3.1,0,0,1,1.08.9,4.36,4.36,0,0,1,.7,1.47,7.17,7.17,0,0,1,.25,2,6.23,6.23,0,0,1-.28,1.92,4.69,4.69,0,0,1-.8,1.52,3.72,3.72,0,0,1-3.66,1.3,2.84,2.84,0,0,1-.64-.24,2.51,2.51,0,0,1-.54-.38,4.41,4.41,0,0,1-.47-.49l-.1.63a.65.65,0,0,1-.18.33.64.64,0,0,1-.36.1Zm4.32-7.65a2.32,2.32,0,0,0-1.18.29,3.31,3.31,0,0,0-.91.82v4.14a2.18,2.18,0,0,0,.82.66,2.58,2.58,0,0,0,1,.18,2.09,2.09,0,0,0,.91-.19,1.77,1.77,0,0,0,.68-.57,2.86,2.86,0,0,0,.44-1,5.69,5.69,0,0,0,.15-1.39,6,6,0,0,0-.13-1.37,2.6,2.6,0,0,0-.37-.92,1.51,1.51,0,0,0-.59-.51A1.8,1.8,0,0,0,124.23,165.31Z"/><path class="cls-1" d="M129.86,166.59h4.66v1.86h-4.66Z"/><path class="cls-1" d="M138.86,159.58v7.66h.41a.82.82,0,0,0,.35-.06.79.79,0,0,0,.27-.23l2.3-2.84a1.37,1.37,0,0,1,.32-.28.88.88,0,0,1,.45-.11h2l-2.88,3.43a3.52,3.52,0,0,1-.31.35,2.19,2.19,0,0,1-.35.27,1.67,1.67,0,0,1,.33.32c.1.12.19.25.29.39l3.08,4.48h-2a1,1,0,0,1-.44-.09.86.86,0,0,1-.32-.31l-2.35-3.5a.69.69,0,0,0-.27-.27,1.07,1.07,0,0,0-.41-.06h-.5V173h-2.23V159.58Z"/><path class="cls-1" d="M149.81,163.58a4.43,4.43,0,0,1,1.61.28,3.46,3.46,0,0,1,1.26.81,3.71,3.71,0,0,1,.83,1.32,4.9,4.9,0,0,1,.3,1.77,2.42,2.42,0,0,1,0,.42.57.57,0,0,1-.08.26.31.31,0,0,1-.16.14.6.6,0,0,1-.25,0h-5.7a3.18,3.18,0,0,0,.76,2.09,2.41,2.41,0,0,0,1.77.66,3.18,3.18,0,0,0,.93-.12,5,5,0,0,0,.68-.28l.51-.28a.92.92,0,0,1,.43-.13.5.5,0,0,1,.41.21l.64.81a3.48,3.48,0,0,1-.82.72,4.26,4.26,0,0,1-1,.47,5.07,5.07,0,0,1-1,.25,6.92,6.92,0,0,1-1,.07,4.78,4.78,0,0,1-1.79-.32,4.09,4.09,0,0,1-1.44-.94,4.59,4.59,0,0,1-1-1.55,6.12,6.12,0,0,1-.35-2.14,5.14,5.14,0,0,1,.31-1.77,4.18,4.18,0,0,1,.88-1.45,4,4,0,0,1,1.39-1A4.61,4.61,0,0,1,149.81,163.58Zm.05,1.59a2.11,2.11,0,0,0-1.53.55,2.76,2.76,0,0,0-.7,1.56h4.18a2.76,2.76,0,0,0-.12-.82,2.07,2.07,0,0,0-.36-.67,1.73,1.73,0,0,0-.61-.45A2.09,2.09,0,0,0,149.86,165.17Z"/><path class="cls-1" d="M158.59,175.5a.85.85,0,0,1-.25.35.81.81,0,0,1-.48.12H156.2l1.73-3.7-3.74-8.55h1.95a.61.61,0,0,1,.41.13.77.77,0,0,1,.22.29l2,4.79c.06.15.12.31.17.48s.09.34.13.51c0-.18.1-.35.15-.51s.12-.33.19-.49l1.85-4.78a.7.7,0,0,1,.24-.3.63.63,0,0,1,.37-.12h1.78Z"/><path class="cls-1" d="M169.15,159.8a5.1,5.1,0,0,1,1.65.26,3.72,3.72,0,0,1,1.28.76,3.26,3.26,0,0,1,.82,1.17,3.72,3.72,0,0,1,.3,1.52,4.08,4.08,0,0,1-.21,1.33,5.28,5.28,0,0,1-.57,1.17,7.41,7.41,0,0,1-.83,1.08c-.32.35-.65.7-1,1.06l-2.93,3a7.25,7.25,0,0,1,.84-.2,5.56,5.56,0,0,1,.79-.06h3.34a.8.8,0,0,1,.58.2.69.69,0,0,1,.21.53V173h-8.93v-.74a1.35,1.35,0,0,1,.09-.47,1.45,1.45,0,0,1,.31-.45l4-4c.33-.33.62-.66.88-1a7.15,7.15,0,0,0,.66-.91,4.32,4.32,0,0,0,.41-.91,3.51,3.51,0,0,0,.13-1,2.28,2.28,0,0,0-.13-.82,1.56,1.56,0,0,0-.39-.6,1.6,1.6,0,0,0-.6-.37,2.35,2.35,0,0,0-.77-.12,2.06,2.06,0,0,0-1.32.41,2.1,2.1,0,0,0-.73,1.09.73.73,0,0,1-.8.63l-.3,0-1.17-.21a4.79,4.79,0,0,1,.53-1.64,3.86,3.86,0,0,1,1-1.18,4,4,0,0,1,1.34-.71A5.27,5.27,0,0,1,169.15,159.8Z"/><path class="cls-1" d="M183.46,173h-2l-3.67-9.24h1.85a.69.69,0,0,1,.41.12.68.68,0,0,1,.23.3l1.78,4.93a7.36,7.36,0,0,1,.25.85c.07.27.14.55.19.82.05-.27.11-.55.18-.82a7.56,7.56,0,0,1,.27-.85l1.83-4.93a.59.59,0,0,1,.22-.3.65.65,0,0,1,.39-.12h1.75Z"/><path class="cls-1" d="M195.67,173h-1a1,1,0,0,1-.49-.1.6.6,0,0,1-.27-.38l-.2-.66a6.78,6.78,0,0,1-.69.56,4.4,4.4,0,0,1-.69.4,3.44,3.44,0,0,1-.77.24,4.94,4.94,0,0,1-.9.08,3.4,3.4,0,0,1-1.08-.16,2.27,2.27,0,0,1-.85-.47,2,2,0,0,1-.55-.79,2.62,2.62,0,0,1-.2-1.09,2.17,2.17,0,0,1,.27-1,2.6,2.6,0,0,1,.92-.92,5.55,5.55,0,0,1,1.7-.69,10.85,10.85,0,0,1,2.63-.27v-.54a2.07,2.07,0,0,0-.39-1.38,1.43,1.43,0,0,0-1.14-.45,2.88,2.88,0,0,0-.9.12,3.27,3.27,0,0,0-.62.29L190,166a1.06,1.06,0,0,1-.5.13.6.6,0,0,1-.38-.12.8.8,0,0,1-.26-.29l-.41-.71a5.49,5.49,0,0,1,3.84-1.46,3.71,3.71,0,0,1,1.45.27,2.9,2.9,0,0,1,1.07.74,3,3,0,0,1,.67,1.13,4.09,4.09,0,0,1,.23,1.43Zm-4.32-1.39a3.06,3.06,0,0,0,.63-.06,2.11,2.11,0,0,0,.55-.19,2.8,2.8,0,0,0,.49-.3,4.65,4.65,0,0,0,.48-.43V169a9.17,9.17,0,0,0-1.62.12,4.39,4.39,0,0,0-1,.32,1.3,1.3,0,0,0-.56.44,1,1,0,0,0-.17.55,1,1,0,0,0,.35.85A1.48,1.48,0,0,0,191.35,171.57Z"/><path class="cls-1" d="M200.23,159.58V173H198V159.58Z"/><path class="cls-1" d="M204.77,163.72v5.87a2,2,0,0,0,.39,1.31,1.46,1.46,0,0,0,1.18.47,2.39,2.39,0,0,0,1.08-.26,3.86,3.86,0,0,0,1-.71v-6.68h2.23V173h-1.36a.55.55,0,0,1-.57-.41l-.15-.74a5.84,5.84,0,0,1-.6.53,4,4,0,0,1-.65.41,4.13,4.13,0,0,1-.75.26,3.85,3.85,0,0,1-.86.09,3.25,3.25,0,0,1-1.33-.25,2.77,2.77,0,0,1-1-.73,3.29,3.29,0,0,1-.6-1.11,4.87,4.87,0,0,1-.2-1.42v-5.87Z"/><path class="cls-1" d="M216.79,163.58a4.37,4.37,0,0,1,1.6.28,3.59,3.59,0,0,1,1.27.81,3.86,3.86,0,0,1,.83,1.32,5.13,5.13,0,0,1,.29,1.77,2.56,2.56,0,0,1,0,.42.57.57,0,0,1-.08.26.31.31,0,0,1-.16.14.6.6,0,0,1-.25,0h-5.71a3.18,3.18,0,0,0,.77,2.09,2.38,2.38,0,0,0,1.76.66,3.18,3.18,0,0,0,.93-.12,5.18,5.18,0,0,0,.69-.28l.51-.28a.92.92,0,0,1,.43-.13.41.41,0,0,1,.23.06.35.35,0,0,1,.17.15l.65.81a3.34,3.34,0,0,1-.83.72,4,4,0,0,1-1,.47,5.42,5.42,0,0,1-1,.25,7,7,0,0,1-1,.07,4.84,4.84,0,0,1-1.8-.32,4.09,4.09,0,0,1-1.44-.94,4.73,4.73,0,0,1-1-1.55,6.12,6.12,0,0,1-.35-2.14,4.92,4.92,0,0,1,.31-1.77,4.16,4.16,0,0,1,.87-1.45,4.11,4.11,0,0,1,1.4-1A4.61,4.61,0,0,1,216.79,163.58Zm0,1.59a2.08,2.08,0,0,0-1.52.55,2.76,2.76,0,0,0-.7,1.56h4.18a2.76,2.76,0,0,0-.12-.82,2.07,2.07,0,0,0-.36-.67,1.73,1.73,0,0,0-.61-.45A2.14,2.14,0,0,0,216.83,165.17Z"/><path class="cls-1" d="M226.82,159.8a5.1,5.1,0,0,1,1.65.26,3.72,3.72,0,0,1,1.28.76,3.41,3.41,0,0,1,.83,1.17,3.89,3.89,0,0,1,.29,1.52,4.08,4.08,0,0,1-.21,1.33,5.28,5.28,0,0,1-.57,1.17,7.41,7.41,0,0,1-.83,1.08c-.32.35-.65.7-1,1.06l-2.93,3a7.25,7.25,0,0,1,.84-.2,5.59,5.59,0,0,1,.8-.06h3.34a.78.78,0,0,1,.57.2.69.69,0,0,1,.21.53V173h-8.93v-.74a1.35,1.35,0,0,1,.09-.47,1.45,1.45,0,0,1,.31-.45l3.95-4c.33-.33.62-.66.88-1a6.29,6.29,0,0,0,.66-.91,4.32,4.32,0,0,0,.41-.91,3.52,3.52,0,0,0,.14-1,2.27,2.27,0,0,0-.14-.82,1.56,1.56,0,0,0-.39-.6,1.52,1.52,0,0,0-.6-.37,2.35,2.35,0,0,0-.77-.12,2.06,2.06,0,0,0-1.32.41,2.1,2.1,0,0,0-.73,1.09.73.73,0,0,1-.8.63l-.29,0-1.17-.21a4.79,4.79,0,0,1,.52-1.64,3.82,3.82,0,0,1,2.3-1.89A5.27,5.27,0,0,1,226.82,159.8Z"/><path class="cls-2" d="M134.39,70.53c-.95-7.52-4.65-11.85-11.63-13.64-13.62-3.49-11.51-18-11.49-18.14l2,.31c-.08.52-1.84,12.85,10,15.89,7.78,2,12.07,7,13.12,15.33Z"/><polygon class="cls-2" points="132.42 68.63 135.66 78.91 137.99 68.39 132.42 68.63"/><path class="cls-2" d="M113.85,237.56c0-.14-2.13-14.64,11.48-18.14,7-1.79,10.68-6.12,11.63-13.64l2,.25c-1,8.32-5.34,13.34-13.12,15.33-5,1.28-8.17,4.32-9.49,9a17.76,17.76,0,0,0-.51,6.84Z"/><polygon class="cls-2" points="140.57 207.93 138.24 197.41 134.99 207.68 140.57 207.93"/><path class="cls-2" d="M344.16,72.21l-2-.12c.6-9.91,5.42-15.61,14.74-17.41,11.24-2.18,9.53-18.19,9.51-18.35l2-.23c0,.18,1.94,18-11.12,20.54C346.24,58.78,344.51,66.55,344.16,72.21Z"/><polygon class="cls-2" points="340.48 70.24 343.21 80.66 346.06 70.27 340.48 70.24"/><path class="cls-2" d="M280.71,237.52c-.08-.66-2.3-16.18-29.16-16.18-22.79,0-26.72-10.14-27.68-17.77l2-.25c1.81,14.2,14.68,16,25.7,16,14.91,0,22.57,4.81,26.37,8.85a17.38,17.38,0,0,1,4.78,9.1l-2,.23,1-.12Z"/><polygon class="cls-2" points="227.84 205.21 224.56 194.94 222.26 205.47 227.84 205.21"/><rect class="cls-1" x="71.54" y="111.07" width="319.27" height="3"/><rect class="cls-1" x="184.57" y="113.44" width="3" height="6.85"/><rect class="cls-1" x="184.57" y="125.89" width="3" height="6.85"/><rect class="cls-1" x="184.57" y="150.8" width="3" height="6.85"/><rect class="cls-1" x="184.57" y="175.71" width="3" height="6.85"/><rect class="cls-1" x="184.57" y="188.16" width="3" height="6.85"/><rect class="cls-1" x="184.57" y="199.67" width="3" height="6.85"/><rect class="cls-1" x="184.57" y="211.18" width="3" height="6.85"/></svg>