<svg id="string" xmlns="http://www.w3.org/2000/svg" viewBox="0 0 469 300"><defs><style>.cls-1{fill:#5a5a5a;}.cls-2{fill:#999;}</style></defs><title>data-structures-</title><path class="cls-1" d="M362.56,92H352.2v3h10.36a13.51,13.51,0,0,1,13.5,13.5v69.89a13.51,13.51,0,0,1-13.5,13.5H85.94a13.51,13.51,0,0,1-13.5-13.5V108.52A13.51,13.51,0,0,1,85.94,95H93.5V92H85.94a16.52,16.52,0,0,0-16.5,16.5v69.89a16.52,16.52,0,0,0,16.5,16.5H362.56a16.52,16.52,0,0,0,16.5-16.5V108.52A16.52,16.52,0,0,0,362.56,92Z"/><rect class="cls-1" x="171.15" y="92.02" width="139.42" height="3"/><path class="cls-1" d="M106.46,89.08a1.22,1.22,0,0,1-.09.46,1.31,1.31,0,0,1-.2.37l-4.39,5.78h4.55V97.4H99.2v-.93a1.08,1.08,0,0,1,.07-.36,1.31,1.31,0,0,1,.22-.4l4.43-5.84H99.46V88.16h7Z"/><path class="cls-1" d="M113.71,90a.56.56,0,0,1-.19.21.46.46,0,0,1-.25.06.83.83,0,0,1-.35-.09l-.42-.21a4.48,4.48,0,0,0-.56-.2,2.6,2.6,0,0,0-.73-.09,1.66,1.66,0,0,0-1,.28.85.85,0,0,0-.38.73.69.69,0,0,0,.19.5,1.83,1.83,0,0,0,.51.35,4.44,4.44,0,0,0,.73.28l.83.26c.28.1.55.21.82.33a3,3,0,0,1,.73.47,2.29,2.29,0,0,1,.51.68,2.12,2.12,0,0,1,.2,1,3.07,3.07,0,0,1-.25,1.23,2.62,2.62,0,0,1-.71,1,3.21,3.21,0,0,1-1.15.64,4.84,4.84,0,0,1-1.59.23,5.84,5.84,0,0,1-.93-.08,6.2,6.2,0,0,1-.87-.24,4.2,4.2,0,0,1-.77-.36,3.91,3.91,0,0,1-.63-.45l.51-.85a.75.75,0,0,1,.24-.23.59.59,0,0,1,.34-.08.77.77,0,0,1,.39.11l.43.26a3.87,3.87,0,0,0,.57.25,2.47,2.47,0,0,0,.83.12,2.22,2.22,0,0,0,.68-.1,1.24,1.24,0,0,0,.47-.25,1,1,0,0,0,.27-.35,1.06,1.06,0,0,0,.09-.42.74.74,0,0,0-.2-.53,1.66,1.66,0,0,0-.51-.36,6.6,6.6,0,0,0-.73-.28l-.84-.26a8.51,8.51,0,0,1-.83-.34,2.67,2.67,0,0,1-.73-.49,2.3,2.3,0,0,1-.52-.73,2.68,2.68,0,0,1-.19-1,2.65,2.65,0,0,1,.23-1.08,2.62,2.62,0,0,1,.66-.9,3.26,3.26,0,0,1,1.09-.61,4.55,4.55,0,0,1,1.5-.23,4.61,4.61,0,0,1,1.74.32,4,4,0,0,1,1.31.82Z"/><path class="cls-1" d="M119.91,88a4.39,4.39,0,0,1,1.61.28,3.6,3.6,0,0,1,1.26.81,3.71,3.71,0,0,1,.83,1.32,4.92,4.92,0,0,1,.3,1.78c0,.16,0,.3,0,.41a1,1,0,0,1-.08.26.36.36,0,0,1-.16.14.62.62,0,0,1-.25,0h-5.71a3.18,3.18,0,0,0,.77,2.09,2.38,2.38,0,0,0,1.76.66,3.18,3.18,0,0,0,.93-.12,5,5,0,0,0,.68-.28l.52-.28a.89.89,0,0,1,.43-.13.44.44,0,0,1,.23.06.49.49,0,0,1,.17.15l.65.81a3.82,3.82,0,0,1-.83.73,4.45,4.45,0,0,1-1,.46,5.14,5.14,0,0,1-1,.25,7.05,7.05,0,0,1-1,.07,4.78,4.78,0,0,1-1.79-.32,4,4,0,0,1-1.44-.94,4.33,4.33,0,0,1-1-1.55,5.86,5.86,0,0,1-.35-2.14,5.14,5.14,0,0,1,.3-1.77,4.34,4.34,0,0,1,.88-1.45,4.21,4.21,0,0,1,1.39-1A4.61,4.61,0,0,1,119.91,88Zm0,1.59a2.07,2.07,0,0,0-1.52.55,2.7,2.7,0,0,0-.7,1.56h4.17a2.76,2.76,0,0,0-.12-.82,1.75,1.75,0,0,0-.36-.67,1.65,1.65,0,0,0-.61-.45A2.06,2.06,0,0,0,120,89.61Z"/><path class="cls-1" d="M128.75,97.54a2.39,2.39,0,0,1-1.84-.68,2.57,2.57,0,0,1-.65-1.87V89.83h-.94a.45.45,0,0,1-.31-.12.43.43,0,0,1-.13-.35v-.88l1.49-.24.46-2.52a.45.45,0,0,1,.17-.28.52.52,0,0,1,.33-.1h1.15v2.91h2.43v1.58h-2.43v5a1,1,0,0,0,.22.68.72.72,0,0,0,.57.24,1.13,1.13,0,0,0,.35,0l.24-.1.19-.1a.24.24,0,0,1,.16,0,.21.21,0,0,1,.16,0,.92.92,0,0,1,.14.14l.66,1.08a3.35,3.35,0,0,1-1.11.62A4.42,4.42,0,0,1,128.75,97.54Z"/><path class="cls-1" d="M132.4,91h4.66v1.85H132.4Z"/><path class="cls-1" d="M141.4,84v7.66h.41a.82.82,0,0,0,.35-.06,1,1,0,0,0,.27-.23l2.3-2.84a1.37,1.37,0,0,1,.32-.28.83.83,0,0,1,.45-.11h2l-2.87,3.43a3.52,3.52,0,0,1-.31.35,2.19,2.19,0,0,1-.35.27,2,2,0,0,1,.33.32c.1.12.19.25.29.39l3.08,4.48h-2a1,1,0,0,1-.44-.09.87.87,0,0,1-.33-.31l-2.35-3.5a.69.69,0,0,0-.27-.27,1,1,0,0,0-.4-.06h-.5V97.4h-2.23V84Z"/><path class="cls-1" d="M152.35,88a4.43,4.43,0,0,1,1.61.28,3.69,3.69,0,0,1,1.26.81,3.86,3.86,0,0,1,.83,1.32,4.92,4.92,0,0,1,.29,1.78,2.49,2.49,0,0,1,0,.41.57.57,0,0,1-.08.26.31.31,0,0,1-.16.14.6.6,0,0,1-.25,0h-5.71a3.24,3.24,0,0,0,.77,2.09,2.38,2.38,0,0,0,1.76.66,3.25,3.25,0,0,0,.94-.12,5,5,0,0,0,.68-.28l.51-.28a.92.92,0,0,1,.43-.13.41.41,0,0,1,.23.06.52.52,0,0,1,.18.15l.64.81a3.77,3.77,0,0,1-.82.73,4.69,4.69,0,0,1-1,.46,5.42,5.42,0,0,1-1,.25,6.92,6.92,0,0,1-1,.07,4.75,4.75,0,0,1-1.79-.32,3.79,3.79,0,0,1-1.44-.94,4.5,4.5,0,0,1-1-1.55,6.08,6.08,0,0,1-.35-2.14,4.92,4.92,0,0,1,.31-1.77,4,4,0,0,1,.88-1.45,4.11,4.11,0,0,1,1.39-1A4.61,4.61,0,0,1,152.35,88Zm0,1.59a2.1,2.1,0,0,0-1.52.55,2.76,2.76,0,0,0-.7,1.56h4.18a2.76,2.76,0,0,0-.12-.82,2.07,2.07,0,0,0-.36-.67,1.73,1.73,0,0,0-.61-.45A2.14,2.14,0,0,0,152.39,89.61Z"/><path class="cls-1" d="M161.13,99.94a.85.85,0,0,1-.25.35.82.82,0,0,1-.49.12h-1.65l1.73-3.7-3.74-8.55h2a.63.63,0,0,1,.41.13.77.77,0,0,1,.22.29l2,4.79c.06.15.12.31.17.48a4.7,4.7,0,0,1,.12.51c.05-.18.1-.35.16-.51s.12-.32.19-.49l1.85-4.78a.7.7,0,0,1,.24-.3.61.61,0,0,1,.37-.12h1.78Z"/><path class="cls-1" d="M324,88.78a1.21,1.21,0,0,1-.08.46,1.81,1.81,0,0,1-.2.37l-4.4,5.78h4.56V97.1H316.7v-.93a1.08,1.08,0,0,1,.07-.36,1.34,1.34,0,0,1,.23-.4l4.43-5.84H317v-1.7h7Z"/><path class="cls-1" d="M331.22,89.67a.74.74,0,0,1-.19.2.49.49,0,0,1-.25.06.79.79,0,0,1-.35-.09l-.43-.21a4.3,4.3,0,0,0-.55-.2,2.65,2.65,0,0,0-.73-.09,1.76,1.76,0,0,0-1,.28.88.88,0,0,0-.38.73.7.7,0,0,0,.2.5,1.91,1.91,0,0,0,.51.36,5,5,0,0,0,.72.27l.83.27a8.36,8.36,0,0,1,.83.32,3,3,0,0,1,.72.47,2,2,0,0,1,.71,1.64,3.05,3.05,0,0,1-.24,1.22,2.74,2.74,0,0,1-.71,1,3.4,3.4,0,0,1-1.16.63,4.82,4.82,0,0,1-1.58.23,4.73,4.73,0,0,1-.93-.08,6.2,6.2,0,0,1-.87-.24,4.64,4.64,0,0,1-.78-.36,4.3,4.3,0,0,1-.62-.45l.51-.85A.62.62,0,0,1,326,95a.74.74,0,0,1,.39.12l.42.25a4.58,4.58,0,0,0,.58.25,2.39,2.39,0,0,0,.83.12,2,2,0,0,0,.68-.1,1.48,1.48,0,0,0,.47-.24,1.14,1.14,0,0,0,.27-.36,1.2,1.2,0,0,0,.08-.42.73.73,0,0,0-.19-.53,1.66,1.66,0,0,0-.51-.36,5.59,5.59,0,0,0-.73-.27c-.28-.09-.56-.17-.84-.27a8.68,8.68,0,0,1-.84-.34,3,3,0,0,1-.73-.49,2.28,2.28,0,0,1-.51-.73,2.51,2.51,0,0,1-.19-1,2.59,2.59,0,0,1,.88-2,3.47,3.47,0,0,1,1.09-.61,5,5,0,0,1,3.25.09,3.82,3.82,0,0,1,1.3.83Z"/><path class="cls-1" d="M337.42,87.72A4.65,4.65,0,0,1,339,88a3.57,3.57,0,0,1,1.26.82,3.72,3.72,0,0,1,.83,1.31,4.92,4.92,0,0,1,.29,1.78,2.62,2.62,0,0,1,0,.42.61.61,0,0,1-.08.26.34.34,0,0,1-.16.13.6.6,0,0,1-.25,0h-5.7a3.16,3.16,0,0,0,.76,2.09,2.39,2.39,0,0,0,1.76.67,3.28,3.28,0,0,0,.94-.13,4.36,4.36,0,0,0,.68-.28,5.58,5.58,0,0,0,.51-.28.9.9,0,0,1,.43-.12.41.41,0,0,1,.23.05.65.65,0,0,1,.18.15l.64.81a3.77,3.77,0,0,1-.82.73,5.33,5.33,0,0,1-1,.47,5.21,5.21,0,0,1-1,.24,6.92,6.92,0,0,1-1,.07,5,5,0,0,1-1.79-.31,4.06,4.06,0,0,1-1.45-1,4.63,4.63,0,0,1-1-1.55,6,6,0,0,1-.35-2.13,5,5,0,0,1,.31-1.78,4,4,0,0,1,.88-1.45,4.11,4.11,0,0,1,1.39-1A4.61,4.61,0,0,1,337.42,87.72Zm0,1.59a2.1,2.1,0,0,0-1.52.55,2.76,2.76,0,0,0-.7,1.56h4.18a2.64,2.64,0,0,0-.12-.81,1.88,1.88,0,0,0-.36-.67,1.64,1.64,0,0,0-.61-.46A2.14,2.14,0,0,0,337.46,89.31Z"/><path class="cls-1" d="M346.26,97.24a2.41,2.41,0,0,1-1.85-.68,2.59,2.59,0,0,1-.65-1.87V89.53h-.93a.43.43,0,0,1-.31-.12.42.42,0,0,1-.13-.35v-.88l1.48-.24.47-2.52a.43.43,0,0,1,.17-.28.47.47,0,0,1,.32-.1H346V88h2.43v1.58H346v5a1,1,0,0,0,.21.67.75.75,0,0,0,.58.24.84.84,0,0,0,.34,0,1.18,1.18,0,0,0,.25-.1l.18-.1a.27.27,0,0,1,.16,0,.25.25,0,0,1,.17,0,.69.69,0,0,1,.13.15l.67,1.08a3.48,3.48,0,0,1-1.12.61A4.06,4.06,0,0,1,346.26,97.24Z"/><path class="cls-2" d="M71,20h.56a1.55,1.55,0,0,0,.57-.09,1,1,0,0,0,.39-.3l3.59-4.55a1.32,1.32,0,0,1,.47-.4,1.58,1.58,0,0,1,.63-.11H79.3L74.92,20a3.28,3.28,0,0,1-.4.42,1.8,1.8,0,0,1-.4.28,1.62,1.62,0,0,1,.54.31,3.24,3.24,0,0,1,.46.5l4.52,6.09H77.5a1.36,1.36,0,0,1-.65-.12,1,1,0,0,1-.35-.35l-3.69-4.81a1.06,1.06,0,0,0-.4-.34,1.56,1.56,0,0,0-.64-.1H71v5.72H68.58v-13H71Z"/><path class="cls-2" d="M84.37,18.18a4.65,4.65,0,0,1,1.61.28,3.48,3.48,0,0,1,1.26.82,3.67,3.67,0,0,1,.83,1.31,4.92,4.92,0,0,1,.3,1.78,2.42,2.42,0,0,1,0,.42.57.57,0,0,1-.08.26.31.31,0,0,1-.15.13.65.65,0,0,1-.26,0h-5.7a3.16,3.16,0,0,0,.76,2.09,2.37,2.37,0,0,0,1.77.67,2.86,2.86,0,0,0,.93-.13,3.31,3.31,0,0,0,.68-.28,5.58,5.58,0,0,0,.51-.28.9.9,0,0,1,.43-.12.6.6,0,0,1,.24,0,.64.64,0,0,1,.17.16l.65.81a4,4,0,0,1-.83.72,5.33,5.33,0,0,1-1,.47,5.07,5.07,0,0,1-1,.25,8.7,8.7,0,0,1-1,.07,5,5,0,0,1-1.79-.32,4,4,0,0,1-1.44-.95,4.4,4.4,0,0,1-1-1.55,6,6,0,0,1-.35-2.13A5.2,5.2,0,0,1,80.24,21a4.28,4.28,0,0,1,.88-1.45,4.11,4.11,0,0,1,1.39-1A4.61,4.61,0,0,1,84.37,18.18Zm0,1.6a2.07,2.07,0,0,0-1.53.55,2.7,2.7,0,0,0-.7,1.55h4.18a2.69,2.69,0,0,0-.12-.81,1.88,1.88,0,0,0-.36-.67,1.79,1.79,0,0,0-.61-.46A2.1,2.1,0,0,0,84.42,19.78Z"/><path class="cls-2" d="M93.15,30.1a.83.83,0,0,1-.25.36.81.81,0,0,1-.48.12H90.76l1.73-3.7-3.74-8.55h2a.61.61,0,0,1,.41.12.86.86,0,0,1,.22.29l2,4.79c.06.16.12.32.17.49s.09.33.13.5c0-.17.1-.34.15-.5s.12-.33.19-.5l1.85-4.78a.62.62,0,0,1,.24-.29.63.63,0,0,1,.37-.12h1.79Z"/><path class="cls-2" d="M103,27.56V18.33h1.35a.54.54,0,0,1,.57.4l.15.73a7.08,7.08,0,0,1,.59-.52,3.75,3.75,0,0,1,.66-.4,3.12,3.12,0,0,1,.74-.27,4,4,0,0,1,.87-.09,3.34,3.34,0,0,1,1.34.26,2.72,2.72,0,0,1,1,.72,3.27,3.27,0,0,1,.59,1.11,4.87,4.87,0,0,1,.2,1.42v5.87h-2.22V21.69a2,2,0,0,0-.39-1.31,1.46,1.46,0,0,0-1.18-.47,2.39,2.39,0,0,0-1.08.26,4.13,4.13,0,0,0-.95.71v6.68Z"/><path class="cls-2" d="M120.42,27.56h-1a1.1,1.1,0,0,1-.49-.09.63.63,0,0,1-.27-.38l-.2-.66a6.64,6.64,0,0,1-.69.55,4,4,0,0,1-.69.4,3.85,3.85,0,0,1-.77.25,4.94,4.94,0,0,1-.9.08,3.71,3.71,0,0,1-1.08-.16,2.29,2.29,0,0,1-.85-.48,2.09,2.09,0,0,1-.55-.78,2.65,2.65,0,0,1-.2-1.09,2.21,2.21,0,0,1,.27-1,2.69,2.69,0,0,1,.92-.92,5.82,5.82,0,0,1,1.7-.68,10.91,10.91,0,0,1,2.63-.27v-.55a2.07,2.07,0,0,0-.39-1.38,1.42,1.42,0,0,0-1.13-.45,2.6,2.6,0,0,0-.9.13,3.39,3.39,0,0,0-.63.28l-.49.29a1.06,1.06,0,0,1-.5.12.62.62,0,0,1-.38-.12.77.77,0,0,1-.26-.28l-.41-.71A5.45,5.45,0,0,1,117,18.16a3.87,3.87,0,0,1,1.45.26,3.15,3.15,0,0,1,1.07.74,3.06,3.06,0,0,1,.67,1.13,4.18,4.18,0,0,1,.23,1.44Zm-4.32-1.38a2.48,2.48,0,0,0,.63-.07,2.37,2.37,0,0,0,.55-.18,2.87,2.87,0,0,0,.49-.31,3.72,3.72,0,0,0,.48-.43V23.65a9.25,9.25,0,0,0-1.62.12,4.75,4.75,0,0,0-1,.31,1.39,1.39,0,0,0-.56.45,1,1,0,0,0-.17.55,1,1,0,0,0,.35.84A1.48,1.48,0,0,0,116.1,26.18Z"/><path class="cls-2" d="M122.61,27.56V18.33H124a.54.54,0,0,1,.57.4l.14.69a4.81,4.81,0,0,1,.51-.5,3,3,0,0,1,.57-.38,2.77,2.77,0,0,1,.64-.26,3.12,3.12,0,0,1,.77-.1,2.11,2.11,0,0,1,1.43.48,2.72,2.72,0,0,1,.84,1.25,3.24,3.24,0,0,1,.54-.79,3.28,3.28,0,0,1,.71-.53,3.45,3.45,0,0,1,.83-.31,4.3,4.3,0,0,1,.87-.1,3.59,3.59,0,0,1,1.36.24,2.51,2.51,0,0,1,1,.68,3,3,0,0,1,.62,1.1,4.83,4.83,0,0,1,.21,1.49v5.87h-2.22V21.69a2,2,0,0,0-.39-1.33,1.42,1.42,0,0,0-1.13-.45,1.69,1.69,0,0,0-.64.12,1.57,1.57,0,0,0-.51.34,1.53,1.53,0,0,0-.35.55,2.26,2.26,0,0,0-.12.77v5.87H128V21.69a2,2,0,0,0-.37-1.35,1.37,1.37,0,0,0-1.1-.43,1.78,1.78,0,0,0-.9.24,3.14,3.14,0,0,0-.78.65v6.76Z"/><path class="cls-2" d="M141.58,18.18a4.61,4.61,0,0,1,1.61.28,3.48,3.48,0,0,1,1.26.82,3.67,3.67,0,0,1,.83,1.31,4.92,4.92,0,0,1,.3,1.78c0,.17,0,.31,0,.42a1,1,0,0,1-.08.26.33.33,0,0,1-.16.13.62.62,0,0,1-.25,0h-5.71a3.21,3.21,0,0,0,.76,2.09,2.39,2.39,0,0,0,1.77.67,2.86,2.86,0,0,0,.93-.13,3.31,3.31,0,0,0,.68-.28l.52-.28a.9.9,0,0,1,.43-.12.56.56,0,0,1,.23,0,.52.52,0,0,1,.17.16l.65.81a3.77,3.77,0,0,1-.83.72,5.33,5.33,0,0,1-1,.47,5.07,5.07,0,0,1-1,.25,8.7,8.7,0,0,1-1,.07,5,5,0,0,1-1.79-.32,4,4,0,0,1-1.44-.95,4.25,4.25,0,0,1-1-1.55,5.8,5.8,0,0,1-.35-2.13,5.2,5.2,0,0,1,.3-1.78,4.44,4.44,0,0,1,.88-1.45,4.21,4.21,0,0,1,1.39-1A4.61,4.61,0,0,1,141.58,18.18Zm0,1.6a2,2,0,0,0-1.52.55,2.64,2.64,0,0,0-.7,1.55h4.17a2.69,2.69,0,0,0-.12-.81,1.61,1.61,0,0,0-.36-.67,1.79,1.79,0,0,0-.61-.46A2.06,2.06,0,0,0,141.63,19.78Z"/><path class="cls-2" d="M43.94,228.18a.59.59,0,0,1,.2.06.42.42,0,0,1,.16.11,1.2,1.2,0,0,1,.18.2l6.84,8.71c0-.21,0-.42,0-.62s0-.39,0-.56v-7.91h2.13v13H52.13a1.06,1.06,0,0,1-.47-.09,1.08,1.08,0,0,1-.37-.32l-6.81-8.67c0,.19,0,.38.05.57s0,.36,0,.52v8H42.41v-13h1.53Z"/><path class="cls-2" d="M63.12,241.18h-1a1.1,1.1,0,0,1-.49-.09.63.63,0,0,1-.27-.38l-.2-.66a6.64,6.64,0,0,1-.69.55,4,4,0,0,1-.69.4,3.85,3.85,0,0,1-.77.25,4.94,4.94,0,0,1-.9.08,3.71,3.71,0,0,1-1.08-.16,2.44,2.44,0,0,1-.85-.48,2.09,2.09,0,0,1-.55-.78,2.68,2.68,0,0,1-.2-1.09,2.21,2.21,0,0,1,.27-1,2.6,2.6,0,0,1,.92-.92,5.82,5.82,0,0,1,1.7-.68,10.85,10.85,0,0,1,2.63-.27v-.55a2.07,2.07,0,0,0-.39-1.38,1.43,1.43,0,0,0-1.14-.45,2.6,2.6,0,0,0-.9.13,3.59,3.59,0,0,0-.62.28l-.49.28a1,1,0,0,1-.5.13.6.6,0,0,1-.38-.12.77.77,0,0,1-.26-.28l-.41-.71a5.45,5.45,0,0,1,3.84-1.46,3.9,3.9,0,0,1,1.45.26,3.15,3.15,0,0,1,1.07.74,3.06,3.06,0,0,1,.67,1.13,4.18,4.18,0,0,1,.23,1.44ZM58.8,239.8a2.48,2.48,0,0,0,.63-.07,2.53,2.53,0,0,0,.55-.18,3.66,3.66,0,0,0,.49-.31,3.72,3.72,0,0,0,.48-.43v-1.54a9.17,9.17,0,0,0-1.62.12,4.44,4.44,0,0,0-1,.31,1.39,1.39,0,0,0-.56.45,1,1,0,0,0-.17.55,1,1,0,0,0,.35.84A1.48,1.48,0,0,0,58.8,239.8Z"/><path class="cls-2" d="M65.31,241.18V232h1.36a.54.54,0,0,1,.57.4l.14.69a4.81,4.81,0,0,1,.51-.5,2.7,2.7,0,0,1,.57-.38,2.77,2.77,0,0,1,.64-.26,2.64,2.64,0,0,1,.76-.1,2.14,2.14,0,0,1,1.44.48,2.8,2.8,0,0,1,.84,1.25,3,3,0,0,1,.54-.79,3.28,3.28,0,0,1,.71-.53,3.38,3.38,0,0,1,.82-.31,4.48,4.48,0,0,1,.88-.1,3.59,3.59,0,0,1,1.36.24,2.51,2.51,0,0,1,1,.68,3,3,0,0,1,.62,1.1,4.81,4.81,0,0,1,.21,1.48v5.88H76.06V235.3a1.94,1.94,0,0,0-.39-1.32,1.42,1.42,0,0,0-1.13-.45,1.69,1.69,0,0,0-.64.12,1.57,1.57,0,0,0-.51.34,1.41,1.41,0,0,0-.35.55,2.24,2.24,0,0,0-.12.76v5.88H70.68V235.3a2,2,0,0,0-.37-1.34,1.37,1.37,0,0,0-1.1-.43,1.78,1.78,0,0,0-.9.24,3.14,3.14,0,0,0-.78.65v6.76Z"/><path class="cls-2" d="M84.28,231.8a4.65,4.65,0,0,1,1.61.28,3.48,3.48,0,0,1,1.26.82,3.58,3.58,0,0,1,.83,1.31,4.92,4.92,0,0,1,.3,1.78c0,.17,0,.31,0,.42a.71.71,0,0,1-.09.26.27.27,0,0,1-.15.13.62.62,0,0,1-.25,0H82.06a3.16,3.16,0,0,0,.76,2.09,2.39,2.39,0,0,0,1.77.67,2.86,2.86,0,0,0,.93-.13,4,4,0,0,0,.68-.28l.52-.28a.87.87,0,0,1,.42-.12.6.6,0,0,1,.24.05.64.64,0,0,1,.17.16l.65.8a3.82,3.82,0,0,1-.83.73,5.33,5.33,0,0,1-1,.47,5.84,5.84,0,0,1-1,.25,8.7,8.7,0,0,1-1,.07A5,5,0,0,1,82.6,241a4.11,4.11,0,0,1-1.44-.95,4.25,4.25,0,0,1-1-1.55,5.8,5.8,0,0,1-.35-2.13,5.2,5.2,0,0,1,.3-1.78,4.34,4.34,0,0,1,.88-1.45,4.21,4.21,0,0,1,1.39-1A4.61,4.61,0,0,1,84.28,231.8Zm0,1.6a2,2,0,0,0-1.52.55,2.7,2.7,0,0,0-.71,1.55h4.18a2.64,2.64,0,0,0-.12-.81,1.74,1.74,0,0,0-.36-.67,1.67,1.67,0,0,0-.61-.46A2.06,2.06,0,0,0,84.33,233.4Z"/><path class="cls-2" d="M96.58,241.18a.54.54,0,0,1-.56-.4l-.18-.89a4.76,4.76,0,0,1-.61.58,3.92,3.92,0,0,1-.67.45,3.55,3.55,0,0,1-.79.29,3.7,3.7,0,0,1-.9.11,3,3,0,0,1-2.47-1.23,4.15,4.15,0,0,1-.7-1.48,7.3,7.3,0,0,1-.25-2,6.21,6.21,0,0,1,.28-1.91,4.65,4.65,0,0,1,.8-1.53,3.7,3.7,0,0,1,1.25-1,3.66,3.66,0,0,1,1.64-.36,3.31,3.31,0,0,1,1.32.24,3.48,3.48,0,0,1,1,.67v-4.88h2.22v13.37Zm-3-1.63a2.18,2.18,0,0,0,1.18-.29,3.44,3.44,0,0,0,.92-.81v-4.14a2.13,2.13,0,0,0-.82-.65,2.38,2.38,0,0,0-1-.19,2.06,2.06,0,0,0-.91.19,1.67,1.67,0,0,0-.7.57,2.71,2.71,0,0,0-.43,1,5.21,5.21,0,0,0-.16,1.39,6.56,6.56,0,0,0,.13,1.37,2.53,2.53,0,0,0,.38.92,1.46,1.46,0,0,0,.59.52A2,2,0,0,0,93.62,239.55Z"/><path class="cls-2" d="M103.82,241.18V232h1.36a.54.54,0,0,1,.57.4l.14.69a4.81,4.81,0,0,1,.51-.5,3,3,0,0,1,.57-.38,2.77,2.77,0,0,1,.64-.26,2.71,2.71,0,0,1,.77-.1,2.11,2.11,0,0,1,1.43.48,2.72,2.72,0,0,1,.84,1.25,3.24,3.24,0,0,1,.54-.79,3.28,3.28,0,0,1,.71-.53,3.45,3.45,0,0,1,.83-.31,4.3,4.3,0,0,1,.87-.1A3.59,3.59,0,0,1,115,232a2.51,2.51,0,0,1,1,.68,3,3,0,0,1,.62,1.1,4.81,4.81,0,0,1,.21,1.48v5.88h-2.22V235.3a1.94,1.94,0,0,0-.39-1.32,1.42,1.42,0,0,0-1.13-.45,1.69,1.69,0,0,0-.64.12,1.47,1.47,0,0,0-.51.34,1.53,1.53,0,0,0-.35.55,2.24,2.24,0,0,0-.12.76v5.88h-2.24V235.3a2,2,0,0,0-.37-1.34,1.37,1.37,0,0,0-1.1-.43,1.78,1.78,0,0,0-.9.24,3.14,3.14,0,0,0-.78.65v6.76Z"/><path class="cls-2" d="M122.79,231.8a4.61,4.61,0,0,1,1.61.28,3.48,3.48,0,0,1,1.26.82,3.58,3.58,0,0,1,.83,1.31,4.92,4.92,0,0,1,.3,1.78c0,.17,0,.31,0,.42a1,1,0,0,1-.08.26.33.33,0,0,1-.16.13.62.62,0,0,1-.25,0h-5.71a3.21,3.21,0,0,0,.76,2.09,2.39,2.39,0,0,0,1.77.67,2.86,2.86,0,0,0,.93-.13,4,4,0,0,0,.68-.28l.52-.28a.87.87,0,0,1,.42-.12.6.6,0,0,1,.24.05.52.52,0,0,1,.17.16l.65.8a3.82,3.82,0,0,1-.83.73,5.33,5.33,0,0,1-1,.47,5.84,5.84,0,0,1-1,.25,8.7,8.7,0,0,1-1,.07,5,5,0,0,1-1.79-.32,4.11,4.11,0,0,1-1.44-.95,4.25,4.25,0,0,1-1-1.55,5.8,5.8,0,0,1-.35-2.13,5.2,5.2,0,0,1,.3-1.78,4.34,4.34,0,0,1,.88-1.45,4.11,4.11,0,0,1,1.39-1A4.61,4.61,0,0,1,122.79,231.8Zm0,1.6a2,2,0,0,0-1.52.55,2.64,2.64,0,0,0-.7,1.55h4.17a2.64,2.64,0,0,0-.12-.81,1.61,1.61,0,0,0-.36-.67,1.67,1.67,0,0,0-.61-.46A2.06,2.06,0,0,0,122.84,233.4Z"/><path class="cls-2" d="M128.6,241.18V232H130a.54.54,0,0,1,.56.4l.15.69a4.81,4.81,0,0,1,.51-.5,2.63,2.63,0,0,1,.56-.38,2.85,2.85,0,0,1,.65-.26,2.64,2.64,0,0,1,.76-.1,2.16,2.16,0,0,1,1.44.48,2.88,2.88,0,0,1,.84,1.25,2.77,2.77,0,0,1,.54-.79,3.06,3.06,0,0,1,.71-.53,3.38,3.38,0,0,1,.82-.31,4.4,4.4,0,0,1,.88-.1,3.62,3.62,0,0,1,1.36.24,2.58,2.58,0,0,1,1,.68,3,3,0,0,1,.61,1.1,4.52,4.52,0,0,1,.22,1.48v5.88h-2.23V235.3A2,2,0,0,0,139,234a1.43,1.43,0,0,0-1.14-.45,1.61,1.61,0,0,0-.63.12,1.46,1.46,0,0,0-.86.89,2,2,0,0,0-.13.76v5.88H134V235.3a2,2,0,0,0-.37-1.34,1.38,1.38,0,0,0-1.11-.43,1.78,1.78,0,0,0-.89.24,3.14,3.14,0,0,0-.78.65v6.76Z"/><path class="cls-2" d="M143.78,241.18V227.81H146v5.27a4.34,4.34,0,0,1,1.25-.93,3.58,3.58,0,0,1,1.62-.35,3.17,3.17,0,0,1,1.38.31,3.21,3.21,0,0,1,1.08.91,4.46,4.46,0,0,1,.7,1.47,7.54,7.54,0,0,1,.25,2,6.55,6.55,0,0,1-.28,1.92,4.83,4.83,0,0,1-.8,1.53,3.6,3.6,0,0,1-1.25,1,3.56,3.56,0,0,1-1.64.37,3.21,3.21,0,0,1-.78-.09,3.25,3.25,0,0,1-.64-.24,2.4,2.4,0,0,1-.53-.37,4.37,4.37,0,0,1-.47-.49l-.1.62a.53.53,0,0,1-.19.33.52.52,0,0,1-.35.1Zm4.32-7.65a2.29,2.29,0,0,0-1.18.29,3.53,3.53,0,0,0-.92.83v4.14a2.08,2.08,0,0,0,.83.65,2.52,2.52,0,0,0,1,.18,2.21,2.21,0,0,0,.91-.18,1.82,1.82,0,0,0,.69-.58,2.77,2.77,0,0,0,.44-1,5.63,5.63,0,0,0,.15-1.39,6,6,0,0,0-.13-1.37,2.74,2.74,0,0,0-.37-.91,1.53,1.53,0,0,0-.59-.52A2,2,0,0,0,148.1,233.53Z"/><path class="cls-2" d="M157.83,231.8a4.65,4.65,0,0,1,1.61.28,3.57,3.57,0,0,1,1.26.82,3.72,3.72,0,0,1,.83,1.31,4.92,4.92,0,0,1,.3,1.78,2.42,2.42,0,0,1,0,.42.57.57,0,0,1-.08.26.29.29,0,0,1-.16.13.6.6,0,0,1-.25,0h-5.7a3.16,3.16,0,0,0,.76,2.09,2.35,2.35,0,0,0,1.76.67,2.88,2.88,0,0,0,.94-.13,4,4,0,0,0,.68-.28,5.58,5.58,0,0,0,.51-.28.9.9,0,0,1,.43-.12.6.6,0,0,1,.24.05.64.64,0,0,1,.17.16l.64.8a3.77,3.77,0,0,1-.82.73,5.33,5.33,0,0,1-1,.47,6.07,6.07,0,0,1-1,.25,8.7,8.7,0,0,1-1,.07,5,5,0,0,1-1.79-.32,3.94,3.94,0,0,1-1.44-.95,4.4,4.4,0,0,1-1-1.55,6,6,0,0,1-.35-2.13,5,5,0,0,1,.31-1.78,4.18,4.18,0,0,1,.88-1.45,4.11,4.11,0,0,1,1.39-1A4.61,4.61,0,0,1,157.83,231.8Zm0,1.6a2.06,2.06,0,0,0-1.52.55,2.7,2.7,0,0,0-.7,1.55h4.18a2.64,2.64,0,0,0-.12-.81,1.88,1.88,0,0,0-.36-.67,1.76,1.76,0,0,0-.61-.46A2.14,2.14,0,0,0,157.87,233.4Z"/><path class="cls-2" d="M163.63,241.18V232h1.31a.73.73,0,0,1,.48.12.75.75,0,0,1,.18.44l.13,1.11a4.44,4.44,0,0,1,1.16-1.35,2.45,2.45,0,0,1,1.5-.49,1.93,1.93,0,0,1,1.13.31l-.29,1.67a.41.41,0,0,1-.11.23.49.49,0,0,1-.25.06,1.62,1.62,0,0,1-.37-.06,2.53,2.53,0,0,0-.62-.06,1.92,1.92,0,0,0-1.19.38,2.91,2.91,0,0,0-.83,1.12v5.75Z"/><path class="cls-2" d="M176.47,233.75a.74.74,0,0,1-.19.2.49.49,0,0,1-.25.06.79.79,0,0,1-.35-.09l-.43-.2a3.16,3.16,0,0,0-.55-.21,2.65,2.65,0,0,0-.73-.09,1.76,1.76,0,0,0-1,.28.88.88,0,0,0-.38.73.69.69,0,0,0,.2.5,1.85,1.85,0,0,0,.51.36,5,5,0,0,0,.72.27l.83.27a6.52,6.52,0,0,1,.83.33,2.68,2.68,0,0,1,.72.46,2,2,0,0,1,.71,1.64,3.14,3.14,0,0,1-.24,1.23,2.8,2.8,0,0,1-.71,1,3.59,3.59,0,0,1-1.16.64,5.1,5.1,0,0,1-1.58.23,4.73,4.73,0,0,1-.93-.09,6.2,6.2,0,0,1-.87-.24,4.64,4.64,0,0,1-.78-.36,4.3,4.3,0,0,1-.62-.45l.51-.84a.76.76,0,0,1,.23-.24.72.72,0,0,1,.35-.08.74.74,0,0,1,.39.12l.42.25a4.58,4.58,0,0,0,.58.25,2.43,2.43,0,0,0,.83.12,2,2,0,0,0,.68-.1,1.48,1.48,0,0,0,.47-.24,1,1,0,0,0,.27-.36,1.16,1.16,0,0,0,.08-.42.75.75,0,0,0-.19-.53,1.66,1.66,0,0,0-.51-.36,5.59,5.59,0,0,0-.73-.27l-.84-.27a6.71,6.71,0,0,1-.84-.34,2.75,2.75,0,0,1-.73-.49,2.23,2.23,0,0,1-.51-.72,2.56,2.56,0,0,1-.19-1,2.64,2.64,0,0,1,.22-1.08,2.5,2.5,0,0,1,.66-.89,3.38,3.38,0,0,1,1.09-.62,5,5,0,0,1,3.25.09,3.82,3.82,0,0,1,1.3.83Z"/><path class="cls-2" d="M178.38,239.81a1.26,1.26,0,0,1,.36-.86,1.49,1.49,0,0,1,.42-.26,1.51,1.51,0,0,1,.53-.09,1.32,1.32,0,0,1,.59.12,1.27,1.27,0,0,1,.43.33,1.42,1.42,0,0,1,.25.49,2.2,2.2,0,0,1,.08.58,3.33,3.33,0,0,1-.13.91,5.09,5.09,0,0,1-.38.95,6,6,0,0,1-.62.93,5.57,5.57,0,0,1-.85.83l-.39-.35a.38.38,0,0,1-.11-.5.61.61,0,0,1,.12-.16l.24-.27a2.17,2.17,0,0,0,.29-.36,2.72,2.72,0,0,0,.27-.44,1.85,1.85,0,0,0,.17-.5,1.26,1.26,0,0,1-.51-.11,1.15,1.15,0,0,1-.4-.28,1.24,1.24,0,0,1-.26-.43A1.47,1.47,0,0,1,178.38,239.81Z"/><path class="cls-2" d="M72.66,253.4a4.92,4.92,0,0,1,1.88.34,3.92,3.92,0,0,1,1.43.94,4.08,4.08,0,0,1,.92,1.5,5.54,5.54,0,0,1,.33,2,5.63,5.63,0,0,1-.33,2,4.16,4.16,0,0,1-.92,1.5,3.94,3.94,0,0,1-1.43.95,5.37,5.37,0,0,1-3.76,0,4.07,4.07,0,0,1-1.44-.95,4.32,4.32,0,0,1-.93-1.5,5.63,5.63,0,0,1-.33-2,5.54,5.54,0,0,1,.33-2,4.23,4.23,0,0,1,.93-1.5,4,4,0,0,1,1.44-.94A5,5,0,0,1,72.66,253.4Zm0,7.81a2,2,0,0,0,1.71-.78,3.85,3.85,0,0,0,.55-2.26,3.92,3.92,0,0,0-.55-2.28,2.28,2.28,0,0,0-3.43,0,3.86,3.86,0,0,0-.56,2.28,3.79,3.79,0,0,0,.56,2.26A2,2,0,0,0,72.66,261.21Z"/><path class="cls-2" d="M79,262.78v-9.23h1.31a.73.73,0,0,1,.48.12.75.75,0,0,1,.18.44l.13,1.11a4.44,4.44,0,0,1,1.16-1.35,2.45,2.45,0,0,1,1.5-.49,1.93,1.93,0,0,1,1.13.31l-.29,1.67a.38.38,0,0,1-.11.23.46.46,0,0,1-.25.06,1.62,1.62,0,0,1-.37-.06,2.53,2.53,0,0,0-.62-.06,1.92,1.92,0,0,0-1.19.38,3,3,0,0,0-.83,1.12v5.75Z"/><path class="cls-2" d="M92.8,262.78a.54.54,0,0,1-.56-.4l-.18-.89a5.45,5.45,0,0,1-.6.58,3.82,3.82,0,0,1-.68.45,3.55,3.55,0,0,1-.79.29,3.7,3.7,0,0,1-.9.11,3,3,0,0,1-2.47-1.23,4.15,4.15,0,0,1-.7-1.48,7.3,7.3,0,0,1-.25-2,6.21,6.21,0,0,1,.28-1.91,4.65,4.65,0,0,1,.8-1.53,3.7,3.7,0,0,1,1.25-1,3.66,3.66,0,0,1,1.64-.36,3.31,3.31,0,0,1,1.32.24,3.48,3.48,0,0,1,1,.67v-4.88h2.22v13.37Zm-3-1.63a2.27,2.27,0,0,0,1.18-.28,3.67,3.67,0,0,0,.92-.82v-4.14a2.13,2.13,0,0,0-.82-.65,2.38,2.38,0,0,0-1-.19,2.06,2.06,0,0,0-.91.19,1.67,1.67,0,0,0-.7.57,2.71,2.71,0,0,0-.43,1,5.21,5.21,0,0,0-.16,1.39,6.56,6.56,0,0,0,.13,1.37,2.53,2.53,0,0,0,.38.92,1.46,1.46,0,0,0,.59.52A2,2,0,0,0,89.84,261.15Z"/><path class="cls-2" d="M100.38,253.4a4.65,4.65,0,0,1,1.61.28,3.48,3.48,0,0,1,1.26.82,3.58,3.58,0,0,1,.83,1.31,4.92,4.92,0,0,1,.3,1.78c0,.17,0,.31,0,.42a1,1,0,0,1-.08.26.33.33,0,0,1-.16.13.62.62,0,0,1-.25,0H98.16a3.21,3.21,0,0,0,.76,2.09,2.39,2.39,0,0,0,1.77.67,2.86,2.86,0,0,0,.93-.13,3.31,3.31,0,0,0,.68-.28l.52-.28a.88.88,0,0,1,.43-.12.59.59,0,0,1,.23.05.8.8,0,0,1,.17.15l.65.82a4.05,4.05,0,0,1-.83.72,5.33,5.33,0,0,1-1,.47,5,5,0,0,1-1,.24,7,7,0,0,1-1,.08,5,5,0,0,1-1.79-.32,4.11,4.11,0,0,1-1.44-1,4.25,4.25,0,0,1-1-1.55A5.8,5.8,0,0,1,96,258a5.2,5.2,0,0,1,.3-1.78,4.34,4.34,0,0,1,.88-1.45,4.21,4.21,0,0,1,1.39-1A4.61,4.61,0,0,1,100.38,253.4Zm.05,1.6a2,2,0,0,0-1.52.55,2.64,2.64,0,0,0-.7,1.55h4.17a2.69,2.69,0,0,0-.12-.81,1.61,1.61,0,0,0-.36-.67,1.67,1.67,0,0,0-.61-.46A2.06,2.06,0,0,0,100.43,255Z"/><path class="cls-2" d="M106.19,262.78v-9.23h1.3a.73.73,0,0,1,.48.12.75.75,0,0,1,.18.44l.14,1.11a4.18,4.18,0,0,1,1.16-1.35,2.42,2.42,0,0,1,1.49-.49,1.91,1.91,0,0,1,1.13.31l-.28,1.67a.39.39,0,0,1-.12.23.43.43,0,0,1-.24.06,1.55,1.55,0,0,1-.37-.06,2.65,2.65,0,0,0-.62-.06,1.9,1.9,0,0,0-1.19.38,3,3,0,0,0-.84,1.12v5.75Z"/><path class="cls-2" d="M117.36,253.4a4.59,4.59,0,0,1,1.6.28,3.61,3.61,0,0,1,1.27.82,3.72,3.72,0,0,1,.83,1.31,5.15,5.15,0,0,1,.29,1.78c0,.17,0,.31,0,.42a.73.73,0,0,1-.08.26.29.29,0,0,1-.16.13.6.6,0,0,1-.25,0h-5.71a3.22,3.22,0,0,0,.77,2.09,2.35,2.35,0,0,0,1.76.67,2.86,2.86,0,0,0,.93-.13,3.42,3.42,0,0,0,.69-.28l.51-.28a.9.9,0,0,1,.43-.12.52.52,0,0,1,.23.05.5.5,0,0,1,.17.15l.65.82a3.81,3.81,0,0,1-.83.72,4.75,4.75,0,0,1-1,.47,5.11,5.11,0,0,1-1,.24,7.1,7.1,0,0,1-1,.08,5,5,0,0,1-1.79-.32,4.11,4.11,0,0,1-1.44-1,4.39,4.39,0,0,1-1-1.55,6,6,0,0,1-.35-2.13,5,5,0,0,1,.31-1.78,4.08,4.08,0,0,1,2.27-2.43A4.61,4.61,0,0,1,117.36,253.4Zm0,1.6a2,2,0,0,0-1.52.55,2.64,2.64,0,0,0-.7,1.55h4.17a2.69,2.69,0,0,0-.11-.81,1.88,1.88,0,0,0-.36-.67,1.85,1.85,0,0,0-.61-.46A2.14,2.14,0,0,0,117.4,255Z"/><path class="cls-2" d="M129.66,262.78a.54.54,0,0,1-.57-.4l-.18-.89a5.45,5.45,0,0,1-.6.58,3.82,3.82,0,0,1-.68.45,3.47,3.47,0,0,1-.78.29,3.72,3.72,0,0,1-.91.11,3.06,3.06,0,0,1-2.47-1.23,4.33,4.33,0,0,1-.7-1.48,7.3,7.3,0,0,1-.25-2,6.53,6.53,0,0,1,.28-1.91,4.84,4.84,0,0,1,.8-1.53,3.79,3.79,0,0,1,1.25-1,3.66,3.66,0,0,1,1.64-.36,3.24,3.24,0,0,1,1.32.24,3.34,3.34,0,0,1,1,.67v-4.88H131v13.37Zm-3-1.63a2.32,2.32,0,0,0,1.18-.28,3.64,3.64,0,0,0,.91-.82v-4.14a2.06,2.06,0,0,0-.82-.65,2.35,2.35,0,0,0-1-.19,2.09,2.09,0,0,0-.91.19,1.71,1.71,0,0,0-.69.57,2.72,2.72,0,0,0-.44,1,5.69,5.69,0,0,0-.15,1.39,6,6,0,0,0,.13,1.37,2.71,2.71,0,0,0,.37.92,1.42,1.42,0,0,0,.6.52A1.94,1.94,0,0,0,126.7,261.15Z"/><path class="cls-2" d="M136.92,262.78V249.41h2.22v5.27a4.34,4.34,0,0,1,1.25-.93,3.58,3.58,0,0,1,1.62-.35,3.17,3.17,0,0,1,1.38.31,3,3,0,0,1,1.08.91,4.19,4.19,0,0,1,.7,1.47,7.15,7.15,0,0,1,.25,2,6.55,6.55,0,0,1-.28,1.92,4.64,4.64,0,0,1-.8,1.53,3.6,3.6,0,0,1-1.25,1,3.56,3.56,0,0,1-1.64.37,3.21,3.21,0,0,1-.78-.09,2.5,2.5,0,0,1-.63-.24,2.46,2.46,0,0,1-.54-.37,5.5,5.5,0,0,1-.47-.49l-.1.62a.53.53,0,0,1-.19.33.52.52,0,0,1-.35.1Zm4.32-7.65a2.29,2.29,0,0,0-1.18.29,3.53,3.53,0,0,0-.92.83v4.14a2.15,2.15,0,0,0,.83.65,2.58,2.58,0,0,0,1,.18,2.24,2.24,0,0,0,.91-.18,1.79,1.79,0,0,0,.68-.58,2.77,2.77,0,0,0,.44-1,5.63,5.63,0,0,0,.15-1.39,6,6,0,0,0-.13-1.37,2.55,2.55,0,0,0-.37-.91,1.46,1.46,0,0,0-.59-.52A2,2,0,0,0,141.24,255.13Z"/><path class="cls-2" d="M150.13,265.32a.89.89,0,0,1-.25.36.81.81,0,0,1-.48.12h-1.66l1.73-3.7-3.74-8.55h2a.61.61,0,0,1,.41.12.86.86,0,0,1,.22.29l2,4.79c.06.16.12.32.17.49a4.05,4.05,0,0,1,.12.5c.05-.17.11-.34.16-.5s.12-.33.19-.5l1.85-4.78a.62.62,0,0,1,.24-.29.61.61,0,0,1,.37-.12h1.79Z"/><path class="cls-2" d="M53.7,284.38h-1a1.1,1.1,0,0,1-.49-.09.63.63,0,0,1-.27-.38l-.2-.66a7.89,7.89,0,0,1-.69.55,4.49,4.49,0,0,1-.7.4,3.76,3.76,0,0,1-.76.25,4.94,4.94,0,0,1-.9.08,3.71,3.71,0,0,1-1.08-.16,2.35,2.35,0,0,1-.85-.48,2.23,2.23,0,0,1-.56-.78A2.86,2.86,0,0,1,46,282a2.21,2.21,0,0,1,.27-1,2.57,2.57,0,0,1,.91-.92,6.07,6.07,0,0,1,1.7-.68,10.94,10.94,0,0,1,2.64-.27v-.55a2.07,2.07,0,0,0-.39-1.38,1.43,1.43,0,0,0-1.14-.45,2.6,2.6,0,0,0-.9.13,3.28,3.28,0,0,0-.62.28l-.49.28a1,1,0,0,1-.5.13.65.65,0,0,1-.39-.12,1,1,0,0,1-.26-.28l-.4-.71A5.45,5.45,0,0,1,50.28,275a3.81,3.81,0,0,1,1.44.26,3.1,3.1,0,0,1,1.08.74,3.2,3.2,0,0,1,.67,1.13,4.44,4.44,0,0,1,.23,1.44ZM49.38,283a2.48,2.48,0,0,0,.63-.07,2.45,2.45,0,0,0,.54-.18,2.6,2.6,0,0,0,.5-.31,3.72,3.72,0,0,0,.48-.43v-1.54a9.09,9.09,0,0,0-1.62.12,4.44,4.44,0,0,0-1,.31,1.32,1.32,0,0,0-.56.45.92.92,0,0,0-.17.55,1,1,0,0,0,.35.84A1.48,1.48,0,0,0,49.38,283Z"/><path class="cls-2" d="M61.37,277a.61.61,0,0,1-.19.2.49.49,0,0,1-.25.06.79.79,0,0,1-.35-.09l-.43-.2a3.16,3.16,0,0,0-.55-.21,2.65,2.65,0,0,0-.73-.09,1.76,1.76,0,0,0-1,.28.88.88,0,0,0-.38.73.69.69,0,0,0,.2.5,1.85,1.85,0,0,0,.51.36,5,5,0,0,0,.72.27l.83.27a6.52,6.52,0,0,1,.83.33,2.68,2.68,0,0,1,.72.46,2,2,0,0,1,.71,1.64,3.14,3.14,0,0,1-.24,1.23,2.8,2.8,0,0,1-.71,1,3.49,3.49,0,0,1-1.16.64,5.06,5.06,0,0,1-1.58.23,4.73,4.73,0,0,1-.93-.09,6.2,6.2,0,0,1-.87-.24,4.64,4.64,0,0,1-.78-.36,4.3,4.3,0,0,1-.62-.45l.51-.84a.76.76,0,0,1,.23-.24.72.72,0,0,1,.35-.08.74.74,0,0,1,.39.12c.12.08.26.16.43.25a3.87,3.87,0,0,0,.57.25,2.43,2.43,0,0,0,.83.12,2.29,2.29,0,0,0,.68-.09,1.73,1.73,0,0,0,.47-.25,1,1,0,0,0,.27-.36,1.16,1.16,0,0,0,.08-.42.75.75,0,0,0-.19-.53,1.66,1.66,0,0,0-.51-.36,5.59,5.59,0,0,0-.73-.27l-.84-.27a6.71,6.71,0,0,1-.84-.34,2.75,2.75,0,0,1-.73-.49,2.23,2.23,0,0,1-.51-.72,2.56,2.56,0,0,1-.19-1.05,2.64,2.64,0,0,1,.22-1.08,2.5,2.5,0,0,1,.66-.89,3.49,3.49,0,0,1,1.09-.62,5,5,0,0,1,3.25.09,3.82,3.82,0,0,1,1.3.83Z"/><path class="cls-2" d="M69.23,277a.61.61,0,0,1-.19.2.44.44,0,0,1-.25.06.79.79,0,0,1-.34-.09l-.43-.2a3.51,3.51,0,0,0-.55-.21,2.73,2.73,0,0,0-.74-.09,1.73,1.73,0,0,0-1,.28.88.88,0,0,0-.38.73.68.68,0,0,0,.19.5,1.76,1.76,0,0,0,.52.36,5,5,0,0,0,.72.27l.83.27a6.52,6.52,0,0,1,.83.33,2.68,2.68,0,0,1,.72.46,2.29,2.29,0,0,1,.51.68,2.16,2.16,0,0,1,.2,1,3,3,0,0,1-.25,1.23,2.68,2.68,0,0,1-.71,1,3.44,3.44,0,0,1-1.15.64,5.1,5.1,0,0,1-1.58.23,4.73,4.73,0,0,1-.93-.09,6,6,0,0,1-.88-.24,4.54,4.54,0,0,1-.77-.36,3.91,3.91,0,0,1-.63-.45l.52-.84a.66.66,0,0,1,.23-.24.72.72,0,0,1,.73,0l.43.25a3.87,3.87,0,0,0,.57.25,2.49,2.49,0,0,0,.84.12,2.29,2.29,0,0,0,.68-.09,1.67,1.67,0,0,0,.46-.25.78.78,0,0,0,.27-.36,1,1,0,0,0,.09-.42.76.76,0,0,0-.2-.53,1.55,1.55,0,0,0-.51-.36,4.68,4.68,0,0,0-.73-.27l-.83-.27a6.15,6.15,0,0,1-.84-.34,2.6,2.6,0,0,1-.73-.49,2.23,2.23,0,0,1-.51-.72,2.55,2.55,0,0,1-.2-1.05,2.65,2.65,0,0,1,.23-1.08,2.5,2.5,0,0,1,.66-.89,3.28,3.28,0,0,1,1.09-.62,4.94,4.94,0,0,1,3.24.09,3.77,3.77,0,0,1,1.31.83Z"/><path class="cls-2" d="M75.56,275a5.12,5.12,0,0,1,1.88.34,3.92,3.92,0,0,1,1.43.94,4.08,4.08,0,0,1,.92,1.5,5.54,5.54,0,0,1,.33,2,5.63,5.63,0,0,1-.33,2,4.08,4.08,0,0,1-.92,1.5,3.94,3.94,0,0,1-1.43.95,5.37,5.37,0,0,1-3.76,0,4,4,0,0,1-1.44-.95,4.23,4.23,0,0,1-.93-1.5,5.63,5.63,0,0,1-.33-2,5.54,5.54,0,0,1,.33-2,4.23,4.23,0,0,1,.93-1.5,4,4,0,0,1,1.44-.94A5.12,5.12,0,0,1,75.56,275Zm0,7.81a2,2,0,0,0,1.71-.78,3.86,3.86,0,0,0,.55-2.27,3.9,3.9,0,0,0-.55-2.27,2,2,0,0,0-1.71-.78,2,2,0,0,0-1.73.78,4,4,0,0,0-.55,2.27,3.9,3.9,0,0,0,.55,2.27A2,2,0,0,0,75.56,282.81Z"/><path class="cls-2" d="M88.34,277.1a.92.92,0,0,1-.19.2.47.47,0,0,1-.28.07.6.6,0,0,1-.33-.1l-.39-.24a3.82,3.82,0,0,0-.53-.23,2.48,2.48,0,0,0-.77-.1,2.4,2.4,0,0,0-1,.21,1.93,1.93,0,0,0-.73.6,2.83,2.83,0,0,0-.44,1,5.51,5.51,0,0,0-.14,1.28,4.75,4.75,0,0,0,.16,1.31,2.64,2.64,0,0,0,.45,1,1.94,1.94,0,0,0,.72.59,2.11,2.11,0,0,0,1,.21,2.27,2.27,0,0,0,.86-.14,2.65,2.65,0,0,0,.56-.28l.39-.29A.56.56,0,0,1,88,282a.46.46,0,0,1,.41.21l.64.8a3.94,3.94,0,0,1-.81.73,4.46,4.46,0,0,1-.89.47,5.21,5.21,0,0,1-1,.25,8.22,8.22,0,0,1-1,.07,4.13,4.13,0,0,1-1.61-.32,4.06,4.06,0,0,1-1.32-.93,4.63,4.63,0,0,1-.89-1.5,5.78,5.78,0,0,1-.33-2,6,6,0,0,1,.29-1.89,4.27,4.27,0,0,1,.86-1.5,4,4,0,0,1,1.41-1,4.83,4.83,0,0,1,1.92-.36,4.34,4.34,0,0,1,3.22,1.29Z"/><path class="cls-2" d="M93.14,272.46A1.25,1.25,0,0,1,93,273a1.52,1.52,0,0,1-.31.44,1.54,1.54,0,0,1-.45.3,1.51,1.51,0,0,1-.56.11,1.46,1.46,0,0,1-.55-.11,1.37,1.37,0,0,1-.44-.3,1.32,1.32,0,0,1-.3-.44,1.25,1.25,0,0,1-.12-.54,1.31,1.31,0,0,1,.12-.56,1.37,1.37,0,0,1,.3-.45,1.23,1.23,0,0,1,.44-.3,1.29,1.29,0,0,1,.55-.11,1.33,1.33,0,0,1,.56.11,1.37,1.37,0,0,1,.45.3,1.57,1.57,0,0,1,.31.45A1.31,1.31,0,0,1,93.14,272.46Zm-.34,2.69v9.23H90.58v-9.23Z"/><path class="cls-2" d="M102.55,284.38h-1a1.1,1.1,0,0,1-.49-.09.63.63,0,0,1-.27-.38l-.2-.66a6.64,6.64,0,0,1-.69.55,4.07,4.07,0,0,1-.7.4,3.76,3.76,0,0,1-.76.25,4.94,4.94,0,0,1-.9.08,3.71,3.71,0,0,1-1.08-.16,2.44,2.44,0,0,1-.85-.48,2.23,2.23,0,0,1-.56-.78,2.86,2.86,0,0,1-.19-1.09,2.21,2.21,0,0,1,.27-1,2.57,2.57,0,0,1,.91-.92,6,6,0,0,1,1.71-.68,10.79,10.79,0,0,1,2.63-.27v-.55a2.07,2.07,0,0,0-.39-1.38,1.43,1.43,0,0,0-1.14-.45,2.6,2.6,0,0,0-.9.13,3.28,3.28,0,0,0-.62.28l-.49.28a1,1,0,0,1-.5.13.6.6,0,0,1-.38-.12.9.9,0,0,1-.27-.28l-.4-.71A5.45,5.45,0,0,1,99.13,275a3.9,3.9,0,0,1,1.45.26,3.15,3.15,0,0,1,1.07.74,3.06,3.06,0,0,1,.67,1.13,4.18,4.18,0,0,1,.23,1.44ZM98.23,283a2.48,2.48,0,0,0,.63-.07,2.53,2.53,0,0,0,.55-.18,2.87,2.87,0,0,0,.49-.31,3.72,3.72,0,0,0,.48-.43v-1.54a9.09,9.09,0,0,0-1.62.12,4.44,4.44,0,0,0-1.05.31,1.39,1.39,0,0,0-.56.45,1,1,0,0,0-.17.55,1,1,0,0,0,.35.84A1.48,1.48,0,0,0,98.23,283Z"/><path class="cls-2" d="M107.77,284.53a2.42,2.42,0,0,1-1.84-.68,2.59,2.59,0,0,1-.65-1.88v-5.16h-.94a.42.42,0,0,1-.44-.47v-.88l1.49-.24.47-2.52a.42.42,0,0,1,.16-.28.59.59,0,0,1,.33-.1h1.15v2.91h2.43v1.58H107.5v5a.93.93,0,0,0,.22.67.73.73,0,0,0,.57.25,1.13,1.13,0,0,0,.35-.05l.24-.11.19-.1a.33.33,0,0,1,.16-.05.25.25,0,0,1,.16.05.69.69,0,0,1,.14.15l.66,1.08a3.33,3.33,0,0,1-1.11.61A4.13,4.13,0,0,1,107.77,284.53Z"/><path class="cls-2" d="M115.52,275a4.65,4.65,0,0,1,1.61.28,3.48,3.48,0,0,1,1.26.82,3.67,3.67,0,0,1,.83,1.31,4.92,4.92,0,0,1,.3,1.78,2.42,2.42,0,0,1,0,.42.57.57,0,0,1-.08.26.31.31,0,0,1-.15.13.65.65,0,0,1-.26,0h-5.7a3.16,3.16,0,0,0,.76,2.09,2.37,2.37,0,0,0,1.77.67,2.86,2.86,0,0,0,.93-.13,3.31,3.31,0,0,0,.68-.28l.52-.28a.84.84,0,0,1,.42-.12.6.6,0,0,1,.24.05.64.64,0,0,1,.17.16l.65.8a3.79,3.79,0,0,1-.83.73,5.33,5.33,0,0,1-1,.47,5.84,5.84,0,0,1-1,.25,8.7,8.7,0,0,1-1,.07,5,5,0,0,1-1.79-.32,4.11,4.11,0,0,1-1.44-.95,4.4,4.4,0,0,1-1-1.55,6,6,0,0,1-.35-2.13,5.2,5.2,0,0,1,.31-1.78,4.18,4.18,0,0,1,.88-1.45,4.11,4.11,0,0,1,1.39-1A4.61,4.61,0,0,1,115.52,275Zm0,1.6a2.07,2.07,0,0,0-1.53.55,2.7,2.7,0,0,0-.7,1.55h4.18a2.69,2.69,0,0,0-.12-.81,1.88,1.88,0,0,0-.36-.67,1.79,1.79,0,0,0-.61-.46A2.1,2.1,0,0,0,115.57,276.6Z"/><path class="cls-2" d="M127.82,284.38a.54.54,0,0,1-.56-.4l-.18-.89a6.59,6.59,0,0,1-.61.58,3.49,3.49,0,0,1-.68.45,3.3,3.3,0,0,1-.78.29,3.7,3.7,0,0,1-.9.11,3,3,0,0,1-2.47-1.23,4.34,4.34,0,0,1-.71-1.48,7.72,7.72,0,0,1-.24-2,6.21,6.21,0,0,1,.28-1.91,4.65,4.65,0,0,1,.8-1.53,3.7,3.7,0,0,1,1.25-1,3.63,3.63,0,0,1,1.64-.36,3.31,3.31,0,0,1,1.32.24,3.63,3.63,0,0,1,1,.67V271h2.22v13.37Zm-3-1.63a2.2,2.2,0,0,0,1.18-.29,3.44,3.44,0,0,0,.92-.81v-4.14a2.13,2.13,0,0,0-.82-.65,2.38,2.38,0,0,0-1-.19,2.13,2.13,0,0,0-.92.19,1.71,1.71,0,0,0-.69.57,2.91,2.91,0,0,0-.44,1,5.69,5.69,0,0,0-.15,1.39,6.74,6.74,0,0,0,.13,1.38,2.55,2.55,0,0,0,.38.91,1.46,1.46,0,0,0,.59.52A1.94,1.94,0,0,0,124.86,282.75Z"/><path class="cls-2" d="M140.54,277a.61.61,0,0,1-.19.2.46.46,0,0,1-.25.06.83.83,0,0,1-.35-.09l-.42-.2a3.64,3.64,0,0,0-.56-.21,2.65,2.65,0,0,0-.73-.09,1.76,1.76,0,0,0-1,.28.88.88,0,0,0-.38.73.69.69,0,0,0,.2.5,1.85,1.85,0,0,0,.51.36,5.1,5.1,0,0,0,.73.27l.82.27a6,6,0,0,1,.83.33,2.91,2.91,0,0,1,.73.46,2.29,2.29,0,0,1,.51.68,2.16,2.16,0,0,1,.19,1,3.14,3.14,0,0,1-.24,1.23,2.8,2.8,0,0,1-.71,1,3.49,3.49,0,0,1-1.16.64,5.06,5.06,0,0,1-1.58.23,4.73,4.73,0,0,1-.93-.09,6.2,6.2,0,0,1-.87-.24,4.2,4.2,0,0,1-.77-.36,3.91,3.91,0,0,1-.63-.45l.51-.84a.78.78,0,0,1,.24-.24.72.72,0,0,1,.73,0c.12.08.27.16.43.25a3.87,3.87,0,0,0,.57.25,2.43,2.43,0,0,0,.83.12,2.24,2.24,0,0,0,.68-.09,1.6,1.6,0,0,0,.47-.25,1,1,0,0,0,.27-.36,1,1,0,0,0,.08-.42.75.75,0,0,0-.19-.53,1.66,1.66,0,0,0-.51-.36,5.59,5.59,0,0,0-.73-.27l-.84-.27a6.58,6.58,0,0,1-.83-.34,2.46,2.46,0,0,1-.73-.49,2.12,2.12,0,0,1-.52-.72,2.56,2.56,0,0,1-.19-1.05,2.64,2.64,0,0,1,.22-1.08,2.41,2.41,0,0,1,.67-.89,3.33,3.33,0,0,1,1.08-.62,5,5,0,0,1,3.25.09,3.73,3.73,0,0,1,1.3.83Z"/><path class="cls-2" d="M149.41,277.1a.92.92,0,0,1-.19.2.41.41,0,0,1-.27.07.61.61,0,0,1-.34-.1l-.38-.24a3.5,3.5,0,0,0-.54-.23,2.44,2.44,0,0,0-.77-.1,2.32,2.32,0,0,0-1,.21,2,2,0,0,0-.74.6,3,3,0,0,0-.44,1,5.51,5.51,0,0,0-.14,1.28,4.75,4.75,0,0,0,.16,1.31,2.81,2.81,0,0,0,.45,1,1.94,1.94,0,0,0,.72.59,2.15,2.15,0,0,0,1,.21,2.31,2.31,0,0,0,.86-.14,2.56,2.56,0,0,0,.55-.28l.39-.29A.58.58,0,0,1,149,282a.46.46,0,0,1,.41.21l.64.8a3.89,3.89,0,0,1-.8.73,4.83,4.83,0,0,1-.9.47,5.21,5.21,0,0,1-1,.25,8.07,8.07,0,0,1-1,.07,4.17,4.17,0,0,1-1.61-.32,4.06,4.06,0,0,1-1.32-.93,4.63,4.63,0,0,1-.89-1.5,6.23,6.23,0,0,1,0-3.91,4.12,4.12,0,0,1,.86-1.5,3.89,3.89,0,0,1,1.4-1,4.85,4.85,0,0,1,1.93-.36,4.6,4.6,0,0,1,1.81.34,4.4,4.4,0,0,1,1.4,1Z"/><path class="cls-2" d="M155.45,275a5.12,5.12,0,0,1,1.88.34,3.92,3.92,0,0,1,1.43.94,4.08,4.08,0,0,1,.92,1.5,5.54,5.54,0,0,1,.33,2,5.63,5.63,0,0,1-.33,2,4.08,4.08,0,0,1-.92,1.5,3.94,3.94,0,0,1-1.43.95,5.37,5.37,0,0,1-3.76,0,4.07,4.07,0,0,1-1.44-.95,4.23,4.23,0,0,1-.93-1.5,5.63,5.63,0,0,1-.33-2,5.54,5.54,0,0,1,.33-2,4.23,4.23,0,0,1,.93-1.5,4,4,0,0,1,1.44-.94A5.16,5.16,0,0,1,155.45,275Zm0,7.81a2,2,0,0,0,1.71-.78,3.86,3.86,0,0,0,.55-2.27,3.9,3.9,0,0,0-.55-2.27,2,2,0,0,0-1.71-.78,2,2,0,0,0-1.73.78,4,4,0,0,0-.55,2.27,3.9,3.9,0,0,0,.55,2.27A2,2,0,0,0,155.45,282.81Z"/><path class="cls-2" d="M161.74,284.38v-9.23h1.31a.73.73,0,0,1,.48.12.75.75,0,0,1,.18.44l.13,1.11a4.44,4.44,0,0,1,1.16-1.35,2.45,2.45,0,0,1,1.5-.49,1.93,1.93,0,0,1,1.13.31l-.29,1.67a.32.32,0,0,1-.12.23.43.43,0,0,1-.24.06,1.62,1.62,0,0,1-.37-.06,2.53,2.53,0,0,0-.62-.06,1.92,1.92,0,0,0-1.19.38,3,3,0,0,0-.83,1.12v5.75Z"/><path class="cls-2" d="M172.91,275a4.65,4.65,0,0,1,1.61.28,3.48,3.48,0,0,1,1.26.82,3.67,3.67,0,0,1,.83,1.31,4.92,4.92,0,0,1,.3,1.78c0,.17,0,.31,0,.42a.71.71,0,0,1-.09.26.27.27,0,0,1-.15.13.62.62,0,0,1-.25,0h-5.71a3.16,3.16,0,0,0,.77,2.09,2.35,2.35,0,0,0,1.76.67,2.86,2.86,0,0,0,.93-.13,3.31,3.31,0,0,0,.68-.28l.52-.28a.88.88,0,0,1,.43-.12.56.56,0,0,1,.23.05.64.64,0,0,1,.17.16l.65.8a3.57,3.57,0,0,1-.83.73,5.33,5.33,0,0,1-1,.47,5.84,5.84,0,0,1-1,.25,8.7,8.7,0,0,1-1,.07,5,5,0,0,1-1.79-.32,4.11,4.11,0,0,1-1.44-.95,4.25,4.25,0,0,1-1-1.55,5.8,5.8,0,0,1-.35-2.13,5.2,5.2,0,0,1,.3-1.78,4.34,4.34,0,0,1,.88-1.45,4.21,4.21,0,0,1,1.39-1A4.61,4.61,0,0,1,172.91,275Zm.05,1.6a2,2,0,0,0-1.52.55,2.7,2.7,0,0,0-.71,1.55h4.18a2.69,2.69,0,0,0-.12-.81,1.61,1.61,0,0,0-.36-.67,1.79,1.79,0,0,0-.61-.46A2.06,2.06,0,0,0,173,276.6Z"/><path class="cls-2" d="M260.75,230.54a.57.57,0,0,1-.23.27.51.51,0,0,1-.31.08.78.78,0,0,1-.4-.13c-.15-.1-.33-.2-.53-.31a4.85,4.85,0,0,0-.72-.32,3.08,3.08,0,0,0-1-.13,2.86,2.86,0,0,0-.87.12,1.88,1.88,0,0,0-.63.33,1.37,1.37,0,0,0-.38.52,1.59,1.59,0,0,0-.13.66,1.17,1.17,0,0,0,.25.77,2.27,2.27,0,0,0,.68.52,8.15,8.15,0,0,0,1,.39l1.1.36a10.57,10.57,0,0,1,1.1.45,4,4,0,0,1,1,.65,2.9,2.9,0,0,1,.67,1,3.16,3.16,0,0,1,.26,1.37,4.57,4.57,0,0,1-.3,1.66,3.76,3.76,0,0,1-.88,1.34,4.21,4.21,0,0,1-1.42.9,5.22,5.22,0,0,1-1.92.33,5.56,5.56,0,0,1-1.22-.13,6.46,6.46,0,0,1-1.16-.34,5.92,5.92,0,0,1-1-.54,5.46,5.46,0,0,1-.86-.7l.7-1.16a1,1,0,0,1,.24-.22.65.65,0,0,1,.31-.08.9.9,0,0,1,.49.18c.17.13.37.26.61.41a4.69,4.69,0,0,0,.84.41,3.3,3.3,0,0,0,1.15.19,2.42,2.42,0,0,0,1.61-.49,1.76,1.76,0,0,0,.56-1.41,1.31,1.31,0,0,0-.25-.84,1.94,1.94,0,0,0-.68-.54,4.69,4.69,0,0,0-1-.38c-.37-.1-.73-.21-1.1-.33a11.38,11.38,0,0,1-1.1-.43,3.57,3.57,0,0,1-1-.66,2.9,2.9,0,0,1-.68-1,3.91,3.91,0,0,1-.26-1.5,3.56,3.56,0,0,1,.28-1.39,3.51,3.51,0,0,1,.83-1.19,4.13,4.13,0,0,1,1.34-.84,4.87,4.87,0,0,1,1.81-.32,6,6,0,0,1,2.12.36,4.87,4.87,0,0,1,1.66,1Z"/><path class="cls-2" d="M269.8,233.9a.94.94,0,0,1-.2.2.41.41,0,0,1-.27.07.6.6,0,0,1-.33-.1l-.39-.24a3.5,3.5,0,0,0-.54-.23,2.4,2.4,0,0,0-.77-.1,2.35,2.35,0,0,0-1,.21,2,2,0,0,0-.74.6,3,3,0,0,0-.43,1,5,5,0,0,0-.15,1.28,5.16,5.16,0,0,0,.16,1.31,2.82,2.82,0,0,0,.46,1,1.94,1.94,0,0,0,.72.59,2.1,2.1,0,0,0,.95.2,2.29,2.29,0,0,0,.86-.13,2.56,2.56,0,0,0,.55-.28l.4-.29a.56.56,0,0,1,.37-.13.44.44,0,0,1,.4.21l.64.8a3.92,3.92,0,0,1-.8.73,4.75,4.75,0,0,1-.89.47,5.21,5.21,0,0,1-1,.25,8.22,8.22,0,0,1-1,.07,4.13,4.13,0,0,1-1.61-.32,3.86,3.86,0,0,1-1.32-.93,4.46,4.46,0,0,1-.89-1.5,5.78,5.78,0,0,1-.33-2,6,6,0,0,1,.29-1.89,4.27,4.27,0,0,1,.86-1.5,4.07,4.07,0,0,1,1.4-1,4.85,4.85,0,0,1,1.93-.36,4.6,4.6,0,0,1,1.81.34,4.4,4.4,0,0,1,1.4,1Z"/><path class="cls-2" d="M275.84,231.8a5.06,5.06,0,0,1,1.87.34,4,4,0,0,1,1.44.94,4.36,4.36,0,0,1,.92,1.5,5.77,5.77,0,0,1,.32,2,5.87,5.87,0,0,1-.32,2,4.36,4.36,0,0,1-.92,1.5,4.07,4.07,0,0,1-1.44.95,4.87,4.87,0,0,1-1.87.34A4.92,4.92,0,0,1,274,241a4,4,0,0,1-1.45-.95,4.23,4.23,0,0,1-.93-1.5,5.87,5.87,0,0,1-.32-2,5.77,5.77,0,0,1,.32-2,4.23,4.23,0,0,1,.93-1.5,4,4,0,0,1,1.45-.94A5.12,5.12,0,0,1,275.84,231.8Zm0,7.81a1.94,1.94,0,0,0,1.7-.78,3.86,3.86,0,0,0,.56-2.27,3.9,3.9,0,0,0-.56-2.27,1.94,1.94,0,0,0-1.7-.79,2,2,0,0,0-1.73.79,3.94,3.94,0,0,0-.56,2.27,3.9,3.9,0,0,0,.56,2.27A2,2,0,0,0,275.84,239.61Z"/><path class="cls-2" d="M282.13,241.18V232h1.3a.73.73,0,0,1,.48.12.75.75,0,0,1,.18.44l.13,1.11a4.33,4.33,0,0,1,1.17-1.35,2.42,2.42,0,0,1,1.49-.49,1.91,1.91,0,0,1,1.13.31l-.28,1.67a.36.36,0,0,1-.12.23.43.43,0,0,1-.24.06A1.55,1.55,0,0,1,287,234a2.65,2.65,0,0,0-.62-.06,1.9,1.9,0,0,0-1.19.38,3,3,0,0,0-.84,1.12v5.75Z"/><path class="cls-2" d="M293.3,231.8a4.59,4.59,0,0,1,1.6.28,3.61,3.61,0,0,1,1.27.82,3.72,3.72,0,0,1,.83,1.31,5.15,5.15,0,0,1,.29,1.78,2.56,2.56,0,0,1,0,.42.57.57,0,0,1-.08.26.29.29,0,0,1-.16.13.6.6,0,0,1-.25,0h-5.71a3.16,3.16,0,0,0,.77,2.09,2.35,2.35,0,0,0,1.76.67,3,3,0,0,0,.94-.13,4.8,4.8,0,0,0,.68-.28l.51-.28a.9.9,0,0,1,.43-.12.52.52,0,0,1,.23.05.44.44,0,0,1,.17.16l.65.8a3.6,3.6,0,0,1-.83.73,4.94,4.94,0,0,1-.95.47,6.32,6.32,0,0,1-1,.25,8.87,8.87,0,0,1-1,.07,5,5,0,0,1-1.79-.32,4.11,4.11,0,0,1-1.44-.95,4.53,4.53,0,0,1-1-1.55,6,6,0,0,1-.35-2.13,5,5,0,0,1,.31-1.78,4.08,4.08,0,0,1,2.27-2.43A4.61,4.61,0,0,1,293.3,231.8Zm0,1.6a2,2,0,0,0-1.52.55,2.7,2.7,0,0,0-.7,1.55h4.17a2.65,2.65,0,0,0-.11-.81,1.88,1.88,0,0,0-.36-.67,1.76,1.76,0,0,0-.61-.46A2.14,2.14,0,0,0,293.34,233.4Z"/><path class="cls-2" d="M304.58,233.75a.61.61,0,0,1-.19.2.46.46,0,0,1-.25.06.83.83,0,0,1-.35-.09l-.42-.2a3.28,3.28,0,0,0-.56-.21,2.6,2.6,0,0,0-.73-.09,1.78,1.78,0,0,0-1,.28.87.87,0,0,0-.37.73.68.68,0,0,0,.19.5,1.85,1.85,0,0,0,.51.36,5.59,5.59,0,0,0,.73.27l.83.27a6.38,6.38,0,0,1,.82.33,2.74,2.74,0,0,1,.73.46,2.29,2.29,0,0,1,.51.68,2.16,2.16,0,0,1,.2,1,3.14,3.14,0,0,1-.25,1.23,2.8,2.8,0,0,1-.71,1,3.54,3.54,0,0,1-1.15.64,5.1,5.1,0,0,1-1.58.23,4.91,4.91,0,0,1-.94-.09,6.2,6.2,0,0,1-.87-.24,4.2,4.2,0,0,1-.77-.36,3.91,3.91,0,0,1-.63-.45l.51-.84a.78.78,0,0,1,.24-.24.72.72,0,0,1,.73,0c.12.08.27.16.43.25a3.87,3.87,0,0,0,.57.25,2.47,2.47,0,0,0,.83.12,2,2,0,0,0,.68-.1,1.38,1.38,0,0,0,.47-.24,1,1,0,0,0,.27-.36,1,1,0,0,0,.09-.42.76.76,0,0,0-.2-.53,1.66,1.66,0,0,0-.51-.36,5.1,5.1,0,0,0-.73-.27l-.84-.27a6.58,6.58,0,0,1-.83-.34,2.46,2.46,0,0,1-.73-.49,2.12,2.12,0,0,1-.52-.72,2.74,2.74,0,0,1-.19-1,2.65,2.65,0,0,1,.23-1.08,2.5,2.5,0,0,1,.66-.89,3.28,3.28,0,0,1,1.09-.62,4.55,4.55,0,0,1,1.5-.23,4.61,4.61,0,0,1,1.74.32,3.87,3.87,0,0,1,1.31.83Z"/><path class="cls-2" d="M306.5,239.81a1.27,1.27,0,0,1,.09-.47,1.51,1.51,0,0,1,.27-.39,1.31,1.31,0,0,1,.41-.26,1.55,1.55,0,0,1,.53-.09,1.4,1.4,0,0,1,.6.12,1.14,1.14,0,0,1,.42.33,1.27,1.27,0,0,1,.25.49,1.85,1.85,0,0,1,.08.58,3.33,3.33,0,0,1-.13.91,4,4,0,0,1-.38.95,5.38,5.38,0,0,1-.62.93,5.15,5.15,0,0,1-.85.83l-.38-.35a.41.41,0,0,1-.16-.34.29.29,0,0,1,.05-.16.61.61,0,0,1,.12-.16l.24-.27a2.84,2.84,0,0,0,.29-.36,3.65,3.65,0,0,0,.26-.44,2.3,2.3,0,0,0,.18-.5,1.19,1.19,0,0,1-.51-.11,1.15,1.15,0,0,1-.4-.28,1.26,1.26,0,0,1-.27-.43A1.47,1.47,0,0,1,306.5,239.81Z"/><path class="cls-2" d="M318.43,231.8a5.12,5.12,0,0,1,1.88.34,4,4,0,0,1,1.44.94,4.19,4.19,0,0,1,.91,1.5,5.54,5.54,0,0,1,.33,2,5.63,5.63,0,0,1-.33,2,4.19,4.19,0,0,1-.91,1.5,4.07,4.07,0,0,1-1.44.95,5.37,5.37,0,0,1-3.76,0,4.07,4.07,0,0,1-1.44-.95,4.23,4.23,0,0,1-.93-1.5,5.63,5.63,0,0,1-.33-2,5.54,5.54,0,0,1,.33-2,4.23,4.23,0,0,1,.93-1.5,4,4,0,0,1,1.44-.94A5.16,5.16,0,0,1,318.43,231.8Zm0,7.81a2,2,0,0,0,1.71-.78,3.86,3.86,0,0,0,.55-2.27,3.9,3.9,0,0,0-.55-2.27,2.26,2.26,0,0,0-3.43,0,3.87,3.87,0,0,0-.56,2.27,3.83,3.83,0,0,0,.56,2.27A2,2,0,0,0,318.43,239.61Z"/><path class="cls-2" d="M324.72,241.18V232H326a.73.73,0,0,1,.48.12.75.75,0,0,1,.18.44l.13,1.11a4.44,4.44,0,0,1,1.16-1.35,2.45,2.45,0,0,1,1.5-.49,1.93,1.93,0,0,1,1.13.31l-.29,1.67a.36.36,0,0,1-.11.23.49.49,0,0,1-.25.06,1.62,1.62,0,0,1-.37-.06,2.53,2.53,0,0,0-.62-.06,1.92,1.92,0,0,0-1.19.38,3,3,0,0,0-.83,1.12v5.75Z"/><path class="cls-2" d="M338.58,241.18a.54.54,0,0,1-.57-.4l-.18-.89a4.76,4.76,0,0,1-.61.58,3.92,3.92,0,0,1-.67.45,3.55,3.55,0,0,1-.79.29,3.7,3.7,0,0,1-.9.11,3,3,0,0,1-2.47-1.23,4.15,4.15,0,0,1-.7-1.48,7.3,7.3,0,0,1-.25-2,6.21,6.21,0,0,1,.28-1.91,4.65,4.65,0,0,1,.8-1.53,3.7,3.7,0,0,1,1.25-1,3.66,3.66,0,0,1,1.64-.36,3.31,3.31,0,0,1,1.32.24,3.48,3.48,0,0,1,1,.67v-4.88h2.22v13.37Zm-3-1.63a2.18,2.18,0,0,0,1.18-.29,3.44,3.44,0,0,0,.92-.81v-4.14a2.13,2.13,0,0,0-.82-.65,2.38,2.38,0,0,0-1-.19,2.06,2.06,0,0,0-.91.19,1.67,1.67,0,0,0-.7.57,2.71,2.71,0,0,0-.43,1,5.21,5.21,0,0,0-.16,1.39,6.56,6.56,0,0,0,.13,1.37,2.71,2.71,0,0,0,.38.92,1.46,1.46,0,0,0,.59.52A2,2,0,0,0,335.61,239.55Z"/><path class="cls-2" d="M346.15,231.8a4.65,4.65,0,0,1,1.61.28,3.48,3.48,0,0,1,1.26.82,3.58,3.58,0,0,1,.83,1.31,4.92,4.92,0,0,1,.3,1.78c0,.17,0,.31,0,.42a.71.71,0,0,1-.09.26.27.27,0,0,1-.15.13.62.62,0,0,1-.25,0h-5.71a3.16,3.16,0,0,0,.77,2.09,2.35,2.35,0,0,0,1.76.67,2.86,2.86,0,0,0,.93-.13,4,4,0,0,0,.68-.28l.52-.28a.88.88,0,0,1,.43-.12.56.56,0,0,1,.23.05.64.64,0,0,1,.17.16l.65.8a3.82,3.82,0,0,1-.83.73,5.33,5.33,0,0,1-1,.47,5.84,5.84,0,0,1-1,.25,8.7,8.7,0,0,1-1,.07,5,5,0,0,1-1.79-.32,4.11,4.11,0,0,1-1.44-.95,4.25,4.25,0,0,1-1-1.55,5.8,5.8,0,0,1-.35-2.13,5.2,5.2,0,0,1,.3-1.78,4.34,4.34,0,0,1,.88-1.45,4.21,4.21,0,0,1,1.39-1A4.61,4.61,0,0,1,346.15,231.8Zm.05,1.6a2,2,0,0,0-1.52.55,2.7,2.7,0,0,0-.71,1.55h4.18a2.64,2.64,0,0,0-.12-.81,1.61,1.61,0,0,0-.36-.67,1.67,1.67,0,0,0-.61-.46A2.06,2.06,0,0,0,346.2,233.4Z"/><path class="cls-2" d="M352,241.18V232h1.3a.73.73,0,0,1,.48.12.75.75,0,0,1,.18.44l.13,1.11a4.44,4.44,0,0,1,1.16-1.35,2.47,2.47,0,0,1,1.5-.49,1.91,1.91,0,0,1,1.13.31l-.28,1.67a.36.36,0,0,1-.12.23.43.43,0,0,1-.24.06,1.55,1.55,0,0,1-.37-.06,2.65,2.65,0,0,0-.62-.06,1.9,1.9,0,0,0-1.19.38,3,3,0,0,0-.84,1.12v5.75Z"/><path class="cls-2" d="M363.13,231.8a4.59,4.59,0,0,1,1.6.28,3.61,3.61,0,0,1,1.27.82,3.72,3.72,0,0,1,.83,1.31,5.15,5.15,0,0,1,.29,1.78,2.56,2.56,0,0,1,0,.42.73.73,0,0,1-.08.26.29.29,0,0,1-.16.13.62.62,0,0,1-.25,0H360.9a3.16,3.16,0,0,0,.77,2.09,2.35,2.35,0,0,0,1.76.67,2.86,2.86,0,0,0,.93-.13,4.5,4.5,0,0,0,.69-.28l.51-.28a.9.9,0,0,1,.43-.12.52.52,0,0,1,.23.05.44.44,0,0,1,.17.16l.65.8a3.82,3.82,0,0,1-.83.73,4.75,4.75,0,0,1-1,.47,6,6,0,0,1-1,.25,8.87,8.87,0,0,1-1,.07,5,5,0,0,1-1.79-.32,4.11,4.11,0,0,1-1.44-.95,4.39,4.39,0,0,1-1-1.55,6,6,0,0,1-.35-2.13,5,5,0,0,1,.31-1.78,4.08,4.08,0,0,1,2.27-2.43A4.61,4.61,0,0,1,363.13,231.8Zm0,1.6a2,2,0,0,0-1.52.55,2.7,2.7,0,0,0-.7,1.55h4.17a2.65,2.65,0,0,0-.11-.81,1.88,1.88,0,0,0-.36-.67,1.76,1.76,0,0,0-.61-.46A2.14,2.14,0,0,0,363.17,233.4Z"/><path class="cls-2" d="M375.43,241.18a.54.54,0,0,1-.57-.4l-.18-.89a5.45,5.45,0,0,1-.6.58,4.45,4.45,0,0,1-.68.45,3.3,3.3,0,0,1-.78.29,3.72,3.72,0,0,1-.91.11,3.06,3.06,0,0,1-2.47-1.23,4.52,4.52,0,0,1-.7-1.48,7.7,7.7,0,0,1-.25-2,6.21,6.21,0,0,1,.28-1.91,4.84,4.84,0,0,1,.8-1.53,3.79,3.79,0,0,1,1.25-1,3.69,3.69,0,0,1,1.64-.36,3.24,3.24,0,0,1,1.32.24,3.34,3.34,0,0,1,1,.67v-4.88h2.23v13.37Zm-3-1.63a2.22,2.22,0,0,0,1.18-.29,3.41,3.41,0,0,0,.91-.81v-4.14a2.06,2.06,0,0,0-.82-.65,2.35,2.35,0,0,0-1-.19,2.09,2.09,0,0,0-.91.19,1.71,1.71,0,0,0-.69.57,2.72,2.72,0,0,0-.44,1,5.69,5.69,0,0,0-.15,1.39,6,6,0,0,0,.13,1.37,2.53,2.53,0,0,0,.37.92,1.42,1.42,0,0,0,.6.52A1.94,1.94,0,0,0,372.47,239.55Z"/><path class="cls-2" d="M248.28,262.78V249.41h2.23v5.27a4.29,4.29,0,0,1,1.24-.93,3.58,3.58,0,0,1,1.62-.35,3.17,3.17,0,0,1,1.38.31,3,3,0,0,1,1.08.91,4.19,4.19,0,0,1,.7,1.47,7.15,7.15,0,0,1,.25,2,6.23,6.23,0,0,1-.28,1.92,4.82,4.82,0,0,1-.79,1.53,3.73,3.73,0,0,1-1.26,1,3.53,3.53,0,0,1-1.64.37,3.07,3.07,0,0,1-.77-.09,2.43,2.43,0,0,1-.64-.24,2.73,2.73,0,0,1-.54-.37,5.5,5.5,0,0,1-.47-.49l-.1.62a.48.48,0,0,1-.54.43Zm4.32-7.65a2.32,2.32,0,0,0-1.18.29,3.35,3.35,0,0,0-.91.83v4.14a2.06,2.06,0,0,0,.82.65,2.58,2.58,0,0,0,1,.18,2.24,2.24,0,0,0,.91-.18,1.82,1.82,0,0,0,.69-.58,3,3,0,0,0,.43-1,5.63,5.63,0,0,0,.15-1.39,6,6,0,0,0-.13-1.37,2.55,2.55,0,0,0-.37-.91,1.46,1.46,0,0,0-.59-.52A2,2,0,0,0,252.6,255.13Z"/><path class="cls-2" d="M261.5,265.32a1,1,0,0,1-.26.36.81.81,0,0,1-.48.12H259.1l1.73-3.7-3.74-8.55h2a.61.61,0,0,1,.41.12.86.86,0,0,1,.22.29l2,4.79a4,4,0,0,1,.17.49c.05.16.09.33.13.5,0-.17.1-.34.15-.5s.12-.33.19-.5l1.85-4.78a.62.62,0,0,1,.24-.29.63.63,0,0,1,.37-.12h1.79Z"/><path class="cls-2" d="M271.3,262.78v-9.23h1.36a.54.54,0,0,1,.56.4l.16.73a5.67,5.67,0,0,1,.58-.52,4.53,4.53,0,0,1,.66-.41,3.6,3.6,0,0,1,.74-.26,4,4,0,0,1,.87-.09,3.34,3.34,0,0,1,1.34.26,2.63,2.63,0,0,1,1,.72,3.27,3.27,0,0,1,.59,1.11,4.56,4.56,0,0,1,.2,1.42v5.87h-2.22v-5.87a2,2,0,0,0-.39-1.31,1.45,1.45,0,0,0-1.18-.47,2.39,2.39,0,0,0-1.08.26,4.13,4.13,0,0,0-1,.71v6.68Z"/><path class="cls-2" d="M283.56,253.55v5.87a1.94,1.94,0,0,0,.4,1.31,1.47,1.47,0,0,0,1.17.46,2.39,2.39,0,0,0,1.08-.26,3.81,3.81,0,0,0,1-.7v-6.68h2.23v9.23H288a.54.54,0,0,1-.57-.4l-.15-.74a6,6,0,0,1-.6.53,3.91,3.91,0,0,1-.65.4,3.49,3.49,0,0,1-.75.26,3.83,3.83,0,0,1-.86.1,3.25,3.25,0,0,1-1.33-.26,2.72,2.72,0,0,1-1-.72,3.44,3.44,0,0,1-.6-1.12,4.85,4.85,0,0,1-.2-1.41v-5.87Z"/><path class="cls-2" d="M291.76,262.78v-9.23h1.36a.54.54,0,0,1,.57.4l.14.69a4.81,4.81,0,0,1,.51-.5,3.6,3.6,0,0,1,.57-.39,3.14,3.14,0,0,1,.65-.25,3,3,0,0,1,.76-.1,2.11,2.11,0,0,1,1.43.48,2.72,2.72,0,0,1,.84,1.25,3.24,3.24,0,0,1,.54-.79,3.55,3.55,0,0,1,.71-.53,3.45,3.45,0,0,1,.83-.31,4.3,4.3,0,0,1,.87-.1,3.59,3.59,0,0,1,1.36.24,2.51,2.51,0,0,1,1,.68,3,3,0,0,1,.62,1.1,4.83,4.83,0,0,1,.21,1.49v5.87h-2.22v-5.87a2,2,0,0,0-.39-1.33,1.4,1.4,0,0,0-1.13-.45,1.69,1.69,0,0,0-.64.12,1.57,1.57,0,0,0-.51.34,1.53,1.53,0,0,0-.35.55,2.26,2.26,0,0,0-.12.77v5.87h-2.24v-5.87a2,2,0,0,0-.37-1.36,1.4,1.4,0,0,0-1.1-.42,1.78,1.78,0,0,0-.9.24,2.93,2.93,0,0,0-.77.65v6.76Z"/><path class="cls-2" d="M310.73,253.4a4.61,4.61,0,0,1,1.61.28,3.61,3.61,0,0,1,1.27.82,3.57,3.57,0,0,1,.82,1.31,4.92,4.92,0,0,1,.3,1.78c0,.17,0,.31,0,.42a.73.73,0,0,1-.08.26.29.29,0,0,1-.16.13.62.62,0,0,1-.25,0h-5.71a3.16,3.16,0,0,0,.77,2.09,2.35,2.35,0,0,0,1.76.67,2.86,2.86,0,0,0,.93-.13,3.67,3.67,0,0,0,.69-.28l.51-.28a.9.9,0,0,1,.43-.12.56.56,0,0,1,.23.05.61.61,0,0,1,.17.15l.65.82a4.05,4.05,0,0,1-.83.72,4.75,4.75,0,0,1-1,.47,5.11,5.11,0,0,1-1,.24,7.1,7.1,0,0,1-1,.08,5,5,0,0,1-1.79-.32,4.11,4.11,0,0,1-1.44-1,4.25,4.25,0,0,1-1-1.55,5.8,5.8,0,0,1-.35-2.13,5.2,5.2,0,0,1,.3-1.78,4.34,4.34,0,0,1,.88-1.45,4.15,4.15,0,0,1,1.4-1A4.52,4.52,0,0,1,310.73,253.4Zm0,1.6a2,2,0,0,0-1.52.55,2.64,2.64,0,0,0-.7,1.55h4.17a3,3,0,0,0-.11-.81,1.88,1.88,0,0,0-.36-.67,1.8,1.8,0,0,0-.62-.46A2.06,2.06,0,0,0,310.78,255Z"/><path class="cls-2" d="M316.54,262.78v-9.23h1.3a.73.73,0,0,1,.48.12.75.75,0,0,1,.18.44l.14,1.11a4.31,4.31,0,0,1,1.16-1.35,2.42,2.42,0,0,1,1.49-.49,2,2,0,0,1,1.14.31l-.29,1.67a.39.39,0,0,1-.12.23.43.43,0,0,1-.24.06,1.55,1.55,0,0,1-.37-.06,2.65,2.65,0,0,0-.62-.06,1.92,1.92,0,0,0-1.19.38,3,3,0,0,0-.84,1.12v5.75Z"/><path class="cls-2" d="M326.59,250.86a1.25,1.25,0,0,1-.12.54,1.35,1.35,0,0,1-.31.44,1.61,1.61,0,0,1-.45.3,1.47,1.47,0,0,1-.56.11,1.41,1.41,0,0,1-.54-.11,1.77,1.77,0,0,1-.45-.3,1.71,1.71,0,0,1-.3-.44,1.41,1.41,0,0,1-.11-.54,1.42,1.42,0,0,1,.41-1,1.37,1.37,0,0,1,.45-.3,1.25,1.25,0,0,1,.54-.12,1.31,1.31,0,0,1,.56.12,1.27,1.27,0,0,1,.45.3,1.21,1.21,0,0,1,.31.45A1.31,1.31,0,0,1,326.59,250.86Zm-.33,2.69v9.23H324v-9.23Z"/><path class="cls-2" d="M335.26,255.5a1.88,1.88,0,0,1-.19.2.47.47,0,0,1-.28.07.6.6,0,0,1-.33-.1l-.39-.24a3.82,3.82,0,0,0-.53-.23,2.48,2.48,0,0,0-.77-.1,2.37,2.37,0,0,0-1,.21,1.87,1.87,0,0,0-.73.61,2.69,2.69,0,0,0-.44,1,5,5,0,0,0-.14,1.28,5.19,5.19,0,0,0,.15,1.31,2.91,2.91,0,0,0,.46,1,1.94,1.94,0,0,0,.72.59,2.1,2.1,0,0,0,.95.2,2.29,2.29,0,0,0,.86-.13,2.56,2.56,0,0,0,.55-.28c.16-.11.29-.2.4-.29a.56.56,0,0,1,.37-.13.44.44,0,0,1,.4.2l.64.82a4.17,4.17,0,0,1-.8.72,4.15,4.15,0,0,1-1.85.71,6.58,6.58,0,0,1-1,.08,4.13,4.13,0,0,1-1.61-.32,3.86,3.86,0,0,1-1.32-.93,4.46,4.46,0,0,1-.89-1.5,5.78,5.78,0,0,1-.33-2,6,6,0,0,1,.29-1.89,4.27,4.27,0,0,1,.86-1.5,4,4,0,0,1,1.41-1,4.77,4.77,0,0,1,1.92-.36,4.33,4.33,0,0,1,3.21,1.29Z"/><path class="cls-2" d="M345.46,262.78h-2l-3.67-9.23h1.84a.69.69,0,0,1,.41.12.55.55,0,0,1,.23.29l1.78,4.93a7.46,7.46,0,0,1,.26.85c.07.28.13.55.18.83.06-.28.12-.55.19-.83s.16-.56.26-.85l1.83-4.93a.55.55,0,0,1,.23-.29.6.6,0,0,1,.38-.12h1.76Z"/><path class="cls-2" d="M357.67,262.78h-1a1.15,1.15,0,0,1-.5-.09.62.62,0,0,1-.27-.39l-.19-.65c-.24.21-.47.39-.69.55a4.49,4.49,0,0,1-.7.4,3.21,3.21,0,0,1-.76.24,4.16,4.16,0,0,1-.9.09,3.71,3.71,0,0,1-1.08-.16,2.49,2.49,0,0,1-.86-.48,2.2,2.2,0,0,1-.55-.78,2.83,2.83,0,0,1-.2-1.09,2.11,2.11,0,0,1,.28-1,2.57,2.57,0,0,1,.91-.92,5.94,5.94,0,0,1,1.7-.68,10.94,10.94,0,0,1,2.64-.27V257a2.07,2.07,0,0,0-.39-1.38,1.43,1.43,0,0,0-1.14-.45,2.6,2.6,0,0,0-.9.13,3.71,3.71,0,0,0-.63.28l-.49.29a1,1,0,0,1-.49.12.65.65,0,0,1-.39-.12.87.87,0,0,1-.26-.28l-.4-.72a5.48,5.48,0,0,1,3.84-1.45,3.81,3.81,0,0,1,1.44.26,3,3,0,0,1,1.75,1.87,4.44,4.44,0,0,1,.23,1.44Zm-4.32-1.38a2.48,2.48,0,0,0,.63-.07,2.45,2.45,0,0,0,.54-.18,2.94,2.94,0,0,0,.5-.31,3.72,3.72,0,0,0,.48-.43v-1.54a9.09,9.09,0,0,0-1.62.12,4,4,0,0,0-1.05.31,1.42,1.42,0,0,0-.57.45,1.13,1.13,0,0,0,.18,1.39A1.51,1.51,0,0,0,353.35,261.4Z"/><path class="cls-2" d="M362.22,249.41v13.37H360V249.41Z"/><path class="cls-2" d="M366.77,253.55v5.87a2,2,0,0,0,.39,1.31,1.47,1.47,0,0,0,1.17.46,2.33,2.33,0,0,0,1.08-.26,3.68,3.68,0,0,0,1-.7v-6.68h2.22v9.23h-1.36a.54.54,0,0,1-.57-.4l-.15-.74a7.23,7.23,0,0,1-.59.53,4.37,4.37,0,0,1-.65.4,3.69,3.69,0,0,1-.75.26,4,4,0,0,1-.86.1,3.3,3.3,0,0,1-1.34-.26,2.68,2.68,0,0,1-1-.72,3.1,3.1,0,0,1-.6-1.12,4.53,4.53,0,0,1-.21-1.41v-5.87Z"/><path class="cls-2" d="M378.78,253.4a4.65,4.65,0,0,1,1.61.28,3.48,3.48,0,0,1,1.26.82,3.58,3.58,0,0,1,.83,1.31,4.92,4.92,0,0,1,.3,1.78c0,.17,0,.31,0,.42a.71.71,0,0,1-.09.26.27.27,0,0,1-.15.13.62.62,0,0,1-.25,0h-5.71a3.16,3.16,0,0,0,.76,2.09,2.39,2.39,0,0,0,1.77.67,2.86,2.86,0,0,0,.93-.13,3.31,3.31,0,0,0,.68-.28l.52-.28a.87.87,0,0,1,.42-.12.6.6,0,0,1,.24.05.8.8,0,0,1,.17.15l.65.82a4.05,4.05,0,0,1-.83.72,5.33,5.33,0,0,1-1,.47,5,5,0,0,1-1,.24,7,7,0,0,1-1,.08,5,5,0,0,1-1.79-.32,4.11,4.11,0,0,1-1.44-1,4.25,4.25,0,0,1-1-1.55,5.8,5.8,0,0,1-.35-2.13,5.2,5.2,0,0,1,.3-1.78,4.34,4.34,0,0,1,.88-1.45,4.21,4.21,0,0,1,1.39-1A4.61,4.61,0,0,1,378.78,253.4Zm.05,1.6a2,2,0,0,0-1.52.55,2.7,2.7,0,0,0-.71,1.55h4.18a2.69,2.69,0,0,0-.12-.81,1.74,1.74,0,0,0-.36-.67,1.67,1.67,0,0,0-.61-.46A2.06,2.06,0,0,0,378.83,255Z"/><path class="cls-2" d="M321,14.55v2H317.1v11h-2.42v-11h-3.93v-2Z"/><path class="cls-2" d="M324.09,30.1a.84.84,0,0,1-.26.36.79.79,0,0,1-.48.12h-1.66l1.73-3.7-3.73-8.55h1.94a.61.61,0,0,1,.41.12.86.86,0,0,1,.22.29l2,4.79a4,4,0,0,1,.17.49c.05.16.09.33.13.5.05-.17.1-.34.16-.5a5,5,0,0,1,.18-.5l1.85-4.78a.62.62,0,0,1,.24-.29.64.64,0,0,1,.38-.12h1.78Z"/><path class="cls-2" d="M330.41,30.58V18.33h1.36a.62.62,0,0,1,.37.1.46.46,0,0,1,.2.3l.18.86a4.72,4.72,0,0,1,1.28-1,3.55,3.55,0,0,1,1.7-.39A3,3,0,0,1,338,19.39a4.36,4.36,0,0,1,.7,1.47,7.27,7.27,0,0,1,.25,2,6.23,6.23,0,0,1-.28,1.92,4.64,4.64,0,0,1-.8,1.53,3.6,3.6,0,0,1-1.25,1,3.53,3.53,0,0,1-1.64.37,3.33,3.33,0,0,1-1.33-.24,3.21,3.21,0,0,1-1-.66v3.78Zm4.32-10.67a2.23,2.23,0,0,0-1.18.3,3.15,3.15,0,0,0-.91.82v4.14a2.06,2.06,0,0,0,.82.65,2.57,2.57,0,0,0,1,.19,2.24,2.24,0,0,0,.91-.19,1.78,1.78,0,0,0,.7-.58,3,3,0,0,0,.43-1,5.59,5.59,0,0,0,.16-1.39,6,6,0,0,0-.14-1.37,2.55,2.55,0,0,0-.37-.91,1.46,1.46,0,0,0-.59-.52A2,2,0,0,0,334.73,19.91Z"/><path class="cls-2" d="M344.41,18.18a4.55,4.55,0,0,1,1.6.28,3.52,3.52,0,0,1,1.27.82,3.81,3.81,0,0,1,.83,1.31,4.92,4.92,0,0,1,.29,1.78,2.56,2.56,0,0,1,0,.42.57.57,0,0,1-.08.26.29.29,0,0,1-.16.13.6.6,0,0,1-.25,0h-5.7a3.16,3.16,0,0,0,.76,2.09,2.35,2.35,0,0,0,1.76.67,3,3,0,0,0,.94-.13,3.57,3.57,0,0,0,.68-.28,5.58,5.58,0,0,0,.51-.28.9.9,0,0,1,.43-.12.52.52,0,0,1,.23,0,.55.55,0,0,1,.18.16l.64.81a3.72,3.72,0,0,1-.82.72,5.33,5.33,0,0,1-1,.47,5.24,5.24,0,0,1-1,.25,8.86,8.86,0,0,1-1,.07,5,5,0,0,1-1.79-.32,3.82,3.82,0,0,1-1.44-.95,4.4,4.4,0,0,1-1-1.55,6,6,0,0,1-.35-2.13,5,5,0,0,1,.31-1.78,4.16,4.16,0,0,1,2.27-2.43A4.61,4.61,0,0,1,344.41,18.18Zm0,1.6a2.06,2.06,0,0,0-1.52.55,2.7,2.7,0,0,0-.7,1.55h4.18a2.69,2.69,0,0,0-.12-.81,1.78,1.78,0,0,0-1-1.13A2.14,2.14,0,0,0,344.45,19.78Z"/><path class="cls-2" d="M357.63,18.18a5.16,5.16,0,0,1,1.88.34,4,4,0,0,1,1.43.94,4.21,4.21,0,0,1,.92,1.5,5.54,5.54,0,0,1,.32,2,5.64,5.64,0,0,1-.32,2,4.21,4.21,0,0,1-.92,1.5,4,4,0,0,1-1.43.95,5.37,5.37,0,0,1-3.76,0,4,4,0,0,1-1.45-.95,4.21,4.21,0,0,1-.92-1.5,5.63,5.63,0,0,1-.33-2,5.54,5.54,0,0,1,.33-2,4.21,4.21,0,0,1,.92-1.5,4,4,0,0,1,1.45-.94A5.12,5.12,0,0,1,357.63,18.18Zm0,7.81a1.93,1.93,0,0,0,1.7-.78,3.84,3.84,0,0,0,.56-2.26,3.91,3.91,0,0,0-.56-2.28,1.93,1.93,0,0,0-1.7-.78,2,2,0,0,0-1.73.78,4,4,0,0,0-.56,2.28,3.86,3.86,0,0,0,.56,2.26A2,2,0,0,0,357.63,26Z"/><path class="cls-2" d="M364.32,27.56V20l-.8-.12a.81.81,0,0,1-.42-.18.46.46,0,0,1-.16-.38v-.91h1.38v-.68a4.25,4.25,0,0,1,.23-1.43,2.9,2.9,0,0,1,1.77-1.74,4.35,4.35,0,0,1,2.63-.07l0,1.12a.34.34,0,0,1-.25.32,1.64,1.64,0,0,1-.52.07,3.08,3.08,0,0,0-.71.08,1.23,1.23,0,0,0-.52.3,1.25,1.25,0,0,0-.33.56,2.68,2.68,0,0,0-.11.86v.61h2.4V20h-2.33v7.57Z"/><path class="cls-2" d="M378.33,27.56h-2l-3.67-9.23h1.85a.71.71,0,0,1,.41.12.53.53,0,0,1,.22.29l1.79,4.93c.1.29.18.57.25.85s.13.55.19.83c0-.28.11-.55.18-.83a7.56,7.56,0,0,1,.27-.85l1.82-4.93a.6.6,0,0,1,.23-.29.65.65,0,0,1,.39-.12H382Z"/><path class="cls-2" d="M390.54,27.56h-1a1.1,1.1,0,0,1-.49-.09.63.63,0,0,1-.27-.38l-.2-.66a7.89,7.89,0,0,1-.69.55,4.07,4.07,0,0,1-.7.4,3.76,3.76,0,0,1-.76.25,4.94,4.94,0,0,1-.9.08,3.71,3.71,0,0,1-1.08-.16A2.25,2.25,0,0,1,383,26.29a2.83,2.83,0,0,1-.19-1.09,2.21,2.21,0,0,1,.27-1,2.65,2.65,0,0,1,.91-.92,6,6,0,0,1,1.71-.68,10.79,10.79,0,0,1,2.63-.27v-.55a2.07,2.07,0,0,0-.39-1.38,1.43,1.43,0,0,0-1.14-.45,2.6,2.6,0,0,0-.9.13,3.28,3.28,0,0,0-.62.28l-.49.29a1.06,1.06,0,0,1-.5.12.65.65,0,0,1-.39-.12,1,1,0,0,1-.26-.28l-.4-.71a5.45,5.45,0,0,1,3.84-1.46,3.9,3.9,0,0,1,1.45.26,3.15,3.15,0,0,1,1.07.74,3.06,3.06,0,0,1,.67,1.13,4.44,4.44,0,0,1,.23,1.44Zm-4.32-1.38a2.48,2.48,0,0,0,.63-.07,2.72,2.72,0,0,0,.55-.18,2.87,2.87,0,0,0,.49-.31,3.72,3.72,0,0,0,.48-.43V23.65a9.09,9.09,0,0,0-1.62.12,4.44,4.44,0,0,0-1.05.31,1.39,1.39,0,0,0-.56.45,1,1,0,0,0-.17.55,1,1,0,0,0,.35.84A1.48,1.48,0,0,0,386.22,26.18Z"/><path class="cls-2" d="M395.09,14.19V27.56h-2.22V14.19Z"/><path class="cls-2" d="M399.64,18.33V24.2a2,2,0,0,0,.39,1.31,1.48,1.48,0,0,0,1.18.46,2.39,2.39,0,0,0,1.08-.26,3.81,3.81,0,0,0,.95-.7V18.33h2.22v9.23H404.1a.54.54,0,0,1-.56-.4l-.16-.74a7.23,7.23,0,0,1-.59.53,3.91,3.91,0,0,1-.65.4,3.49,3.49,0,0,1-.75.26,3.9,3.9,0,0,1-.86.1,3.34,3.34,0,0,1-1.34-.26,2.68,2.68,0,0,1-1-.72,3.1,3.1,0,0,1-.6-1.12,4.49,4.49,0,0,1-.2-1.41V18.33Z"/><path class="cls-2" d="M411.66,18.18a4.59,4.59,0,0,1,1.6.28,3.61,3.61,0,0,1,1.27.82,3.65,3.65,0,0,1,.82,1.31,4.92,4.92,0,0,1,.3,1.78c0,.17,0,.31,0,.42a.73.73,0,0,1-.08.26.29.29,0,0,1-.16.13.62.62,0,0,1-.25,0h-5.71a3.16,3.16,0,0,0,.77,2.09A2.35,2.35,0,0,0,412,26a2.86,2.86,0,0,0,.93-.13,3.67,3.67,0,0,0,.69-.28l.51-.28a.9.9,0,0,1,.43-.12.44.44,0,0,1,.4.21l.65.81a3.77,3.77,0,0,1-.83.72,4.75,4.75,0,0,1-1,.47,5.14,5.14,0,0,1-1,.25,8.87,8.87,0,0,1-1,.07,5,5,0,0,1-1.79-.32,4,4,0,0,1-1.44-.95,4.25,4.25,0,0,1-1-1.55,5.8,5.8,0,0,1-.35-2.13,5.2,5.2,0,0,1,.3-1.78,4.44,4.44,0,0,1,.88-1.45,4.15,4.15,0,0,1,1.4-1A4.57,4.57,0,0,1,411.66,18.18Zm0,1.6a2,2,0,0,0-1.52.55,2.64,2.64,0,0,0-.7,1.55h4.17a3,3,0,0,0-.11-.81,1.88,1.88,0,0,0-.36-.67,1.93,1.93,0,0,0-.62-.46A2.06,2.06,0,0,0,411.7,19.78Z"/><path class="cls-1" d="M99.6,144.77v-9.24H101a.55.55,0,0,1,.57.41l.15.68a5.75,5.75,0,0,1,.5-.49,3.6,3.6,0,0,1,.57-.39,3.39,3.39,0,0,1,.65-.26,3,3,0,0,1,.76-.09,2.16,2.16,0,0,1,1.43.47,2.85,2.85,0,0,1,.85,1.26,2.63,2.63,0,0,1,.54-.79,2.84,2.84,0,0,1,.71-.54,3.36,3.36,0,0,1,.82-.3,3.71,3.71,0,0,1,.88-.1,3.84,3.84,0,0,1,1.36.23,2.72,2.72,0,0,1,1,.69,3,3,0,0,1,.61,1.09,4.87,4.87,0,0,1,.21,1.49v5.88h-2.22v-5.88a2,2,0,0,0-.39-1.33,1.42,1.42,0,0,0-1.13-.44,1.81,1.81,0,0,0-.63.11,1.51,1.51,0,0,0-.52.34,1.6,1.6,0,0,0-.34.55,2.07,2.07,0,0,0-.13.77v5.88H105v-5.88a2,2,0,0,0-.38-1.35,1.37,1.37,0,0,0-1.1-.42,1.84,1.84,0,0,0-.89.23,3,3,0,0,0-.78.66v6.76Z"/><path class="cls-1" d="M118.57,135.39a4.37,4.37,0,0,1,1.6.28,3.45,3.45,0,0,1,1.27.81,3.86,3.86,0,0,1,.83,1.32,5.09,5.09,0,0,1,.29,1.77,2.56,2.56,0,0,1,0,.42.57.57,0,0,1-.08.26.31.31,0,0,1-.16.14.6.6,0,0,1-.25,0h-5.71a3.24,3.24,0,0,0,.77,2.09,2.38,2.38,0,0,0,1.76.66,3.18,3.18,0,0,0,.93-.12,5.18,5.18,0,0,0,.69-.28l.51-.28a.82.82,0,0,1,.43-.13.41.41,0,0,1,.23.06.35.35,0,0,1,.17.15l.65.81a3.34,3.34,0,0,1-.83.72,4,4,0,0,1-1,.47,5.42,5.42,0,0,1-1,.25,7.05,7.05,0,0,1-1,.07,5,5,0,0,1-1.79-.32,4.09,4.09,0,0,1-1.44-.94,4.57,4.57,0,0,1-1-1.55,6.12,6.12,0,0,1-.35-2.14,5,5,0,0,1,.31-1.78,4.21,4.21,0,0,1,.87-1.44,4,4,0,0,1,1.4-1A4.61,4.61,0,0,1,118.57,135.39Zm0,1.59a2,2,0,0,0-1.52.55,2.76,2.76,0,0,0-.7,1.56h4.18a2.76,2.76,0,0,0-.12-.82,2,2,0,0,0-.36-.67,1.73,1.73,0,0,0-.61-.45A2.14,2.14,0,0,0,118.61,137Z"/><path class="cls-1" d="M124.37,144.77v-9.24h1.36a.55.55,0,0,1,.57.41l.14.68a4.7,4.7,0,0,1,.51-.49,3.6,3.6,0,0,1,.57-.39,3.15,3.15,0,0,1,.65-.26,3,3,0,0,1,.76-.09,2.16,2.16,0,0,1,1.43.47,2.75,2.75,0,0,1,.84,1.26,3.06,3.06,0,0,1,.54-.79,3.25,3.25,0,0,1,.71-.54,3.43,3.43,0,0,1,.83-.3,4,4,0,0,1,2.23.13,2.64,2.64,0,0,1,1,.69,3,3,0,0,1,.62,1.09,4.87,4.87,0,0,1,.21,1.49v5.88h-2.22v-5.88a2,2,0,0,0-.39-1.33,1.43,1.43,0,0,0-1.13-.44,1.91,1.91,0,0,0-.64.11,1.57,1.57,0,0,0-.51.34,1.62,1.62,0,0,0-.35.55,2.3,2.3,0,0,0-.12.77v5.88h-2.23v-5.88a2,2,0,0,0-.38-1.35,1.4,1.4,0,0,0-1.1-.42,1.88,1.88,0,0,0-.9.23,2.79,2.79,0,0,0-.77.66v6.76Z"/><path class="cls-1" d="M139.55,144.77V131.39h2.23v5.28a4.52,4.52,0,0,1,1.24-.94,3.58,3.58,0,0,1,1.62-.34,3,3,0,0,1,1.38.31,3.1,3.1,0,0,1,1.08.9,4.36,4.36,0,0,1,.7,1.47,7.17,7.17,0,0,1,.25,2,6.12,6.12,0,0,1-.28,1.91,4.62,4.62,0,0,1-.79,1.53,3.76,3.76,0,0,1-1.26,1,3.86,3.86,0,0,1-2.41.28,2.84,2.84,0,0,1-.64-.24,2.78,2.78,0,0,1-.54-.38,4.41,4.41,0,0,1-.47-.49l-.1.62a.58.58,0,0,1-.18.34.64.64,0,0,1-.36.1Zm4.33-7.65a2.23,2.23,0,0,0-1.19.29,3.31,3.31,0,0,0-.91.82v4.14a2.06,2.06,0,0,0,.82.65,2.4,2.4,0,0,0,1,.19,2.06,2.06,0,0,0,.91-.19,1.82,1.82,0,0,0,.69-.58,2.71,2.71,0,0,0,.43-1,5.21,5.21,0,0,0,.16-1.39,6.56,6.56,0,0,0-.13-1.37,2.8,2.8,0,0,0-.38-.92,1.51,1.51,0,0,0-.59-.51A1.78,1.78,0,0,0,143.88,137.12Z"/><path class="cls-1" d="M153.6,135.39a4.39,4.39,0,0,1,1.61.28,3.34,3.34,0,0,1,1.26.81,3.71,3.71,0,0,1,.83,1.32,4.86,4.86,0,0,1,.3,1.77c0,.17,0,.31,0,.42a.73.73,0,0,1-.08.26.36.36,0,0,1-.16.14.62.62,0,0,1-.25,0h-5.71a3.18,3.18,0,0,0,.77,2.09,2.38,2.38,0,0,0,1.76.66,3.18,3.18,0,0,0,.93-.12,5.8,5.8,0,0,0,.69-.28l.51-.28a.82.82,0,0,1,.43-.13.44.44,0,0,1,.23.06.4.4,0,0,1,.17.15l.65.81a3.52,3.52,0,0,1-.83.72,4.07,4.07,0,0,1-1,.47,5.07,5.07,0,0,1-1,.25,6.82,6.82,0,0,1-1,.07,5,5,0,0,1-1.79-.32,4.09,4.09,0,0,1-1.44-.94,4.42,4.42,0,0,1-1-1.55,5.89,5.89,0,0,1-.35-2.14,5.24,5.24,0,0,1,.3-1.78,4.39,4.39,0,0,1,.88-1.44,4,4,0,0,1,1.4-1A4.52,4.52,0,0,1,153.6,135.39Zm.05,1.59a2,2,0,0,0-1.52.55,2.7,2.7,0,0,0-.7,1.56h4.17a2.76,2.76,0,0,0-.12-.82,1.68,1.68,0,0,0-.36-.67,1.65,1.65,0,0,0-.61-.45A2.06,2.06,0,0,0,153.65,137Z"/><path class="cls-1" d="M159.41,144.77v-9.24h1.3a.67.67,0,0,1,.48.13.72.72,0,0,1,.18.43l.14,1.12a4.31,4.31,0,0,1,1.16-1.35,2.43,2.43,0,0,1,1.49-.5,1.91,1.91,0,0,1,1.13.32l-.28,1.66a.34.34,0,0,1-.12.23.36.36,0,0,1-.24.07,1.55,1.55,0,0,1-.37-.06,2.12,2.12,0,0,0-.62-.07,1.85,1.85,0,0,0-1.19.39,2.87,2.87,0,0,0-.84,1.12v5.75Z"/><path class="cls-1" d="M168,143.1h2.64v-7.59c0-.29,0-.6,0-.92l-1.87,1.56a.75.75,0,0,1-.24.14,1,1,0,0,1-.24,0,.72.72,0,0,1-.33-.07.58.58,0,0,1-.22-.18l-.7-1,4-3.38h1.82V143.1h2.34v1.67H168Z"/><path class="cls-1" d="M99.6,171.77v-9.24H101a.55.55,0,0,1,.57.41l.15.68a5.75,5.75,0,0,1,.5-.49,3.6,3.6,0,0,1,.57-.39,3.39,3.39,0,0,1,.65-.26,3,3,0,0,1,.76-.09,2.16,2.16,0,0,1,1.43.47,2.85,2.85,0,0,1,.85,1.26,2.63,2.63,0,0,1,.54-.79,2.84,2.84,0,0,1,.71-.54,3.36,3.36,0,0,1,.82-.3,3.71,3.71,0,0,1,.88-.1,3.84,3.84,0,0,1,1.36.23,2.72,2.72,0,0,1,1,.69,2.93,2.93,0,0,1,.61,1.1,4.76,4.76,0,0,1,.21,1.48v5.88h-2.22v-5.88a2,2,0,0,0-.39-1.33,1.42,1.42,0,0,0-1.13-.44,1.81,1.81,0,0,0-.63.11,1.51,1.51,0,0,0-.52.34,1.6,1.6,0,0,0-.34.55,2.07,2.07,0,0,0-.13.77v5.88H105v-5.88a2,2,0,0,0-.38-1.35,1.37,1.37,0,0,0-1.1-.42,1.75,1.75,0,0,0-.89.24,2.76,2.76,0,0,0-.78.65v6.76Z"/><path class="cls-1" d="M118.57,162.39a4.37,4.37,0,0,1,1.6.28,3.45,3.45,0,0,1,1.27.81,3.86,3.86,0,0,1,.83,1.32,5.13,5.13,0,0,1,.29,1.77,2.56,2.56,0,0,1,0,.42.57.57,0,0,1-.08.26.31.31,0,0,1-.16.14.6.6,0,0,1-.25,0h-5.71a3.24,3.24,0,0,0,.77,2.09,2.38,2.38,0,0,0,1.76.66,3.18,3.18,0,0,0,.93-.12,5.18,5.18,0,0,0,.69-.28l.51-.28a.92.92,0,0,1,.43-.13.41.41,0,0,1,.23.06.35.35,0,0,1,.17.15l.65.81a3.34,3.34,0,0,1-.83.72,4,4,0,0,1-1,.47,5.42,5.42,0,0,1-1,.25,7.05,7.05,0,0,1-1,.07,5,5,0,0,1-1.79-.32,4.09,4.09,0,0,1-1.44-.94,4.57,4.57,0,0,1-1-1.55,6.12,6.12,0,0,1-.35-2.14,5,5,0,0,1,.31-1.78,4.21,4.21,0,0,1,.87-1.44,4,4,0,0,1,1.4-1A4.61,4.61,0,0,1,118.57,162.39Zm0,1.59a2.08,2.08,0,0,0-1.52.55,2.76,2.76,0,0,0-.7,1.56h4.18a2.76,2.76,0,0,0-.12-.82,2,2,0,0,0-.36-.67,1.73,1.73,0,0,0-.61-.45A2.14,2.14,0,0,0,118.61,164Z"/><path class="cls-1" d="M124.37,171.77v-9.24h1.36a.55.55,0,0,1,.57.41l.14.68a4.7,4.7,0,0,1,.51-.49,3.6,3.6,0,0,1,.57-.39,3.15,3.15,0,0,1,.65-.26,3,3,0,0,1,.76-.09,2.16,2.16,0,0,1,1.43.47,2.75,2.75,0,0,1,.84,1.26,3.06,3.06,0,0,1,.54-.79,3.25,3.25,0,0,1,.71-.54,3.43,3.43,0,0,1,.83-.3,4,4,0,0,1,2.23.13,2.64,2.64,0,0,1,1,.69,3,3,0,0,1,.62,1.1,4.76,4.76,0,0,1,.21,1.48v5.88h-2.22v-5.88a2,2,0,0,0-.39-1.33,1.43,1.43,0,0,0-1.13-.44,1.91,1.91,0,0,0-.64.11,1.57,1.57,0,0,0-.51.34,1.62,1.62,0,0,0-.35.55,2.3,2.3,0,0,0-.12.77v5.88h-2.23v-5.88a2,2,0,0,0-.38-1.35,1.4,1.4,0,0,0-1.1-.42,1.78,1.78,0,0,0-.9.24,2.59,2.59,0,0,0-.77.65v6.76Z"/><path class="cls-1" d="M139.55,171.77V158.39h2.23v5.28a4.29,4.29,0,0,1,1.24-.93,3.45,3.45,0,0,1,1.62-.35,3,3,0,0,1,1.38.31,3.1,3.1,0,0,1,1.08.9,4.36,4.36,0,0,1,.7,1.47,7.17,7.17,0,0,1,.25,2,6.23,6.23,0,0,1-.28,1.92,4.67,4.67,0,0,1-.79,1.52,3.76,3.76,0,0,1-1.26,1,3.86,3.86,0,0,1-2.41.28,2.84,2.84,0,0,1-.64-.24,2.78,2.78,0,0,1-.54-.38,4.41,4.41,0,0,1-.47-.49l-.1.62a.58.58,0,0,1-.18.34.64.64,0,0,1-.36.1Zm4.33-7.65a2.23,2.23,0,0,0-1.19.29,3.31,3.31,0,0,0-.91.82v4.14a2.18,2.18,0,0,0,.82.66,2.58,2.58,0,0,0,1,.18,2.06,2.06,0,0,0,.91-.19,1.89,1.89,0,0,0,.69-.57,2.85,2.85,0,0,0,.43-1,5.21,5.21,0,0,0,.16-1.39,6.56,6.56,0,0,0-.13-1.37,2.8,2.8,0,0,0-.38-.92,1.51,1.51,0,0,0-.59-.51A1.78,1.78,0,0,0,143.88,164.12Z"/><path class="cls-1" d="M153.6,162.39a4.39,4.39,0,0,1,1.61.28,3.34,3.34,0,0,1,1.26.81,3.71,3.71,0,0,1,.83,1.32,4.9,4.9,0,0,1,.3,1.77c0,.17,0,.31,0,.42a.73.73,0,0,1-.08.26.36.36,0,0,1-.16.14.62.62,0,0,1-.25,0h-5.71a3.18,3.18,0,0,0,.77,2.09,2.38,2.38,0,0,0,1.76.66,3.18,3.18,0,0,0,.93-.12,5.8,5.8,0,0,0,.69-.28l.51-.28a.92.92,0,0,1,.43-.13.44.44,0,0,1,.23.06.4.4,0,0,1,.17.15l.65.81a3.52,3.52,0,0,1-.83.72,4.07,4.07,0,0,1-1,.47,5.07,5.07,0,0,1-1,.25,6.82,6.82,0,0,1-1,.07,5,5,0,0,1-1.79-.32,4.09,4.09,0,0,1-1.44-.94,4.42,4.42,0,0,1-1-1.55,5.89,5.89,0,0,1-.35-2.14,5.24,5.24,0,0,1,.3-1.78,4.39,4.39,0,0,1,.88-1.44,4,4,0,0,1,1.4-1A4.52,4.52,0,0,1,153.6,162.39Zm.05,1.59a2.07,2.07,0,0,0-1.52.55,2.7,2.7,0,0,0-.7,1.56h4.17a2.76,2.76,0,0,0-.12-.82,1.68,1.68,0,0,0-.36-.67,1.65,1.65,0,0,0-.61-.45A2.06,2.06,0,0,0,153.65,164Z"/><path class="cls-1" d="M159.41,171.77v-9.24h1.3a.73.73,0,0,1,.48.13.72.72,0,0,1,.18.43l.14,1.12a4.31,4.31,0,0,1,1.16-1.35,2.43,2.43,0,0,1,1.49-.5,1.91,1.91,0,0,1,1.13.32l-.28,1.66a.34.34,0,0,1-.12.23.36.36,0,0,1-.24.07,1.55,1.55,0,0,1-.37-.06,2.12,2.12,0,0,0-.62-.07,1.85,1.85,0,0,0-1.19.39,2.87,2.87,0,0,0-.84,1.12v5.75Z"/><path class="cls-1" d="M175.56,165.26a10.85,10.85,0,0,1-.36,3,6,6,0,0,1-1,2.07,4.11,4.11,0,0,1-1.52,1.22,4.48,4.48,0,0,1-1.89.4,4.42,4.42,0,0,1-1.89-.4,4.08,4.08,0,0,1-1.51-1.22,6.14,6.14,0,0,1-1-2.07,12.35,12.35,0,0,1,0-5.92,6.05,6.05,0,0,1,1-2.07,4.08,4.08,0,0,1,1.51-1.22,4.42,4.42,0,0,1,1.89-.4,4.48,4.48,0,0,1,1.89.4,4.11,4.11,0,0,1,1.52,1.22,5.88,5.88,0,0,1,1,2.07A10.75,10.75,0,0,1,175.56,165.26Zm-2.29,0a10.88,10.88,0,0,0-.21-2.34,4.83,4.83,0,0,0-.55-1.48,2.09,2.09,0,0,0-.8-.77,2.08,2.08,0,0,0-1.86,0,2,2,0,0,0-.78.77,4.83,4.83,0,0,0-.55,1.48,13.79,13.79,0,0,0,0,4.68,4.83,4.83,0,0,0,.55,1.48,2,2,0,0,0,.78.77,2.08,2.08,0,0,0,1.86,0,2.09,2.09,0,0,0,.8-.77,4.83,4.83,0,0,0,.55-1.48A10.88,10.88,0,0,0,173.27,165.26Z"/><path class="cls-1" d="M279.86,131.75v1a2.18,2.18,0,0,1-.09.69,3.39,3.39,0,0,1-.19.45L274.66,144a1.49,1.49,0,0,1-.43.54,1.25,1.25,0,0,1-.76.22h-1.61l5-10a5.32,5.32,0,0,1,.7-1h-6.22a.53.53,0,0,1-.52-.51v-1.51Z"/><path class="cls-1" d="M285.86,131.61a5,5,0,0,1,1.64.26,3.63,3.63,0,0,1,1.28.76,3.28,3.28,0,0,1,.83,1.17,3.72,3.72,0,0,1,.3,1.52,4.08,4.08,0,0,1-.21,1.33,5.75,5.75,0,0,1-.57,1.17,9.15,9.15,0,0,1-.83,1.08c-.32.35-.66.7-1,1.06l-2.94,3a6.94,6.94,0,0,1,.85-.2,5.46,5.46,0,0,1,.79-.06h3.34a.76.76,0,0,1,.57.2.69.69,0,0,1,.21.53v1.34h-8.93V144a1.37,1.37,0,0,1,.1-.47,1.27,1.27,0,0,1,.3-.45l4-4c.33-.34.63-.66.89-1a6.19,6.19,0,0,0,.65-.91,4.06,4.06,0,0,0,.41-.91,3.52,3.52,0,0,0,.14-1,2.63,2.63,0,0,0-.13-.83,1.74,1.74,0,0,0-.39-.59,1.55,1.55,0,0,0-.6-.37,2.37,2.37,0,0,0-.78-.12,2.1,2.1,0,0,0-1.32.41,2.16,2.16,0,0,0-.72,1.08,1,1,0,0,1-.3.5.87.87,0,0,1-.5.14l-.3,0-1.17-.21a4.79,4.79,0,0,1,.52-1.64,3.89,3.89,0,0,1,1-1.18,4,4,0,0,1,1.33-.71A5.29,5.29,0,0,1,285.86,131.61Z"/><path class="cls-1" d="M296.1,144.91a5.92,5.92,0,0,1-1.84-.27,4.25,4.25,0,0,1-1.43-.76,3.5,3.5,0,0,1-.92-1.2,3.65,3.65,0,0,1-.33-1.57,3.28,3.28,0,0,1,.57-2,3.34,3.34,0,0,1,1.76-1.18,3.08,3.08,0,0,1-1.43-1.12,3.44,3.44,0,0,1-.17-3.14,3.36,3.36,0,0,1,.85-1.11,4.07,4.07,0,0,1,1.29-.74,5.37,5.37,0,0,1,3.3,0,4.07,4.07,0,0,1,1.29.74,3.47,3.47,0,0,1,.84,1.11,3.23,3.23,0,0,1,.3,1.38,3.15,3.15,0,0,1-.47,1.76,3.05,3.05,0,0,1-1.42,1.12,3.38,3.38,0,0,1,1.76,1.18,3.28,3.28,0,0,1,.57,2,3.65,3.65,0,0,1-.33,1.57,3.5,3.5,0,0,1-.92,1.2,4.34,4.34,0,0,1-1.43.76A6,6,0,0,1,296.1,144.91Zm0-1.74a2.8,2.8,0,0,0,1-.15,2,2,0,0,0,.7-.44,1.88,1.88,0,0,0,.43-.67,2.45,2.45,0,0,0,.14-.83,2.1,2.1,0,0,0-.59-1.62,2.72,2.72,0,0,0-3.28,0,2.07,2.07,0,0,0-.59,1.62,2.23,2.23,0,0,0,.14.83,1.88,1.88,0,0,0,.43.67,2,2,0,0,0,.69.44A2.86,2.86,0,0,0,296.1,143.17Zm0-6A2.24,2.24,0,0,0,297,137a1.57,1.57,0,0,0,.59-.45,1.72,1.72,0,0,0,.32-.65,3.15,3.15,0,0,0,.1-.75,2.12,2.12,0,0,0-.12-.71,1.8,1.8,0,0,0-.35-.58,1.6,1.6,0,0,0-.6-.41,2,2,0,0,0-.85-.16,2.06,2.06,0,0,0-.86.16,1.6,1.6,0,0,0-.6.41,1.8,1.8,0,0,0-.35.58,2.4,2.4,0,0,0-.11.71,2.71,2.71,0,0,0,.1.75,1.86,1.86,0,0,0,.31.65,1.61,1.61,0,0,0,.6.45A2.24,2.24,0,0,0,296.1,137.16Z"/><path class="cls-1" d="M274.77,166.57a3.75,3.75,0,0,1-1.32-.23,3.3,3.3,0,0,1-1.16-.71,3.47,3.47,0,0,1-.82-1.17,4.09,4.09,0,0,1-.3-1.63,4.13,4.13,0,0,1,2.64-3.89,4.78,4.78,0,0,1,1.81-.33,4.84,4.84,0,0,1,1.79.31,4,4,0,0,1,1.36.89,3.81,3.81,0,0,1,.86,1.36,4.8,4.8,0,0,1,.3,1.73,6,6,0,0,1-.1,1.14,5.69,5.69,0,0,1-.3,1,6.23,6.23,0,0,1-.46,1c-.18.31-.38.63-.6.95l-3,4.24a1.09,1.09,0,0,1-.46.37,1.51,1.51,0,0,1-.68.15H272.3l4-5.05c.11-.13.2-.25.29-.37l.26-.36a3.69,3.69,0,0,1-1,.44A4.6,4.6,0,0,1,274.77,166.57Zm3-3.89a2.56,2.56,0,0,0-.16-1,1.94,1.94,0,0,0-.46-.71,2,2,0,0,0-.71-.44,2.56,2.56,0,0,0-.89-.15,2.38,2.38,0,0,0-.91.16,2,2,0,0,0-.69.47,2.09,2.09,0,0,0-.44.7,2.62,2.62,0,0,0-.15.9,2.3,2.3,0,0,0,.56,1.66,2.16,2.16,0,0,0,1.6.57,2.61,2.61,0,0,0,1-.17,2,2,0,0,0,.71-.47,2,2,0,0,0,.43-.7A2.49,2.49,0,0,0,277.8,162.68Z"/><path class="cls-1" d="M285.66,171.91a5.92,5.92,0,0,1-1.84-.27,4.25,4.25,0,0,1-1.43-.76,3.5,3.5,0,0,1-.92-1.2,3.65,3.65,0,0,1-.33-1.57,3.28,3.28,0,0,1,.57-2,3.34,3.34,0,0,1,1.76-1.18,3.08,3.08,0,0,1-1.43-1.12,3.44,3.44,0,0,1-.17-3.14,3.66,3.66,0,0,1,.85-1.11,4.07,4.07,0,0,1,1.29-.74,5.37,5.37,0,0,1,3.3,0,4.07,4.07,0,0,1,1.29.74,3.47,3.47,0,0,1,.84,1.11,3.24,3.24,0,0,1,.31,1.38,3.13,3.13,0,0,1-.48,1.76,3.05,3.05,0,0,1-1.42,1.12,3.38,3.38,0,0,1,1.76,1.18,3.28,3.28,0,0,1,.57,2,3.65,3.65,0,0,1-.33,1.57,3.5,3.5,0,0,1-.92,1.2,4.34,4.34,0,0,1-1.43.76A6,6,0,0,1,285.66,171.91Zm0-1.74a2.8,2.8,0,0,0,1-.15,2,2,0,0,0,.7-.44,1.88,1.88,0,0,0,.43-.67,2.45,2.45,0,0,0,.14-.83,2.1,2.1,0,0,0-.59-1.62,2.72,2.72,0,0,0-3.28,0,2.07,2.07,0,0,0-.59,1.62,2.23,2.23,0,0,0,.14.83,1.88,1.88,0,0,0,.43.67,2,2,0,0,0,.7.44A2.76,2.76,0,0,0,285.66,170.17Zm0-6a2.24,2.24,0,0,0,.91-.17,1.57,1.57,0,0,0,.59-.45,1.72,1.72,0,0,0,.32-.65,3.15,3.15,0,0,0,.1-.75,2.12,2.12,0,0,0-.12-.71,1.8,1.8,0,0,0-.35-.58,1.6,1.6,0,0,0-.6-.41,2,2,0,0,0-.85-.16,2.06,2.06,0,0,0-.86.16,1.49,1.49,0,0,0-.59.41,1.66,1.66,0,0,0-.36.58,2.4,2.4,0,0,0-.11.71,2.71,2.71,0,0,0,.1.75,1.72,1.72,0,0,0,.32.65,1.5,1.5,0,0,0,.59.45A2.24,2.24,0,0,0,285.66,164.16Z"/><path class="cls-1" d="M296.3,158.61a5,5,0,0,1,1.64.26,3.63,3.63,0,0,1,1.28.76,3.28,3.28,0,0,1,.83,1.17,3.72,3.72,0,0,1,.3,1.52,3.83,3.83,0,0,1-.22,1.33,5.72,5.72,0,0,1-.56,1.17,9.15,9.15,0,0,1-.83,1.08c-.32.35-.66.7-1,1.06l-2.94,3a6.94,6.94,0,0,1,.85-.2,5.46,5.46,0,0,1,.79-.06h3.34a.76.76,0,0,1,.57.2.69.69,0,0,1,.21.53v1.34h-8.93V171a1.37,1.37,0,0,1,.1-.47,1.27,1.27,0,0,1,.3-.45l4-4c.33-.34.63-.66.89-1a6.19,6.19,0,0,0,.65-.91,4.06,4.06,0,0,0,.41-.91,3.52,3.52,0,0,0,.14-1,2.27,2.27,0,0,0-.14-.82,1.67,1.67,0,0,0-.38-.6,1.55,1.55,0,0,0-.6-.37,2.37,2.37,0,0,0-.78-.12,2,2,0,0,0-2,1.49,1,1,0,0,1-.3.5.87.87,0,0,1-.5.14l-.3,0-1.17-.21a4.79,4.79,0,0,1,.52-1.64,3.89,3.89,0,0,1,1-1.18,4,4,0,0,1,1.33-.71A5.29,5.29,0,0,1,296.3,158.61Z"/><path class="cls-2" d="M130.21,70.53c-1-7.52-4.64-11.85-11.63-13.64C105,53.4,107.07,38.9,107.1,38.75l2,.31c-.08.52-1.83,12.86,10,15.89,7.77,2,12.06,7,13.12,15.33Z"/><polygon class="cls-2" points="128.24 68.63 131.49 78.91 133.82 68.39 128.24 68.63"/><path class="cls-2" d="M109.28,220.1c0-.14-2.14-14.64,11.48-18.14,7-1.79,10.68-6.12,11.63-13.64l2,.25c-1.06,8.32-5.35,13.34-13.12,15.33-5,1.28-8.17,4.32-9.5,9a18.23,18.23,0,0,0-.51,6.84Z"/><polygon class="cls-2" points="136 190.47 133.67 179.95 130.42 190.22 136 190.47"/><path class="cls-2" d="M336.91,70.45l-2-.1c.27-5.45,2-13,14.16-15.41,14.71-2.95,13.37-15.67,13.31-16.21l2-.24c.64,5.2-1.65,15.76-14.9,18.41C338.83,59,337.17,65.26,336.91,70.45Z"/><polygon class="cls-2" points="333.17 68.54 336.1 78.91 338.75 68.46 333.17 68.54"/><path class="cls-2" d="M320.46,219.67l-2-.25c.06-.54,1.4-13.26-13.31-16.21-12.12-2.43-13.89-10-14.16-15.41l2-.1c.26,5.19,1.92,11.42,12.55,13.55C318.81,203.9,321.1,214.46,320.46,219.67Z"/><polygon class="cls-2" points="294.85 189.69 292.2 179.25 289.27 189.61 294.85 189.69"/><rect class="cls-1" x="70.54" y="111.07" width="307.27" height="3"/><rect class="cls-1" x="222.25" y="113.12" width="3" height="6.85"/><rect class="cls-1" x="222.25" y="125.57" width="3" height="6.85"/><rect class="cls-1" x="222.25" y="138.03" width="3" height="6.85"/><rect class="cls-1" x="222.25" y="150.48" width="3" height="6.85"/><rect class="cls-1" x="222.25" y="162.93" width="3" height="6.85"/><rect class="cls-1" x="222.25" y="175.39" width="3" height="6.85"/><rect class="cls-1" x="222.25" y="187.84" width="3" height="6.85"/></svg>